<svg id="_1" data-name="1" xmlns="http://www.w3.org/2000/svg" xmlns:xlink="http://www.w3.org/1999/xlink" viewBox="0 0 566.93 566.93"><defs><style>.cls-1,.cls-13{fill:none;}.cls-2{fill:#1d1d1b;}.cls-3{fill:#eb9899;}.cls-4{fill:#6e7891;}.cls-5{fill:#98a1b7;}.cls-6{fill:#b79291;}.cls-7{fill:url(#RBDots);}.cls-8{fill:url(#RBDots-3);}.cls-9{fill:#f4ce6f;}.cls-10{fill:url(#_10_dpi_10_);}.cls-11{fill:#bca061;}.cls-12{fill:#161616;}.cls-13{stroke:#000;stroke-miterlimit:10;stroke-width:0.75px;}</style><pattern id="RBDots" data-name="RBDots" width="28.8" height="28.8" patternTransform="translate(-24.19 -16.85) rotate(-14.46)" patternUnits="userSpaceOnUse" viewBox="0 0 28.8 28.8"><rect class="cls-1" width="28.8" height="28.8"/><circle class="cls-2" cx="28.8" cy="28.8" r="0.72"/><path class="cls-2" d="M14.4,29.52a.72.72,0,1,0-.72-.72A.72.72,0,0,0,14.4,29.52Z"/><path class="cls-2" d="M28.8,15.12a.72.72,0,1,0-.72-.72A.72.72,0,0,0,28.8,15.12Z"/><path class="cls-2" d="M14.4,15.12a.72.72,0,1,0-.72-.72A.72.72,0,0,0,14.4,15.12Z"/><path class="cls-2" d="M7.2,22.32a.72.72,0,1,0-.72-.72A.72.72,0,0,0,7.2,22.32Z"/><path class="cls-2" d="M21.6,22.32a.72.72,0,1,0-.72-.72A.72.72,0,0,0,21.6,22.32Z"/><path class="cls-2" d="M14.4,22.32a.72.72,0,1,0-.72-.72A.72.72,0,0,0,14.4,22.32Z"/><path class="cls-2" d="M7.2,29.52a.72.72,0,1,0-.72-.72A.72.72,0,0,0,7.2,29.52Z"/><path class="cls-2" d="M21.82,29.52a.72.72,0,1,0-.72-.72A.72.72,0,0,0,21.82,29.52Z"/><path class="cls-2" d="M7.2,7.92a.72.72,0,1,0-.72-.72A.72.72,0,0,0,7.2,7.92Z"/><path class="cls-2" d="M7.2,15.12a.72.72,0,1,0-.72-.72A.72.72,0,0,0,7.2,15.12Z"/><path class="cls-2" d="M21.6,15.12a.72.72,0,1,0-.72-.72A.72.72,0,0,0,21.6,15.12Z"/><path class="cls-2" d="M14.4,7.92a.72.72,0,1,0-.72-.72A.72.72,0,0,0,14.4,7.92Z"/><path class="cls-2" d="M28.8,7.92a.72.72,0,1,0-.72-.72A.72.72,0,0,0,28.8,7.92Z"/><path class="cls-2" d="M21.6,7.92a.72.72,0,1,0-.72-.72A.72.72,0,0,0,21.6,7.92Z"/><path class="cls-2" d="M28.8,22.32a.72.72,0,1,0-.72-.72A.72.72,0,0,0,28.8,22.32Z"/><circle class="cls-2" cy="28.8" r="0.72"/><path class="cls-2" d="M0,15.12a.72.72,0,0,0,0-1.44.72.72,0,0,0-.72.72A.72.72,0,0,0,0,15.12Z"/><path class="cls-2" d="M0,7.92A.72.72,0,0,0,0,6.48a.72.72,0,0,0-.72.72A.72.72,0,0,0,0,7.92Z"/><path class="cls-2" d="M0,22.32a.72.72,0,0,0,0-1.44.72.72,0,0,0-.72.72A.72.72,0,0,0,0,22.32Z"/><circle class="cls-2" cx="28.8" r="0.72"/><path class="cls-2" d="M14.4.72A.72.72,0,0,0,15.12,0a.72.72,0,0,0-.72-.72.72.72,0,0,0-.72.72A.72.72,0,0,0,14.4.72Z"/><path class="cls-2" d="M7.2.72A.72.72,0,0,0,7.92,0,.72.72,0,0,0,7.2-.72.72.72,0,0,0,6.48,0,.72.72,0,0,0,7.2.72Z"/><path class="cls-2" d="M21.82.72A.72.72,0,0,0,22.54,0a.72.72,0,0,0-.72-.72A.72.72,0,0,0,21.1,0,.72.72,0,0,0,21.82.72Z"/><circle class="cls-2" r="0.72"/></pattern><pattern id="RBDots-3" data-name="RBDots" width="28.8" height="28.8" patternTransform="translate(-35.09 -8.95) rotate(18.91)" patternUnits="userSpaceOnUse" viewBox="0 0 28.8 28.8"><rect class="cls-1" width="28.8" height="28.8"/><circle class="cls-2" cx="28.8" cy="28.8" r="0.72"/><path class="cls-2" d="M14.4,29.52a.72.72,0,1,0-.72-.72A.72.72,0,0,0,14.4,29.52Z"/><path class="cls-2" d="M28.8,15.12a.72.72,0,1,0-.72-.72A.72.72,0,0,0,28.8,15.12Z"/><path class="cls-2" d="M14.4,15.12a.72.72,0,1,0-.72-.72A.72.72,0,0,0,14.4,15.12Z"/><path class="cls-2" d="M7.2,22.32a.72.72,0,1,0-.72-.72A.72.72,0,0,0,7.2,22.32Z"/><path class="cls-2" d="M21.6,22.32a.72.72,0,1,0-.72-.72A.72.72,0,0,0,21.6,22.32Z"/><path class="cls-2" d="M14.4,22.32a.72.72,0,1,0-.72-.72A.72.72,0,0,0,14.4,22.32Z"/><path class="cls-2" d="M7.2,29.52a.72.72,0,1,0-.72-.72A.72.72,0,0,0,7.2,29.52Z"/><path class="cls-2" d="M21.82,29.52a.72.72,0,1,0-.72-.72A.72.72,0,0,0,21.82,29.52Z"/><path class="cls-2" d="M7.2,7.92a.72.72,0,1,0-.72-.72A.72.72,0,0,0,7.2,7.92Z"/><path class="cls-2" d="M7.2,15.12a.72.72,0,1,0-.72-.72A.72.72,0,0,0,7.2,15.12Z"/><path class="cls-2" d="M21.6,15.12a.72.72,0,1,0-.72-.72A.72.72,0,0,0,21.6,15.12Z"/><path class="cls-2" d="M14.4,7.92a.72.72,0,1,0-.72-.72A.72.72,0,0,0,14.4,7.92Z"/><path class="cls-2" d="M28.8,7.92a.72.72,0,1,0-.72-.72A.72.72,0,0,0,28.8,7.92Z"/><path class="cls-2" d="M21.6,7.92a.72.72,0,1,0-.72-.72A.72.72,0,0,0,21.6,7.92Z"/><path class="cls-2" d="M28.8,22.32a.72.72,0,1,0-.72-.72A.72.72,0,0,0,28.8,22.32Z"/><circle class="cls-2" cy="28.8" r="0.72"/><path class="cls-2" d="M0,15.12a.72.72,0,0,0,0-1.44.72.72,0,0,0-.72.72A.72.72,0,0,0,0,15.12Z"/><path class="cls-2" d="M0,7.92A.72.72,0,0,0,0,6.48a.72.72,0,0,0-.72.72A.72.72,0,0,0,0,7.92Z"/><path class="cls-2" d="M0,22.32a.72.72,0,0,0,0-1.44.72.72,0,0,0-.72.72A.72.72,0,0,0,0,22.32Z"/><circle class="cls-2" cx="28.8" r="0.72"/><path class="cls-2" d="M14.4.72A.72.72,0,0,0,15.12,0a.72.72,0,0,0-.72-.72.72.72,0,0,0-.72.72A.72.72,0,0,0,14.4.72Z"/><path class="cls-2" d="M7.2.72A.72.72,0,0,0,7.92,0,.72.72,0,0,0,7.2-.72.72.72,0,0,0,6.48,0,.72.72,0,0,0,7.2.72Z"/><path class="cls-2" d="M21.82.72A.72.72,0,0,0,22.54,0a.72.72,0,0,0-.72-.72A.72.72,0,0,0,21.1,0,.72.72,0,0,0,21.82.72Z"/><circle class="cls-2" r="0.72"/></pattern><pattern id="_10_dpi_10_" data-name="10 dpi 10%" width="28.8" height="28.8" patternTransform="translate(23.34 7.06) rotate(9.14) scale(0.56)" patternUnits="userSpaceOnUse" viewBox="0 0 28.8 28.8"><rect class="cls-1" width="28.8" height="28.8"/><circle class="cls-2" cx="28.8" cy="28.8" r="0.72"/><path class="cls-2" d="M14.4,29.52a.72.72,0,1,0-.72-.72A.72.72,0,0,0,14.4,29.52Z"/><path class="cls-2" d="M28.8,15.12a.72.72,0,1,0-.72-.72A.72.72,0,0,0,28.8,15.12Z"/><path class="cls-2" d="M14.4,15.12a.72.72,0,1,0-.72-.72A.72.72,0,0,0,14.4,15.12Z"/><path class="cls-2" d="M7.2,22.32a.72.72,0,1,0-.72-.72A.72.72,0,0,0,7.2,22.32Z"/><path class="cls-2" d="M21.6,22.32a.72.72,0,1,0-.72-.72A.72.72,0,0,0,21.6,22.32Z"/><path class="cls-2" d="M14.4,22.32a.72.72,0,1,0-.72-.72A.72.72,0,0,0,14.4,22.32Z"/><path class="cls-2" d="M7.2,29.52a.72.72,0,1,0-.72-.72A.72.72,0,0,0,7.2,29.52Z"/><path class="cls-2" d="M21.82,29.52a.72.72,0,1,0-.72-.72A.72.72,0,0,0,21.82,29.52Z"/><path class="cls-2" d="M7.2,7.92a.72.72,0,1,0-.72-.72A.72.72,0,0,0,7.2,7.92Z"/><path class="cls-2" d="M7.2,15.12a.72.72,0,1,0-.72-.72A.72.72,0,0,0,7.2,15.12Z"/><path class="cls-2" d="M21.6,15.12a.72.72,0,1,0-.72-.72A.72.72,0,0,0,21.6,15.12Z"/><path class="cls-2" d="M14.4,7.92a.72.72,0,1,0-.72-.72A.72.72,0,0,0,14.4,7.92Z"/><path class="cls-2" d="M28.8,7.92a.72.72,0,1,0-.72-.72A.72.72,0,0,0,28.8,7.92Z"/><path class="cls-2" d="M21.6,7.92a.72.72,0,1,0-.72-.72A.72.72,0,0,0,21.6,7.92Z"/><path class="cls-2" d="M28.8,22.32a.72.72,0,1,0-.72-.72A.72.72,0,0,0,28.8,22.32Z"/><circle class="cls-2" cy="28.8" r="0.72"/><path class="cls-2" d="M0,15.12a.72.72,0,0,0,0-1.44.72.72,0,0,0-.72.72A.72.72,0,0,0,0,15.12Z"/><path class="cls-2" d="M0,7.92A.72.72,0,0,0,0,6.48a.72.72,0,0,0-.72.72A.72.72,0,0,0,0,7.92Z"/><path class="cls-2" d="M0,22.32a.72.72,0,0,0,0-1.44.72.72,0,0,0-.72.72A.72.72,0,0,0,0,22.32Z"/><circle class="cls-2" cx="28.8" r="0.72"/><path class="cls-2" d="M14.4.72A.72.72,0,0,0,15.12,0a.72.72,0,0,0-.72-.72.72.72,0,0,0-.72.72A.72.72,0,0,0,14.4.72Z"/><path class="cls-2" d="M7.2.72A.72.72,0,0,0,7.92,0,.72.72,0,0,0,7.2-.72.72.72,0,0,0,6.48,0,.72.72,0,0,0,7.2.72Z"/><path class="cls-2" d="M21.82.72A.72.72,0,0,0,22.54,0a.72.72,0,0,0-.72-.72A.72.72,0,0,0,21.1,0,.72.72,0,0,0,21.82.72Z"/><circle class="cls-2" r="0.72"/></pattern></defs><title>images</title><g id="Back"><rect class="cls-3" width="566.93" height="566.93"/><g id="Rock"><path class="cls-4" d="M481.47,434.91c26.73,0,26-5.68,21.74-11.4-6.48-8.62-23.73-6.61-31.37-4-10.72,3.69-6,15.39,9.63,15.39"/><path class="cls-5" d="M466.8,423.16s3.35-4.6,12.35-5.18,15.71-.7,19.92,2,4.53,4.07,4.53,4.07-1.06,3.55-2.26,4.44a15.76,15.76,0,0,1-7.53,2.18,43.31,43.31,0,0,0-8.42.22c-1.74.41-8.91-.4-10.52-1a35.69,35.69,0,0,1-7.26-4.9,4.38,4.38,0,0,1-.81-1.9"/><path class="cls-2" d="M481.47,435.41c-9.89,0-15.14-4.46-15.83-8.6-.57-3.36,1.69-6.26,6-7.76,7.17-2.46,25.17-4.84,31.93,4.15,1.53,2,3.13,4.67,1.95,7-1.76,3.55-9.42,5.2-24.09,5.2m4.9-17.64A47.56,47.56,0,0,0,472,420c-3.85,1.32-5.86,3.8-5.39,6.64.65,3.86,5.95,7.77,14.85,7.77,13.85,0,21.66-1.56,23.2-4.64.71-1.43.12-3.33-1.86-6-3.44-4.57-10-6-16.44-6"/><path class="cls-2" d="M482.43,431.69c-6.45,0-12.5-3-15-6.28a4.9,4.9,0,0,1-1-2.28l.36.11a9.61,9.61,0,0,0,3.94,4.09c3.77,2.24,10,3.71,14.05,3.22,2.22-.26,4.41-.3,6.52-.34,4.3-.08,8-.14,9.8-2.22a16.16,16.16,0,0,0,2.45-3.65s.3,0,.27.16a12.48,12.48,0,0,1-2,4.14c-2.07,2.42-6,2.49-10.55,2.57a63.88,63.88,0,0,0-6.41.33,19.65,19.65,0,0,1-2.42.15"/></g><g id="Rock-2" data-name="Rock"><path class="cls-4" d="M532.54,407.34c26.73,0,26.05-5.68,21.74-11.4-6.47-8.62-23.73-6.61-31.36-4-10.73,3.69-6,15.38,9.62,15.38"/><path class="cls-5" d="M517.88,395.6s3.34-4.61,12.34-5.19,15.71-.7,19.92,2,4.53,4.07,4.53,4.07-1.06,3.55-2.26,4.44a15.88,15.88,0,0,1-7.53,2.19,42.41,42.41,0,0,0-8.41.22c-1.75.4-8.92-.4-10.53-1a36.12,36.12,0,0,1-7.26-4.91,4.28,4.28,0,0,1-.8-1.89"/><path class="cls-2" d="M532.54,407.84c-9.89,0-15.14-4.46-15.83-8.6-.56-3.36,1.7-6.26,6-7.76,7.18-2.46,25.17-4.84,31.93,4.16,1.53,2,3.13,4.66,2,7-1.77,3.54-9.43,5.19-24.1,5.19m4.9-17.63a47.59,47.59,0,0,0-14.36,2.22c-3.85,1.32-5.86,3.81-5.38,6.65.64,3.86,5.95,7.76,14.84,7.76,13.86,0,21.67-1.56,23.2-4.64.72-1.43.13-3.32-1.86-6-3.43-4.58-10-6-16.44-6"/><path class="cls-2" d="M533.5,404.12c-6.44,0-12.5-3-15-6.28a5,5,0,0,1-1-2.28l.37.11a9.53,9.53,0,0,0,3.94,4.1c3.77,2.24,10,3.7,14,3.21,2.22-.26,4.4-.3,6.51-.34,4.3-.08,8-.14,9.8-2.22a16.16,16.16,0,0,0,2.45-3.65s.3,0,.27.16a12.11,12.11,0,0,1-2,4.14c-2.07,2.42-6,2.49-10.54,2.57a63.78,63.78,0,0,0-6.41.34,19.8,19.8,0,0,1-2.43.14"/></g><g id="Rock-3" data-name="Rock"><path class="cls-4" d="M446.49,404.5c26.73,0,26.05-5.68,21.74-11.4-6.47-8.62-23.73-6.61-31.37-4-10.72,3.69-6,15.38,9.63,15.38"/><path class="cls-5" d="M431.82,392.76s3.35-4.61,12.35-5.19,15.71-.7,19.92,2.05,4.53,4.07,4.53,4.07-1.06,3.55-2.26,4.44a15.88,15.88,0,0,1-7.53,2.19,42.41,42.41,0,0,0-8.41.22c-1.75.4-8.92-.4-10.53-1a36.12,36.12,0,0,1-7.26-4.91,4.36,4.36,0,0,1-.81-1.89"/><path class="cls-2" d="M446.49,405c-9.89,0-15.14-4.45-15.83-8.6-.56-3.36,1.69-6.26,6-7.76,7.17-2.46,25.17-4.84,31.93,4.16,1.53,2,3.13,4.66,2,7-1.77,3.54-9.43,5.19-24.1,5.19m4.9-17.63A47.59,47.59,0,0,0,437,389.59c-3.85,1.32-5.86,3.81-5.39,6.65.65,3.86,6,7.76,14.85,7.76,13.86,0,21.66-1.56,23.2-4.64.72-1.43.12-3.32-1.86-6-3.44-4.58-10-6-16.44-6"/><path class="cls-2" d="M447.45,401.28c-6.44,0-12.5-3-15-6.27a5,5,0,0,1-1-2.29l.36.11a9.66,9.66,0,0,0,3.95,4.1c3.77,2.24,10,3.7,14.05,3.22a63.34,63.34,0,0,1,6.51-.35c4.3-.08,8-.14,9.8-2.22a16.16,16.16,0,0,0,2.45-3.65s.3,0,.27.16a12.3,12.3,0,0,1-2,4.14c-2.07,2.42-6,2.49-10.54,2.57a64.13,64.13,0,0,0-6.42.34,19.53,19.53,0,0,1-2.42.14"/></g><g id="Rock-4" data-name="Rock"><path class="cls-4" d="M369.9,412.29c26.74,0,26.05-5.68,21.75-11.41-6.48-8.61-23.73-6.61-31.37-4-10.72,3.69-6,15.39,9.62,15.39"/><path class="cls-5" d="M355.24,400.54s3.35-4.6,12.35-5.18,15.71-.7,19.91,2.05,4.53,4.06,4.53,4.06-1,3.55-2.25,4.45a15.91,15.91,0,0,1-7.53,2.18,43.29,43.29,0,0,0-8.42.22c-1.74.4-8.91-.4-10.52-1a36.53,36.53,0,0,1-7.26-4.9,4.29,4.29,0,0,1-.81-1.9"/><path class="cls-2" d="M369.91,412.79c-9.89,0-15.14-4.46-15.84-8.6-.56-3.37,1.7-6.27,6.05-7.76,7.17-2.47,25.16-4.84,31.93,4.15,1.52,2,3.12,4.66,1.95,7-1.77,3.55-9.43,5.2-24.09,5.2m4.89-17.64a47.56,47.56,0,0,0-14.36,2.23c-3.84,1.32-5.86,3.8-5.38,6.64.64,3.86,5.95,7.77,14.85,7.77,13.85,0,21.66-1.56,23.2-4.65.71-1.42.12-3.32-1.86-6-3.44-4.57-10-6-16.45-6"/><path class="cls-2" d="M370.87,409.07c-6.45,0-12.5-3-15-6.28a5,5,0,0,1-1-2.29l.36.12a9.67,9.67,0,0,0,3.94,4.09c3.77,2.24,10,3.71,14.05,3.22a60.58,60.58,0,0,1,6.51-.34c4.31-.08,8-.15,9.8-2.22a15.83,15.83,0,0,0,2.45-3.65s.31,0,.28.15a12.28,12.28,0,0,1-2,4.15c-2.07,2.42-6,2.49-10.54,2.57a61,61,0,0,0-6.41.33,19.77,19.77,0,0,1-2.42.15"/></g><path class="cls-6" d="M178.1,471.67c0,17.91-28.25,32.44-63.09,32.44s-63.09-14.53-63.09-32.44S80.17,439.23,115,439.23s63.09,14.53,63.09,32.44"/><path class="cls-6" d="M223.25,514c0,7.71-12.16,14-27.17,14s-27.17-6.26-27.17-14,12.16-14,27.17-14,27.17,6.25,27.17,14"/><path class="cls-6" d="M149.68,522.42c0,3-4.79,5.5-10.7,5.5s-10.71-2.46-10.71-5.5,4.8-5.51,10.71-5.51,10.7,2.47,10.7,5.51"/><path class="cls-6" d="M479.42,126.29c0,14-22,25.25-49.11,25.25s-49.12-11.3-49.12-25.25,22-25.25,49.12-25.25,49.11,11.31,49.11,25.25"/><path class="cls-7" d="M237.23,42.13a117.51,117.51,0,0,0-35.87,5.32,86.08,86.08,0,0,0-25.73-3.74C148.5,43.71,126.52,55,126.52,69s22,25.25,49.11,25.25c1.12,0,2.22,0,3.32-.06,11.67,10.32,33.39,17.26,58.28,17.26,37.22,0,67.39-15.51,67.39-34.64S274.45,42.13,237.23,42.13Z"/><path class="cls-6" d="M543.09,118.57c0,6-9.47,10.88-21.15,10.88s-21.16-4.87-21.16-10.88,9.47-10.87,21.16-10.87,21.15,4.87,21.15,10.87"/><path class="cls-8" d="M450.24,514a60.19,60.19,0,0,0-21.13,3.58,6.35,6.35,0,0,0,1.2-3.58c0-6-9.47-10.88-21.15-10.88S388,507.94,388,514s9.47,10.87,21.16,10.87a38.24,38.24,0,0,0,9.77-1.23c-2.68,2.57-4.2,5.5-4.2,8.62,0,10.08,15.9,18.26,35.51,18.26s35.52-8.18,35.52-18.26S469.86,514,450.24,514Z"/><path class="cls-6" d="M496.09,98.79c0,2.36-3.73,4.28-8.34,4.28s-8.33-1.92-8.33-4.28,3.73-4.29,8.33-4.29,8.34,1.92,8.34,4.29"/><polygon class="cls-9" points="93.69 191.36 93.69 191.36 93.69 191.36 58.57 177.74 23.45 192.01 23.45 192.01 23.45 192.01 23.45 192.01 23.45 192.01 58.57 205.63 93.69 191.36 93.69 191.36 93.69 191.36"/><polygon class="cls-10" points="93.69 191.36 93.69 191.36 93.69 191.36 58.57 177.74 23.45 192.01 23.45 192.01 23.45 192.01 23.45 192.01 23.45 192.01 58.57 205.63 93.69 191.36 93.69 191.36 93.69 191.36"/><polygon class="cls-9" points="174.79 149.91 174.8 149.91 174.79 149.91 94.46 118.77 14.13 151.4 14.12 151.4 14.12 151.4 14.12 151.4 14.13 151.4 94.46 182.54 174.79 149.91 174.8 149.91 174.79 149.91"/><path class="cls-11" d="M128.07,134c-15.56,0-28.42,8.41-30.8,19.41H81.7c-.91,0-1.64,1.65-1.64,3.67s.73,3.68,1.64,3.68H97.27c2.38,11,15.24,19.41,30.8,19.41,17.25,0,31.23-10.33,31.23-23.09S145.32,134,128.07,134Z"/><path class="cls-12" d="M77.8,122.88v36.26c0,.91,1.64,1.65,3.67,1.65s3.68-.74,3.68-1.65V122.88Z"/><path class="cls-9" d="M115.58,116.19l-19.13-82c-3.2-13.7-22.56-14.11-26.34-.55l-23,82.53c0,7.53,15.38,13.64,34.35,13.64s34.35-6.11,34.35-13.64Z"/><path class="cls-11" d="M115.82,116.19h-.24l-19.13-82a13.62,13.62,0,0,0-3-6,10.64,10.64,0,0,0-5.06,6.57L62.63,127.22c0,.13,0,.25,0,.38a76,76,0,0,0,18.79,2.23C100.44,129.83,115.82,123.72,115.82,116.19Z"/><path class="cls-13" d="M115.58,116.19l-19.13-82c-3.2-13.7-22.56-14.11-26.34-.55l-23,82.53c0,7.53,15.38,13.64,34.35,13.64s34.35-6.11,34.35-13.64Z"/></g></svg>