<svg id="Foreground" xmlns="http://www.w3.org/2000/svg" viewBox="0 0 566.93 566.93"><defs><style>.cls-1{fill:#fff;}.cls-2{fill:none;stroke:#1d1d1b;stroke-miterlimit:10;}</style></defs><g id="Q"><path class="cls-1" d="M368,353.46l-40.88,13.22a308,308,0,0,1-53.84,4.49c-59,0-106.89-14.79-106.89-33h0V212.56H380.18V338.14h0c0,5.53-4.4,10.74-12.17,15.32"/><path class="cls-2" d="M368,353.46l-40.88,13.22a308,308,0,0,1-53.84,4.49c-59,0-106.89-14.79-106.89-33h0V212.56H380.18V338.14h0C380.18,343.67,375.78,348.88,368,353.46Z"/><path class="cls-1" d="M380.18,212.55c0,18.25-47.86,33-106.89,33s-106.89-14.78-106.89-33,47.85-33,106.89-33,106.89,14.79,106.89,33"/><ellipse class="cls-2" cx="273.29" cy="212.55" rx="106.89" ry="33.03"/><path class="cls-1" d="M327.13,287.36v79.32c17.32-3.13,31.54-7.72,40.88-13.22V274.15c-9.34,5.5-23.56,10.09-40.88,13.21"/><path class="cls-2" d="M327.13,287.36v79.32c17.32-3.13,31.54-7.72,40.88-13.22V274.15C358.67,279.65,344.45,284.24,327.13,287.36Z"/></g></svg>