<svg id="_1" data-name="1" xmlns="http://www.w3.org/2000/svg" viewBox="0 0 566.93 566.93"><defs><style>.cls-1{fill:#aa7272;}.cls-2{fill:#f0ab67;}.cls-3{fill:#c6a27a;}.cls-4,.cls-5{fill:#1d1d1b;}.cls-4,.cls-6{stroke:#1d1d1b;stroke-miterlimit:10;}.cls-6{fill:none;stroke-width:2px;}.cls-7{fill:#a3d3d2;}.cls-8{fill:#896f52;}.cls-9{fill:#a88969;}.cls-10{fill:#487b79;}.cls-11{fill:#51473c;}</style></defs><title>1b</title><g id="Fore"><path class="cls-1" d="M426.62,303.57H396.17c-21.67-8.16-51.45-13.19-84.32-13.19-66.26,0-120,20.45-120,45.68s53.71,45.68,120,45.68c36.2,0,68.65-6.11,90.65-15.76h36.34c16.7-7.85,26.71-17.85,26.71-28.74C465.55,323.91,450.55,311.92,426.62,303.57Z"/><path class="cls-2" d="M362.07,225.1h-3.3c3.94,3.47,6.28,6.94,6.73,10.07-1.66,0-8.65,0-9.8,0-.39,0-2,.4-2,1.76,0,5-7.9,10.46-21.69,14.75-12.79,4-29.59,6.56-46.4,7.15a1.12,1.12,0,0,1-1.15-1.11V225.1h-2.2v33.22a2.73,2.73,0,0,0,2.37,2.73h0c33.28-.81,67.86-9.67,71-22.84a1.09,1.09,0,0,1,1.06-.83h8.76c-.71,8-9.28,15.62-24.32,21.44-16.45,6.37-39,9.88-63.58,9.88-1.74,0-3.47,0-5.18-.05V225.1h-2.2v43.5c-45.45-1.27-79.13-14.2-80.52-31.22h11v-1.11c0-3.75,3.5-7.62,9.39-11.17H206c-4.28,3.11-7,6.52-7.42,10.07h-8.82c.29-3.5,2-6.88,4.93-10.07h-2.87a17.9,17.9,0,0,0-4.32,11.17V329c0,5.16,26.13,36.18,90.68,36.18,65.23,0,89.64-29.17,89.64-35.13V236.27c0-3.63-2-7.44-5.72-11.17m-13.65,97c-.65-1.46-.37-6.19-.16-9.65a32.88,32.88,0,0,0,.11-5.06,10.87,10.87,0,0,1,.6-3.53,15.43,15.43,0,0,0,.8-6.07,18.33,18.33,0,0,0-1.17-3.67,26.76,26.76,0,0,0,2.16-1.91c.9,3.36,2.36,10.62,1.61,12.82-1.54,4.58-1.83,14.1-1.05,16.42.67,2,2.08,6.22,1.72,10.21-.26,3,.47,7.76.95,10.47l-3-1.1c-.91-4.69-1.06-7.17-.58-9.05.59-2.35-.85-7.29-2-9.88m-19.86,33.53c-.61-11.38-.82-18.81-.59-21,.13-1.26.3-2.7.48-4.19.58-4.79,1.17-9.73.82-12a20.36,20.36,0,0,0-1.11-3.78,23,23,0,0,1-1.59-6.27,18.62,18.62,0,0,1,1-7.1,25,25,0,0,0,13.4-2.3,46.64,46.64,0,0,0,6.7-4.22,15.59,15.59,0,0,1,1,3.14,14.59,14.59,0,0,1-.77,5.62,10.57,10.57,0,0,0-.62,4,34.86,34.86,0,0,1-.13,4.82c-.24,4-.51,8.46.25,10.16,1.14,2.55,2.46,7.15,1.95,9.16s-.37,4.77.63,9.84l.06.31,3.69,1.36a93.21,93.21,0,0,1-25.18,12.41"/><path class="cls-3" d="M365.53,237.38c-.71,8-9.28,15.62-24.32,21.44-16.45,6.37-39,9.88-63.58,9.88l-2.08,0c-2.53,2.41-6.45,4.84-6.34,9.16.15,5.5,6.65,6.77,6.81,12.26.19,6.29-8.25,7.73-9,14.64s7.6,8.65,8.34,16.68c1,10.57-9.5,11.76-10,19.59-.31,5.05,8.47,8.64,10,13.77,1,3.25-.82,7-3.42,10.3,2,.07,4.11.1,6.23.1,65.23,0,89.64-29.17,89.64-35.13V236.27m-83.13,24.78,43.9,94.62c-.61-11.38-.82-18.81-.59-21,.13-1.26.3-2.7.48-4.19.58-4.79,1.17-9.73.82-12a20.36,20.36,0,0,0-1.11-3.78,23,23,0,0,1-1.59-6.27,18.62,18.62,0,0,1,1-7.1,25,25,0,0,0,13.4-2.3,46.64,46.64,0,0,0,6.7-4.22,15.59,15.59,0,0,1,1,3.14,14.59,14.59,0,0,1-.77,5.62,10.57,10.57,0,0,0-.62,4,34.86,34.86,0,0,1-.13,4.82c-.24,4-.51,8.46.25,10.16,1.14,2.55,2.46,7.15,1.95,9.16s-.37,4.77.63,9.84l.06.31,3.69,1.36A93.21,93.21,0,0,1,328.56,355.67ZM351,341.07c-.91-4.69-1.06-7.17-.58-9.05.59-2.35-.85-7.29-2-9.88-.65-1.46-.37-6.19-.16-9.65a32.88,32.88,0,0,0,.11-5.06,10.87,10.87,0,0,1,.6-3.53,15.43,15.43,0,0,0,.8-6.07,18.33,18.33,0,0,0-1.17-3.67,26.76,26.76,0,0,0,2.16-1.91c.9,3.36,2.36,10.62,1.61,12.82-1.54,4.58-1.83,14.1-1.05,16.42.67,2,2.08,6.22,1.72,10.21-.26,3,.47,7.76.95,10.47Z"/><path class="cls-4" d="M365.59,236.27a10.32,10.32,0,0,1-.06,1.11c-.71,8-9.28,15.62-24.32,21.44-16.45,6.37-39,9.88-63.58,9.88-1.74,0-3.47,0-5.18-.05l-2.2,0c-45.45-1.27-79.13-14.2-80.52-31.22a10.19,10.19,0,0,1,0-1.11h-2.21V329c0,5.16,26.13,36.18,90.68,36.18,65.23,0,89.64-29.17,89.64-35.13V236.27Zm0,93.78c0,1.7-2.95,6.25-9.48,11.43l-1.3,1-.67.49-.4.29a93.36,93.36,0,0,1-25.18,12.41l-2.17.69c-12.58,3.89-28.51,6.62-48.24,6.62-33.85,0-55.87-8.61-68.38-15.83-14.56-8.41-20-17-20.09-18.15V244.42c8.79,15.74,43.09,26.49,87.95,26.49,24.82,0,47.68-3.57,64.37-10,11.88-4.6,19.94-10.37,23.59-16.73Z"/><path class="cls-5" d="M367.79,236.27h-2.2a7,7,0,0,0-.09-1.1c-.45-3.13-2.79-6.6-6.73-10.07-12.25-10.81-39.92-21.73-74.28-23l-2.2-.08c-1.54,0-3.09-.05-4.66-.05-37.71,0-70.8,9.83-83,23.16-2.92,3.19-4.64,6.57-4.93,10.07a10.24,10.24,0,0,0,0,1.1h-2.21a17.9,17.9,0,0,1,4.32-11.17c11.67-14.71,45.75-25.37,85.84-25.37,37.82,0,71.44,12.19,84.44,25.37,3.69,3.73,5.72,7.54,5.72,11.17"/><path class="cls-5" d="M356.44,343.25l-1,.19-.83.16-.38.07c0-.06,0-.14,0-.22s-.05-.31-.08-.48-.1-.5-.15-.8c-.48-2.71-1.21-7.51-.95-10.47.35-4-1.05-8.19-1.72-10.21-.78-2.32-.49-11.84,1.05-16.42.75-2.19-.71-9.46-1.61-12.82a25.14,25.14,0,0,1-2.16,1.91c-.28.23-.58.47-.9.7a47.53,47.53,0,0,1-6.7,4.22,25,25,0,0,1-13.4,2.3,18.62,18.62,0,0,0-1,7.1,23.33,23.33,0,0,0,1.59,6.27,20.36,20.36,0,0,1,1.11,3.78c.35,2.25-.24,7.19-.82,12-.18,1.5-.35,2.94-.48,4.2-.23,2.16,0,9.59.59,21,0,.49.05,1,.08,1.49l-2.2.12c0-.3,0-.61-.05-.92-.46-8.56-.92-19-.61-21.89.13-1.26.3-2.72.48-4.22.51-4.21,1.14-9.44.83-11.39a19.51,19.51,0,0,0-1-3.36,25.37,25.37,0,0,1-1.72-6.84,20.7,20.7,0,0,1,1.5-8.92l.34-.79.85.14a23.3,23.3,0,0,0,12.93-2c5.8-3,9.59-6.57,10.1-7.4l.15-.55,1.28-.36.48.49c.9,1,3.67,12.92,2.46,16.49-1.42,4.21-1.62,13.28-1,15,.71,2.16,2.21,6.65,1.81,11.1a44.48,44.48,0,0,0,.88,9.59q.17.91.33,1.77"/><path class="cls-5" d="M355.72,342.81l-.24.63-.15.41-.68-.25-.42-.15-.49-.19-3.69-1.37-.06-.3c-1-5.07-1.17-7.74-.63-9.84s-.81-6.61-1.95-9.16c-.76-1.71-.49-6.19-.25-10.16a36.61,36.61,0,0,0,.13-4.82,10.73,10.73,0,0,1,.61-4,14.44,14.44,0,0,0,.78-5.62,15.59,15.59,0,0,0-1-3.14c-.15-.37-.31-.77-.49-1.19l1-.43c.13.32.26.62.37.92a18.33,18.33,0,0,1,1.17,3.67,15.43,15.43,0,0,1-.8,6.07,10.87,10.87,0,0,0-.6,3.53,32.88,32.88,0,0,1-.11,5.06c-.21,3.46-.49,8.19.16,9.64,1.16,2.6,2.6,7.54,2,9.89-.48,1.88-.33,4.36.58,9.05l3,1.1.82.31Z"/><path class="cls-5" d="M365.84,235.17v2.21h-9.07a1.09,1.09,0,0,0-1.06.83c-3.18,13.17-37.75,22-71,22.84h0a2.73,2.73,0,0,1-2.37-2.73V200.83h2.2V257.7a1.12,1.12,0,0,0,1.15,1.11c16.81-.59,33.61-3.17,46.4-7.15,13.79-4.29,21.67-9.79,21.69-14.75,0-1.36,1.58-1.76,2-1.76,1.16,0,8.15,0,9.81,0Z"/><path class="cls-4" d="M272.45,209.25v60.39h-2.2v-58.1a1.12,1.12,0,0,0-1.15-1.11c-23.3.91-46.54,7.11-59,14.67-5.89,3.55-9.39,7.42-9.39,11.17v1.11H188.57v-2.21h10c.46-3.55,3.14-7,7.42-10.07,13-9.48,40.64-16.35,65.35-16.95h0a1.1,1.1,0,0,1,1.1,1.1"/><path class="cls-6" d="M366.9,309c8,6.33,12.62,13.61,12.62,21.35,0,24.45-45.62,44.27-101.89,44.27S175.74,354.75,175.74,330.3c0-7.85,4.71-15.22,13-21.62"/><path class="cls-6" d="M379.52,330.31v9.87c0,20.95-45.62,40.51-101.89,40.51s-101.89-21.92-101.89-40.1v-9.8"/><path class="cls-7" d="M284.49,257.69V202.06c34.35,1.3,62,12.22,74.27,23,3.95,3.47,6.28,6.94,6.73,10.07-1.65,0-8.65,0-9.8,0-.38,0-2,.4-2,1.76,0,5-7.91,10.46-21.7,14.75-12.79,4-29.59,6.57-46.4,7.15a1.1,1.1,0,0,1-1.14-1.11"/><path class="cls-7" d="M270.26,211.56v57.07c-45.44-1.28-79.12-14.2-80.51-31.23H200.7v-1.1c0-3.76,3.5-7.62,9.39-11.18,12.49-7.56,35.73-13.76,59-14.67a1.11,1.11,0,0,1,1.14,1.11"/><path class="cls-8" d="M350,341.89l3.69,1.37a93.08,93.08,0,0,1-25.18,12.4c-.6-11.37-.82-18.8-.59-21,.13-1.26.3-2.7.49-4.2.57-4.78,1.17-9.73.81-12a20.49,20.49,0,0,0-1.11-3.77,23.07,23.07,0,0,1-1.58-6.27,18.2,18.2,0,0,1,1-7.1A24.87,24.87,0,0,0,341,299.07a45.25,45.25,0,0,0,6.7-4.22,16.51,16.51,0,0,1,1,3.15,14.75,14.75,0,0,1-.78,5.61,10.82,10.82,0,0,0-.62,4,34.72,34.72,0,0,1-.13,4.81c-.24,4-.51,8.46.26,10.17,1.14,2.55,2.45,7.15,1.95,9.15s-.37,4.77.63,9.85Z"/><path class="cls-9" d="M349.77,297.83a18.33,18.33,0,0,0-1.17-3.67,25.14,25.14,0,0,0,2.16-1.91c.9,3.36,2.36,10.62,1.61,12.82-1.54,4.58-1.83,14.1-1.05,16.42.67,2,2.08,6.22,1.72,10.21-.26,3,.47,7.76.95,10.47l-3-1.1c-.91-4.69-1.06-7.17-.58-9.05.59-2.35-.85-7.29-2-9.88-.65-1.46-.37-6.19-.16-9.65a31.6,31.6,0,0,0,.11-5.06,10.87,10.87,0,0,1,.6-3.53,15.43,15.43,0,0,0,.8-6.07"/><path class="cls-10" d="M356.77,237.37a1.1,1.1,0,0,0-1.06.83c-3.17,13.18-37.75,22-71,22.84h0a2.72,2.72,0,0,1-2.37-2.72V202c-1.54,0-3.09-.06-4.66-.06-37.71,0-70.79,9.84-83,23.16-2.92,3.19-4.64,6.58-4.93,10.08h8.82c.46-3.56,3.14-7,7.42-10.08,13-9.47,40.64-16.34,65.35-16.94h0a1.1,1.1,0,0,1,1.1,1.1v59.4c1.71,0,3.44.05,5.18.05,24.55,0,47.13-3.51,63.58-9.88,15-5.82,23.61-13.41,24.32-21.45Z"/><path class="cls-11" d="M378.78,338v2.19c0,9.82-10.71,19.82-29.38,27.43-19.55,8-45,12.34-71.78,12.34-26.06,0-51.55-4.68-71.76-13.17-18.4-7.74-29.39-17.53-29.39-26.19V338c3.56,9.19,13.48,17.62,28.81,24.28,19.34,8.4,45,13,72.34,13s53-4.63,72.35-13c15.33-6.66,25.26-15.09,28.81-24.28"/><path class="cls-11" d="M378.78,330.3c0,24-45.37,43.52-101.16,43.52S176.47,354.3,176.47,330.3c0-6.83,3.8-13.61,11-19.68V329c0,5.16,26.13,36.18,90.68,36.18,65.23,0,89.64-29.17,89.64-35.13V310.62c7.2,6.07,11,12.86,11,19.68"/></g></svg>