<svg id="_1" data-name="1" xmlns="http://www.w3.org/2000/svg" viewBox="0 0 308.15 210.55"><defs><style>.cls-1{fill:#aa7272;}.cls-2{fill:#896f52;}.cls-3{fill:#a38364;}.cls-4{fill:#eabd94;}.cls-5{fill:#c6a27a;}.cls-6{fill:#b18a5f;}.cls-7{fill:none;}.cls-7,.cls-8,.cls-9{stroke:#000;stroke-miterlimit:10;}.cls-8{fill:#6c9a99;}.cls-9{fill:#a3d3d2;}</style></defs><title>images</title><g id="Fore"><path class="cls-1" d="M248.78,107H212.71C187.07,97.34,151.86,91.38,113,91.37V199.59c42.82,0,81.2-7.25,107.22-18.66h43.05c19.78-9.3,31.64-21.14,31.64-34C294.89,131.09,277.12,116.88,248.78,107Z"/><path class="cls-2" d="M172.45,170.92a107.66,107.66,0,0,1-22.95,8.71c-.39-6.91,1.52-11.64-.39-18.09a37.55,37.55,0,0,1-1.92-13.61V132.8L166.71,125c0,1.63-.06,8,.22,10.78.3,3.19,1.36,8.85,1.65,11.73s-.67,6.35-.67,11,.53,10.66.53,10.66Z"/><path class="cls-3" d="M172.42,155.8c-.45,3.5-.92,11.59-.45,12.58a10.57,10.57,0,0,1,.45,3.18l-4-1.75s-.53-6-.53-10.66,1-8.09.67-11-1.35-8.54-1.65-11.73c-.28-2.76-.24-9.15-.22-10.78l3.32-1.31a49.94,49.94,0,0,0,0,11.49C170.76,141.62,172.87,152.29,172.42,155.8Z"/><path class="cls-4" d="M197.25,56.23v84.11c0,.28,0,.55,0,.82A20.56,20.56,0,0,1,197,144c-1.73,10.72-10.76,20.38-24.53,27.65a9.69,9.69,0,0,0-.46-3c-.45-1,0-9.07.46-12.58s-1.67-14.19-2.42-19.93a49.94,49.94,0,0,1,0-11.49l-3.32,1.31-19.51,7.76v15.12a37.68,37.68,0,0,0,1.91,13.61c1.9,6.42,0,11.13.39,18a158.3,158.3,0,0,1-39.88,4.92C63.65,185.28,26,167.1,22.25,144a22.27,22.27,0,0,1-.29-2.82c0-.27,0-.54,0-.82V56.23A21.55,21.55,0,0,0,22.25,60c2.56,15.91,21.2,29.49,47.57,36.39,2.67.7,5.4,1.33,8.21,1.89l3.39.64.83.14c1.08.18,2.18.35,3.28.51,1.27.2,2.56.36,3.85.52s2.61.31,3.93.43,2.44.22,3.69.31c.8.06,1.61.12,2.42.16,1,.07,2,.12,3,.16h.2c1,0,1.9.08,2.86.1h.85c1.09,0,2.19,0,3.29,0s2.22,0,3.32,0h.84c1,0,1.92-.06,2.87-.1h.16c1,0,1.94-.09,2.9-.15l2.55-.17c1.22-.09,2.44-.18,3.65-.31s2.63-.27,3.92-.43,2.58-.32,3.86-.52c1.08-.16,2.16-.32,3.21-.5.31-.06.61-.11.92-.15l3.37-.64c2.81-.56,5.56-1.19,8.21-1.89,26.37-6.9,45-20.48,47.58-36.39A22.56,22.56,0,0,0,197.25,56.23Z"/><path class="cls-5" d="M197,60c-2.56,15.91-21.21,29.49-47.58,36.4-2.65.7-5.4,1.32-8.21,1.88-1.11.23-2.24.44-3.37.64l-.92.15c-1.05.18-2.13.35-3.21.5-1.28.2-2.56.37-3.86.52s-2.59.31-3.92.43-2.43.22-3.65.32c-.85.06-1.69.12-2.55.16l-2.9.16h-.16c-1,0-1.91.07-2.87.09l-.84,0c-1.1,0-2.21,0-3.32,0h-.4c.1,1,.24,2,.4,3.12,1.52,10.29,3.84,9.38,3.13,11.9s-7,5.75-4.74,11.8,4,5.34,4,10.18-6.51,5-4.54,11.19,7.8,10.89,6.24,13.31-7,7.11-5.18,11.19,6,7.26,6,9.68a3.82,3.82,0,0,1-.56,1.54,155.69,155.69,0,0,0,35.44-4.85c-.37-6.84,1.51-11.56-.39-18a37.66,37.66,0,0,1-1.91-13.61V133.68l19.51-7.76,3.32-1.31a49.94,49.94,0,0,0,0,11.49c.75,5.75,2.87,16.42,2.42,19.94s-.91,11.6-.46,12.58a9.67,9.67,0,0,1,.46,3c13.77-7.27,22.8-16.93,24.53-27.65a20.41,20.41,0,0,0,.28-2.82c0-.27,0-.54,0-.81V56.27A22.44,22.44,0,0,1,197,60Z"/><path class="cls-6" d="M205.94,141.19v8.3c0,27.36-43.14,49.53-96.35,49.53s-96.34-22.17-96.34-49.53v-8.3c0-7.35,3.11-14.3,8.69-20.57V140a21.52,21.52,0,0,0,.31,3.76c3.72,23.13,41.4,41.3,87.34,41.3s83.63-18.17,87.35-41.3a21.52,21.52,0,0,0,.31-3.76v-19.4C202.83,126.89,205.94,133.84,205.94,141.19Z"/><path class="cls-7" d="M205.94,141.33a24.05,24.05,0,0,1-.35,4.15c-4.08,25.41-45.5,45.38-96,45.38s-91.9-20-96-45.38a24,24,0,0,1-.34-4.15c0-7.34,3.1-14.31,8.68-20.58v19.4a21.52,21.52,0,0,0,.31,3.76c3.72,23.13,41.4,41.3,87.34,41.3S193.23,167,197,143.91a22.52,22.52,0,0,0,.3-3.76v-19.4C202.83,127,205.94,134,205.94,141.33Z"/><path class="cls-8" d="M197.25,56a22.64,22.64,0,0,1-.3,3.77c-2.56,15.9-21.21,29.48-47.58,36.39-2.65.7-5.4,1.32-8.21,1.88A158.92,158.92,0,0,1,116.7,101q-3.53.14-7.11.14t-7.11-.14V19.61C64.26,21.35,34.34,37,34.34,56H21.94C21.94,32.37,57.4,13,102.48,11.1Q106,11,109.59,11t7.11.14V92.45a142.09,142.09,0,0,0,20-2.28c2.41-.45,4.77-1,7-1.53C166.38,83,182.39,72,184.59,59.09a17.2,17.2,0,0,0,.26-3.05Z"/><path class="cls-9" d="M197.25,56h-12.4a17.2,17.2,0,0,1-.26,3.05c-2.2,12.92-18.21,24-40.85,29.55-2.27.57-4.63,1.08-7,1.53a142.09,142.09,0,0,1-20,2.28V11.1C161.8,13,197.25,32.37,197.25,56Z"/><path class="cls-9" d="M102.48,19.61V101A158.78,158.78,0,0,1,78,98.08c-2.81-.56-5.54-1.18-8.21-1.88-26.37-6.91-45-20.49-47.57-36.39A21.63,21.63,0,0,1,21.94,56h12.4C34.34,37,64.26,21.35,102.48,19.61Z"/><path class="cls-7" d="M197.25,56v84.11a22.52,22.52,0,0,1-.3,3.76c-3.72,23.13-41.41,41.3-87.36,41.3S26,167,22.25,143.91a21.52,21.52,0,0,1-.31-3.76V56a21.63,21.63,0,0,0,.31,3.77c2.56,15.9,21.2,29.48,47.57,36.39,2.67.7,5.4,1.32,8.21,1.88a161.53,161.53,0,0,0,31.56,3,161.56,161.56,0,0,0,31.57-3c2.81-.56,5.56-1.18,8.21-1.88,26.37-6.91,45-20.49,47.58-36.39A22.64,22.64,0,0,0,197.25,56Z"/><line class="cls-7" x1="102.48" y1="101.1" x2="102.48" y2="100.96"/><line class="cls-7" x1="102.48" y1="11.1" x2="102.48" y2="10.96"/><line class="cls-7" x1="116.7" y1="101.1" x2="116.7" y2="100.96"/><line class="cls-7" x1="116.7" y1="11.1" x2="116.7" y2="10.96"/><path class="cls-7" d="M149.47,180.29c-.4-6.91,1.52-11.65-.4-18.1a37.68,37.68,0,0,1-1.91-13.61V133.46L170,124.38a50,50,0,0,0,0,11.5c.75,5.74,2.87,16.42,2.41,19.93s-.9,11.6-.45,12.58a10.62,10.62,0,0,1,.45,3.19l-4-1.75s-.53-6.05-.53-10.66,1-8.1.68-11-1.36-8.54-1.67-11.72-.21-11.16-.21-11.16"/><path class="cls-7" d="M205.94,141.33v8.29h0c0,27.36-43.13,49.53-96.35,49.53S13.26,177,13.26,149.62h0v-8.29"/><g id="Lines"><path d="M34.23,96.82c1.87,1.19,3.59,2.47,5.44,3.52s3.82,1.93,5.7,3.12a21,21,0,0,1-6.2-2.26A16.72,16.72,0,0,1,34.23,96.82Z"/><path d="M61.84,128.16c2.14.57,4.17,1.26,6.25,1.7s4.23.69,6.38,1.24a20.56,20.56,0,0,1-6.59-.26A16.77,16.77,0,0,1,61.84,128.16Z"/><path d="M28.39,138.3a25.56,25.56,0,0,0,4,5.18,44.15,44.15,0,0,0,5.35,3.82,14,14,0,0,1-6-3.09A11.59,11.59,0,0,1,28.39,138.3Z"/><path d="M82.61,171.5a25.33,25.33,0,0,0,6.32,1.65,44.46,44.46,0,0,0,6.57-.25,13.86,13.86,0,0,1-6.66,1.24A11.53,11.53,0,0,1,82.61,171.5Z"/><path d="M123.82,151a25.23,25.23,0,0,0,6.49.77,44.93,44.93,0,0,0,6.47-1.15,14,14,0,0,1-6.42,2.15A11.49,11.49,0,0,1,123.82,151Z"/><path d="M183.14,141.08c1.76-1,3.56-1.74,5.14-2.8a12.57,12.57,0,0,0,2.2-1.79,19.93,19.93,0,0,0,1.87-2.25,7.53,7.53,0,0,1-1.27,2.76,8.9,8.9,0,0,1-2.25,2.12,12,12,0,0,1-2.75,1.31A13.44,13.44,0,0,1,183.14,141.08Z"/><path d="M151.51,113.48c2-.33,3.94-.44,5.79-.91a13.48,13.48,0,0,0,2.67-.95,21.31,21.31,0,0,0,2.52-1.49,7.72,7.72,0,0,1-2.13,2.17,8.63,8.63,0,0,1-2.83,1.24,11.52,11.52,0,0,1-3,.31A13.09,13.09,0,0,1,151.51,113.48Z"/></g></g></svg>