<svg xmlns="http://www.w3.org/2000/svg" viewBox="0 0 566.93 566.93"><defs><style>.cls-1{fill:#c6a27a;}.cls-2{fill:#1d1d1b;}.cls-3{fill:none;stroke:#1d1d1b;stroke-miterlimit:10;stroke-width:2px;}.cls-4{fill:#a3d3d2;}.cls-5{fill:#896f52;}.cls-6{fill:#a88969;}.cls-7{fill:#487b79;}.cls-8{fill:#51473c;}.cls-9{fill:#282828;}.cls-10{fill:#c6e4e2;}</style></defs><title>1b</title><g id="Layer_1" data-name="Layer 1"><path class="cls-1" d="M362.07,225.1h-3.3c3.94,3.47,6.28,6.94,6.73,10.07-1.66,0-8.65,0-9.8,0-.39,0-2,.4-2,1.76,0,5-7.9,10.46-21.69,14.75-12.79,4-29.59,6.56-46.4,7.15a1.11,1.11,0,0,1-1.14-1.11V225.1h-2.21v33.22a2.73,2.73,0,0,0,2.37,2.73h0c33.28-.81,67.86-9.67,71-22.84a1.09,1.09,0,0,1,1.06-.83h8.76c-.71,8-9.28,15.62-24.32,21.44-16.45,6.37-39,9.88-63.58,9.88-1.74,0-3.47,0-5.18-.05V225.1h-2.2v43.5c-45.45-1.27-79.13-14.2-80.52-31.22h11v-1.11c0-3.75,3.5-7.62,9.39-11.17H206c-4.28,3.11-7,6.52-7.42,10.07h-8.82c.29-3.5,2-6.88,4.93-10.07h-2.87a17.9,17.9,0,0,0-4.32,11.17V329c0,5.16,26.13,36.18,90.68,36.18,65.23,0,89.64-29.17,89.64-35.13V236.27c0-3.63-2-7.44-5.72-11.17m-13.65,97c-.65-1.45-.37-6.18-.16-9.64a32.88,32.88,0,0,0,.11-5.06,10.87,10.87,0,0,1,.6-3.53,15.43,15.43,0,0,0,.8-6.07,18.33,18.33,0,0,0-1.17-3.67,25.14,25.14,0,0,0,2.16-1.91c.9,3.36,2.36,10.62,1.61,12.82-1.54,4.58-1.83,14.1-1.05,16.42.67,2,2.08,6.22,1.72,10.21-.26,3,.47,7.76.95,10.47l-3-1.1c-.91-4.69-1.06-7.17-.58-9.05.59-2.35-.85-7.29-2-9.89m-19.86,33.54c-.61-11.38-.82-18.81-.59-21,.13-1.26.3-2.7.48-4.2.58-4.78,1.17-9.72.82-12a20.36,20.36,0,0,0-1.11-3.78,23.33,23.33,0,0,1-1.59-6.27,18.62,18.62,0,0,1,1-7.1,25,25,0,0,0,13.4-2.3,46.64,46.64,0,0,0,6.7-4.22,15.59,15.59,0,0,1,1,3.14c.28,1.68-.28,3.77-.77,5.62a10.57,10.57,0,0,0-.62,4,34.88,34.88,0,0,1-.13,4.82c-.24,4-.51,8.46.25,10.16,1.14,2.55,2.46,7.15,1.95,9.16s-.37,4.77.63,9.84l.06.31,3.69,1.36a93.36,93.36,0,0,1-25.18,12.41"/><path class="cls-2" d="M365.59,236.27a10.32,10.32,0,0,1-.06,1.11c-.71,8-9.28,15.62-24.32,21.44-16.45,6.37-39,9.88-63.58,9.88-1.74,0-3.47,0-5.18-.05l-2.2,0c-45.45-1.27-79.13-14.2-80.52-31.22a10.19,10.19,0,0,1,0-1.11h-2.21V329c0,5.16,26.13,36.18,90.68,36.18,65.23,0,89.64-29.17,89.64-35.13V236.27Zm0,93.78c0,1.7-2.95,6.25-9.48,11.43l-1.3,1-.67.49-.4.29a93.36,93.36,0,0,1-25.18,12.41l-2.17.69c-12.57,3.89-28.51,6.62-48.24,6.62-33.85,0-55.87-8.61-68.38-15.83-14.56-8.41-20-17-20.09-18.15V244.42c8.79,15.74,43.09,26.49,87.95,26.49,24.82,0,47.68-3.57,64.37-10,11.88-4.6,19.94-10.37,23.59-16.73Z"/><path class="cls-2" d="M367.79,236.27h-2.2a7,7,0,0,0-.09-1.1c-.45-3.13-2.79-6.6-6.73-10.07-12.25-10.81-39.92-21.73-74.28-23l-2.2-.08c-1.54,0-3.09-.06-4.66-.06-37.71,0-70.79,9.84-83,23.17-2.92,3.19-4.64,6.57-4.93,10.07a10.24,10.24,0,0,0,0,1.1h-2.21a17.9,17.9,0,0,1,4.32-11.17c11.67-14.71,45.75-25.37,85.84-25.37,37.82,0,71.44,12.19,84.44,25.37,3.69,3.73,5.72,7.54,5.72,11.17"/><path class="cls-2" d="M356.44,343.25l-1,.19-.83.16-.38.07a1.24,1.24,0,0,1,0-.22c0-.14-.06-.31-.09-.48s-.1-.5-.15-.8c-.48-2.71-1.21-7.51-.95-10.47.35-4-1.05-8.19-1.72-10.21-.78-2.32-.49-11.84,1.05-16.42.75-2.2-.71-9.46-1.61-12.82a25.14,25.14,0,0,1-2.16,1.91c-.28.23-.58.47-.9.7a46.64,46.64,0,0,1-6.7,4.22,25,25,0,0,1-13.4,2.3,18.62,18.62,0,0,0-1,7.1,23.33,23.33,0,0,0,1.59,6.27,20.36,20.36,0,0,1,1.11,3.78c.35,2.25-.24,7.19-.82,12-.18,1.5-.35,2.94-.48,4.2-.23,2.16,0,9.59.59,21,0,.49.05,1,.08,1.49l-2.2.12c0-.3,0-.61-.05-.92-.46-8.56-.92-19-.61-21.89.13-1.26.3-2.72.48-4.22.51-4.21,1.14-9.44.83-11.39a19.51,19.51,0,0,0-1-3.36,25,25,0,0,1-1.71-6.84,20.6,20.6,0,0,1,1.49-8.92l.34-.79.85.14a23.2,23.2,0,0,0,12.93-2c5.8-3,9.59-6.57,10.11-7.4l.14-.55,1.28-.36.48.49c.9,1,3.67,12.92,2.46,16.49-1.42,4.21-1.62,13.28-1,15,.71,2.16,2.21,6.65,1.81,11.1a44.48,44.48,0,0,0,.88,9.59q.17.91.33,1.77"/><path class="cls-2" d="M355.72,342.81l-.24.63-.15.41-.68-.25-.42-.15-.49-.19-3.69-1.36-.06-.31c-1-5.07-1.17-7.74-.63-9.84s-.81-6.61-1.95-9.16c-.76-1.7-.49-6.19-.25-10.16a34.88,34.88,0,0,0,.13-4.82,10.57,10.57,0,0,1,.62-4c.49-1.85,1-3.94.77-5.62a15.59,15.59,0,0,0-1-3.14c-.15-.37-.31-.77-.49-1.19l1-.43c.13.32.26.62.37.92a18.33,18.33,0,0,1,1.17,3.67,15.43,15.43,0,0,1-.8,6.07,10.87,10.87,0,0,0-.6,3.53,32.88,32.88,0,0,1-.11,5.06c-.21,3.46-.49,8.19.16,9.64,1.16,2.6,2.6,7.54,2,9.89-.48,1.88-.33,4.36.58,9.05l3,1.1.82.31Z"/><path class="cls-2" d="M365.84,235.17v2.21h-9.07a1.09,1.09,0,0,0-1.06.83c-3.17,13.17-37.75,22-71,22.84h0a2.73,2.73,0,0,1-2.37-2.73V200.83h2.21V257.7a1.11,1.11,0,0,0,1.14,1.11c16.81-.59,33.61-3.17,46.4-7.15,13.79-4.29,21.67-9.79,21.69-14.75,0-1.36,1.58-1.76,2-1.76,1.16,0,8.15,0,9.81,0Z"/><path class="cls-2" d="M272.45,209.25v60.39h-2.2v-58.1a1.12,1.12,0,0,0-1.15-1.11c-23.3.91-46.54,7.11-59,14.67-5.89,3.55-9.39,7.42-9.39,11.17v1.11H188.57v-2.21h10c.46-3.55,3.14-7,7.42-10.07,13-9.48,40.64-16.35,65.35-16.95h0a1.1,1.1,0,0,1,1.1,1.1"/><path class="cls-3" d="M366.9,309c8,6.33,12.62,13.61,12.62,21.35,0,24.45-45.62,44.27-101.89,44.27S175.74,354.75,175.74,330.3c0-7.85,4.71-15.22,13-21.62"/><path class="cls-3" d="M379.52,330.3v9.88c0,20.95-45.62,40.51-101.89,40.51s-101.89-21.92-101.89-40.1v-9.8"/><path class="cls-4" d="M284.49,257.69V202.06c34.35,1.3,62,12.22,74.27,23,3.95,3.47,6.28,6.94,6.73,10.07-1.65,0-8.65,0-9.8,0-.38,0-2,.4-2,1.76,0,5-7.91,10.46-21.7,14.75-12.79,4-29.59,6.57-46.39,7.15a1.1,1.1,0,0,1-1.15-1.11"/><path class="cls-4" d="M270.26,211.56v57.06c-45.44-1.27-79.12-14.19-80.51-31.22H200.7v-1.1c0-3.76,3.5-7.62,9.39-11.18,12.49-7.56,35.73-13.76,59-14.67a1.11,1.11,0,0,1,1.14,1.11"/><path class="cls-5" d="M350.05,341.89l3.68,1.37a93.08,93.08,0,0,1-25.18,12.4c-.6-11.37-.81-18.8-.59-21,.13-1.26.3-2.7.49-4.2.57-4.78,1.17-9.73.81-12a20.49,20.49,0,0,0-1.11-3.77,23.07,23.07,0,0,1-1.58-6.27,18.2,18.2,0,0,1,1-7.1A24.87,24.87,0,0,0,341,299.07a45.25,45.25,0,0,0,6.7-4.22,16.73,16.73,0,0,1,1,3.15,14.75,14.75,0,0,1-.78,5.61,10.82,10.82,0,0,0-.62,4,34.88,34.88,0,0,1-.13,4.82c-.24,4-.51,8.45.26,10.16,1.14,2.55,2.45,7.15,1.95,9.15s-.37,4.77.63,9.85Z"/><path class="cls-6" d="M349.77,297.83a18.33,18.33,0,0,0-1.17-3.67,25.14,25.14,0,0,0,2.16-1.91c.9,3.36,2.36,10.62,1.61,12.82-1.54,4.58-1.83,14.1-1.05,16.42.67,2,2.08,6.22,1.72,10.21-.26,3,.47,7.76.95,10.47l-3-1.1c-.91-4.69-1.06-7.17-.58-9.05.59-2.35-.85-7.29-2-9.88-.65-1.46-.37-6.19-.16-9.65a31.6,31.6,0,0,0,.11-5.06,10.87,10.87,0,0,1,.6-3.53,15.43,15.43,0,0,0,.8-6.07"/><path class="cls-7" d="M356.77,237.37a1.1,1.1,0,0,0-1.06.83c-3.17,13.18-37.75,22-71,22.84h0a2.72,2.72,0,0,1-2.37-2.72V202c-1.54,0-3.09-.06-4.66-.06-37.71,0-70.79,9.84-83,23.16-2.92,3.19-4.64,6.58-4.93,10.08h8.82c.46-3.56,3.14-7,7.42-10.08,13-9.47,40.64-16.34,65.35-16.94h0a1.1,1.1,0,0,1,1.1,1.1v59.4c1.71,0,3.44.05,5.18.05,24.55,0,47.13-3.51,63.58-9.88,15-5.82,23.61-13.41,24.32-21.45Z"/><path class="cls-8" d="M378.78,338v2.19c0,9.82-10.71,19.82-29.38,27.43-19.55,8-45,12.34-71.78,12.34-26.06,0-51.55-4.68-71.76-13.17-18.4-7.74-29.39-17.53-29.39-26.19V338c3.56,9.2,13.48,17.62,28.81,24.28,19.34,8.4,45,13,72.34,13s53-4.63,72.35-13c15.33-6.66,25.26-15.08,28.81-24.28"/><path class="cls-8" d="M378.78,330.3c0,24-45.37,43.52-101.16,43.52S176.47,354.3,176.47,330.3c0-6.83,3.8-13.61,11-19.68V329c0,5.16,26.13,36.18,90.68,36.18,65.23,0,89.64-29.17,89.64-35.13V310.62c7.2,6.07,11,12.86,11,19.68"/><path class="cls-9" d="M245.38,233.89a9.08,9.08,0,0,0-5.56,6.61c-.67-2-3.08-5.51-5.61-6.59,3.8-1.28,5-4.25,5.7-6.2.74,4.6,3.31,5.53,5.47,6.18m-10,0a9.58,9.58,0,0,1,4.29,5.09c.48-3,1.26-4.39,3.91-5.09-2.76-.68-3.76-2.34-3.79-4.49-1.47,3.16-2.59,4-4.41,4.49"/><path class="cls-10" d="M243.56,233.91c-2.66.71-3.43,2.12-3.91,5.09a9.58,9.58,0,0,0-4.29-5.09c1.82-.46,2.94-1.34,4.41-4.49,0,2.15,1,3.82,3.79,4.49"/><path class="cls-9" d="M237.67,245.14a7,7,0,0,0-5.94,2.76c.27-1.59,0-4.86-1.22-6.45,2.9.37,4.73-1.31,5.89-2.43-1.19,3.44.12,4.95,1.27,6.12m-6.42-3.31a7.34,7.34,0,0,1,.91,5c1.38-1.91,2.39-2.64,4.34-2.25a3.34,3.34,0,0,1-.81-4.39c-2.08,1.72-3.11,2-4.44,1.67"/><path class="cls-10" d="M236.5,244.55c-2-.39-3,.34-4.35,2.25a7.28,7.28,0,0,0-.91-5c1.34.28,2.37,0,4.45-1.67a3.34,3.34,0,0,0,.81,4.39"/><path class="cls-9" d="M246.83,244a5.14,5.14,0,0,0-.93,4.62,7.27,7.27,0,0,0-4.14-2.26,5,5,0,0,0,1.09-4.44c1.45,2.24,2.84,2.19,4,2.08m-4.55,2.11a5.35,5.35,0,0,1,3.18,1.77c-.5-1.66-.49-2.56.55-3.49a2.43,2.43,0,0,1-2.81-1.55c.1,2-.2,2.65-.92,3.27"/><path class="cls-10" d="M246,244.39c-1,.93-1,1.83-.55,3.49a5.27,5.27,0,0,0-3.18-1.76c.72-.63,1-1.32.92-3.28a2.43,2.43,0,0,0,2.81,1.55"/><path class="cls-9" d="M318.33,224.87a9.08,9.08,0,0,0-8.62-.42c1.16-1.73,2.52-5.8,1.85-8.46,3.32,2.25,6.41,1.41,8.38.79-3.21,3.37-2.4,6-1.61,8.09m-6.07-8a9.61,9.61,0,0,1-1.46,6.49c2.66-1.42,4.25-1.65,6.42,0-1.14-2.62-.41-4.42,1.28-5.74-3.4.74-4.77.38-6.24-.79"/><path class="cls-10" d="M317.22,223.44c-2.17-1.69-3.77-1.46-6.43,0a9.5,9.5,0,0,0,1.46-6.5c1.47,1.17,2.85,1.54,6.25.8-1.69,1.32-2.42,3.12-1.28,5.74"/><path class="cls-9" d="M304.71,225.54a7,7,0,0,0-5.79-3.06c1.43-.74,3.88-2.94,4.4-4.87a6.92,6.92,0,0,0,5.5,3.21c-3.46,1.14-3.87,3.1-4.11,4.72m-1.25-7.12a7.34,7.34,0,0,1-3.4,3.73c2.35-.06,3.54.31,4.42,2.1a3.34,3.34,0,0,1,3-3.3c-2.62-.62-3.43-1.3-4-2.53"/><path class="cls-10" d="M304.47,224.25c-.87-1.79-2.06-2.16-4.42-2.1a7.32,7.32,0,0,0,3.41-3.73c.58,1.23,1.4,1.91,4,2.53a3.35,3.35,0,0,0-3,3.3"/><path class="cls-9" d="M311.16,232.14a5.15,5.15,0,0,0-4.24,2.06,7.34,7.34,0,0,0-.7-4.67,5,5,0,0,0,4.19-1.82c-.91,2.51,0,3.59.75,4.43m-4.43-2.34a5.38,5.38,0,0,1,.52,3.6c1-1.4,1.74-1.94,3.1-1.68a2.43,2.43,0,0,1-.46-3.17c-1.5,1.26-2.23,1.44-3.16,1.25"/><path class="cls-10" d="M310.35,231.73c-1.36-.27-2.09.27-3.1,1.67a5.31,5.31,0,0,0-.53-3.6c.94.19,1.67,0,3.17-1.25a2.44,2.44,0,0,0,.46,3.18"/></g></svg>