<svg xmlns="http://www.w3.org/2000/svg" xmlns:xlink="http://www.w3.org/1999/xlink" viewBox="0 0 566.93 566.93"><defs><style>.cls-1,.cls-12,.cls-14{fill:none;}.cls-2{fill:#1d1d1b;}.cls-3{fill:#eb9899;}.cls-4{fill:#6e7891;}.cls-5{fill:#98a1b7;}.cls-6{fill:#b79291;}.cls-7{fill:#f4ce6f;}.cls-8{fill:#94b15b;}.cls-9{fill:#768f3f;}.cls-10{fill:#bca061;}.cls-11{fill:#161616;}.cls-12,.cls-14{stroke:#000;stroke-miterlimit:10;}.cls-13{fill:url(#RBDots);}.cls-14{stroke-width:0.75px;}.cls-15{fill:url(#RBDots-3);}.cls-16{fill:url(#RBDots-5);}</style><pattern id="RBDots" data-name="RBDots" width="28.8" height="28.8" patternTransform="translate(-16.52 -24.88) rotate(18.91)" patternUnits="userSpaceOnUse" viewBox="0 0 28.8 28.8"><rect class="cls-1" width="28.8" height="28.8"/><circle class="cls-2" cx="28.8" cy="28.8" r="0.72"/><path class="cls-2" d="M14.4,29.52a.72.72,0,1,0-.72-.72A.72.72,0,0,0,14.4,29.52Z"/><path class="cls-2" d="M28.8,15.12a.72.72,0,1,0-.72-.72A.72.72,0,0,0,28.8,15.12Z"/><path class="cls-2" d="M14.4,15.12a.72.72,0,1,0-.72-.72A.72.72,0,0,0,14.4,15.12Z"/><path class="cls-2" d="M7.2,22.32a.72.72,0,1,0-.72-.72A.72.72,0,0,0,7.2,22.32Z"/><path class="cls-2" d="M21.6,22.32a.72.72,0,1,0-.72-.72A.72.72,0,0,0,21.6,22.32Z"/><path class="cls-2" d="M14.4,22.32a.72.72,0,1,0-.72-.72A.72.72,0,0,0,14.4,22.32Z"/><path class="cls-2" d="M7.2,29.52a.72.72,0,1,0-.72-.72A.72.72,0,0,0,7.2,29.52Z"/><path class="cls-2" d="M21.82,29.52a.72.72,0,1,0-.72-.72A.72.72,0,0,0,21.82,29.52Z"/><path class="cls-2" d="M7.2,7.92a.72.72,0,1,0-.72-.72A.72.72,0,0,0,7.2,7.92Z"/><path class="cls-2" d="M7.2,15.12a.72.72,0,1,0-.72-.72A.72.72,0,0,0,7.2,15.12Z"/><path class="cls-2" d="M21.6,15.12a.72.72,0,1,0-.72-.72A.72.72,0,0,0,21.6,15.12Z"/><path class="cls-2" d="M14.4,7.92a.72.72,0,1,0-.72-.72A.72.72,0,0,0,14.4,7.92Z"/><path class="cls-2" d="M28.8,7.92a.72.72,0,1,0-.72-.72A.72.72,0,0,0,28.8,7.92Z"/><path class="cls-2" d="M21.6,7.92a.72.72,0,1,0-.72-.72A.72.72,0,0,0,21.6,7.92Z"/><path class="cls-2" d="M28.8,22.32a.72.72,0,1,0-.72-.72A.72.72,0,0,0,28.8,22.32Z"/><circle class="cls-2" cy="28.8" r="0.72"/><path class="cls-2" d="M0,15.12a.72.72,0,0,0,0-1.44.72.72,0,0,0-.72.72A.72.72,0,0,0,0,15.12Z"/><path class="cls-2" d="M0,7.92A.72.72,0,0,0,0,6.48a.72.72,0,0,0-.72.72A.72.72,0,0,0,0,7.92Z"/><path class="cls-2" d="M0,22.32a.72.72,0,0,0,0-1.44.72.72,0,0,0-.72.72A.72.72,0,0,0,0,22.32Z"/><circle class="cls-2" cx="28.8" r="0.72"/><path class="cls-2" d="M14.4.72A.72.72,0,0,0,15.12,0a.72.72,0,0,0-.72-.72.72.72,0,0,0-.72.72A.72.72,0,0,0,14.4.72Z"/><path class="cls-2" d="M7.2.72A.72.72,0,0,0,7.92,0,.72.72,0,0,0,7.2-.72.72.72,0,0,0,6.48,0,.72.72,0,0,0,7.2.72Z"/><path class="cls-2" d="M21.82.72A.72.72,0,0,0,22.54,0a.72.72,0,0,0-.72-.72A.72.72,0,0,0,21.1,0,.72.72,0,0,0,21.82.72Z"/><circle class="cls-2" r="0.72"/></pattern><pattern id="RBDots-3" data-name="RBDots" width="28.8" height="28.8" patternTransform="matrix(0.99, -0.34, -0.34, -0.99, -29.4, 78.78)" patternUnits="userSpaceOnUse" viewBox="0 0 28.8 28.8"><rect class="cls-1" width="28.8" height="28.8"/><circle class="cls-2" cx="28.8" cy="28.8" r="0.72"/><path class="cls-2" d="M14.4,29.52a.72.72,0,1,0-.72-.72A.72.72,0,0,0,14.4,29.52Z"/><path class="cls-2" d="M28.8,15.12a.72.72,0,1,0-.72-.72A.72.72,0,0,0,28.8,15.12Z"/><path class="cls-2" d="M14.4,15.12a.72.72,0,1,0-.72-.72A.72.72,0,0,0,14.4,15.12Z"/><path class="cls-2" d="M7.2,22.32a.72.72,0,1,0-.72-.72A.72.72,0,0,0,7.2,22.32Z"/><path class="cls-2" d="M21.6,22.32a.72.72,0,1,0-.72-.72A.72.72,0,0,0,21.6,22.32Z"/><path class="cls-2" d="M14.4,22.32a.72.72,0,1,0-.72-.72A.72.72,0,0,0,14.4,22.32Z"/><path class="cls-2" d="M7.2,29.52a.72.72,0,1,0-.72-.72A.72.72,0,0,0,7.2,29.52Z"/><path class="cls-2" d="M21.82,29.52a.72.72,0,1,0-.72-.72A.72.72,0,0,0,21.82,29.52Z"/><path class="cls-2" d="M7.2,7.92a.72.72,0,1,0-.72-.72A.72.72,0,0,0,7.2,7.92Z"/><path class="cls-2" d="M7.2,15.12a.72.72,0,1,0-.72-.72A.72.72,0,0,0,7.2,15.12Z"/><path class="cls-2" d="M21.6,15.12a.72.72,0,1,0-.72-.72A.72.72,0,0,0,21.6,15.12Z"/><path class="cls-2" d="M14.4,7.92a.72.72,0,1,0-.72-.72A.72.72,0,0,0,14.4,7.92Z"/><path class="cls-2" d="M28.8,7.92a.72.72,0,1,0-.72-.72A.72.72,0,0,0,28.8,7.92Z"/><path class="cls-2" d="M21.6,7.92a.72.72,0,1,0-.72-.72A.72.72,0,0,0,21.6,7.92Z"/><path class="cls-2" d="M28.8,22.32a.72.72,0,1,0-.72-.72A.72.72,0,0,0,28.8,22.32Z"/><circle class="cls-2" cy="28.8" r="0.72"/><path class="cls-2" d="M0,15.12a.72.72,0,0,0,0-1.44.72.72,0,0,0-.72.72A.72.72,0,0,0,0,15.12Z"/><path class="cls-2" d="M0,7.92A.72.72,0,0,0,0,6.48a.72.72,0,0,0-.72.72A.72.72,0,0,0,0,7.92Z"/><path class="cls-2" d="M0,22.32a.72.72,0,0,0,0-1.44.72.72,0,0,0-.72.72A.72.72,0,0,0,0,22.32Z"/><circle class="cls-2" cx="28.8" r="0.72"/><path class="cls-2" d="M14.4.72A.72.72,0,0,0,15.12,0a.72.72,0,0,0-.72-.72.72.72,0,0,0-.72.72A.72.72,0,0,0,14.4.72Z"/><path class="cls-2" d="M7.2.72A.72.72,0,0,0,7.92,0,.72.72,0,0,0,7.2-.72.72.72,0,0,0,6.48,0,.72.72,0,0,0,7.2.72Z"/><path class="cls-2" d="M21.82.72A.72.72,0,0,0,22.54,0a.72.72,0,0,0-.72-.72A.72.72,0,0,0,21.1,0,.72.72,0,0,0,21.82.72Z"/><circle class="cls-2" r="0.72"/></pattern><pattern id="RBDots-5" data-name="RBDots" width="28.8" height="28.8" patternTransform="matrix(-0.99, -0.34, 0.34, -0.99, 105.51, 48.44)" patternUnits="userSpaceOnUse" viewBox="0 0 28.8 28.8"><rect class="cls-1" width="28.8" height="28.8"/><circle class="cls-2" cx="28.8" cy="28.8" r="0.72"/><path class="cls-2" d="M14.4,29.52a.72.72,0,1,0-.72-.72A.72.72,0,0,0,14.4,29.52Z"/><path class="cls-2" d="M28.8,15.12a.72.72,0,1,0-.72-.72A.72.72,0,0,0,28.8,15.12Z"/><path class="cls-2" d="M14.4,15.12a.72.72,0,1,0-.72-.72A.72.72,0,0,0,14.4,15.12Z"/><path class="cls-2" d="M7.2,22.32a.72.72,0,1,0-.72-.72A.72.72,0,0,0,7.2,22.32Z"/><path class="cls-2" d="M21.6,22.32a.72.72,0,1,0-.72-.72A.72.72,0,0,0,21.6,22.32Z"/><path class="cls-2" d="M14.4,22.32a.72.72,0,1,0-.72-.72A.72.72,0,0,0,14.4,22.32Z"/><path class="cls-2" d="M7.2,29.52a.72.72,0,1,0-.72-.72A.72.72,0,0,0,7.2,29.52Z"/><path class="cls-2" d="M21.82,29.52a.72.72,0,1,0-.72-.72A.72.72,0,0,0,21.82,29.52Z"/><path class="cls-2" d="M7.2,7.92a.72.72,0,1,0-.72-.72A.72.72,0,0,0,7.2,7.92Z"/><path class="cls-2" d="M7.2,15.12a.72.72,0,1,0-.72-.72A.72.72,0,0,0,7.2,15.12Z"/><path class="cls-2" d="M21.6,15.12a.72.72,0,1,0-.72-.72A.72.72,0,0,0,21.6,15.12Z"/><path class="cls-2" d="M14.4,7.92a.72.72,0,1,0-.72-.72A.72.72,0,0,0,14.4,7.92Z"/><path class="cls-2" d="M28.8,7.92a.72.72,0,1,0-.72-.72A.72.72,0,0,0,28.8,7.92Z"/><path class="cls-2" d="M21.6,7.92a.72.72,0,1,0-.72-.72A.72.72,0,0,0,21.6,7.92Z"/><path class="cls-2" d="M28.8,22.32a.72.72,0,1,0-.72-.72A.72.72,0,0,0,28.8,22.32Z"/><circle class="cls-2" cy="28.8" r="0.72"/><path class="cls-2" d="M0,15.12a.72.72,0,0,0,0-1.44.72.72,0,0,0-.72.72A.72.72,0,0,0,0,15.12Z"/><path class="cls-2" d="M0,7.92A.72.72,0,0,0,0,6.48a.72.72,0,0,0-.72.72A.72.72,0,0,0,0,7.92Z"/><path class="cls-2" d="M0,22.32a.72.72,0,0,0,0-1.44.72.72,0,0,0-.72.72A.72.72,0,0,0,0,22.32Z"/><circle class="cls-2" cx="28.8" r="0.72"/><path class="cls-2" d="M14.4.72A.72.72,0,0,0,15.12,0a.72.72,0,0,0-.72-.72.72.72,0,0,0-.72.72A.72.72,0,0,0,14.4.72Z"/><path class="cls-2" d="M7.2.72A.72.72,0,0,0,7.92,0,.72.72,0,0,0,7.2-.72.72.72,0,0,0,6.48,0,.72.72,0,0,0,7.2.72Z"/><path class="cls-2" d="M21.82.72A.72.72,0,0,0,22.54,0a.72.72,0,0,0-.72-.72A.72.72,0,0,0,21.1,0,.72.72,0,0,0,21.82.72Z"/><circle class="cls-2" r="0.72"/></pattern></defs><title>2</title><g id="_2" data-name="2"><g id="Back"><rect class="cls-3" width="566.93" height="566.93"/><g id="Rock"><path class="cls-4" d="M29.56,428.5c26.73,0,26.05-5.68,21.74-11.4-6.47-8.62-23.73-6.61-31.36-4-10.73,3.69-6,15.38,9.62,15.38"/><path class="cls-5" d="M14.89,416.76s3.35-4.61,12.35-5.19,15.71-.7,19.92,2.05,4.53,4.07,4.53,4.07-1.06,3.55-2.26,4.44a15.88,15.88,0,0,1-7.53,2.19,42.41,42.41,0,0,0-8.41.22c-1.75.4-8.92-.4-10.53-1a36.12,36.12,0,0,1-7.26-4.91,4.36,4.36,0,0,1-.81-1.89"/><path class="cls-2" d="M29.56,429c-9.89,0-15.14-4.45-15.83-8.6-.56-3.36,1.7-6.26,6-7.76,7.17-2.46,25.17-4.84,31.93,4.16,1.53,2,3.13,4.66,2,7-1.77,3.54-9.43,5.19-24.1,5.19m4.9-17.63a47.59,47.59,0,0,0-14.36,2.22c-3.85,1.32-5.86,3.81-5.39,6.65.65,3.86,6,7.76,14.85,7.76,13.86,0,21.66-1.56,23.2-4.64.72-1.43.12-3.32-1.86-6-3.44-4.58-10-6-16.44-6"/><path class="cls-2" d="M30.52,425.28c-6.44,0-12.5-3-15-6.27a5,5,0,0,1-1-2.29l.37.11a9.53,9.53,0,0,0,3.94,4.1c3.77,2.24,10,3.7,14,3.22a63.34,63.34,0,0,1,6.51-.35c4.3-.08,8-.14,9.8-2.22a16.16,16.16,0,0,0,2.45-3.65s.3,0,.27.16a12.11,12.11,0,0,1-2,4.14c-2.07,2.42-6,2.49-10.54,2.57a63.78,63.78,0,0,0-6.41.34,19.8,19.8,0,0,1-2.43.14"/></g><g id="Rock-2" data-name="Rock"><path class="cls-4" d="M69.56,387.5c26.73,0,26.05-5.68,21.74-11.4-6.47-8.62-23.73-6.61-31.36-4-10.73,3.69-6,15.38,9.62,15.38"/><path class="cls-5" d="M54.89,375.76s3.35-4.61,12.35-5.19,15.71-.7,19.92,2.05,4.53,4.07,4.53,4.07-1.06,3.55-2.26,4.44a15.88,15.88,0,0,1-7.53,2.19,42.41,42.41,0,0,0-8.41.22c-1.75.4-8.92-.4-10.53-1a36.12,36.12,0,0,1-7.26-4.91,4.36,4.36,0,0,1-.81-1.89"/><path class="cls-2" d="M69.56,388c-9.89,0-15.14-4.45-15.83-8.6-.56-3.36,1.7-6.26,6-7.76,7.17-2.46,25.17-4.84,31.93,4.16,1.53,2,3.13,4.66,2,7-1.77,3.54-9.43,5.19-24.1,5.19m4.9-17.63a47.59,47.59,0,0,0-14.36,2.22c-3.85,1.32-5.86,3.81-5.39,6.65.65,3.86,6,7.76,14.85,7.76,13.86,0,21.66-1.56,23.2-4.64.72-1.43.12-3.32-1.86-6-3.44-4.58-10-6-16.44-6"/><path class="cls-2" d="M70.52,384.28c-6.44,0-12.5-3-15-6.27a5,5,0,0,1-1-2.29l.37.11a9.53,9.53,0,0,0,3.94,4.1c3.77,2.24,10,3.7,14,3.22a63.34,63.34,0,0,1,6.51-.35c4.3-.08,8-.14,9.8-2.22a16.16,16.16,0,0,0,2.45-3.65s.3,0,.27.16a12.11,12.11,0,0,1-2,4.14c-2.07,2.42-6,2.49-10.54,2.57a63.78,63.78,0,0,0-6.41.34,19.8,19.8,0,0,1-2.43.14"/></g><g id="Rock-3" data-name="Rock"><path class="cls-4" d="M129.56,408.5c26.73,0,26.05-5.68,21.74-11.4-6.47-8.62-23.73-6.61-31.36-4-10.73,3.69-6,15.38,9.62,15.38"/><path class="cls-5" d="M114.89,396.76s3.35-4.61,12.35-5.19,15.71-.7,19.92,2.05,4.53,4.07,4.53,4.07-1.06,3.55-2.26,4.44a15.88,15.88,0,0,1-7.53,2.19,42.41,42.41,0,0,0-8.41.22c-1.75.4-8.92-.4-10.53-1a36.12,36.12,0,0,1-7.26-4.91,4.36,4.36,0,0,1-.81-1.89"/><path class="cls-2" d="M129.56,409c-9.89,0-15.14-4.45-15.83-8.6-.56-3.36,1.7-6.26,6-7.76,7.17-2.46,25.17-4.84,31.93,4.16,1.53,2,3.13,4.66,2,7-1.77,3.54-9.43,5.19-24.1,5.19m4.9-17.63a47.59,47.59,0,0,0-14.36,2.22c-3.85,1.32-5.86,3.81-5.39,6.65.65,3.86,6,7.76,14.85,7.76,13.86,0,21.66-1.56,23.2-4.64.72-1.43.12-3.32-1.86-6-3.44-4.58-10-6-16.44-6"/><path class="cls-2" d="M130.52,405.28c-6.44,0-12.5-3-15-6.27a5,5,0,0,1-1-2.29l.37.11a9.53,9.53,0,0,0,3.94,4.1c3.77,2.24,10,3.7,14.05,3.22a63.34,63.34,0,0,1,6.51-.35c4.3-.08,8-.14,9.8-2.22a16.16,16.16,0,0,0,2.45-3.65s.3,0,.27.16a12.11,12.11,0,0,1-2,4.14c-2.07,2.42-6,2.49-10.54,2.57a63.78,63.78,0,0,0-6.41.34,19.8,19.8,0,0,1-2.43.14"/></g><g id="Rock-4" data-name="Rock"><path class="cls-4" d="M157.56,349.5c26.73,0,26.05-5.68,21.74-11.4-6.47-8.62-23.73-6.61-31.36-4-10.73,3.69-6,15.38,9.62,15.38"/><path class="cls-5" d="M142.89,337.76s3.35-4.61,12.35-5.19,15.71-.7,19.92,2.05,4.53,4.07,4.53,4.07-1.06,3.55-2.26,4.44a15.88,15.88,0,0,1-7.53,2.19,42.41,42.41,0,0,0-8.41.22c-1.75.4-8.92-.4-10.53-1a36.12,36.12,0,0,1-7.26-4.91,4.36,4.36,0,0,1-.81-1.89"/><path class="cls-2" d="M157.56,350c-9.89,0-15.14-4.45-15.83-8.6-.56-3.36,1.7-6.26,6-7.76,7.17-2.46,25.17-4.84,31.93,4.16,1.53,2,3.13,4.66,2,7-1.77,3.54-9.43,5.19-24.1,5.19m4.9-17.63a47.59,47.59,0,0,0-14.36,2.22c-3.85,1.32-5.86,3.81-5.39,6.65.65,3.86,6,7.76,14.85,7.76,13.86,0,21.66-1.56,23.2-4.64.72-1.43.12-3.32-1.86-6-3.44-4.58-10-6-16.44-6"/><path class="cls-2" d="M158.52,346.28c-6.44,0-12.5-3-15-6.27a5,5,0,0,1-1-2.29l.37.11a9.53,9.53,0,0,0,3.94,4.1c3.77,2.24,10,3.7,14.05,3.22a63.34,63.34,0,0,1,6.51-.35c4.3-.08,8-.14,9.8-2.22a16.16,16.16,0,0,0,2.45-3.65s.3,0,.27.16a12.11,12.11,0,0,1-2,4.14c-2.07,2.42-6,2.49-10.54,2.57a63.78,63.78,0,0,0-6.41.34,19.8,19.8,0,0,1-2.43.14"/></g><g id="Rock-5" data-name="Rock"><path class="cls-4" d="M213.56,371.5c26.73,0,26.05-5.68,21.74-11.4-6.47-8.62-23.73-6.61-31.36-4-10.73,3.69-6,15.38,9.62,15.38"/><path class="cls-5" d="M198.89,359.76s3.35-4.61,12.35-5.19,15.71-.7,19.92,2.05,4.53,4.07,4.53,4.07-1.06,3.55-2.26,4.44a15.88,15.88,0,0,1-7.53,2.19,42.41,42.41,0,0,0-8.41.22c-1.75.4-8.92-.4-10.53-1a36.12,36.12,0,0,1-7.26-4.91,4.36,4.36,0,0,1-.81-1.89"/><path class="cls-2" d="M213.56,372c-9.89,0-15.14-4.45-15.83-8.6-.56-3.36,1.7-6.26,6-7.76,7.17-2.46,25.17-4.84,31.93,4.16,1.53,2,3.13,4.66,2,7-1.77,3.54-9.43,5.19-24.1,5.19m4.9-17.63a47.59,47.59,0,0,0-14.36,2.22c-3.85,1.32-5.86,3.81-5.39,6.65.65,3.86,6,7.76,14.85,7.76,13.86,0,21.66-1.56,23.2-4.64.72-1.43.12-3.32-1.86-6-3.44-4.58-10-6-16.44-6"/><path class="cls-2" d="M214.52,368.28c-6.44,0-12.5-3-15-6.27a5,5,0,0,1-1-2.29l.37.11a9.53,9.53,0,0,0,3.94,4.1c3.77,2.24,10,3.7,14.05,3.22a63.34,63.34,0,0,1,6.51-.35c4.3-.08,8-.14,9.8-2.22a16.16,16.16,0,0,0,2.45-3.65s.3,0,.27.16a12.11,12.11,0,0,1-2,4.14c-2.07,2.42-6,2.49-10.54,2.57a63.78,63.78,0,0,0-6.41.34,19.8,19.8,0,0,1-2.43.14"/></g><g id="Rock-6" data-name="Rock"><path class="cls-4" d="M259,323.67c26.73,0,26.05-5.68,21.74-11.41-6.47-8.61-23.72-6.6-31.36-4-10.73,3.69-6,15.39,9.62,15.39"/><path class="cls-5" d="M244.3,311.92s3.35-4.6,12.35-5.18,15.71-.7,19.91,2.05,4.53,4.07,4.53,4.07-1,3.55-2.26,4.44a15.88,15.88,0,0,1-7.53,2.18,43.18,43.18,0,0,0-8.41.22c-1.74.41-8.92-.4-10.52-1a36.48,36.48,0,0,1-7.27-4.9,4.3,4.3,0,0,1-.8-1.9"/><path class="cls-2" d="M259,324.17c-9.89,0-15.13-4.46-15.83-8.6-.56-3.36,1.7-6.27,6.05-7.76,7.17-2.47,25.16-4.84,31.92,4.15,1.53,2,3.13,4.67,2,7-1.77,3.55-9.43,5.2-24.1,5.2m4.9-17.64a47.56,47.56,0,0,0-14.36,2.23c-3.84,1.32-5.86,3.8-5.38,6.64.64,3.86,5.95,7.77,14.84,7.77,13.86,0,21.67-1.56,23.21-4.65.71-1.42.12-3.32-1.86-6-3.44-4.57-10-6-16.45-6"/><path class="cls-2" d="M259.93,320.45c-6.45,0-12.5-3-15-6.28a5,5,0,0,1-1-2.29l.36.12a9.61,9.61,0,0,0,3.94,4.09c3.77,2.24,10,3.71,14.05,3.22a63.28,63.28,0,0,1,6.51-.34c4.31-.08,8-.15,9.8-2.22A15.83,15.83,0,0,0,281,313.1s.31,0,.28.16a12.33,12.33,0,0,1-2,4.14c-2.07,2.42-6,2.49-10.54,2.57a63.73,63.73,0,0,0-6.41.33,19.77,19.77,0,0,1-2.42.15"/></g><g id="Rock-7" data-name="Rock"><path class="cls-4" d="M323.37,360.67c26.73,0,26.05-5.68,21.74-11.4-6.47-8.62-23.73-6.61-31.37-4-10.72,3.69-6,15.38,9.63,15.38"/><path class="cls-5" d="M308.7,348.93s3.35-4.61,12.35-5.19,15.71-.7,19.92,2.05,4.53,4.07,4.53,4.07-1.06,3.55-2.26,4.44a15.88,15.88,0,0,1-7.53,2.19,42.41,42.41,0,0,0-8.41.22c-1.75.4-8.92-.4-10.53-1a36.12,36.12,0,0,1-7.26-4.91,4.36,4.36,0,0,1-.81-1.89"/><path class="cls-2" d="M323.37,361.17c-9.89,0-15.14-4.45-15.83-8.6-.56-3.36,1.69-6.26,6-7.76,7.17-2.46,25.17-4.84,31.93,4.16,1.53,2,3.13,4.66,2,7-1.77,3.54-9.43,5.19-24.1,5.19m4.9-17.63a47.59,47.59,0,0,0-14.36,2.22c-3.85,1.32-5.86,3.81-5.39,6.65.65,3.86,6,7.76,14.85,7.76,13.86,0,21.66-1.56,23.2-4.64.72-1.43.12-3.32-1.86-6-3.44-4.58-10-6-16.44-6"/><path class="cls-2" d="M324.33,357.45c-6.45,0-12.5-3-15-6.27a5,5,0,0,1-1-2.29l.36.11a9.61,9.61,0,0,0,3.94,4.1c3.78,2.24,10,3.7,14.05,3.22a63.54,63.54,0,0,1,6.52-.35c4.3-.08,8-.14,9.8-2.22a16.16,16.16,0,0,0,2.45-3.65s.3,0,.27.16a12.3,12.3,0,0,1-2,4.14c-2.07,2.42-6,2.49-10.55,2.57a63.94,63.94,0,0,0-6.41.34,19.64,19.64,0,0,1-2.42.14"/></g><g id="Rock-8" data-name="Rock"><path class="cls-4" d="M378.56,322.37c26.73,0,26.05-5.68,21.74-11.41-6.47-8.61-23.73-6.6-31.36-4-10.73,3.69-6,15.39,9.62,15.39"/><path class="cls-5" d="M363.89,310.62s3.35-4.6,12.35-5.18,15.71-.7,19.92,2.05,4.53,4.07,4.53,4.07-1.06,3.55-2.26,4.44a15.88,15.88,0,0,1-7.53,2.18,43.18,43.18,0,0,0-8.41.22c-1.75.41-8.92-.4-10.53-1a36.1,36.1,0,0,1-7.26-4.9,4.38,4.38,0,0,1-.81-1.9"/><path class="cls-2" d="M378.56,322.87c-9.89,0-15.14-4.46-15.83-8.6-.56-3.36,1.7-6.27,6-7.76,7.17-2.47,25.17-4.84,31.93,4.15,1.53,2,3.13,4.67,2,7-1.77,3.55-9.43,5.2-24.1,5.2m4.9-17.64a47.56,47.56,0,0,0-14.36,2.23c-3.85,1.32-5.86,3.8-5.39,6.64.65,3.86,6,7.77,14.85,7.77,13.86,0,21.66-1.56,23.2-4.65.72-1.42.12-3.32-1.86-6-3.44-4.57-10-6-16.44-6"/><path class="cls-2" d="M379.52,319.15c-6.44,0-12.5-3-15-6.28a5,5,0,0,1-1-2.29l.37.12a9.54,9.54,0,0,0,3.94,4.09c3.77,2.24,10,3.71,14.05,3.22a63.28,63.28,0,0,1,6.51-.34c4.3-.08,8-.15,9.8-2.22a16.16,16.16,0,0,0,2.45-3.65s.3,0,.27.16a12.28,12.28,0,0,1-2,4.14c-2.07,2.42-6,2.49-10.54,2.57A63.73,63.73,0,0,0,382,319a19.81,19.81,0,0,1-2.43.15"/></g><g id="Rock-9" data-name="Rock"><path class="cls-4" d="M420.56,363.37c26.73,0,26.05-5.68,21.74-11.41-6.47-8.61-23.73-6.6-31.36-4-10.73,3.69-6,15.39,9.62,15.39"/><path class="cls-5" d="M405.89,351.62s3.35-4.6,12.35-5.18,15.71-.7,19.92,2.05,4.53,4.07,4.53,4.07-1.06,3.55-2.26,4.44a15.88,15.88,0,0,1-7.53,2.18,43.18,43.18,0,0,0-8.41.22c-1.75.41-8.92-.4-10.53-1a36.1,36.1,0,0,1-7.26-4.9,4.38,4.38,0,0,1-.81-1.9"/><path class="cls-2" d="M420.56,363.87c-9.89,0-15.14-4.46-15.83-8.6-.56-3.36,1.7-6.27,6-7.76,7.18-2.47,25.17-4.84,31.93,4.15,1.53,2,3.13,4.67,2,7-1.77,3.55-9.43,5.2-24.1,5.2m4.9-17.64a47.56,47.56,0,0,0-14.36,2.23c-3.85,1.32-5.86,3.8-5.38,6.64.64,3.86,5.95,7.77,14.84,7.77,13.86,0,21.67-1.56,23.2-4.65.72-1.42.13-3.32-1.86-6-3.43-4.57-10-6-16.44-6"/><path class="cls-2" d="M421.52,360.15c-6.44,0-12.5-3-15-6.28a5,5,0,0,1-1-2.29l.37.12a9.54,9.54,0,0,0,3.94,4.09c3.77,2.24,10,3.71,14.05,3.22a63.28,63.28,0,0,1,6.51-.34c4.3-.08,8-.15,9.8-2.22a16.16,16.16,0,0,0,2.45-3.65s.3,0,.27.16a12.28,12.28,0,0,1-2,4.14c-2.07,2.42-6,2.49-10.54,2.57A63.73,63.73,0,0,0,424,360a19.81,19.81,0,0,1-2.43.15"/></g><g id="Rock-10" data-name="Rock"><path class="cls-4" d="M499.24,343.07c26.73,0,26-5.68,21.74-11.41-6.47-8.62-23.73-6.61-31.36-4-10.73,3.69-6,15.39,9.62,15.39"/><path class="cls-5" d="M484.58,331.32s3.34-4.6,12.34-5.19,15.72-.69,19.92,2.05,4.53,4.07,4.53,4.07-1.06,3.55-2.26,4.44a15.76,15.76,0,0,1-7.53,2.19,42.41,42.41,0,0,0-8.41.22c-1.75.4-8.92-.4-10.52-1a36.33,36.33,0,0,1-7.27-4.9,4.34,4.34,0,0,1-.8-1.9"/><path class="cls-2" d="M499.24,343.57c-9.89,0-15.14-4.46-15.83-8.61-.56-3.36,1.7-6.26,6-7.75,7.18-2.47,25.17-4.85,31.93,4.15,1.53,2,3.13,4.66,2,7-1.77,3.54-9.43,5.2-24.1,5.2m4.9-17.64a47.91,47.91,0,0,0-14.36,2.22c-3.85,1.32-5.86,3.81-5.38,6.65.64,3.86,6,7.77,14.84,7.77,13.86,0,21.67-1.57,23.2-4.65.72-1.43.13-3.32-1.86-6-3.43-4.57-10-6-16.44-6"/><path class="cls-2" d="M500.21,339.84c-6.45,0-12.51-3-15-6.27a5,5,0,0,1-1-2.29l.37.11a9.53,9.53,0,0,0,3.94,4.1c3.77,2.24,10,3.7,14.05,3.22a63.34,63.34,0,0,1,6.51-.35c4.3-.07,8-.14,9.8-2.21a16,16,0,0,0,2.45-3.65s.31,0,.27.15a12.23,12.23,0,0,1-2,4.15c-2.07,2.41-6,2.48-10.54,2.56a63.78,63.78,0,0,0-6.41.34,19.75,19.75,0,0,1-2.42.14"/></g><g id="Rock-11" data-name="Rock"><path class="cls-4" d="M529.1,388.8c26.73,0,26-5.68,21.74-11.4-6.47-8.62-23.73-6.61-31.36-4-10.73,3.69-6,15.38,9.62,15.38"/><path class="cls-5" d="M514.44,377.06s3.34-4.61,12.34-5.19,15.72-.7,19.92,2.05,4.53,4.07,4.53,4.07-1.06,3.55-2.26,4.44a15.88,15.88,0,0,1-7.53,2.19,42.41,42.41,0,0,0-8.41.22c-1.75.4-8.92-.4-10.52-1a35.92,35.92,0,0,1-7.27-4.91,4.28,4.28,0,0,1-.8-1.89"/><path class="cls-2" d="M529.1,389.3c-9.89,0-15.14-4.45-15.83-8.6-.56-3.36,1.7-6.26,6-7.76,7.18-2.46,25.17-4.84,31.93,4.16,1.53,2,3.13,4.66,2,7-1.77,3.54-9.43,5.19-24.1,5.19m4.9-17.63a47.59,47.59,0,0,0-14.36,2.22c-3.85,1.32-5.86,3.81-5.38,6.65.64,3.86,6,7.76,14.84,7.76,13.86,0,21.67-1.56,23.2-4.64.72-1.43.13-3.32-1.86-6-3.43-4.58-10-6-16.44-6"/><path class="cls-2" d="M530.07,385.58c-6.45,0-12.51-3-15-6.27a5,5,0,0,1-1-2.29l.37.11a9.53,9.53,0,0,0,3.94,4.1c3.77,2.24,10,3.7,14,3.22a63.34,63.34,0,0,1,6.51-.35c4.3-.08,8-.14,9.8-2.22a15.83,15.83,0,0,0,2.45-3.65s.31,0,.27.16a12.11,12.11,0,0,1-2,4.14c-2.07,2.42-6,2.49-10.54,2.57a63.78,63.78,0,0,0-6.41.34,19.75,19.75,0,0,1-2.42.14"/></g><path class="cls-6" d="M498.4,228.15c0-3.06-1.93-5.89-5.18-8.19,1.88-1.32,3-2.94,3-4.69,0-4.4-6.92-8-15.47-8-8.05,0-14.66,3.16-15.39,7.2-12.19,1.38-21.31,7-21.31,13.64,0,7.72,12.17,14,27.18,14h.86c.93,2.55,5.28,4.48,10.51,4.48,5.91,0,10.71-2.46,10.71-5.5a4.27,4.27,0,0,0-2.27-3.38C495.6,235.21,498.4,231.85,498.4,228.15Z"/><path class="cls-6" d="M514.24,255.33c0,3-4.79,5.51-10.7,5.51s-10.7-2.47-10.7-5.51,4.79-5.5,10.7-5.5,10.7,2.46,10.7,5.5"/><polygon class="cls-7" points="124.84 202.04 124.84 202.04 124.84 202.04 89.72 188.43 54.59 202.69 54.59 202.69 54.59 202.69 54.59 202.69 54.59 202.69 89.72 216.31 124.83 202.04 124.84 202.04 124.84 202.04"/><path class="cls-8" d="M327,514.08c0,16.72-26.37,30.28-58.9,30.28s-58.91-13.56-58.91-30.28,26.38-30.29,58.91-30.29S327,497.35,327,514.08"/><path class="cls-8" d="M230.8,496.19c0,9.06-14.28,16.4-31.91,16.4s-31.9-7.34-31.9-16.4,14.28-16.41,31.9-16.41,31.91,7.35,31.91,16.41"/><path class="cls-9" d="M241.08,534.54c0,5.42-8.55,9.82-19.1,9.82s-19.1-4.4-19.1-9.82,8.55-9.82,19.1-9.82,19.1,4.4,19.1,9.82"/><path class="cls-10" d="M269.64,488.82c-14.68,0-26.82,7.94-29.07,18.32H225.88c-.86,0-1.55,1.55-1.55,3.47s.69,3.47,1.55,3.47h14.69c2.25,10.38,14.39,18.32,29.07,18.32,16.28,0,29.48-9.75,29.48-21.79S285.92,488.82,269.64,488.82Z"/><path class="cls-11" d="M222.19,478.3v34.23c0,.85,1.56,1.55,3.47,1.55s3.47-.7,3.47-1.55V478.3Z"/><ellipse class="cls-7" cx="225.66" cy="419.29" rx="37.6" ry="59.78"/><path class="cls-10" d="M225.66,479.07c20.76,0,37.6-26.76,37.6-59.78,0-24.48-9.26-45.51-22.52-54.76-19.56,4.67-37.37,27.84-43.28,59.34a111.42,111.42,0,0,0-1.36,32.33C203,470.12,213.66,479.07,225.66,479.07Z"/><ellipse class="cls-12" cx="225.66" cy="419.29" rx="37.6" ry="59.78"/><polygon class="cls-7" points="205.94 160.59 205.94 160.59 205.94 160.59 125.61 129.45 45.27 162.08 45.27 162.08 45.27 162.08 45.27 162.08 45.27 162.08 125.61 193.22 205.94 160.59 205.94 160.59 205.94 160.59"/><path class="cls-10" d="M157.1,138.42c-12.94,0-23.64,7-25.62,16.15H118.53c-.76,0-1.37,1.37-1.37,3.06s.61,3.06,1.37,3.06h12.95c2,9.15,12.68,16.15,25.62,16.15,14.36,0,26-8.6,26-19.21S171.46,138.42,157.1,138.42Z"/><polygon class="cls-13" points="205.94 160.59 205.94 160.59 205.94 160.59 125.61 129.45 45.27 162.08 45.27 162.08 45.27 162.08 45.27 162.08 45.27 162.08 125.61 193.22 205.94 160.59 205.94 160.59 205.94 160.59"/><path class="cls-11" d="M115.28,129.15v30.17c0,.76,1.37,1.37,3.06,1.37s3-.61,3-1.37V129.15Z"/><path class="cls-7" d="M146.72,123.58,130.79,55.37C128.13,44,112,43.63,108.88,54.91L89.75,123.58c0,6.27,12.8,11.35,28.59,11.35s28.58-5.08,28.58-11.35Z"/><path class="cls-10" d="M146.92,123.58h-.2L130.79,55.37a11.25,11.25,0,0,0-2.51-5,8.85,8.85,0,0,0-4.21,5.47l-21.41,76.88a3.11,3.11,0,0,0,0,.32,63,63,0,0,0,15.64,1.86C134.12,134.93,146.92,129.85,146.92,123.58Z"/><path class="cls-14" d="M146.72,123.58,130.79,55.37C128.13,44,112,43.63,108.88,54.91L89.75,123.58c0,6.27,12.8,11.35,28.59,11.35s28.58-5.08,28.58-11.35Z"/><path class="cls-15" d="M489.66,518.82a62.61,62.61,0,0,1-22-3.74,6.6,6.6,0,0,1,1.25,3.74c0,6.25-9.86,11.32-22,11.32s-22-5.07-22-11.32,9.86-11.33,22-11.33a39.49,39.49,0,0,1,10.18,1.29c-2.79-2.67-4.38-5.73-4.38-9,0-10.5,16.56-19,37-19s37,8.51,37,19S510.09,518.82,489.66,518.82Z"/><path class="cls-16" d="M457.31,94.37a62.8,62.8,0,0,0,22-3.73,6.57,6.57,0,0,0-1.25,3.73c0,6.26,9.86,11.33,22,11.33s22-5.07,22-11.33-9.86-11.32-22-11.32a39.37,39.37,0,0,0-10.18,1.29c2.79-2.68,4.37-5.73,4.37-9,0-10.5-16.55-19-37-19s-37,8.51-37,19S436.89,94.37,457.31,94.37Z"/></g></g></svg>