<svg xmlns="http://www.w3.org/2000/svg" xmlns:xlink="http://www.w3.org/1999/xlink" viewBox="0 0 566.93 566.93"><defs><style>.cls-1,.cls-9{fill:none;}.cls-2{fill:#1d1d1b;}.cls-3{fill:#eb9899;}.cls-4{fill:#6e7891;}.cls-5{fill:#98a1b7;}.cls-6{fill:#f4ce6f;}.cls-7{fill:#bca061;}.cls-8{fill:#161616;}.cls-9{stroke:#000;stroke-miterlimit:10;stroke-width:0.5px;}.cls-10{fill:url(#RBDots);}</style><pattern id="RBDots" data-name="RBDots" width="28.8" height="28.8" patternTransform="matrix(0.95, 0.28, -0.32, 0.83, -44.4, 3.73)" patternUnits="userSpaceOnUse" viewBox="0 0 28.8 28.8"><rect class="cls-1" width="28.8" height="28.8"/><circle class="cls-2" cx="28.8" cy="28.8" r="0.72"/><path class="cls-2" d="M14.4,29.52a.72.72,0,1,0-.72-.72A.72.72,0,0,0,14.4,29.52Z"/><path class="cls-2" d="M28.8,15.12a.72.72,0,1,0-.72-.72A.72.72,0,0,0,28.8,15.12Z"/><path class="cls-2" d="M14.4,15.12a.72.72,0,1,0-.72-.72A.72.72,0,0,0,14.4,15.12Z"/><path class="cls-2" d="M7.2,22.32a.72.72,0,1,0-.72-.72A.72.72,0,0,0,7.2,22.32Z"/><path class="cls-2" d="M21.6,22.32a.72.72,0,1,0-.72-.72A.72.72,0,0,0,21.6,22.32Z"/><path class="cls-2" d="M14.4,22.32a.72.72,0,1,0-.72-.72A.72.72,0,0,0,14.4,22.32Z"/><path class="cls-2" d="M7.2,29.52a.72.72,0,1,0-.72-.72A.72.72,0,0,0,7.2,29.52Z"/><path class="cls-2" d="M21.82,29.52a.72.72,0,1,0-.72-.72A.72.72,0,0,0,21.82,29.52Z"/><path class="cls-2" d="M7.2,7.92a.72.72,0,1,0-.72-.72A.72.72,0,0,0,7.2,7.92Z"/><path class="cls-2" d="M7.2,15.12a.72.72,0,1,0-.72-.72A.72.72,0,0,0,7.2,15.12Z"/><path class="cls-2" d="M21.6,15.12a.72.72,0,1,0-.72-.72A.72.72,0,0,0,21.6,15.12Z"/><path class="cls-2" d="M14.4,7.92a.72.72,0,1,0-.72-.72A.72.72,0,0,0,14.4,7.92Z"/><path class="cls-2" d="M28.8,7.92a.72.72,0,1,0-.72-.72A.72.72,0,0,0,28.8,7.92Z"/><path class="cls-2" d="M21.6,7.92a.72.72,0,1,0-.72-.72A.72.72,0,0,0,21.6,7.92Z"/><path class="cls-2" d="M28.8,22.32a.72.72,0,1,0-.72-.72A.72.72,0,0,0,28.8,22.32Z"/><circle class="cls-2" cy="28.8" r="0.72"/><path class="cls-2" d="M0,15.12a.72.72,0,0,0,0-1.44.72.72,0,0,0-.72.72A.72.72,0,0,0,0,15.12Z"/><path class="cls-2" d="M0,7.92A.72.72,0,0,0,0,6.48a.72.72,0,0,0-.72.72A.72.72,0,0,0,0,7.92Z"/><path class="cls-2" d="M0,22.32a.72.72,0,0,0,0-1.44.72.72,0,0,0-.72.72A.72.72,0,0,0,0,22.32Z"/><circle class="cls-2" cx="28.8" r="0.72"/><path class="cls-2" d="M14.4.72A.72.72,0,0,0,15.12,0a.72.72,0,0,0-.72-.72.72.72,0,0,0-.72.72A.72.72,0,0,0,14.4.72Z"/><path class="cls-2" d="M7.2.72A.72.72,0,0,0,7.92,0,.72.72,0,0,0,7.2-.72.72.72,0,0,0,6.48,0,.72.72,0,0,0,7.2.72Z"/><path class="cls-2" d="M21.82.72A.72.72,0,0,0,22.54,0a.72.72,0,0,0-.72-.72A.72.72,0,0,0,21.1,0,.72.72,0,0,0,21.82.72Z"/><circle class="cls-2" r="0.72"/></pattern></defs><title>3</title><g id="_3" data-name="3"><g id="Back"><rect class="cls-3" width="566.93" height="566.93"/><g id="Rock"><path class="cls-4" d="M30.39,372.8c26.73,0,26.05-5.68,21.74-11.4-6.47-8.62-23.72-6.61-31.36-4-10.73,3.69-6,15.38,9.62,15.38"/><path class="cls-5" d="M15.73,361.06s3.35-4.61,12.35-5.19,15.71-.7,19.91,2.05S52.52,362,52.52,362s-1.05,3.55-2.26,4.44a15.88,15.88,0,0,1-7.53,2.19,42.41,42.41,0,0,0-8.41.22c-1.74.4-8.92-.4-10.52-1A36.5,36.5,0,0,1,16.53,363a4.28,4.28,0,0,1-.8-1.89"/><path class="cls-2" d="M30.39,373.3c-9.89,0-15.13-4.45-15.83-8.6-.56-3.36,1.7-6.26,6-7.76,7.17-2.46,25.16-4.84,31.92,4.16,1.53,2,3.13,4.66,2,7-1.77,3.54-9.43,5.19-24.1,5.19m4.9-17.63a47.59,47.59,0,0,0-14.36,2.22c-3.84,1.32-5.86,3.81-5.38,6.65.64,3.86,5.95,7.76,14.84,7.76,13.86,0,21.67-1.56,23.21-4.64.71-1.43.12-3.32-1.86-6-3.44-4.58-10-6-16.45-6"/><path class="cls-2" d="M31.36,369.58c-6.45,0-12.5-3-15-6.27a5,5,0,0,1-1-2.29l.36.11a9.61,9.61,0,0,0,3.94,4.1c3.77,2.24,10,3.7,14,3.22a63.34,63.34,0,0,1,6.51-.35c4.31-.08,8-.14,9.8-2.22a15.83,15.83,0,0,0,2.45-3.65s.31,0,.28.16a12.16,12.16,0,0,1-2,4.14c-2.07,2.42-6,2.49-10.54,2.57a63.78,63.78,0,0,0-6.41.34,19.75,19.75,0,0,1-2.42.14"/></g><g id="Rock-2" data-name="Rock"><path class="cls-4" d="M30.39,419.2c26.73,0,26.05-5.68,21.74-11.41-6.47-8.61-23.72-6.6-31.36-4-10.73,3.69-6,15.39,9.62,15.39"/><path class="cls-5" d="M15.73,407.45s3.35-4.6,12.35-5.18,15.71-.7,19.91,2.05,4.53,4.06,4.53,4.06-1.05,3.56-2.26,4.45A15.88,15.88,0,0,1,42.73,415a43.18,43.18,0,0,0-8.41.22c-1.74.41-8.92-.4-10.52-1a36.91,36.91,0,0,1-7.27-4.9,4.34,4.34,0,0,1-.8-1.9"/><path class="cls-2" d="M30.39,419.7c-9.89,0-15.13-4.46-15.83-8.6-.56-3.36,1.7-6.27,6-7.76,7.17-2.47,25.16-4.84,31.92,4.15,1.53,2,3.13,4.67,2,7-1.77,3.55-9.43,5.2-24.1,5.2m4.9-17.64a47.56,47.56,0,0,0-14.36,2.23c-3.84,1.32-5.86,3.8-5.38,6.64.64,3.86,5.95,7.77,14.84,7.77,13.86,0,21.67-1.56,23.21-4.65.71-1.42.12-3.32-1.86-6-3.44-4.57-10-6-16.45-6"/><path class="cls-2" d="M31.36,416c-6.45,0-12.5-3-15-6.28a5,5,0,0,1-1-2.29l.36.12a9.61,9.61,0,0,0,3.94,4.09c3.77,2.24,10,3.71,14,3.22a63.28,63.28,0,0,1,6.51-.34c4.31-.08,8-.15,9.8-2.22a15.83,15.83,0,0,0,2.45-3.65s.31,0,.28.16a12.33,12.33,0,0,1-2,4.14c-2.07,2.42-6,2.49-10.54,2.57a63.73,63.73,0,0,0-6.41.33,19.77,19.77,0,0,1-2.42.15"/></g><g id="Rock-3" data-name="Rock"><path class="cls-4" d="M132.56,459.83c26.73,0,26.05-5.68,21.74-11.4-6.47-8.62-23.73-6.61-31.36-4-10.73,3.69-6,15.39,9.62,15.39"/><path class="cls-5" d="M117.9,448.09s3.35-4.61,12.35-5.19,15.71-.7,19.91,2.05,4.53,4.07,4.53,4.07-1.06,3.55-2.26,4.44a15.76,15.76,0,0,1-7.53,2.18,43.13,43.13,0,0,0-8.41.23c-1.74.4-8.92-.4-10.52-1A36.21,36.21,0,0,1,118.7,450a4.28,4.28,0,0,1-.8-1.89"/><path class="cls-2" d="M132.56,460.33c-9.89,0-15.14-4.46-15.83-8.6-.56-3.36,1.7-6.26,6-7.76,7.18-2.46,25.17-4.84,31.93,4.16,1.53,2,3.13,4.66,2,7-1.77,3.55-9.43,5.2-24.1,5.2m4.9-17.63a47.59,47.59,0,0,0-14.36,2.22c-3.85,1.32-5.86,3.8-5.38,6.64.64,3.86,6,7.77,14.84,7.77,13.86,0,21.67-1.56,23.2-4.64.72-1.43.13-3.33-1.86-6-3.43-4.58-10-6-16.44-6"/><path class="cls-2" d="M133.53,456.61c-6.45,0-12.51-3-15-6.28a5,5,0,0,1-1-2.28l.37.11a9.59,9.59,0,0,0,3.94,4.1c3.77,2.24,10,3.7,14.05,3.21,2.22-.26,4.4-.3,6.51-.34,4.31-.08,8-.14,9.8-2.22a15.83,15.83,0,0,0,2.45-3.65s.31,0,.28.16a12.25,12.25,0,0,1-2,4.14c-2.07,2.42-6,2.49-10.54,2.57a63.78,63.78,0,0,0-6.41.34,22,22,0,0,1-2.42.14"/></g><g id="Rock-4" data-name="Rock"><path class="cls-4" d="M114.73,406.91c26.73,0,26-5.68,21.74-11.4-6.48-8.62-23.73-6.61-31.37-4-10.72,3.69-6,15.39,9.63,15.39"/><path class="cls-5" d="M100.06,395.16s3.35-4.6,12.35-5.18,15.71-.7,19.92,2,4.52,4.07,4.52,4.07-1,3.55-2.25,4.44a15.8,15.8,0,0,1-7.53,2.18,43.31,43.31,0,0,0-8.42.22c-1.74.41-8.91-.4-10.52-1a36.12,36.12,0,0,1-7.26-4.91,4.38,4.38,0,0,1-.81-1.9"/><path class="cls-2" d="M114.73,407.41c-9.89,0-15.14-4.46-15.83-8.6-.57-3.36,1.69-6.26,6-7.76,7.17-2.46,25.17-4.84,31.93,4.15,1.53,2,3.13,4.67,1.95,7-1.77,3.55-9.42,5.2-24.09,5.2m4.9-17.64A47.56,47.56,0,0,0,105.27,392c-3.85,1.32-5.86,3.8-5.39,6.64.65,3.86,6,7.77,14.85,7.77,13.85,0,21.66-1.56,23.2-4.64.71-1.43.12-3.33-1.86-6-3.44-4.57-10-6-16.44-6"/><path class="cls-2" d="M115.69,403.69c-6.45,0-12.5-3-15-6.28a4.9,4.9,0,0,1-1-2.28l.36.11a9.61,9.61,0,0,0,3.94,4.09c3.77,2.25,10,3.71,14,3.22,2.22-.26,4.41-.3,6.52-.34,4.3-.08,8-.14,9.8-2.22a16.16,16.16,0,0,0,2.45-3.65s.3,0,.27.16a12.48,12.48,0,0,1-2,4.14c-2.07,2.42-6,2.49-10.55,2.57a63.88,63.88,0,0,0-6.41.33,19.77,19.77,0,0,1-2.42.15"/></g><g id="Rock-5" data-name="Rock"><path class="cls-4" d="M213,450.11c26.73,0,26-5.68,21.74-11.4-6.47-8.62-23.73-6.61-31.37-4-10.72,3.69-6,15.38,9.63,15.38"/><path class="cls-5" d="M198.32,438.37s3.35-4.61,12.35-5.19,15.71-.7,19.92,2.05,4.53,4.07,4.53,4.07-1.06,3.55-2.26,4.44a15.88,15.88,0,0,1-7.53,2.19,42.41,42.41,0,0,0-8.41.22c-1.75.4-8.92-.4-10.53-1a36.12,36.12,0,0,1-7.26-4.91,4.36,4.36,0,0,1-.81-1.89"/><path class="cls-2" d="M213,450.61c-9.89,0-15.14-4.45-15.83-8.6-.56-3.36,1.69-6.26,6-7.76,7.17-2.46,25.17-4.84,31.93,4.16,1.53,2,3.13,4.66,2,7-1.77,3.54-9.43,5.19-24.1,5.19m4.9-17.63a47.59,47.59,0,0,0-14.36,2.22c-3.85,1.32-5.86,3.81-5.39,6.65.65,3.86,6,7.76,14.85,7.76,13.86,0,21.66-1.56,23.2-4.64.72-1.43.12-3.32-1.86-6-3.44-4.58-10-6-16.44-6"/><path class="cls-2" d="M214,446.89c-6.44,0-12.5-3-15-6.27a5,5,0,0,1-1-2.29l.36.11a9.66,9.66,0,0,0,4,4.1c3.77,2.24,10,3.7,14,3.22a63.34,63.34,0,0,1,6.51-.35c4.3-.08,8-.14,9.8-2.22a16.16,16.16,0,0,0,2.45-3.65s.3,0,.27.16a12.3,12.3,0,0,1-2,4.14c-2.07,2.42-6,2.49-10.54,2.57a64.13,64.13,0,0,0-6.42.34,19.53,19.53,0,0,1-2.42.14"/></g><g id="Rock-6" data-name="Rock"><path class="cls-4" d="M299.68,497.54c26.73,0,26.05-5.68,21.74-11.4-6.47-8.62-23.72-6.61-31.36-4-10.73,3.69-6,15.38,9.62,15.38"/><path class="cls-5" d="M285,485.8s3.35-4.61,12.35-5.19,15.71-.7,19.91,2.05,4.53,4.07,4.53,4.07-1.05,3.55-2.26,4.44a15.88,15.88,0,0,1-7.53,2.19,42.41,42.41,0,0,0-8.41.22c-1.74.4-8.92-.4-10.52-1a36.5,36.5,0,0,1-7.27-4.91,4.28,4.28,0,0,1-.8-1.89"/><path class="cls-2" d="M299.68,498c-9.89,0-15.14-4.45-15.83-8.6-.56-3.36,1.7-6.26,6-7.76,7.18-2.46,25.17-4.84,31.93,4.16,1.53,2,3.13,4.66,2,7-1.77,3.54-9.43,5.19-24.1,5.19m4.9-17.63a47.59,47.59,0,0,0-14.36,2.22c-3.84,1.32-5.86,3.81-5.38,6.65.64,3.86,6,7.76,14.84,7.76,13.86,0,21.67-1.56,23.2-4.64.72-1.43.13-3.32-1.86-6-3.43-4.58-10-6-16.44-6"/><path class="cls-2" d="M300.65,494.32c-6.45,0-12.51-3-15-6.27a5,5,0,0,1-1-2.29l.37.11a9.53,9.53,0,0,0,3.94,4.1c3.77,2.24,10,3.7,14.05,3.22a63.34,63.34,0,0,1,6.51-.35c4.31-.08,8-.14,9.8-2.22a15.83,15.83,0,0,0,2.45-3.65s.31,0,.28.16a12.16,12.16,0,0,1-2,4.14c-2.07,2.42-6,2.49-10.54,2.57a63.78,63.78,0,0,0-6.41.34,19.75,19.75,0,0,1-2.42.14"/></g><g id="Rock-7" data-name="Rock"><path class="cls-4" d="M219.18,501.9c26.73,0,26-5.68,21.74-11.4-6.47-8.62-23.73-6.61-31.36-4-10.73,3.69-6,15.39,9.62,15.39"/><path class="cls-5" d="M204.51,490.16s3.35-4.61,12.35-5.19,15.71-.7,19.92,2,4.53,4.07,4.53,4.07-1.06,3.55-2.26,4.44a15.76,15.76,0,0,1-7.53,2.18,43.13,43.13,0,0,0-8.41.23c-1.75.4-8.92-.4-10.53-1a36.12,36.12,0,0,1-7.26-4.91,4.36,4.36,0,0,1-.81-1.89"/><path class="cls-2" d="M219.18,502.4c-9.89,0-15.14-4.46-15.83-8.6-.56-3.36,1.7-6.26,6-7.76,7.18-2.46,25.17-4.84,31.93,4.16,1.53,2,3.13,4.66,2,7-1.77,3.55-9.43,5.2-24.1,5.2m4.9-17.63A47.59,47.59,0,0,0,209.72,487c-3.85,1.32-5.86,3.81-5.38,6.65.64,3.86,5.95,7.76,14.84,7.76,13.86,0,21.67-1.56,23.2-4.64.72-1.43.13-3.33-1.86-6-3.43-4.58-10-6-16.44-6"/><path class="cls-2" d="M220.14,498.68c-6.44,0-12.5-3-15-6.28a5,5,0,0,1-1-2.28l.37.11a9.53,9.53,0,0,0,3.94,4.1c3.77,2.24,10,3.7,14,3.21,2.22-.26,4.4-.3,6.51-.34,4.3-.08,8-.14,9.8-2.22a16.16,16.16,0,0,0,2.45-3.65s.3,0,.27.16a12.19,12.19,0,0,1-2,4.14c-2.07,2.42-6,2.49-10.54,2.57a63.78,63.78,0,0,0-6.41.34,22,22,0,0,1-2.43.14"/></g><g id="Rock-8" data-name="Rock"><path class="cls-4" d="M286.56,541.2c26.73,0,26.05-5.67,21.74-11.4-6.47-8.62-23.72-6.61-31.36-4-10.73,3.69-6,15.38,9.62,15.38"/><path class="cls-5" d="M271.9,529.46s3.35-4.61,12.35-5.19,15.71-.7,19.91,2.05,4.53,4.07,4.53,4.07-1.05,3.55-2.26,4.44A15.76,15.76,0,0,1,298.9,537a42.41,42.41,0,0,0-8.41.22c-1.74.4-8.92-.4-10.52-1a36.5,36.5,0,0,1-7.27-4.91,4.28,4.28,0,0,1-.8-1.89"/><path class="cls-2" d="M286.56,541.71c-9.89,0-15.13-4.46-15.83-8.61-.56-3.36,1.7-6.26,6-7.75,7.17-2.47,25.16-4.85,31.92,4.15,1.53,2,3.13,4.66,2,7-1.77,3.54-9.43,5.2-24.1,5.2m4.9-17.64a47.91,47.91,0,0,0-14.36,2.22c-3.84,1.32-5.86,3.81-5.38,6.65.64,3.86,5.95,7.77,14.84,7.77,13.86,0,21.67-1.57,23.21-4.65.71-1.43.12-3.32-1.86-6-3.44-4.57-10-6-16.45-6"/><path class="cls-2" d="M287.53,538c-6.45,0-12.5-3-15-6.27a5,5,0,0,1-1-2.29l.36.11a9.61,9.61,0,0,0,3.94,4.1c3.77,2.24,10,3.7,14.05,3.22a63.34,63.34,0,0,1,6.51-.35c4.31-.07,8-.14,9.8-2.21a16,16,0,0,0,2.45-3.65s.31,0,.28.15a12.28,12.28,0,0,1-2,4.15c-2.07,2.41-6,2.48-10.54,2.56a63.78,63.78,0,0,0-6.41.34,19.75,19.75,0,0,1-2.42.14"/></g><g id="Rock-9" data-name="Rock"><path class="cls-4" d="M365.48,545.14c26.73,0,26-5.67,21.74-11.4-6.47-8.62-23.73-6.61-31.37-4-10.72,3.69-6,15.38,9.63,15.38"/><path class="cls-5" d="M350.81,533.4s3.35-4.61,12.35-5.19,15.71-.7,19.92,2,4.53,4.07,4.53,4.07-1.06,3.55-2.26,4.44a15.76,15.76,0,0,1-7.53,2.19,42.41,42.41,0,0,0-8.41.22c-1.75.4-8.92-.4-10.53-1a36.12,36.12,0,0,1-7.26-4.91,4.36,4.36,0,0,1-.81-1.89"/><path class="cls-2" d="M365.48,545.65c-9.89,0-15.14-4.46-15.83-8.61-.56-3.36,1.69-6.26,6-7.75,7.17-2.47,25.17-4.85,31.93,4.15,1.53,2,3.13,4.66,2,7-1.77,3.54-9.43,5.2-24.1,5.2m4.9-17.64A47.91,47.91,0,0,0,356,530.23c-3.85,1.32-5.86,3.81-5.39,6.65.65,3.86,6,7.77,14.85,7.77,13.86,0,21.66-1.57,23.2-4.65.72-1.43.12-3.32-1.86-6-3.44-4.57-10-6-16.44-6"/><path class="cls-2" d="M366.44,541.92c-6.44,0-12.5-3-15-6.27a5,5,0,0,1-1-2.29l.36.11a9.66,9.66,0,0,0,3.95,4.1c3.77,2.24,10,3.7,14.05,3.22a63.34,63.34,0,0,1,6.51-.35c4.3-.07,8-.14,9.8-2.21a16.38,16.38,0,0,0,2.45-3.65s.3,0,.27.15a12.42,12.42,0,0,1-2,4.15c-2.07,2.41-6,2.48-10.54,2.56a64.13,64.13,0,0,0-6.42.34,19.53,19.53,0,0,1-2.42.14"/></g><polygon class="cls-6" points="555.73 112.17 555.73 112.17 555.73 112.17 475.39 81.02 395.06 113.65 395.06 113.65 395.06 113.65 395.06 113.65 395.06 113.65 475.39 144.79 555.73 112.17 555.73 112.17 555.73 112.17"/><path class="cls-7" d="M496.81,93.46c-9.73,0-17.77,5.26-19.26,12.14h-9.74c-.57,0-1,1-1,2.3s.46,2.3,1,2.3h9.74c1.49,6.88,9.53,12.14,19.26,12.14,10.79,0,19.54-6.46,19.54-14.44S507.6,93.46,496.81,93.46Z"/><path class="cls-8" d="M465.37,86.49v22.68c0,.57,1,1,2.3,1s2.29-.46,2.29-1V86.49Z"/><ellipse class="cls-6" cx="467.67" cy="57.26" rx="22.76" ry="29.74"/><path class="cls-7" d="M467.67,87c12.56,0,22.75-13.32,22.75-29.74,0-12.18-5.6-22.65-13.62-27.25C465,32.33,454.18,43.86,450.6,59.54a45.73,45.73,0,0,0-.83,16.08C453.94,82.55,460.4,87,467.67,87Z"/><ellipse class="cls-9" cx="467.67" cy="57.26" rx="22.76" ry="29.74"/><polygon class="cls-6" points="474.62 153.62 474.62 153.62 474.62 153.62 439.5 140 404.38 154.26 404.38 154.26 404.38 154.26 404.38 154.26 404.38 154.26 439.5 167.88 474.62 153.62 474.62 153.62 474.62 153.62"/><path class="cls-7" d="M449,143.81c-5.79,0-10.58,3.14-11.47,7.23h-5.8c-.34,0-.61.62-.61,1.37s.27,1.37.61,1.37h5.8c.89,4.1,5.68,7.23,11.47,7.23,6.43,0,11.64-3.85,11.64-8.6S455.44,143.81,449,143.81Z"/><polygon class="cls-10" points="474.62 153.62 474.62 153.62 474.62 153.62 439.5 140 404.38 154.26 404.38 154.26 404.38 154.26 404.38 154.26 404.38 154.26 439.5 167.88 474.62 153.62 474.62 153.62 474.62 153.62"/><path class="cls-8" d="M429.65,130.15v22.68c0,.57,1,1,2.3,1s2.3-.46,2.3-1V130.15Z"/><path class="cls-6" d="M432,95.32a11.92,11.92,0,0,0-3.43.52c0,4.8-3,8.68-6.73,8.68a5.28,5.28,0,0,1-2.38-.57,24.19,24.19,0,0,0-2.68,11.26c0,11,6.81,19.9,15.22,19.9s15.22-8.91,15.22-19.9S440.36,95.32,432,95.32Z"/><path class="cls-7" d="M438.06,97a18,18,0,0,0-6.2,2.56,11.92,11.92,0,0,1,.09,1.35c0,4.84-3,8.77-6.74,8.77a5.37,5.37,0,0,1-1.95-.38,31.26,31.26,0,0,0-2.73,7.45A30.88,30.88,0,0,0,420,127.5c2.79,4.63,7.11,7.61,12,7.61,8.41,0,15.22-8.91,15.22-19.9C447.17,107.07,443.42,100.07,438.06,97Z"/><path class="cls-9" d="M432,95.32a11.92,11.92,0,0,0-3.43.52c0,4.8-3,8.68-6.73,8.68a5.28,5.28,0,0,1-2.38-.57,24.19,24.19,0,0,0-2.68,11.26c0,11,6.81,19.9,15.22,19.9s15.22-8.91,15.22-19.9S440.36,95.32,432,95.32Z"/><path class="cls-10" d="M129.68,147.43c6.62-4.26,10.54-9.55,10.54-15.29,0-14.09-23.63-25.51-52.77-25.51s-52.76,11.42-52.76,25.51c0,13.22,20.79,24.09,47.43,25.38a10.52,10.52,0,0,0-2,6c0,9.87,15.43,17.87,34.47,17.87s34.47-8,34.47-17.87C149.07,156.44,141.16,150.33,129.68,147.43Z"/></g></g></svg>