<svg xmlns="http://www.w3.org/2000/svg" xmlns:xlink="http://www.w3.org/1999/xlink" viewBox="0 0 566.93 566.93"><defs><style>.cls-1,.cls-9{fill:none;}.cls-2{fill:#1d1d1b;}.cls-3{fill:#eb9899;}.cls-4{fill:#6e7891;}.cls-5{fill:#98a1b7;}.cls-6{fill:#f4ce6f;}.cls-7{fill:#bca061;}.cls-8{fill:#161616;}.cls-9{stroke:#000;stroke-miterlimit:10;stroke-width:0.5px;}.cls-10{fill:url(#RBDots);}</style><pattern id="RBDots" data-name="RBDots" width="28.8" height="28.8" patternTransform="matrix(0.95, 0.28, -0.32, 0.83, -44.4, 3.73)" patternUnits="userSpaceOnUse" viewBox="0 0 28.8 28.8"><rect class="cls-1" width="28.8" height="28.8"/><circle class="cls-2" cx="28.8" cy="28.8" r="0.72"/><path class="cls-2" d="M14.4,29.52a.72.72,0,1,0-.72-.72A.72.72,0,0,0,14.4,29.52Z"/><path class="cls-2" d="M28.8,15.12a.72.72,0,1,0-.72-.72A.72.72,0,0,0,28.8,15.12Z"/><path class="cls-2" d="M14.4,15.12a.72.72,0,1,0-.72-.72A.72.72,0,0,0,14.4,15.12Z"/><path class="cls-2" d="M7.2,22.32a.72.72,0,1,0-.72-.72A.72.72,0,0,0,7.2,22.32Z"/><path class="cls-2" d="M21.6,22.32a.72.72,0,1,0-.72-.72A.72.72,0,0,0,21.6,22.32Z"/><path class="cls-2" d="M14.4,22.32a.72.72,0,1,0-.72-.72A.72.72,0,0,0,14.4,22.32Z"/><path class="cls-2" d="M7.2,29.52a.72.72,0,1,0-.72-.72A.72.72,0,0,0,7.2,29.52Z"/><path class="cls-2" d="M21.82,29.52a.72.72,0,1,0-.72-.72A.72.72,0,0,0,21.82,29.52Z"/><path class="cls-2" d="M7.2,7.92a.72.72,0,1,0-.72-.72A.72.72,0,0,0,7.2,7.92Z"/><path class="cls-2" d="M7.2,15.12a.72.72,0,1,0-.72-.72A.72.72,0,0,0,7.2,15.12Z"/><path class="cls-2" d="M21.6,15.12a.72.72,0,1,0-.72-.72A.72.72,0,0,0,21.6,15.12Z"/><path class="cls-2" d="M14.4,7.92a.72.72,0,1,0-.72-.72A.72.72,0,0,0,14.4,7.92Z"/><path class="cls-2" d="M28.8,7.92a.72.72,0,1,0-.72-.72A.72.72,0,0,0,28.8,7.92Z"/><path class="cls-2" d="M21.6,7.92a.72.72,0,1,0-.72-.72A.72.72,0,0,0,21.6,7.92Z"/><path class="cls-2" d="M28.8,22.32a.72.72,0,1,0-.72-.72A.72.72,0,0,0,28.8,22.32Z"/><circle class="cls-2" cy="28.8" r="0.72"/><path class="cls-2" d="M0,15.12a.72.72,0,0,0,0-1.44.72.72,0,0,0-.72.72A.72.72,0,0,0,0,15.12Z"/><path class="cls-2" d="M0,7.92A.72.72,0,0,0,0,6.48a.72.72,0,0,0-.72.72A.72.72,0,0,0,0,7.92Z"/><path class="cls-2" d="M0,22.32a.72.72,0,0,0,0-1.44.72.72,0,0,0-.72.72A.72.72,0,0,0,0,22.32Z"/><circle class="cls-2" cx="28.8" r="0.72"/><path class="cls-2" d="M14.4.72A.72.72,0,0,0,15.12,0a.72.72,0,0,0-.72-.72.72.72,0,0,0-.72.72A.72.72,0,0,0,14.4.72Z"/><path class="cls-2" d="M7.2.72A.72.72,0,0,0,7.92,0,.72.72,0,0,0,7.2-.72.72.72,0,0,0,6.48,0,.72.72,0,0,0,7.2.72Z"/><path class="cls-2" d="M21.82.72A.72.72,0,0,0,22.54,0a.72.72,0,0,0-.72-.72A.72.72,0,0,0,21.1,0,.72.72,0,0,0,21.82.72Z"/><circle class="cls-2" r="0.72"/></pattern></defs><title>3</title><g id="_3" data-name="3"><g id="Back"><rect class="cls-3" width="566.93" height="566.93"/><g id="Rock"><path class="cls-4" d="M50.6,363.37c26.73,0,26.05-5.68,21.74-11.41-6.47-8.61-23.73-6.6-31.36-4-10.73,3.69-6,15.39,9.62,15.39"/><path class="cls-5" d="M35.94,351.62s3.34-4.6,12.34-5.18,15.72-.7,19.92,2.05,4.53,4.07,4.53,4.07-1.06,3.55-2.26,4.44a15.88,15.88,0,0,1-7.53,2.18,43.18,43.18,0,0,0-8.41.22c-1.75.41-8.92-.4-10.52-1a35.91,35.91,0,0,1-7.27-4.9,4.3,4.3,0,0,1-.8-1.9"/><path class="cls-2" d="M50.6,363.87c-9.89,0-15.14-4.46-15.83-8.6-.56-3.36,1.7-6.27,6-7.76C48,345,66,342.67,72.74,351.66c1.53,2,3.13,4.67,2,7-1.77,3.55-9.43,5.2-24.1,5.2m4.9-17.64a47.56,47.56,0,0,0-14.36,2.23c-3.85,1.32-5.86,3.8-5.38,6.64.64,3.86,6,7.77,14.84,7.77,13.86,0,21.67-1.56,23.2-4.65.72-1.42.13-3.32-1.86-6-3.43-4.57-10-6-16.44-6"/><path class="cls-2" d="M51.57,360.15c-6.45,0-12.51-3-15-6.28a5,5,0,0,1-1-2.29l.37.12a9.54,9.54,0,0,0,3.94,4.09c3.77,2.24,10,3.71,14,3.22a63.28,63.28,0,0,1,6.51-.34c4.3-.08,8-.15,9.8-2.22a15.83,15.83,0,0,0,2.45-3.65s.31,0,.27.16a12.28,12.28,0,0,1-2,4.14c-2.07,2.42-6,2.49-10.54,2.57A63.73,63.73,0,0,0,54,360a19.77,19.77,0,0,1-2.42.15"/></g><g id="Rock-2" data-name="Rock"><path class="cls-4" d="M77.39,422.75c26.73,0,26.05-5.68,21.74-11.4-6.47-8.62-23.73-6.61-31.36-4-10.73,3.69-6,15.38,9.62,15.38"/><path class="cls-5" d="M62.73,411s3.35-4.61,12.35-5.19,15.71-.7,19.91,2.05,4.53,4.07,4.53,4.07-1.06,3.55-2.26,4.44a15.88,15.88,0,0,1-7.53,2.19,42.41,42.41,0,0,0-8.41.22c-1.74.4-8.92-.4-10.52-1a36.21,36.21,0,0,1-7.27-4.91,4.28,4.28,0,0,1-.8-1.89"/><path class="cls-2" d="M77.39,423.25c-9.89,0-15.14-4.45-15.83-8.6-.56-3.36,1.7-6.26,6-7.76,7.18-2.46,25.17-4.84,31.93,4.16,1.53,2,3.13,4.66,2,7-1.77,3.54-9.43,5.19-24.1,5.19m4.9-17.63a47.59,47.59,0,0,0-14.36,2.22c-3.84,1.32-5.86,3.81-5.38,6.65.64,3.86,6,7.76,14.84,7.76,13.86,0,21.67-1.56,23.2-4.64.72-1.43.13-3.32-1.86-6-3.43-4.58-10-6-16.44-6"/><path class="cls-2" d="M78.36,419.53c-6.45,0-12.51-3-15-6.27a5,5,0,0,1-1-2.29l.37.11a9.53,9.53,0,0,0,3.94,4.1c3.77,2.24,10,3.7,14,3.22a63.34,63.34,0,0,1,6.51-.35c4.31-.08,8-.14,9.8-2.22a15.83,15.83,0,0,0,2.45-3.65s.31,0,.28.16a12.16,12.16,0,0,1-2,4.14c-2.07,2.42-6,2.49-10.54,2.57a63.78,63.78,0,0,0-6.41.34,19.75,19.75,0,0,1-2.42.14"/></g><g id="Rock-3" data-name="Rock"><path class="cls-4" d="M185.63,424c26.74,0,26.05-5.68,21.75-11.4-6.48-8.62-23.73-6.61-31.37-4-10.73,3.69-6,15.38,9.62,15.38"/><path class="cls-5" d="M171,412.29s3.35-4.61,12.35-5.19,15.71-.7,19.91,2,4.53,4.07,4.53,4.07-1,3.55-2.26,4.44a15.84,15.84,0,0,1-7.53,2.19,42.41,42.41,0,0,0-8.41.22c-1.74.4-8.92-.4-10.52-1a36.12,36.12,0,0,1-7.26-4.91,4.22,4.22,0,0,1-.81-1.89"/><path class="cls-2" d="M185.63,424.54c-9.89,0-15.13-4.46-15.83-8.61-.56-3.36,1.7-6.26,6-7.76,7.17-2.46,25.16-4.84,31.92,4.16,1.53,2,3.13,4.66,2,7-1.77,3.54-9.43,5.2-24.1,5.2m4.9-17.64a47.91,47.91,0,0,0-14.36,2.22c-3.84,1.32-5.86,3.81-5.38,6.65.64,3.86,6,7.77,14.84,7.77,13.86,0,21.67-1.57,23.21-4.65.71-1.43.12-3.32-1.86-6-3.44-4.57-10-6-16.45-6"/><path class="cls-2" d="M186.6,420.81c-6.45,0-12.5-3-15-6.27a5,5,0,0,1-1-2.29l.36.11a9.61,9.61,0,0,0,3.94,4.1c3.77,2.24,10,3.7,14.05,3.22a63.34,63.34,0,0,1,6.51-.35c4.31-.07,8-.14,9.8-2.21a16.08,16.08,0,0,0,2.45-3.66s.31,0,.28.16a12.16,12.16,0,0,1-2,4.14c-2.07,2.42-6,2.49-10.54,2.57a63.94,63.94,0,0,0-6.41.34,19.75,19.75,0,0,1-2.42.14"/></g><g id="Rock-4" data-name="Rock"><path class="cls-4" d="M141.77,382.81c26.74,0,26-5.68,21.75-11.41-6.48-8.61-23.73-6.61-31.37-4-10.72,3.69-6,15.39,9.62,15.39"/><path class="cls-5" d="M127.11,371.06s3.35-4.6,12.35-5.18,15.71-.7,19.92,2.05S163.9,372,163.9,372s-1.05,3.55-2.25,4.45a15.91,15.91,0,0,1-7.53,2.18,43.31,43.31,0,0,0-8.42.22c-1.74.4-8.91-.4-10.52-1a36.53,36.53,0,0,1-7.26-4.9,4.42,4.42,0,0,1-.81-1.9"/><path class="cls-2" d="M141.78,383.31c-9.89,0-15.14-4.46-15.83-8.61-.57-3.36,1.69-6.26,6-7.75,7.17-2.47,25.16-4.84,31.93,4.15,1.52,2,3.12,4.66,2,7-1.77,3.55-9.42,5.2-24.09,5.2m4.89-17.64a47.78,47.78,0,0,0-14.35,2.22c-3.85,1.33-5.86,3.81-5.39,6.65.65,3.86,5.95,7.77,14.85,7.77,13.85,0,21.66-1.57,23.2-4.65.71-1.43.12-3.32-1.86-6-3.44-4.57-10-6-16.45-6"/><path class="cls-2" d="M142.74,379.59c-6.45,0-12.5-3-15-6.28a4.89,4.89,0,0,1-1-2.29l.36.11a9.61,9.61,0,0,0,3.94,4.1c3.77,2.24,10,3.71,14,3.22a60.58,60.58,0,0,1,6.51-.34c4.31-.08,8-.15,9.81-2.22a16.38,16.38,0,0,0,2.45-3.65s.3,0,.27.15a12.42,12.42,0,0,1-2,4.15c-2.07,2.41-6,2.48-10.55,2.57a61,61,0,0,0-6.41.33,19.77,19.77,0,0,1-2.42.15"/></g><g id="Rock-5" data-name="Rock"><path class="cls-4" d="M251.6,400.91c26.73,0,26-5.67,21.74-11.4-6.47-8.62-23.73-6.61-31.36-4-10.73,3.69-6,15.38,9.62,15.38"/><path class="cls-5" d="M236.94,389.17s3.35-4.61,12.35-5.19,15.71-.7,19.91,2,4.53,4.07,4.53,4.07-1.06,3.55-2.26,4.44a15.76,15.76,0,0,1-7.53,2.19,42.41,42.41,0,0,0-8.41.22c-1.74.4-8.92-.4-10.52-1a36.21,36.21,0,0,1-7.27-4.91,4.28,4.28,0,0,1-.8-1.89"/><path class="cls-2" d="M251.6,401.42c-9.89,0-15.14-4.46-15.83-8.61-.56-3.36,1.7-6.26,6-7.76,7.18-2.46,25.17-4.84,31.93,4.16,1.53,2,3.13,4.66,2,7-1.77,3.54-9.43,5.2-24.1,5.2m4.9-17.64A47.91,47.91,0,0,0,242.14,386c-3.84,1.32-5.86,3.81-5.38,6.65.64,3.86,6,7.77,14.84,7.77,13.86,0,21.67-1.57,23.2-4.65.72-1.43.13-3.32-1.86-6-3.43-4.57-10-6-16.44-6"/><path class="cls-2" d="M252.57,397.69c-6.45,0-12.51-3-15-6.27a5,5,0,0,1-1-2.29l.37.11a9.53,9.53,0,0,0,3.94,4.1c3.77,2.24,10,3.7,14.05,3.22a63.34,63.34,0,0,1,6.51-.35c4.31-.07,8-.14,9.8-2.21a16.08,16.08,0,0,0,2.45-3.66s.31,0,.28.16a12.16,12.16,0,0,1-2,4.14c-2.07,2.42-6,2.49-10.54,2.57a63.78,63.78,0,0,0-6.41.34,19.75,19.75,0,0,1-2.42.14"/></g><g id="Rock-6" data-name="Rock"><path class="cls-4" d="M334.24,424.05c26.73,0,26.05-5.68,21.74-11.4-6.47-8.62-23.73-6.61-31.36-4-10.73,3.69-6,15.38,9.62,15.38"/><path class="cls-5" d="M319.58,412.31s3.34-4.61,12.34-5.19,15.72-.7,19.92,2.05,4.53,4.07,4.53,4.07-1.06,3.55-2.26,4.44a15.88,15.88,0,0,1-7.53,2.19,42.41,42.41,0,0,0-8.41.22c-1.75.4-8.92-.4-10.52-1a35.92,35.92,0,0,1-7.27-4.91,4.28,4.28,0,0,1-.8-1.89"/><path class="cls-2" d="M334.24,424.55c-9.89,0-15.14-4.45-15.83-8.6-.56-3.36,1.7-6.26,6-7.76,7.18-2.46,25.17-4.84,31.93,4.16,1.53,2,3.13,4.66,2,7-1.77,3.54-9.43,5.19-24.1,5.19m4.9-17.63a47.59,47.59,0,0,0-14.36,2.22c-3.85,1.32-5.86,3.81-5.38,6.65.64,3.86,6,7.76,14.84,7.76,13.86,0,21.67-1.56,23.2-4.64.72-1.43.13-3.32-1.86-6-3.43-4.58-10-6-16.44-6"/><path class="cls-2" d="M335.21,420.83c-6.45,0-12.51-3-15-6.27a5,5,0,0,1-1-2.29l.37.11a9.53,9.53,0,0,0,3.94,4.1c3.77,2.24,10,3.7,14.05,3.22a63.34,63.34,0,0,1,6.51-.35c4.3-.08,8-.14,9.8-2.22a15.83,15.83,0,0,0,2.45-3.65s.31,0,.27.16a12.11,12.11,0,0,1-2,4.14c-2.07,2.42-6,2.49-10.54,2.57a63.78,63.78,0,0,0-6.41.34,19.75,19.75,0,0,1-2.42.14"/></g><g id="Rock-7" data-name="Rock"><path class="cls-4" d="M259,449.19c26.73,0,26.05-5.68,21.74-11.4-6.47-8.62-23.72-6.61-31.36-4-10.73,3.69-6,15.38,9.62,15.38"/><path class="cls-5" d="M244.3,437.45s3.35-4.61,12.35-5.19,15.71-.7,19.91,2.05,4.53,4.07,4.53,4.07-1,3.55-2.26,4.44A15.88,15.88,0,0,1,271.3,445a42.41,42.41,0,0,0-8.41.22c-1.74.4-8.92-.4-10.52-1a36.5,36.5,0,0,1-7.27-4.91,4.28,4.28,0,0,1-.8-1.89"/><path class="cls-2" d="M259,449.7c-9.89,0-15.13-4.46-15.83-8.61-.56-3.36,1.7-6.26,6.05-7.76,7.17-2.46,25.16-4.84,31.92,4.16,1.53,2,3.13,4.66,2,7-1.77,3.54-9.43,5.2-24.1,5.2m4.9-17.64a47.91,47.91,0,0,0-14.36,2.22c-3.84,1.32-5.86,3.81-5.38,6.65.64,3.86,5.95,7.77,14.84,7.77,13.86,0,21.67-1.57,23.21-4.65.71-1.43.12-3.32-1.86-6-3.44-4.57-10-6-16.45-6"/><path class="cls-2" d="M259.93,446c-6.45,0-12.5-3-15-6.27a5,5,0,0,1-1-2.29l.36.11a9.61,9.61,0,0,0,3.94,4.1c3.77,2.24,10,3.7,14.05,3.22a63.34,63.34,0,0,1,6.51-.35c4.31-.07,8-.14,9.8-2.21a16.08,16.08,0,0,0,2.45-3.66s.31,0,.28.16a12.16,12.16,0,0,1-2,4.14c-2.07,2.42-6,2.49-10.54,2.57a63.78,63.78,0,0,0-6.41.34,19.75,19.75,0,0,1-2.42.14"/></g><g id="Rock-8" data-name="Rock"><path class="cls-4" d="M331.87,472.83c26.73,0,26-5.68,21.74-11.41-6.48-8.61-23.73-6.61-31.37-4-10.72,3.69-6,15.39,9.63,15.39"/><path class="cls-5" d="M317.2,461.08s3.35-4.6,12.35-5.18,15.71-.7,19.92,2.05S354,462,354,462s-1.05,3.55-2.25,4.45a15.91,15.91,0,0,1-7.53,2.18,43.31,43.31,0,0,0-8.42.22c-1.74.4-8.91-.4-10.52-1A36.53,36.53,0,0,1,318,463a4.42,4.42,0,0,1-.81-1.9"/><path class="cls-2" d="M331.87,473.33c-9.89,0-15.14-4.46-15.83-8.61-.57-3.36,1.69-6.26,6-7.75,7.17-2.47,25.17-4.84,31.93,4.15,1.53,2,3.13,4.66,1.95,7-1.77,3.55-9.42,5.2-24.09,5.2m4.9-17.64a47.91,47.91,0,0,0-14.36,2.22c-3.85,1.33-5.86,3.81-5.39,6.65.65,3.86,6,7.77,14.85,7.77,13.85,0,21.66-1.57,23.2-4.65.71-1.43.12-3.32-1.86-6-3.44-4.57-10-6-16.44-6"/><path class="cls-2" d="M332.83,469.61c-6.45,0-12.5-3-15-6.28a4.89,4.89,0,0,1-1-2.29l.36.11a9.61,9.61,0,0,0,3.94,4.1c3.77,2.24,10,3.71,14.05,3.22a60.77,60.77,0,0,1,6.52-.34c4.3-.08,8-.15,9.8-2.22a16.38,16.38,0,0,0,2.45-3.65s.3,0,.27.15a12.42,12.42,0,0,1-2,4.15c-2.07,2.41-6,2.48-10.55,2.57a61,61,0,0,0-6.41.33,19.77,19.77,0,0,1-2.42.15"/></g><g id="Rock-9" data-name="Rock"><path class="cls-4" d="M405.75,469.85c26.73,0,26.05-5.68,21.74-11.41-6.47-8.62-23.73-6.61-31.36-4-10.73,3.69-6,15.39,9.62,15.39"/><path class="cls-5" d="M391.09,458.1s3.35-4.6,12.35-5.19,15.71-.69,19.91,2,4.53,4.07,4.53,4.07-1.06,3.55-2.26,4.44a15.76,15.76,0,0,1-7.53,2.19,42.41,42.41,0,0,0-8.41.22c-1.74.4-8.92-.4-10.52-1a36.62,36.62,0,0,1-7.27-4.9,4.34,4.34,0,0,1-.8-1.9"/><path class="cls-2" d="M405.75,470.35c-9.89,0-15.14-4.46-15.83-8.61-.56-3.36,1.7-6.26,6-7.75,7.18-2.47,25.17-4.85,31.93,4.15,1.53,2,3.13,4.66,2,7-1.77,3.54-9.43,5.2-24.1,5.2m4.9-17.64a47.91,47.91,0,0,0-14.36,2.22c-3.85,1.33-5.86,3.81-5.38,6.65.64,3.86,5.95,7.77,14.84,7.77,13.86,0,21.67-1.57,23.2-4.65.72-1.43.13-3.32-1.86-6-3.43-4.57-10-6-16.44-6"/><path class="cls-2" d="M406.72,466.63c-6.45,0-12.51-3-15-6.28a5,5,0,0,1-1-2.29l.37.11a9.53,9.53,0,0,0,3.94,4.1c3.77,2.24,10,3.7,14,3.22a60.58,60.58,0,0,1,6.51-.34c4.3-.08,8-.15,9.8-2.22a16,16,0,0,0,2.45-3.65s.31,0,.27.15a12.23,12.23,0,0,1-2,4.15c-2.07,2.41-6,2.48-10.54,2.57a60.91,60.91,0,0,0-6.41.33,19.77,19.77,0,0,1-2.42.15"/></g><g id="Rock-10" data-name="Rock"><path class="cls-4" d="M361.37,523.57c26.73,0,26.05-5.68,21.74-11.4-6.47-8.62-23.73-6.61-31.37-4-10.72,3.69-6,15.38,9.63,15.38"/><path class="cls-5" d="M346.7,511.83s3.35-4.61,12.35-5.19,15.71-.7,19.92,2.05,4.53,4.07,4.53,4.07-1.06,3.55-2.26,4.44a15.88,15.88,0,0,1-7.53,2.19,42.41,42.41,0,0,0-8.41.22c-1.75.4-8.92-.4-10.53-1a36.12,36.12,0,0,1-7.26-4.91,4.36,4.36,0,0,1-.81-1.89"/><path class="cls-2" d="M361.37,524.07c-9.89,0-15.14-4.45-15.83-8.6-.56-3.36,1.69-6.26,6-7.76,7.17-2.46,25.17-4.84,31.93,4.16,1.53,2,3.13,4.66,2,7-1.77,3.54-9.43,5.19-24.1,5.19m4.9-17.63a47.59,47.59,0,0,0-14.36,2.22c-3.85,1.32-5.86,3.81-5.39,6.65.65,3.86,6,7.76,14.85,7.76,13.86,0,21.66-1.56,23.2-4.64.72-1.43.12-3.32-1.86-6-3.44-4.58-10-6-16.44-6"/><path class="cls-2" d="M362.33,520.35c-6.45,0-12.5-3-15-6.27a5,5,0,0,1-1-2.29l.36.11a9.61,9.61,0,0,0,3.94,4.1c3.78,2.24,10,3.7,14.05,3.22a63.54,63.54,0,0,1,6.52-.35c4.3-.08,8-.14,9.8-2.22A16.16,16.16,0,0,0,383.4,513s.3,0,.27.16a12.3,12.3,0,0,1-2,4.14c-2.07,2.42-6,2.49-10.55,2.57a63.94,63.94,0,0,0-6.41.34,19.64,19.64,0,0,1-2.42.14"/></g><g id="Rock-11" data-name="Rock"><path class="cls-4" d="M449.2,548.13c26.73,0,26.05-5.68,21.74-11.41-6.47-8.61-23.73-6.61-31.37-4-10.72,3.69-6,15.39,9.63,15.39"/><path class="cls-5" d="M434.53,536.38s3.35-4.6,12.35-5.18,15.71-.7,19.92,2,4.53,4.07,4.53,4.07-1.06,3.55-2.26,4.44a15.76,15.76,0,0,1-7.53,2.19,43.18,43.18,0,0,0-8.41.22c-1.75.4-8.92-.4-10.53-1a36.53,36.53,0,0,1-7.26-4.9,4.42,4.42,0,0,1-.81-1.9"/><path class="cls-2" d="M449.2,548.63c-9.89,0-15.14-4.46-15.83-8.61-.56-3.36,1.69-6.26,6-7.75,7.17-2.47,25.17-4.85,31.93,4.15,1.53,2,3.13,4.66,2,7-1.77,3.54-9.43,5.2-24.1,5.2M454.1,531a47.91,47.91,0,0,0-14.36,2.22c-3.85,1.33-5.86,3.81-5.39,6.65.65,3.86,6,7.77,14.85,7.77,13.86,0,21.66-1.57,23.2-4.65.72-1.43.12-3.32-1.86-6-3.44-4.57-10-6-16.44-6"/><path class="cls-2" d="M450.16,544.91c-6.45,0-12.5-3-15-6.28a5,5,0,0,1-1-2.29l.36.11a9.61,9.61,0,0,0,3.94,4.1c3.78,2.24,10,3.7,14,3.22a60.77,60.77,0,0,1,6.52-.34c4.3-.08,8-.15,9.8-2.22a16.38,16.38,0,0,0,2.45-3.65s.3,0,.27.15a12.42,12.42,0,0,1-2,4.15c-2.07,2.41-6,2.48-10.55,2.57a61,61,0,0,0-6.41.33,19.65,19.65,0,0,1-2.42.15"/></g><polygon class="cls-6" points="555.73 112.17 555.73 112.17 555.73 112.17 475.39 81.02 395.06 113.65 395.06 113.65 395.06 113.65 395.06 113.65 395.06 113.65 475.39 144.79 555.73 112.17 555.73 112.17 555.73 112.17"/><path class="cls-7" d="M496.81,93.46c-9.73,0-17.77,5.26-19.26,12.14h-9.74c-.57,0-1,1-1,2.3s.46,2.3,1,2.3h9.74c1.49,6.88,9.53,12.14,19.26,12.14,10.79,0,19.54-6.46,19.54-14.44S507.6,93.46,496.81,93.46Z"/><path class="cls-8" d="M465.37,86.49v22.68c0,.57,1,1,2.3,1s2.29-.46,2.29-1V86.49Z"/><ellipse class="cls-6" cx="467.67" cy="57.26" rx="22.76" ry="29.74"/><path class="cls-7" d="M467.67,87c12.56,0,22.75-13.32,22.75-29.74,0-12.18-5.6-22.65-13.62-27.25C465,32.33,454.18,43.86,450.6,59.54a45.73,45.73,0,0,0-.83,16.08C453.94,82.55,460.4,87,467.67,87Z"/><ellipse class="cls-9" cx="467.67" cy="57.26" rx="22.76" ry="29.74"/><polygon class="cls-6" points="474.62 153.62 474.62 153.62 474.62 153.62 439.5 140 404.38 154.26 404.38 154.26 404.38 154.26 404.38 154.26 404.38 154.26 439.5 167.88 474.62 153.62 474.62 153.62 474.62 153.62"/><path class="cls-7" d="M449,143.81c-5.79,0-10.58,3.14-11.47,7.23h-5.8c-.34,0-.61.62-.61,1.37s.27,1.37.61,1.37h5.8c.89,4.1,5.68,7.23,11.47,7.23,6.43,0,11.64-3.85,11.64-8.6S455.44,143.81,449,143.81Z"/><polygon class="cls-10" points="474.62 153.62 474.62 153.62 474.62 153.62 439.5 140 404.38 154.26 404.38 154.26 404.38 154.26 404.38 154.26 404.38 154.26 439.5 167.88 474.62 153.62 474.62 153.62 474.62 153.62"/><path class="cls-8" d="M429.65,130.15v22.68c0,.57,1,1,2.3,1s2.3-.46,2.3-1V130.15Z"/><path class="cls-6" d="M432,95.32a11.92,11.92,0,0,0-3.43.52c0,4.8-3,8.68-6.73,8.68a5.28,5.28,0,0,1-2.38-.57,24.19,24.19,0,0,0-2.68,11.26c0,11,6.81,19.9,15.22,19.9s15.22-8.91,15.22-19.9S440.36,95.32,432,95.32Z"/><path class="cls-7" d="M438.06,97a18,18,0,0,0-6.2,2.56,11.92,11.92,0,0,1,.09,1.35c0,4.84-3,8.77-6.74,8.77a5.37,5.37,0,0,1-1.95-.38,31.26,31.26,0,0,0-2.73,7.45A30.88,30.88,0,0,0,420,127.5c2.79,4.63,7.11,7.61,12,7.61,8.41,0,15.22-8.91,15.22-19.9C447.17,107.07,443.42,100.07,438.06,97Z"/><path class="cls-9" d="M432,95.32a11.92,11.92,0,0,0-3.43.52c0,4.8-3,8.68-6.73,8.68a5.28,5.28,0,0,1-2.38-.57,24.19,24.19,0,0,0-2.68,11.26c0,11,6.81,19.9,15.22,19.9s15.22-8.91,15.22-19.9S440.36,95.32,432,95.32Z"/><path class="cls-10" d="M129.68,147.43c6.62-4.26,10.54-9.55,10.54-15.29,0-14.09-23.63-25.51-52.77-25.51s-52.76,11.42-52.76,25.51c0,13.22,20.79,24.09,47.43,25.38a10.52,10.52,0,0,0-2,6c0,9.87,15.43,17.87,34.47,17.87s34.47-8,34.47-17.87C149.07,156.44,141.16,150.33,129.68,147.43Z"/></g></g></svg>