<svg xmlns="http://www.w3.org/2000/svg" viewBox="0 0 308.15 210.55"><defs><style>.cls-1{fill:#aa7272;}.cls-2,.cls-6{fill:#a59672;}.cls-2,.cls-3,.cls-5,.cls-7{stroke:#1d1d1b;stroke-miterlimit:10;stroke-width:1.2px;}.cls-3{fill:none;}.cls-4,.cls-5{fill:#e5c376;}.cls-7{fill:#dcbe7d;}</style></defs><title>3b</title><g id="_3" data-name="3"><g id="Fore"><polygon class="cls-1" points="44.61 207.95 78.81 207.95 168.25 154.32 239.39 155.8 189.74 189.1 213.74 205.32 308.14 139.25 137.74 136.31 44.61 207.95"/><polygon class="cls-2" points="21.65 206.1 47.99 161.61 129.87 117.4 159.84 137.49 154.48 152.23 56.11 207.95 21.65 206.1"/><line class="cls-3" x1="47.99" y1="161.61" x2="56.11" y2="207.95"/><polygon class="cls-4" points="55.62 207.95 47.49 161.61 21.15 206.1 55.62 207.95"/><line class="cls-3" x1="129.87" y1="117.4" x2="154.48" y2="152.23"/><polygon class="cls-3" points="21.65 206.1 47.99 161.61 129.87 117.4 159.84 137.49 154.48 152.23 56.11 207.95 21.65 206.1"/><polygon class="cls-5" points="161.77 2.35 159.86 137.78 129.87 117.4 129.49 21.84 161.77 2.35"/><polygon class="cls-6" points="158.11 17.38 147.69 37.35 40.35 84.24 48.66 66.54 158.11 17.38"/><polygon class="cls-5" points="121.97 2.99 15.67 47.15 2.54 66.54 48.44 66.54 157.89 17.38 161.77 2.35 121.97 2.99"/><polyline class="cls-3" points="2.54 66.54 40.35 84.24 147.69 37.35 157.89 17.38"/><polyline class="cls-7" points="2.54 66.54 40.35 84.24 48.44 66.54 2.97 66.36"/></g></g></svg>