<svg xmlns="http://www.w3.org/2000/svg" viewBox="0 0 566.93 566.93"><defs><style>.cls-1{fill:#aa7272;}.cls-2,.cls-6{fill:#a59672;}.cls-2,.cls-3,.cls-5,.cls-7{stroke:#1d1d1b;stroke-miterlimit:10;stroke-width:1.2px;}.cls-3{fill:none;}.cls-4,.cls-5{fill:#e5c376;}.cls-7{fill:#dcbe7d;}</style></defs><title>images</title><g id="_3" data-name="3"><g id="Fore"><polygon class="cls-1" points="236.24 354.87 270.44 354.87 359.88 301.24 431.02 302.72 381.36 336.02 405.37 352.25 499.77 286.17 329.37 283.23 236.24 354.87"/><polygon class="cls-2" points="213.27 353.03 239.62 308.53 321.5 264.32 351.47 284.41 346.1 299.15 247.74 354.87 213.27 353.03"/><line class="cls-3" x1="239.62" y1="308.53" x2="247.74" y2="354.87"/><polygon class="cls-4" points="247.24 354.87 239.12 308.53 212.78 353.03 247.24 354.87"/><line class="cls-3" x1="321.5" y1="264.32" x2="346.1" y2="299.15"/><polygon class="cls-3" points="213.27 353.03 239.62 308.53 321.5 264.32 351.47 284.41 346.1 299.15 247.74 354.87 213.27 353.03"/><polygon class="cls-5" points="353.4 149.27 351.49 284.7 321.5 264.32 321.12 168.76 353.4 149.27"/><polygon class="cls-6" points="349.74 164.3 339.32 184.27 231.98 231.16 240.29 213.46 349.74 164.3"/><polygon class="cls-5" points="313.6 149.91 207.29 194.08 194.17 213.46 240.07 213.46 349.51 164.3 353.4 149.27 313.6 149.91"/><polyline class="cls-3" points="194.17 213.46 231.98 231.16 339.32 184.27 349.51 164.3"/><polyline class="cls-7" points="194.17 213.46 231.98 231.16 240.07 213.46 194.6 213.28"/></g></g></svg>