<svg id="Layer_1" data-name="Layer 1" xmlns="http://www.w3.org/2000/svg" xmlns:xlink="http://www.w3.org/1999/xlink" viewBox="0 0 566.93 566.93"><defs><style>.cls-1,.cls-6{fill:none;}.cls-2{clip-path:url(#clip-path);}.cls-3{fill:#1d1d1b;}.cls-4{fill:url(#Unnamed_Pattern);}.cls-5{fill:#fff;}.cls-6{stroke:#1d1d1b;stroke-miterlimit:10;}</style><clipPath id="clip-path"><rect class="cls-1" width="11.17" height="15.48"/></clipPath><pattern id="Unnamed_Pattern" data-name="Unnamed Pattern" width="11.17" height="15.49" patternTransform="matrix(3, 0, 0, -2, 97.05, 33526.72)" patternUnits="userSpaceOnUse" viewBox="0 0 11.17 15.48"><rect class="cls-1" width="11.17" height="15.49"/><g class="cls-2"><path class="cls-3" d="M7.78,1.25A12,12,0,0,0,11.34.47a11.6,11.6,0,0,0,3.21-1.72A12,12,0,0,0,11-.47,11.65,11.65,0,0,0,7.78,1.25"/><path class="cls-3" d="M14.55,1.25A11.74,11.74,0,0,0,11.34-.47a12,12,0,0,0-3.56-.78A11.65,11.65,0,0,0,11,.47a12,12,0,0,0,3.55.78"/><path class="cls-3" d="M-3.39,1.25A12,12,0,0,0,.17.47,11.8,11.8,0,0,0,3.39-1.25,12,12,0,0,0-.17-.47,11.8,11.8,0,0,0-3.39,1.25"/><path class="cls-3" d="M3.39,1.25A11.8,11.8,0,0,0,.17-.47a12,12,0,0,0-3.56-.78A11.8,11.8,0,0,0-.17.47a12,12,0,0,0,3.56.78"/><path class="cls-3" d="M2.2,9a12.11,12.11,0,0,0,3.56-.78A12,12,0,0,0,9,6.5a11.73,11.73,0,0,0-3.56.77A12,12,0,0,0,2.2,9"/><path class="cls-3" d="M9,9A12,12,0,0,0,5.76,7.27,11.79,11.79,0,0,0,2.2,6.5,12,12,0,0,0,5.41,8.21,12.11,12.11,0,0,0,9,9"/><path class="cls-3" d="M7.78,16.73A11.67,11.67,0,0,0,11.34,16a11.57,11.57,0,0,0,3.21-1.71A11.38,11.38,0,0,0,11,15a11.89,11.89,0,0,0-3.22,1.71"/><path class="cls-3" d="M14.55,16.73A12,12,0,0,0,11.34,15a11.38,11.38,0,0,0-3.56-.78A11.62,11.62,0,0,0,11,16a11.67,11.67,0,0,0,3.55.78"/><path class="cls-3" d="M-3.39,16.73A11.67,11.67,0,0,0,.17,16a11.76,11.76,0,0,0,3.22-1.71A11.38,11.38,0,0,0-.17,15a12,12,0,0,0-3.22,1.71"/><path class="cls-3" d="M3.39,16.73A12,12,0,0,0,.17,15a11.38,11.38,0,0,0-3.56-.78A11.76,11.76,0,0,0-.17,16a11.67,11.67,0,0,0,3.56.78"/></g></pattern></defs><title>4</title><g id="Q"><rect class="cls-4" y="-566.93" width="1700.74" height="1133.86"/></g><g id="Q-2" data-name="Q"><path class="cls-5" d="M566.93,379.84c-73.66-5.7-140,39-181.39,28s-58.41-41.2-58.41-41.2L368,353.46s4.51,11.73,29.13,19.33c31.9,9.86,96.13-34.77,169.79-29.07"/><path class="cls-6" d="M566.93,379.84c-73.66-5.7-140,39-181.39,28s-58.41-41.2-58.41-41.2L368,353.46s4.51,11.73,29.13,19.33c31.9,9.86,96.13-34.77,169.79-29.07"/><path class="cls-5" d="M368,353.46l-40.88,13.22a308,308,0,0,1-53.84,4.49c-59,0-106.89-14.79-106.89-33h0V212.56H380.18V338.14h0c0,5.53-4.4,10.74-12.17,15.32"/><path class="cls-6" d="M368,353.46l-40.88,13.22a308,308,0,0,1-53.84,4.49c-59,0-106.89-14.79-106.89-33h0V212.56H380.18V338.14h0C380.18,343.67,375.78,348.88,368,353.46Z"/><path class="cls-5" d="M380.18,212.55c0,18.25-47.86,33-106.89,33s-106.89-14.78-106.89-33,47.85-33,106.89-33,106.89,14.79,106.89,33"/><ellipse class="cls-6" cx="273.29" cy="212.55" rx="106.89" ry="33.03"/><path class="cls-5" d="M327.13,287.36v79.32c17.32-3.13,31.54-7.72,40.88-13.22V274.15c-9.34,5.5-23.56,10.09-40.88,13.21"/><path class="cls-6" d="M327.13,287.36v79.32c17.32-3.13,31.54-7.72,40.88-13.22V274.15C358.67,279.65,344.45,284.24,327.13,287.36Z"/></g><g id="Q-3" data-name="Q"><path class="cls-5" d="M566.93,343.72c86.59,6,143.39,26.28,239.13-6.54s161.62-67,239.75-45.32c77.12,21.44,88,28.55,88,28.55v36s-14.26-3.87-88-28.56c-76.91-25.73-144,12.51-239.75,45.32s-148.59,15.8-239.13,6.71"/><path class="cls-6" d="M566.93,343.72c86.59,6,143.39,26.28,239.13-6.54s161.62-67,239.75-45.32c77.12,21.44,88,28.55,88,28.55v36s-14.26-3.87-88-28.56c-76.91-25.73-144,12.51-239.75,45.32s-148.59,15.8-239.13,6.71"/></g></svg>