<svg xmlns="http://www.w3.org/2000/svg" xmlns:xlink="http://www.w3.org/1999/xlink" viewBox="0 0 566.93 566.93"><defs><style>.cls-1,.cls-9{fill:none;}.cls-2{fill:#1d1d1b;}.cls-3{fill:#eb9899;}.cls-4{fill:url(#RBDots);}.cls-5{fill:#f4ce6f;}.cls-6{fill:#bca061;}.cls-7{fill:url(#RBDots-3);}.cls-8{fill:#161616;}.cls-9{stroke:#000;stroke-miterlimit:10;stroke-width:0.5px;}.cls-10{fill:#b79291;}.cls-11{fill:#a37979;}.cls-12{fill:#6e7891;}.cls-13{fill:#98a1b7;}</style><pattern id="RBDots" data-name="RBDots" width="28.8" height="28.8" patternTransform="matrix(0.95, 0.28, -0.32, 0.83, -4.91, 9.3)" patternUnits="userSpaceOnUse" viewBox="0 0 28.8 28.8"><rect class="cls-1" width="28.8" height="28.8"/><circle class="cls-2" cx="28.8" cy="28.8" r="0.72"/><path class="cls-2" d="M14.4,29.52a.72.72,0,1,0-.72-.72A.72.72,0,0,0,14.4,29.52Z"/><path class="cls-2" d="M28.8,15.12a.72.72,0,1,0-.72-.72A.72.72,0,0,0,28.8,15.12Z"/><path class="cls-2" d="M14.4,15.12a.72.72,0,1,0-.72-.72A.72.72,0,0,0,14.4,15.12Z"/><path class="cls-2" d="M7.2,22.32a.72.72,0,1,0-.72-.72A.72.72,0,0,0,7.2,22.32Z"/><path class="cls-2" d="M21.6,22.32a.72.72,0,1,0-.72-.72A.72.72,0,0,0,21.6,22.32Z"/><path class="cls-2" d="M14.4,22.32a.72.72,0,1,0-.72-.72A.72.72,0,0,0,14.4,22.32Z"/><path class="cls-2" d="M7.2,29.52a.72.72,0,1,0-.72-.72A.72.72,0,0,0,7.2,29.52Z"/><path class="cls-2" d="M21.82,29.52a.72.72,0,1,0-.72-.72A.72.72,0,0,0,21.82,29.52Z"/><path class="cls-2" d="M7.2,7.92a.72.72,0,1,0-.72-.72A.72.72,0,0,0,7.2,7.92Z"/><path class="cls-2" d="M7.2,15.12a.72.72,0,1,0-.72-.72A.72.72,0,0,0,7.2,15.12Z"/><path class="cls-2" d="M21.6,15.12a.72.72,0,1,0-.72-.72A.72.72,0,0,0,21.6,15.12Z"/><path class="cls-2" d="M14.4,7.92a.72.72,0,1,0-.72-.72A.72.72,0,0,0,14.4,7.92Z"/><path class="cls-2" d="M28.8,7.92a.72.72,0,1,0-.72-.72A.72.72,0,0,0,28.8,7.92Z"/><path class="cls-2" d="M21.6,7.92a.72.72,0,1,0-.72-.72A.72.72,0,0,0,21.6,7.92Z"/><path class="cls-2" d="M28.8,22.32a.72.72,0,1,0-.72-.72A.72.72,0,0,0,28.8,22.32Z"/><circle class="cls-2" cy="28.8" r="0.72"/><path class="cls-2" d="M0,15.12a.72.72,0,0,0,0-1.44.72.72,0,0,0-.72.72A.72.72,0,0,0,0,15.12Z"/><path class="cls-2" d="M0,7.92A.72.72,0,0,0,0,6.48a.72.72,0,0,0-.72.72A.72.72,0,0,0,0,7.92Z"/><path class="cls-2" d="M0,22.32a.72.72,0,0,0,0-1.44.72.72,0,0,0-.72.72A.72.72,0,0,0,0,22.32Z"/><circle class="cls-2" cx="28.8" r="0.72"/><path class="cls-2" d="M14.4.72A.72.72,0,0,0,15.12,0a.72.72,0,0,0-.72-.72.72.72,0,0,0-.72.72A.72.72,0,0,0,14.4.72Z"/><path class="cls-2" d="M7.2.72A.72.72,0,0,0,7.92,0,.72.72,0,0,0,7.2-.72.72.72,0,0,0,6.48,0,.72.72,0,0,0,7.2.72Z"/><path class="cls-2" d="M21.82.72A.72.72,0,0,0,22.54,0a.72.72,0,0,0-.72-.72A.72.72,0,0,0,21.1,0,.72.72,0,0,0,21.82.72Z"/><circle class="cls-2" r="0.72"/></pattern><pattern id="RBDots-3" data-name="RBDots" width="28.8" height="28.8" patternTransform="matrix(0.95, 0.28, -0.32, 0.83, -40.49, 29.46)" patternUnits="userSpaceOnUse" viewBox="0 0 28.8 28.8"><rect class="cls-1" width="28.8" height="28.8"/><circle class="cls-2" cx="28.8" cy="28.8" r="0.72"/><path class="cls-2" d="M14.4,29.52a.72.72,0,1,0-.72-.72A.72.72,0,0,0,14.4,29.52Z"/><path class="cls-2" d="M28.8,15.12a.72.72,0,1,0-.72-.72A.72.72,0,0,0,28.8,15.12Z"/><path class="cls-2" d="M14.4,15.12a.72.72,0,1,0-.72-.72A.72.72,0,0,0,14.4,15.12Z"/><path class="cls-2" d="M7.2,22.32a.72.72,0,1,0-.72-.72A.72.72,0,0,0,7.2,22.32Z"/><path class="cls-2" d="M21.6,22.32a.72.72,0,1,0-.72-.72A.72.72,0,0,0,21.6,22.32Z"/><path class="cls-2" d="M14.4,22.32a.72.72,0,1,0-.72-.72A.72.72,0,0,0,14.4,22.32Z"/><path class="cls-2" d="M7.2,29.52a.72.72,0,1,0-.72-.72A.72.72,0,0,0,7.2,29.52Z"/><path class="cls-2" d="M21.82,29.52a.72.72,0,1,0-.72-.72A.72.72,0,0,0,21.82,29.52Z"/><path class="cls-2" d="M7.2,7.92a.72.72,0,1,0-.72-.72A.72.72,0,0,0,7.2,7.92Z"/><path class="cls-2" d="M7.2,15.12a.72.72,0,1,0-.72-.72A.72.72,0,0,0,7.2,15.12Z"/><path class="cls-2" d="M21.6,15.12a.72.72,0,1,0-.72-.72A.72.72,0,0,0,21.6,15.12Z"/><path class="cls-2" d="M14.4,7.92a.72.72,0,1,0-.72-.72A.72.72,0,0,0,14.4,7.92Z"/><path class="cls-2" d="M28.8,7.92a.72.72,0,1,0-.72-.72A.72.72,0,0,0,28.8,7.92Z"/><path class="cls-2" d="M21.6,7.92a.72.72,0,1,0-.72-.72A.72.72,0,0,0,21.6,7.92Z"/><path class="cls-2" d="M28.8,22.32a.72.72,0,1,0-.72-.72A.72.72,0,0,0,28.8,22.32Z"/><circle class="cls-2" cy="28.8" r="0.72"/><path class="cls-2" d="M0,15.12a.72.72,0,0,0,0-1.44.72.72,0,0,0-.72.72A.72.72,0,0,0,0,15.12Z"/><path class="cls-2" d="M0,7.92A.72.72,0,0,0,0,6.48a.72.72,0,0,0-.72.72A.72.72,0,0,0,0,7.92Z"/><path class="cls-2" d="M0,22.32a.72.72,0,0,0,0-1.44.72.72,0,0,0-.72.72A.72.72,0,0,0,0,22.32Z"/><circle class="cls-2" cx="28.8" r="0.72"/><path class="cls-2" d="M14.4.72A.72.72,0,0,0,15.12,0a.72.72,0,0,0-.72-.72.72.72,0,0,0-.72.72A.72.72,0,0,0,14.4.72Z"/><path class="cls-2" d="M7.2.72A.72.72,0,0,0,7.92,0,.72.72,0,0,0,7.2-.72.72.72,0,0,0,6.48,0,.72.72,0,0,0,7.2.72Z"/><path class="cls-2" d="M21.82.72A.72.72,0,0,0,22.54,0a.72.72,0,0,0-.72-.72A.72.72,0,0,0,21.1,0,.72.72,0,0,0,21.82.72Z"/><circle class="cls-2" r="0.72"/></pattern></defs><title>4</title><g id="_4" data-name="4"><g id="Back"><rect class="cls-3" width="566.93" height="566.93"/><path class="cls-4" d="M498,458.43c6.62-4.26,10.54-9.55,10.54-15.29,0-14.09-23.63-25.51-52.77-25.51S403,429.05,403,443.14c0,13.22,20.79,24.09,47.43,25.38a10.52,10.52,0,0,0-2,6c0,9.87,15.43,17.87,34.47,17.87s34.47-8,34.47-17.87C517.38,467.44,509.47,461.33,498,458.43Z"/><polygon class="cls-5" points="137.01 96.84 137.01 96.84 137.01 96.84 101.89 83.22 66.77 97.49 66.77 97.49 66.77 97.49 66.77 97.49 66.77 97.49 101.89 111.1 137.01 96.84 137.01 96.84 137.01 96.84"/><path class="cls-6" d="M111.4,87c-5.79,0-10.58,3.13-11.47,7.23h-5.8c-.33,0-.61.61-.61,1.37S93.8,97,94.13,97h5.8c.89,4.1,5.68,7.24,11.47,7.24,6.43,0,11.64-3.85,11.64-8.6S117.83,87,111.4,87Z"/><polygon class="cls-7" points="137.01 96.84 137.01 96.84 137.01 96.84 101.89 83.22 66.77 97.49 66.77 97.49 66.77 97.49 66.77 97.49 66.77 97.49 101.89 111.1 137.01 96.84 137.01 96.84 137.01 96.84"/><path class="cls-8" d="M92,73.37V96.05c0,.57,1,1,2.3,1s2.3-.46,2.3-1V73.37Z"/><path class="cls-5" d="M94.34,38.54a11.65,11.65,0,0,0-3.43.53c0,4.8-3,8.68-6.73,8.68a5.29,5.29,0,0,1-2.38-.58,24.23,24.23,0,0,0-2.68,11.27c0,11,6.81,19.89,15.22,19.89s15.22-8.9,15.22-19.89S102.75,38.54,94.34,38.54Z"/><path class="cls-6" d="M100.45,40.21a17.85,17.85,0,0,0-6.2,2.57,11.92,11.92,0,0,1,.09,1.35c0,4.84-3,8.76-6.73,8.76a5.38,5.38,0,0,1-2-.38A31.26,31.26,0,0,0,82.92,60a30.88,30.88,0,0,0-.55,10.76c2.79,4.63,7.11,7.61,12,7.61,8.41,0,15.22-8.9,15.22-19.89C109.56,50.29,105.81,43.29,100.45,40.21Z"/><path class="cls-9" d="M94.34,38.54a11.65,11.65,0,0,0-3.43.53c0,4.8-3,8.68-6.73,8.68a5.29,5.29,0,0,1-2.38-.58,24.23,24.23,0,0,0-2.68,11.27c0,11,6.81,19.89,15.22,19.89s15.22-8.9,15.22-19.89S102.75,38.54,94.34,38.54Z"/><path class="cls-10" d="M116.2,471.49a50.45,50.45,0,0,0-10.42,1.06c-4.17-8.22-18.71-14.29-36-14.29-20.55,0-37.21,8.57-37.21,19.13s16.66,19.14,37.21,19.14a69.27,69.27,0,0,0,13.12-1.23,3,3,0,0,0-.28,1.23c0,3,4.79,5.5,10.7,5.5,5,0,9.22-1.78,10.38-4.17a48.91,48.91,0,0,0,12.52,1.57c15,0,27.17-6.25,27.17-14S131.2,471.49,116.2,471.49Z"/><path class="cls-11" d="M133.14,485.74c0,5.35-8.44,9.69-18.85,9.69s-18.84-4.34-18.84-9.69,8.43-9.69,18.84-9.69,18.85,4.33,18.85,9.69"/><path class="cls-11" d="M80.34,482.63c0,3-4.79,5.5-10.7,5.5s-10.71-2.46-10.71-5.5,4.8-5.5,10.71-5.5,10.7,2.46,10.7,5.5"/><g id="Rock"><path class="cls-12" d="M341.16,39.69c26.73,0,26-5.68,21.74-11.4-6.47-8.62-23.73-6.61-31.36-4-10.73,3.69-6,15.39,9.62,15.39"/><path class="cls-13" d="M326.5,27.94s3.34-4.6,12.34-5.18,15.72-.7,19.92,2,4.53,4.07,4.53,4.07-1.06,3.55-2.26,4.44a15.76,15.76,0,0,1-7.53,2.18,43.18,43.18,0,0,0-8.41.22c-1.75.41-8.92-.4-10.53-1a36.12,36.12,0,0,1-7.26-4.91,4.3,4.3,0,0,1-.8-1.9"/><path class="cls-2" d="M341.16,40.19c-9.89,0-15.14-4.46-15.83-8.6-.56-3.36,1.7-6.26,6-7.76C338.55,21.37,356.54,19,363.3,28c1.53,2,3.13,4.66,2,7-1.77,3.55-9.43,5.2-24.1,5.2m4.9-17.63a47.59,47.59,0,0,0-14.36,2.22c-3.85,1.32-5.86,3.8-5.38,6.64.64,3.86,5.95,7.77,14.84,7.77,13.86,0,21.67-1.56,23.2-4.64.72-1.43.13-3.33-1.86-6-3.43-4.58-10-6-16.44-6"/><path class="cls-2" d="M342.12,36.47c-6.44,0-12.5-3-15-6.28a5,5,0,0,1-1-2.28l.37.11a9.59,9.59,0,0,0,3.94,4.1c3.77,2.24,10,3.7,14.05,3.21,2.22-.26,4.4-.3,6.51-.34,4.3-.08,8-.14,9.8-2.22a16.16,16.16,0,0,0,2.45-3.65s.3,0,.27.16a12.19,12.19,0,0,1-2,4.14c-2.07,2.42-6,2.49-10.54,2.57a63.78,63.78,0,0,0-6.41.34,22,22,0,0,1-2.43.14"/></g><g id="Rock-2" data-name="Rock"><path class="cls-12" d="M415.44,67.24c26.73,0,26.05-5.68,21.74-11.4-6.47-8.62-23.72-6.61-31.36-4-10.73,3.69-6,15.39,9.62,15.39"/><path class="cls-13" d="M400.78,55.49s3.35-4.6,12.35-5.18,15.71-.7,19.91,2,4.53,4.07,4.53,4.07-1.05,3.55-2.26,4.44a15.76,15.76,0,0,1-7.53,2.18,43.18,43.18,0,0,0-8.41.22c-1.74.41-8.92-.4-10.52-1a36.5,36.5,0,0,1-7.27-4.91,4.3,4.3,0,0,1-.8-1.9"/><path class="cls-2" d="M415.44,67.74c-9.89,0-15.13-4.46-15.83-8.6-.56-3.36,1.7-6.26,6.05-7.76,7.17-2.46,25.16-4.84,31.92,4.15,1.53,2,3.13,4.67,2,7-1.77,3.55-9.43,5.2-24.1,5.2m4.9-17.64A47.56,47.56,0,0,0,406,52.33c-3.84,1.32-5.86,3.8-5.38,6.64.64,3.86,5.95,7.77,14.84,7.77,13.86,0,21.67-1.56,23.21-4.64.71-1.43.12-3.33-1.86-6-3.44-4.57-10-6-16.45-6"/><path class="cls-2" d="M416.41,64c-6.45,0-12.5-3-15-6.28a5,5,0,0,1-1-2.28l.36.11a9.61,9.61,0,0,0,3.94,4.09c3.77,2.25,10,3.71,14,3.22,2.22-.26,4.4-.3,6.51-.34,4.31-.08,8-.14,9.8-2.22a15.83,15.83,0,0,0,2.45-3.65s.31,0,.28.16a12.33,12.33,0,0,1-2,4.14c-2.07,2.42-6,2.49-10.54,2.57a63.73,63.73,0,0,0-6.41.33,19.77,19.77,0,0,1-2.42.15"/></g><g id="Rock-3" data-name="Rock"><path class="cls-12" d="M350.24,110.6c26.74,0,26.05-5.68,21.75-11.4-6.48-8.62-23.73-6.61-31.37-4-10.72,3.69-6,15.39,9.62,15.39"/><path class="cls-13" d="M335.58,98.86s3.35-4.61,12.35-5.19,15.71-.7,19.91,2,4.53,4.07,4.53,4.07-1.05,3.55-2.25,4.44a15.8,15.8,0,0,1-7.53,2.18,43.23,43.23,0,0,0-8.42.23c-1.74.4-8.91-.4-10.52-1a36.12,36.12,0,0,1-7.26-4.91,4.22,4.22,0,0,1-.81-1.89"/><path class="cls-2" d="M350.25,111.1c-9.89,0-15.14-4.46-15.83-8.6-.57-3.36,1.69-6.26,6-7.76,7.17-2.46,25.16-4.84,31.93,4.16,1.52,2,3.12,4.66,1.95,7-1.77,3.55-9.42,5.2-24.09,5.2m4.89-17.63a47.47,47.47,0,0,0-14.35,2.22c-3.85,1.32-5.86,3.8-5.39,6.64.65,3.86,6,7.77,14.85,7.77,13.85,0,21.66-1.56,23.2-4.64.71-1.43.12-3.33-1.86-6-3.44-4.58-10-6-16.45-6"/><path class="cls-2" d="M351.21,107.38c-6.45,0-12.5-3-15-6.28a4.94,4.94,0,0,1-1-2.28l.36.11a9.66,9.66,0,0,0,3.94,4.1c3.77,2.24,10,3.7,14.05,3.21,2.22-.26,4.4-.3,6.51-.34,4.31-.08,8-.14,9.8-2.22a15.51,15.51,0,0,0,2.45-3.65s.31,0,.28.16a12.25,12.25,0,0,1-2,4.14c-2.06,2.42-6,2.49-10.54,2.57a63.94,63.94,0,0,0-6.41.34,22,22,0,0,1-2.42.14"/></g><g id="Rock-4" data-name="Rock"><path class="cls-12" d="M425.36,129.39c26.73,0,26.05-5.68,21.74-11.4-6.47-8.62-23.73-6.61-31.37-4-10.72,3.69-6,15.38,9.63,15.38"/><path class="cls-13" d="M410.69,117.65S414,113,423,112.46s15.71-.7,19.92,2.05,4.53,4.07,4.53,4.07-1.06,3.55-2.26,4.44a15.76,15.76,0,0,1-7.53,2.18,43.13,43.13,0,0,0-8.41.23c-1.75.4-8.92-.4-10.53-1a36.12,36.12,0,0,1-7.26-4.91,4.36,4.36,0,0,1-.81-1.89"/><path class="cls-2" d="M425.36,129.89c-9.89,0-15.14-4.46-15.83-8.6-.57-3.36,1.69-6.26,6-7.76,7.17-2.46,25.17-4.84,31.93,4.16,1.53,2,3.13,4.66,1.95,7-1.77,3.55-9.42,5.2-24.09,5.2m4.9-17.63a47.59,47.59,0,0,0-14.36,2.22c-3.85,1.32-5.86,3.81-5.39,6.65.65,3.86,5.95,7.76,14.85,7.76,13.85,0,21.66-1.56,23.2-4.64.71-1.43.12-3.33-1.86-6-3.44-4.58-10-6-16.44-6"/><path class="cls-2" d="M426.32,126.17c-6.45,0-12.5-3-15-6.28a5,5,0,0,1-1-2.28l.36.11a9.61,9.61,0,0,0,3.94,4.1c3.78,2.24,10,3.7,14.05,3.21,2.22-.26,4.41-.3,6.52-.34,4.3-.08,8-.14,9.8-2.22a16.16,16.16,0,0,0,2.45-3.65s.3,0,.27.16a12.39,12.39,0,0,1-2,4.14c-2.07,2.42-6,2.49-10.55,2.57a63.94,63.94,0,0,0-6.41.34,21.82,21.82,0,0,1-2.42.14"/></g><g id="Rock-5" data-name="Rock"><path class="cls-12" d="M338.79,213.64c26.73,0,26-5.68,21.74-11.4-6.48-8.62-23.73-6.61-31.37-4-10.72,3.69-6,15.39,9.63,15.39"/><path class="cls-13" d="M324.12,201.89s3.35-4.6,12.35-5.18,15.71-.7,19.92,2,4.52,4.07,4.52,4.07-1.05,3.55-2.25,4.44a15.8,15.8,0,0,1-7.53,2.18,43.31,43.31,0,0,0-8.42.22c-1.74.41-8.91-.4-10.52-1a36.12,36.12,0,0,1-7.26-4.91,4.38,4.38,0,0,1-.81-1.9"/><path class="cls-2" d="M338.79,214.14c-9.89,0-15.14-4.46-15.83-8.6-.57-3.36,1.69-6.26,6-7.76,7.17-2.46,25.16-4.84,31.93,4.15,1.53,2,3.13,4.67,1.95,7-1.77,3.55-9.42,5.2-24.09,5.2m4.9-17.64a47.5,47.5,0,0,0-14.36,2.23c-3.85,1.32-5.86,3.8-5.39,6.64.65,3.86,5.95,7.77,14.85,7.77,13.85,0,21.66-1.56,23.2-4.64.71-1.43.12-3.33-1.86-6-3.44-4.57-10-6-16.44-6"/><path class="cls-2" d="M339.75,210.42c-6.45,0-12.5-3-15-6.28a4.9,4.9,0,0,1-1-2.28l.36.11a9.61,9.61,0,0,0,3.94,4.09c3.77,2.25,10,3.71,14.05,3.22,2.22-.26,4.41-.3,6.52-.34,4.3-.08,8-.14,9.8-2.22a16.16,16.16,0,0,0,2.45-3.65s.3,0,.27.16a12.48,12.48,0,0,1-2,4.14c-2.07,2.42-6,2.49-10.55,2.57a63.88,63.88,0,0,0-6.41.33,19.77,19.77,0,0,1-2.42.15"/></g><g id="Rock-6" data-name="Rock"><path class="cls-12" d="M323.7,163.85c26.74,0,26.05-5.68,21.75-11.4-6.48-8.62-23.73-6.61-31.37-4-10.73,3.69-6,15.38,9.62,15.38"/><path class="cls-13" d="M309,152.11s3.35-4.61,12.35-5.19,15.71-.7,19.91,2.05,4.53,4.07,4.53,4.07-1.05,3.55-2.26,4.44a15.84,15.84,0,0,1-7.53,2.19,42.41,42.41,0,0,0-8.41.22c-1.74.4-8.92-.4-10.52-1a36.12,36.12,0,0,1-7.26-4.91,4.22,4.22,0,0,1-.81-1.89"/><path class="cls-2" d="M323.7,164.35c-9.89,0-15.13-4.45-15.83-8.6-.56-3.36,1.7-6.26,6.05-7.76,7.17-2.46,25.16-4.84,31.92,4.16,1.53,2,3.13,4.66,2,7-1.77,3.54-9.43,5.19-24.1,5.19m4.9-17.63a47.59,47.59,0,0,0-14.36,2.22c-3.84,1.32-5.86,3.81-5.38,6.65.64,3.86,5.95,7.76,14.84,7.76,13.86,0,21.67-1.56,23.21-4.64.71-1.43.12-3.32-1.86-6-3.44-4.58-10-6-16.45-6"/><path class="cls-2" d="M324.67,160.63c-6.45,0-12.5-3-15-6.27a5,5,0,0,1-1-2.29l.36.11a9.61,9.61,0,0,0,3.94,4.1c3.77,2.24,10,3.7,14.05,3.22a63.34,63.34,0,0,1,6.51-.35c4.31-.08,8-.14,9.8-2.22a15.83,15.83,0,0,0,2.45-3.65s.31,0,.28.16a12.16,12.16,0,0,1-2,4.14c-2.07,2.42-6,2.49-10.54,2.57a63.94,63.94,0,0,0-6.41.34,19.75,19.75,0,0,1-2.42.14"/></g><g id="Rock-7" data-name="Rock"><path class="cls-12" d="M265.67,201c26.73,0,26.05-5.68,21.74-11.41-6.47-8.61-23.73-6.61-31.36-4-10.73,3.69-6,15.39,9.62,15.39"/><path class="cls-13" d="M251,189.24s3.34-4.6,12.34-5.18,15.72-.7,19.92,2.05,4.53,4.06,4.53,4.06-1.06,3.55-2.26,4.45A15.88,15.88,0,0,1,278,196.8a43.18,43.18,0,0,0-8.41.22c-1.75.4-8.92-.4-10.52-1a36.33,36.33,0,0,1-7.27-4.9,4.34,4.34,0,0,1-.8-1.9"/><path class="cls-2" d="M265.67,201.49c-9.89,0-15.14-4.46-15.83-8.61-.56-3.36,1.7-6.26,6-7.75,7.18-2.47,25.17-4.84,31.93,4.15,1.53,2,3.13,4.66,2,7-1.77,3.55-9.43,5.2-24.1,5.2m4.9-17.64a47.91,47.91,0,0,0-14.36,2.22c-3.85,1.33-5.86,3.81-5.38,6.65.64,3.86,5.95,7.77,14.84,7.77,13.86,0,21.67-1.57,23.2-4.65.72-1.43.13-3.32-1.86-6-3.43-4.57-10-6-16.44-6"/><path class="cls-2" d="M266.64,197.77c-6.45,0-12.51-3-15-6.28a5,5,0,0,1-1-2.29l.37.11a9.53,9.53,0,0,0,3.94,4.1c3.77,2.24,10,3.71,14.05,3.22a60.58,60.58,0,0,1,6.51-.34c4.3-.08,8-.15,9.8-2.22a16,16,0,0,0,2.45-3.65s.31,0,.27.15a12.23,12.23,0,0,1-2,4.15c-2.07,2.41-6,2.48-10.54,2.57a60.91,60.91,0,0,0-6.41.33,19.77,19.77,0,0,1-2.42.15"/></g><g id="Rock-8" data-name="Rock"><path class="cls-12" d="M393,172.66c26.74,0,26.05-5.68,21.75-11.41-6.48-8.61-23.73-6.61-31.37-4-10.72,3.69-6,15.39,9.62,15.39"/><path class="cls-13" d="M378.36,160.91s3.35-4.6,12.35-5.18,15.71-.7,19.92,2,4.52,4.07,4.52,4.07-1,3.55-2.25,4.44a15.8,15.8,0,0,1-7.53,2.19,43.31,43.31,0,0,0-8.42.22c-1.74.4-8.91-.4-10.52-1a36.53,36.53,0,0,1-7.26-4.9,4.42,4.42,0,0,1-.81-1.9"/><path class="cls-2" d="M393,173.16c-9.89,0-15.14-4.46-15.83-8.61-.57-3.36,1.69-6.26,6-7.75,7.17-2.47,25.16-4.85,31.93,4.15,1.53,2,3.13,4.66,1.95,7-1.77,3.54-9.42,5.2-24.09,5.2m4.9-17.64a47.86,47.86,0,0,0-14.36,2.22c-3.85,1.33-5.86,3.81-5.39,6.65.65,3.86,5.95,7.77,14.85,7.77,13.85,0,21.66-1.57,23.2-4.65.71-1.43.12-3.32-1.86-6-3.44-4.57-10-6-16.44-6"/><path class="cls-2" d="M394,169.44c-6.45,0-12.5-3-15-6.28a4.89,4.89,0,0,1-1-2.29l.36.11a9.61,9.61,0,0,0,3.94,4.1c3.77,2.24,10,3.7,14.05,3.22a60.58,60.58,0,0,1,6.51-.34c4.31-.08,8-.15,9.81-2.22a16.38,16.38,0,0,0,2.45-3.65s.3,0,.27.15a12.42,12.42,0,0,1-2,4.15c-2.07,2.41-6,2.48-10.55,2.57a61,61,0,0,0-6.41.33,19.77,19.77,0,0,1-2.42.15"/></g><g id="Rock-9" data-name="Rock"><path class="cls-12" d="M179.49,222.94c26.73,0,26-5.67,21.74-11.4-6.47-8.62-23.73-6.61-31.36-4-10.73,3.69-6,15.38,9.62,15.38"/><path class="cls-13" d="M164.82,211.2s3.35-4.61,12.35-5.19,15.71-.7,19.92,2.05,4.53,4.07,4.53,4.07-1.06,3.55-2.26,4.44a15.76,15.76,0,0,1-7.53,2.19,42.41,42.41,0,0,0-8.41.22c-1.75.4-8.92-.4-10.53-1a36.12,36.12,0,0,1-7.26-4.91,4.36,4.36,0,0,1-.81-1.89"/><path class="cls-2" d="M179.49,223.45c-9.89,0-15.14-4.46-15.83-8.61-.56-3.36,1.7-6.26,6-7.75,7.17-2.47,25.17-4.85,31.93,4.15,1.53,2,3.13,4.66,2,7-1.77,3.54-9.43,5.2-24.1,5.2m4.9-17.64A47.91,47.91,0,0,0,170,208c-3.85,1.32-5.86,3.81-5.39,6.65.65,3.86,6,7.77,14.85,7.77,13.86,0,21.66-1.57,23.2-4.65.72-1.43.12-3.32-1.86-6-3.44-4.57-10-6-16.44-6"/><path class="cls-2" d="M180.45,219.72c-6.44,0-12.5-3-15-6.27a5,5,0,0,1-1-2.29l.36.11a9.66,9.66,0,0,0,4,4.1c3.77,2.24,10,3.7,14,3.22a63.34,63.34,0,0,1,6.51-.35c4.3-.07,8-.14,9.8-2.21a16.38,16.38,0,0,0,2.45-3.65s.3,0,.27.15a12.42,12.42,0,0,1-2,4.15c-2.07,2.41-6,2.48-10.54,2.56a64.13,64.13,0,0,0-6.42.34,19.53,19.53,0,0,1-2.42.14"/></g><g id="Rock-10" data-name="Rock"><path class="cls-12" d="M241.56,246.63c26.73,0,26-5.68,21.74-11.41-6.48-8.61-23.73-6.6-31.37-4-10.72,3.69-6,15.39,9.63,15.39"/><path class="cls-13" d="M226.89,234.88s3.35-4.6,12.35-5.18,15.71-.7,19.92,2.05,4.52,4.07,4.52,4.07-1.05,3.55-2.25,4.44a15.91,15.91,0,0,1-7.53,2.18,43.31,43.31,0,0,0-8.42.22c-1.74.41-8.91-.4-10.52-1a36.1,36.1,0,0,1-7.26-4.9,4.38,4.38,0,0,1-.81-1.9"/><path class="cls-2" d="M241.56,247.13c-9.89,0-15.14-4.46-15.83-8.6-.57-3.36,1.69-6.27,6-7.76,7.17-2.47,25.17-4.84,31.93,4.15,1.53,2,3.13,4.67,1.95,7-1.77,3.55-9.42,5.2-24.09,5.2m4.9-17.64a47.56,47.56,0,0,0-14.36,2.23c-3.85,1.32-5.86,3.8-5.39,6.64.65,3.86,5.95,7.77,14.85,7.77,13.85,0,21.66-1.56,23.2-4.65.71-1.42.12-3.32-1.86-6-3.44-4.57-10-6-16.44-6"/><path class="cls-2" d="M242.52,243.41c-6.45,0-12.5-3-15-6.28a4.89,4.89,0,0,1-1-2.29l.36.12a9.61,9.61,0,0,0,3.94,4.09c3.77,2.24,10,3.71,14,3.22a63.47,63.47,0,0,1,6.52-.34c4.3-.08,8-.15,9.8-2.22a16.16,16.16,0,0,0,2.45-3.65s.3,0,.27.16a12.48,12.48,0,0,1-2,4.14c-2.07,2.42-6,2.49-10.55,2.57a63.88,63.88,0,0,0-6.41.33,19.77,19.77,0,0,1-2.42.15"/></g><g id="Rock-11" data-name="Rock"><path class="cls-12" d="M139.07,263.78c26.73,0,26.05-5.68,21.74-11.41-6.47-8.62-23.72-6.61-31.36-4-10.73,3.69-6,15.39,9.62,15.39"/><path class="cls-13" d="M124.41,252s3.35-4.6,12.35-5.19,15.71-.69,19.91,2S161.2,253,161.2,253s-1,3.55-2.26,4.44a15.76,15.76,0,0,1-7.53,2.19,42.41,42.41,0,0,0-8.41.22c-1.74.4-8.92-.4-10.52-1a36.91,36.91,0,0,1-7.27-4.9,4.34,4.34,0,0,1-.8-1.9"/><path class="cls-2" d="M139.07,264.28c-9.89,0-15.13-4.46-15.83-8.61-.56-3.36,1.7-6.26,6-7.75,7.17-2.47,25.16-4.85,31.92,4.15,1.53,2,3.13,4.66,2,7-1.77,3.54-9.43,5.2-24.1,5.2m4.9-17.64a47.91,47.91,0,0,0-14.36,2.22c-3.84,1.33-5.86,3.81-5.38,6.65.64,3.86,6,7.77,14.84,7.77,13.86,0,21.67-1.57,23.21-4.65.71-1.43.12-3.32-1.86-6-3.44-4.57-10-6-16.45-6"/><path class="cls-2" d="M140,260.56c-6.45,0-12.5-3-15-6.28a5,5,0,0,1-1-2.29l.36.11a9.61,9.61,0,0,0,3.94,4.1c3.77,2.24,10,3.7,14.05,3.22a60.58,60.58,0,0,1,6.51-.34c4.31-.08,8-.15,9.8-2.22a16,16,0,0,0,2.45-3.65s.31,0,.28.15a12.28,12.28,0,0,1-2,4.15c-2.07,2.41-6,2.48-10.54,2.57a60.91,60.91,0,0,0-6.41.33,19.77,19.77,0,0,1-2.42.15"/></g><g id="Rock-12" data-name="Rock"><path class="cls-12" d="M35.44,281.41c26.73,0,26.05-5.68,21.74-11.4-6.47-8.62-23.72-6.61-31.36-4-10.73,3.69-6,15.38,9.62,15.38"/><path class="cls-13" d="M20.78,269.67s3.35-4.61,12.35-5.19,15.71-.7,19.91,2,4.53,4.07,4.53,4.07-1,3.55-2.26,4.44a15.88,15.88,0,0,1-7.53,2.19,42.41,42.41,0,0,0-8.41.22c-1.74.4-8.92-.4-10.52-1a36.5,36.5,0,0,1-7.27-4.91,4.28,4.28,0,0,1-.8-1.89"/><path class="cls-2" d="M35.44,281.91c-9.89,0-15.13-4.45-15.83-8.6-.56-3.36,1.7-6.26,6.05-7.76,7.17-2.46,25.16-4.84,31.92,4.16,1.53,2,3.13,4.66,2,7-1.77,3.54-9.43,5.19-24.1,5.19m4.9-17.63A47.59,47.59,0,0,0,26,266.5c-3.84,1.32-5.86,3.81-5.38,6.65.64,3.86,5.95,7.76,14.84,7.76,13.86,0,21.67-1.56,23.21-4.64.71-1.43.12-3.32-1.86-6-3.44-4.58-10-6-16.45-6"/><path class="cls-2" d="M36.41,278.19c-6.45,0-12.5-3-15-6.27a5,5,0,0,1-1-2.29l.36.11a9.61,9.61,0,0,0,3.94,4.1c3.77,2.24,10,3.7,14.05,3.22a63.34,63.34,0,0,1,6.51-.35c4.31-.08,8-.14,9.8-2.22a15.83,15.83,0,0,0,2.45-3.65s.31,0,.28.16a12.16,12.16,0,0,1-2,4.14c-2.07,2.42-6,2.49-10.54,2.57a63.78,63.78,0,0,0-6.41.34,19.75,19.75,0,0,1-2.42.14"/></g><g id="Rock-13" data-name="Rock"><path class="cls-12" d="M77.83,239.41c26.74,0,26.05-5.68,21.75-11.4-6.48-8.62-23.73-6.61-31.37-4-10.73,3.69-6,15.38,9.62,15.38"/><path class="cls-13" d="M63.17,227.67s3.35-4.61,12.35-5.19,15.71-.7,19.91,2.05S100,228.6,100,228.6s-1,3.55-2.26,4.44a15.73,15.73,0,0,1-7.53,2.18,43.13,43.13,0,0,0-8.41.23c-1.74.4-8.92-.4-10.52-1A36.12,36.12,0,0,1,64,229.56a4.22,4.22,0,0,1-.81-1.89"/><path class="cls-2" d="M77.83,239.91c-9.89,0-15.13-4.46-15.83-8.6-.56-3.36,1.7-6.26,6-7.76,7.17-2.46,25.16-4.84,31.92,4.16,1.53,2,3.13,4.66,2,7-1.77,3.55-9.43,5.2-24.1,5.2m4.9-17.63a47.59,47.59,0,0,0-14.36,2.22c-3.84,1.32-5.86,3.81-5.38,6.65.64,3.86,5.95,7.76,14.84,7.76,13.86,0,21.67-1.56,23.21-4.64.71-1.43.12-3.33-1.86-6-3.44-4.58-10-6-16.45-6"/><path class="cls-2" d="M78.8,236.19c-6.45,0-12.5-3-15-6.28a4.94,4.94,0,0,1-1-2.28l.36.11a9.61,9.61,0,0,0,3.94,4.1c3.77,2.24,10,3.7,14,3.21,2.22-.26,4.4-.3,6.51-.34,4.31-.08,8-.14,9.8-2.22a15.83,15.83,0,0,0,2.45-3.65s.31,0,.28.16a12.25,12.25,0,0,1-2,4.14c-2.07,2.42-6,2.49-10.54,2.57a63.94,63.94,0,0,0-6.41.34,22,22,0,0,1-2.42.14"/></g></g></g></svg>