<svg xmlns="http://www.w3.org/2000/svg" viewBox="0 0 566.93 566.93"><defs><style>.cls-1{fill:#aa7272;}.cls-2{fill:#adadad;}.cls-3{fill:#7f7f80;}.cls-4{fill:none;stroke:#000;stroke-miterlimit:10;}</style></defs><title>4b</title><g id="_4" data-name="4"><g id="Fore"><path class="cls-1" d="M243.46,321.81c23.54,9.39,59-6,84.48,9.76,6.72,4.16-1.15,3.32,12.46,7.93,18.34,6.21,64.83-11.09,74.49-9.33,14.9,2.7,54.12,14.35,62.29-10s1.79-30.51-2.81-36.3-61.33-12.25-64.9-12.06-15.83,3.56-27.07,5.45-90.37,1.13-91.91,1-24.07,1.4-26.08,5S243.46,321.81,243.46,321.81Z"/><path class="cls-2" d="M337.65,339.5s-16.28-5.55-20.94-11.24S303.53,316,303,314.09a43.4,43.4,0,0,1-.79-6.11l.12,1.48c0-.1-.07-.21-.1-.31L300,214.46a12.65,12.65,0,0,1-.42-2.26c-.5-5,1.77-10,5.63-11.76L334.76,187a7,7,0,0,1,7.76,1.35l-.06,0s6.67,6.46,12.07,12.17c7.53,7.95,10.32,21.51,10.32,21.51"/><path class="cls-3" d="M366.78,307l-1.34-85c-1.57-5.69-4.09,1.07-10.08-1l-21.5,6.7c-1.92.87-2.64.85-2.85,1.31.15.15.3.29.45.45-.15-.16-.3-.3-.45-.45-.2.42,0,1.24.16,3.54L334.61,308l3.63,31.52c2.24,2.41,27.2-17.19,27.2-17.19C369.87,320.29,366.16,314.55,366.78,307Z"/><path class="cls-4" d="M355,221c6,2.11,8.51-4.65,10.08,1l1.34,85c-.62,7.56,3.09,13.3-1.34,15.32,0,0-24.95,19.6-27.2,17.19L334.28,308"/><path class="cls-4" d="M355,221l-21.5,6.7c-3.69,1.68-2.95.05-2.69,4.85L334.28,308"/><path class="cls-4" d="M302.59,309.46l-.09-.31-2.23-94.69a12.65,12.65,0,0,1-.42-2.26c-.51-5,1.77-10,5.63-11.76L335,187a7,7,0,0,1,7.75,1.35"/><path class="cls-4" d="M365.11,222s-2.79-13.56-10.32-21.51c-5.41-5.71-12.08-12.17-12.08-12.17"/><path d="M330.78,229.77a13.84,13.84,0,0,0-4.76-3.52,39.19,39.19,0,0,0-5.83-1.73h0a39.54,39.54,0,0,1,6,1.26,14.57,14.57,0,0,1,5.29,3.3Z"/><path d="M300.32,212.05a4.42,4.42,0,0,0,1.45,2.17c.35.32.73.61,1.11.91a6.21,6.21,0,0,1,1.1,1,6.69,6.69,0,0,0-1.23-.74c-.43-.23-.86-.45-1.28-.72a5.1,5.1,0,0,1-2.1-2.27Z"/><path class="cls-4" d="M337.91,339.5s-16.28-5.55-21-11.24S303.78,316,303.27,314.09a43.4,43.4,0,0,1-.79-6.11"/><path class="cls-2" d="M246.29,323.78c0,.28-18.43-2.88-23-8.85-4.66-5.56-13.24-12.47-13.54-14.45a44,44,0,0,1-.07-6.34l-.06,1.53a3,3,0,0,1-.06-.32c3.28-32.66,5.33-65.21,6.47-97.59a13.14,13.14,0,0,1-.29-2.33c-.22-5.15,2.33-10.22,6.3-11.76a168.09,168.09,0,0,1,30.53-8.9c2.8-.52,5.66.88,7.75,3.3l-.06,0s6.33,7.87,11.44,14.43c7.08,9.22,9.2,21.11,9.22,21.11"/><path class="cls-3" d="M280.45,286.36c-.13-24.69.16-48.9,1.1-72.66-1.31-5.14-4.19,0-10.14-3a214.17,214.17,0,0,0-22.08,3c-2,.63-2.72.55-3,1,.14.16.29.31.43.48-.14-.17-.29-.32-.43-.48-.22.39,0,1.22-.05,3.48q-.49,37.14-1.21,74.6.88,15.52,1.86,30.92c2.76,2.08,32.09-23.53,31.79-23.41C283.77,297.13,279.63,293.2,280.45,286.36Z"/><path class="cls-4" d="M271.08,210.66c5.95,3,8.83-2.18,10.14,3-1,23.81-1.25,48.07-1.14,72.81-.81,6.85,3.33,10.79-1.69,13.91.3-.11-29,25.47-31.8,23.38q-1-15.41-1.84-31"/><path class="cls-4" d="M271.08,210.66a214.24,214.24,0,0,0-22.08,3c-3.83,1.24-3-.26-3,4.46q-.51,37.17-1.24,74.66"/><path class="cls-4" d="M209.94,295.68l-.06-.32c3.27-32.67,5.31-65.21,6.44-97.59a13.12,13.12,0,0,1-.28-2.33c-.22-5.15,2.32-10.22,6.3-11.75a167.92,167.92,0,0,1,30.53-8.86c2.79-.51,5.66.89,7.75,3.31"/><path class="cls-4" d="M281.22,213.63s-2.14-11.88-9.23-21.09c-5.1-6.57-11.42-14.44-11.43-14.44"/><path d="M246.15,215.46a15.1,15.1,0,0,0-4.75-4,42.93,42.93,0,0,0-5.67-2.21h0a40.7,40.7,0,0,1,5.83,1.72,15.59,15.59,0,0,1,5.24,3.82Z"/><path d="M216.48,195.29a4.48,4.48,0,0,0,1.38,2.3c.33.34.69.65,1,1a5.9,5.9,0,0,1,1,1,5.88,5.88,0,0,0-1.15-.79c-.4-.24-.81-.47-1.2-.75a5,5,0,0,1-2-2.45Z"/><path class="cls-4" d="M246.59,323.73c-.05.28-18.43-2.85-23-8.82-4.67-5.55-13.25-12.44-13.55-14.42a45.61,45.61,0,0,1-.07-6.34"/><path class="cls-2" d="M229.61,148.33a99.9,99.9,0,0,1,12.29-7.39c7.06-3.59,19.83-8,21.74-8a33.48,33.48,0,0,1,5.85,1l-1.38-.34h.31l86.51,27.72a10.11,10.11,0,0,1,2.21.24,10.57,10.57,0,0,1,8.32,10.3V210.5a10.53,10.53,0,0,1-4.41,8.56l.05-.06s-8.58,5.67-16,10.12c-10.28,6.19-23.68,5.09-23.68,5.09"/><path class="cls-3" d="M321.46,175c-18.24-.48-8.6-.65-9.49,3.61-.6,2.84-.32,29.4-.06,46.71l9.55,8.94s13.4,1.1,23.68-5.09c7.38-4.45,16-10.12,16-10.12l-.05.06a10.53,10.53,0,0,0,4.41-8.56V171.93a10.57,10.57,0,0,0-8.32-10.3c-.18,0-.37-.06-.55-.09-4.77,2.13-5.74,4.81-12.85,6.88C333.54,171.39,340.37,175.46,321.46,175Z"/><path class="cls-2" d="M326.54,222.85c-4.37,6.27.71,11.36-5.08,11.36L235,206.49c-6.57-3.14-10.53-4.74-10.53-10.53V157.39a10.56,10.56,0,0,1,5.2-9.07l.06,0a10.47,10.47,0,0,1,5.27-1.42l22.94,7.34L319.18,173c1.57,1.35,4.18,1.69,5.08,1.94h0A10.58,10.58,0,0,1,332,185.1Z"/><path class="cls-4" d="M326.54,222.84c-4.37,6.28.71,11.37-5.08,11.37L235,206.49c-6.57-3.14-10.53-4.74-10.53-10.53V157.39a10.56,10.56,0,0,1,5.2-9.07l.06,0a10.47,10.47,0,0,1,5.27-1.42l22.94,7.34"/><path class="cls-4" d="M326.54,222.84,332,185.1A10.58,10.58,0,0,0,324.27,175h0c-.9-.25-3.51-.59-5.08-1.93L257.89,154.2"/><path class="cls-4" d="M268.11,133.68h.31l86.51,27.72a10.11,10.11,0,0,1,2.21.24,10.57,10.57,0,0,1,8.32,10.3V210.5a10.53,10.53,0,0,1-4.41,8.56"/><path class="cls-4" d="M321.46,234.21s13.4,1.1,23.68-5.09c7.38-4.45,16-10.12,16-10.12"/><path d="M325.12,174.6a11.17,11.17,0,0,0,6,.12,44.28,44.28,0,0,0,5.79-2.28h0a44.75,44.75,0,0,1-5.65,2.76,11.9,11.9,0,0,1-6.38.37Z"/><path d="M357.17,162.13a4.63,4.63,0,0,0-2.68,1.11c-.43.3-.84.64-1.25,1a8.08,8.08,0,0,1-1.3,1,8.05,8.05,0,0,0,1.12-1.14c.36-.4.71-.8,1.1-1.19a8.37,8.37,0,0,1,1.29-1.06,3.89,3.89,0,0,1,1.66-.66Z"/><path class="cls-4" d="M229.61,148.33a99.9,99.9,0,0,1,12.29-7.39c7.06-3.59,19.83-8,21.74-8a33.48,33.48,0,0,1,5.85,1"/><path class="cls-2" d="M378.08,101.91l1.23.3Z"/></g></g></svg>