<svg xmlns="http://www.w3.org/2000/svg" xmlns:xlink="http://www.w3.org/1999/xlink" viewBox="0 0 566.93 566.93"><defs><style>.cls-1,.cls-7{fill:none;}.cls-2{fill:#1d1d1b;}.cls-3{fill:#eb9899;}.cls-4{fill:#f4ce6f;}.cls-5{fill:#bca061;}.cls-6{fill:#161616;}.cls-7{stroke:#000;stroke-miterlimit:10;stroke-width:0.5px;}.cls-8{fill:url(#RBDots);}.cls-9{fill:#b79291;}.cls-10{fill:url(#RBDots-3);}.cls-11{fill:#6e7891;}.cls-12{fill:#98a1b7;}.cls-13{fill:url(#_10_dpi_10_);}</style><pattern id="RBDots" data-name="RBDots" width="28.8" height="28.8" patternTransform="matrix(0.95, 0.28, -0.32, 0.83, -76.63, 32.61)" patternUnits="userSpaceOnUse" viewBox="0 0 28.8 28.8"><rect class="cls-1" width="28.8" height="28.8"/><circle class="cls-2" cx="28.8" cy="28.8" r="0.72"/><path class="cls-2" d="M14.4,29.52a.72.72,0,1,0-.72-.72A.72.72,0,0,0,14.4,29.52Z"/><path class="cls-2" d="M28.8,15.12a.72.72,0,1,0-.72-.72A.72.72,0,0,0,28.8,15.12Z"/><path class="cls-2" d="M14.4,15.12a.72.72,0,1,0-.72-.72A.72.72,0,0,0,14.4,15.12Z"/><path class="cls-2" d="M7.2,22.32a.72.72,0,1,0-.72-.72A.72.72,0,0,0,7.2,22.32Z"/><path class="cls-2" d="M21.6,22.32a.72.72,0,1,0-.72-.72A.72.72,0,0,0,21.6,22.32Z"/><path class="cls-2" d="M14.4,22.32a.72.72,0,1,0-.72-.72A.72.72,0,0,0,14.4,22.32Z"/><path class="cls-2" d="M7.2,29.52a.72.72,0,1,0-.72-.72A.72.72,0,0,0,7.2,29.52Z"/><path class="cls-2" d="M21.82,29.52a.72.72,0,1,0-.72-.72A.72.72,0,0,0,21.82,29.52Z"/><path class="cls-2" d="M7.2,7.92a.72.72,0,1,0-.72-.72A.72.72,0,0,0,7.2,7.92Z"/><path class="cls-2" d="M7.2,15.12a.72.72,0,1,0-.72-.72A.72.72,0,0,0,7.2,15.12Z"/><path class="cls-2" d="M21.6,15.12a.72.72,0,1,0-.72-.72A.72.72,0,0,0,21.6,15.12Z"/><path class="cls-2" d="M14.4,7.92a.72.72,0,1,0-.72-.72A.72.72,0,0,0,14.4,7.92Z"/><path class="cls-2" d="M28.8,7.92a.72.72,0,1,0-.72-.72A.72.72,0,0,0,28.8,7.92Z"/><path class="cls-2" d="M21.6,7.92a.72.72,0,1,0-.72-.72A.72.72,0,0,0,21.6,7.92Z"/><path class="cls-2" d="M28.8,22.32a.72.72,0,1,0-.72-.72A.72.72,0,0,0,28.8,22.32Z"/><circle class="cls-2" cy="28.8" r="0.72"/><path class="cls-2" d="M0,15.12a.72.72,0,0,0,0-1.44.72.72,0,0,0-.72.72A.72.72,0,0,0,0,15.12Z"/><path class="cls-2" d="M0,7.92A.72.72,0,0,0,0,6.48a.72.72,0,0,0-.72.72A.72.72,0,0,0,0,7.92Z"/><path class="cls-2" d="M0,22.32a.72.72,0,0,0,0-1.44.72.72,0,0,0-.72.72A.72.72,0,0,0,0,22.32Z"/><circle class="cls-2" cx="28.8" r="0.72"/><path class="cls-2" d="M14.4.72A.72.72,0,0,0,15.12,0a.72.72,0,0,0-.72-.72.72.72,0,0,0-.72.72A.72.72,0,0,0,14.4.72Z"/><path class="cls-2" d="M7.2.72A.72.72,0,0,0,7.92,0,.72.72,0,0,0,7.2-.72.72.72,0,0,0,6.48,0,.72.72,0,0,0,7.2.72Z"/><path class="cls-2" d="M21.82.72A.72.72,0,0,0,22.54,0a.72.72,0,0,0-.72-.72A.72.72,0,0,0,21.1,0,.72.72,0,0,0,21.82.72Z"/><circle class="cls-2" r="0.72"/></pattern><pattern id="RBDots-3" data-name="RBDots" width="28.8" height="28.8" patternTransform="matrix(-0.99, -0.34, 0.34, -0.99, 117.33, 27.21)" patternUnits="userSpaceOnUse" viewBox="0 0 28.8 28.8"><rect class="cls-1" width="28.8" height="28.8"/><circle class="cls-2" cx="28.8" cy="28.8" r="0.72"/><path class="cls-2" d="M14.4,29.52a.72.72,0,1,0-.72-.72A.72.72,0,0,0,14.4,29.52Z"/><path class="cls-2" d="M28.8,15.12a.72.72,0,1,0-.72-.72A.72.72,0,0,0,28.8,15.12Z"/><path class="cls-2" d="M14.4,15.12a.72.72,0,1,0-.72-.72A.72.72,0,0,0,14.4,15.12Z"/><path class="cls-2" d="M7.2,22.32a.72.72,0,1,0-.72-.72A.72.72,0,0,0,7.2,22.32Z"/><path class="cls-2" d="M21.6,22.32a.72.72,0,1,0-.72-.72A.72.72,0,0,0,21.6,22.32Z"/><path class="cls-2" d="M14.4,22.32a.72.72,0,1,0-.72-.72A.72.72,0,0,0,14.4,22.32Z"/><path class="cls-2" d="M7.2,29.52a.72.72,0,1,0-.72-.72A.72.72,0,0,0,7.2,29.52Z"/><path class="cls-2" d="M21.82,29.52a.72.72,0,1,0-.72-.72A.72.72,0,0,0,21.82,29.52Z"/><path class="cls-2" d="M7.2,7.92a.72.72,0,1,0-.72-.72A.72.72,0,0,0,7.2,7.92Z"/><path class="cls-2" d="M7.2,15.12a.72.72,0,1,0-.72-.72A.72.72,0,0,0,7.2,15.12Z"/><path class="cls-2" d="M21.6,15.12a.72.72,0,1,0-.72-.72A.72.72,0,0,0,21.6,15.12Z"/><path class="cls-2" d="M14.4,7.92a.72.72,0,1,0-.72-.72A.72.72,0,0,0,14.4,7.92Z"/><path class="cls-2" d="M28.8,7.92a.72.72,0,1,0-.72-.72A.72.72,0,0,0,28.8,7.92Z"/><path class="cls-2" d="M21.6,7.92a.72.72,0,1,0-.72-.72A.72.72,0,0,0,21.6,7.92Z"/><path class="cls-2" d="M28.8,22.32a.72.72,0,1,0-.72-.72A.72.72,0,0,0,28.8,22.32Z"/><circle class="cls-2" cy="28.8" r="0.72"/><path class="cls-2" d="M0,15.12a.72.72,0,0,0,0-1.44.72.72,0,0,0-.72.72A.72.72,0,0,0,0,15.12Z"/><path class="cls-2" d="M0,7.92A.72.72,0,0,0,0,6.48a.72.72,0,0,0-.72.72A.72.72,0,0,0,0,7.92Z"/><path class="cls-2" d="M0,22.32a.72.72,0,0,0,0-1.44.72.72,0,0,0-.72.72A.72.72,0,0,0,0,22.32Z"/><circle class="cls-2" cx="28.8" r="0.72"/><path class="cls-2" d="M14.4.72A.72.72,0,0,0,15.12,0a.72.72,0,0,0-.72-.72.72.72,0,0,0-.72.72A.72.72,0,0,0,14.4.72Z"/><path class="cls-2" d="M7.2.72A.72.72,0,0,0,7.92,0,.72.72,0,0,0,7.2-.72.72.72,0,0,0,6.48,0,.72.72,0,0,0,7.2.72Z"/><path class="cls-2" d="M21.82.72A.72.72,0,0,0,22.54,0a.72.72,0,0,0-.72-.72A.72.72,0,0,0,21.1,0,.72.72,0,0,0,21.82.72Z"/><circle class="cls-2" r="0.72"/></pattern><pattern id="_10_dpi_10_" data-name="10 dpi 10%" width="28.8" height="28.8" patternTransform="translate(22.27 13.93) rotate(9.14) scale(0.56)" patternUnits="userSpaceOnUse" viewBox="0 0 28.8 28.8"><rect class="cls-1" width="28.8" height="28.8"/><circle class="cls-2" cx="28.8" cy="28.8" r="0.72"/><path class="cls-2" d="M14.4,29.52a.72.72,0,1,0-.72-.72A.72.72,0,0,0,14.4,29.52Z"/><path class="cls-2" d="M28.8,15.12a.72.72,0,1,0-.72-.72A.72.72,0,0,0,28.8,15.12Z"/><path class="cls-2" d="M14.4,15.12a.72.72,0,1,0-.72-.72A.72.72,0,0,0,14.4,15.12Z"/><path class="cls-2" d="M7.2,22.32a.72.72,0,1,0-.72-.72A.72.72,0,0,0,7.2,22.32Z"/><path class="cls-2" d="M21.6,22.32a.72.72,0,1,0-.72-.72A.72.72,0,0,0,21.6,22.32Z"/><path class="cls-2" d="M14.4,22.32a.72.72,0,1,0-.72-.72A.72.72,0,0,0,14.4,22.32Z"/><path class="cls-2" d="M7.2,29.52a.72.72,0,1,0-.72-.72A.72.72,0,0,0,7.2,29.52Z"/><path class="cls-2" d="M21.82,29.52a.72.72,0,1,0-.72-.72A.72.72,0,0,0,21.82,29.52Z"/><path class="cls-2" d="M7.2,7.92a.72.72,0,1,0-.72-.72A.72.72,0,0,0,7.2,7.92Z"/><path class="cls-2" d="M7.2,15.12a.72.72,0,1,0-.72-.72A.72.72,0,0,0,7.2,15.12Z"/><path class="cls-2" d="M21.6,15.12a.72.72,0,1,0-.72-.72A.72.72,0,0,0,21.6,15.12Z"/><path class="cls-2" d="M14.4,7.92a.72.72,0,1,0-.72-.72A.72.72,0,0,0,14.4,7.92Z"/><path class="cls-2" d="M28.8,7.92a.72.72,0,1,0-.72-.72A.72.72,0,0,0,28.8,7.92Z"/><path class="cls-2" d="M21.6,7.92a.72.72,0,1,0-.72-.72A.72.72,0,0,0,21.6,7.92Z"/><path class="cls-2" d="M28.8,22.32a.72.72,0,1,0-.72-.72A.72.72,0,0,0,28.8,22.32Z"/><circle class="cls-2" cy="28.8" r="0.72"/><path class="cls-2" d="M0,15.12a.72.72,0,0,0,0-1.44.72.72,0,0,0-.72.72A.72.72,0,0,0,0,15.12Z"/><path class="cls-2" d="M0,7.92A.72.72,0,0,0,0,6.48a.72.72,0,0,0-.72.72A.72.72,0,0,0,0,7.92Z"/><path class="cls-2" d="M0,22.32a.72.72,0,0,0,0-1.44.72.72,0,0,0-.72.72A.72.72,0,0,0,0,22.32Z"/><circle class="cls-2" cx="28.8" r="0.72"/><path class="cls-2" d="M14.4.72A.72.72,0,0,0,15.12,0a.72.72,0,0,0-.72-.72.72.72,0,0,0-.72.72A.72.72,0,0,0,14.4.72Z"/><path class="cls-2" d="M7.2.72A.72.72,0,0,0,7.92,0,.72.72,0,0,0,7.2-.72.72.72,0,0,0,6.48,0,.72.72,0,0,0,7.2.72Z"/><path class="cls-2" d="M21.82.72A.72.72,0,0,0,22.54,0a.72.72,0,0,0-.72-.72A.72.72,0,0,0,21.1,0,.72.72,0,0,0,21.82.72Z"/><circle class="cls-2" r="0.72"/></pattern></defs><title>5</title><g id="_5" data-name="5"><g id="Back"><rect class="cls-3" width="566.93" height="566.93"/><polygon class="cls-4" points="120.62 175.86 120.62 175.86 120.62 175.86 85.5 162.24 50.38 176.51 50.38 176.51 50.38 176.51 50.38 176.51 50.38 176.51 85.5 190.12 120.62 175.86 120.62 175.86 120.62 175.86"/><polygon class="cls-4" points="201.73 134.41 201.73 134.41 201.73 134.41 121.39 103.26 41.06 135.89 41.05 135.89 41.06 135.89 41.05 135.89 41.06 135.89 121.39 167.04 201.72 134.41 201.73 134.41 201.73 134.41"/><path class="cls-5" d="M142.81,115.7c-9.73,0-17.77,5.27-19.27,12.15h-9.73c-.57,0-1,1-1,2.3s.46,2.29,1,2.29h9.73c1.5,6.89,9.54,12.15,19.27,12.15,10.79,0,19.54-6.47,19.54-14.44S153.6,115.7,142.81,115.7Z"/><path class="cls-6" d="M111.37,108.73v22.69c0,.56,1,1,2.3,1s2.29-.46,2.29-1V108.73Z"/><ellipse class="cls-4" cx="113.67" cy="79.5" rx="22.76" ry="29.74"/><path class="cls-5" d="M113.67,109.25c12.56,0,22.75-13.32,22.75-29.75,0-12.18-5.6-22.65-13.62-27.25C111,54.57,100.17,66.11,96.6,81.78a45.73,45.73,0,0,0-.83,16.08C99.94,104.79,106.4,109.25,113.67,109.25Z"/><ellipse class="cls-7" cx="113.67" cy="79.5" rx="22.76" ry="29.74"/><path class="cls-5" d="M95,166.06c-5.79,0-10.58,3.13-11.47,7.23h-5.8c-.34,0-.61.61-.61,1.37s.27,1.37.61,1.37h5.8c.89,4.09,5.68,7.23,11.47,7.23,6.43,0,11.64-3.85,11.64-8.6S101.44,166.06,95,166.06Z"/><polygon class="cls-8" points="120.62 175.86 120.62 175.86 120.62 175.86 85.5 162.24 50.38 176.51 50.38 176.51 50.38 176.51 50.38 176.51 50.38 176.51 85.5 190.12 120.62 175.86 120.62 175.86 120.62 175.86"/><path class="cls-6" d="M75.65,152.39v22.69c0,.56,1,1,2.3,1s2.29-.46,2.29-1V152.39Z"/><path class="cls-4" d="M78,117.56a11.6,11.6,0,0,0-3.43.53c0,4.8-3,8.68-6.73,8.68a5.29,5.29,0,0,1-2.38-.58,24.23,24.23,0,0,0-2.68,11.27c0,11,6.81,19.89,15.22,19.89s15.22-8.9,15.22-19.89S86.35,117.56,78,117.56Z"/><path class="cls-5" d="M84.05,119.23a17.88,17.88,0,0,0-6.19,2.57,11.92,11.92,0,0,1,.09,1.35c0,4.84-3,8.76-6.74,8.76a5.42,5.42,0,0,1-2-.38A31.4,31.4,0,0,0,66.53,139,30.4,30.4,0,0,0,66,149.74c2.78,4.64,7.11,7.61,12,7.61,8.4,0,15.22-8.9,15.22-19.89C93.17,129.31,89.42,122.31,84.05,119.23Z"/><path class="cls-7" d="M78,117.56a11.6,11.6,0,0,0-3.43.53c0,4.8-3,8.68-6.73,8.68a5.29,5.29,0,0,1-2.38-.58,24.23,24.23,0,0,0-2.68,11.27c0,11,6.81,19.89,15.22,19.89s15.22-8.9,15.22-19.89S86.35,117.56,78,117.56Z"/><path class="cls-9" d="M402.9,476.49c0,7.72-12.17,14-27.18,14s-27.17-6.25-27.17-14,12.17-14,27.17-14,27.18,6.26,27.18,14"/><path class="cls-9" d="M351.28,490.46c0,3-4.79,5.51-10.7,5.51s-10.7-2.47-10.7-5.51,4.79-5.5,10.7-5.5,10.7,2.46,10.7,5.5"/><path class="cls-10" d="M469.24,91.66c0,3-4.79,5.5-10.7,5.5s-10.71-2.46-10.71-5.5,4.8-5.5,10.71-5.5,10.7,2.46,10.7,5.5"/><path class="cls-9" d="M131.37,387.66c0,3-4.8,5.5-10.71,5.5s-10.7-2.47-10.7-5.5,4.79-5.51,10.7-5.51,10.71,2.47,10.71,5.51"/><path class="cls-10" d="M457,63.48c0,13.78-21.72,24.94-48.51,24.94S360,77.26,360,63.48s21.72-24.94,48.51-24.94S457,49.71,457,63.48"/><g id="Rock"><path class="cls-11" d="M519.63,244.36c26.73,0,26-5.68,21.74-11.41-6.47-8.61-23.73-6.61-31.36-4-10.73,3.69-6,15.39,9.62,15.39"/><path class="cls-12" d="M505,232.61s3.35-4.6,12.35-5.18,15.71-.7,19.92,2,4.53,4.06,4.53,4.06-1.06,3.55-2.26,4.45a15.88,15.88,0,0,1-7.53,2.18,43.18,43.18,0,0,0-8.41.22c-1.75.4-8.92-.4-10.53-1a36.53,36.53,0,0,1-7.26-4.9,4.42,4.42,0,0,1-.81-1.9"/><path class="cls-2" d="M519.63,244.86c-9.89,0-15.14-4.46-15.83-8.6-.56-3.37,1.7-6.27,6-7.76,7.17-2.47,25.17-4.84,31.93,4.15,1.53,2,3.13,4.66,2,7-1.77,3.55-9.43,5.2-24.1,5.2m4.9-17.64a47.56,47.56,0,0,0-14.36,2.23c-3.85,1.32-5.86,3.8-5.39,6.64.65,3.86,6,7.77,14.85,7.77,13.86,0,21.66-1.56,23.2-4.65.72-1.42.12-3.32-1.86-6-3.44-4.57-10-6-16.44-6"/><path class="cls-2" d="M520.59,241.14c-6.44,0-12.5-3-15-6.28a5,5,0,0,1-1-2.29l.36.12a9.73,9.73,0,0,0,4,4.09c3.77,2.24,10,3.71,14,3.22a60.58,60.58,0,0,1,6.51-.34c4.3-.08,8-.15,9.8-2.22a16.16,16.16,0,0,0,2.45-3.65s.3,0,.27.15a12.42,12.42,0,0,1-2,4.15c-2.07,2.42-6,2.49-10.54,2.57A60.91,60.91,0,0,0,523,241a19.81,19.81,0,0,1-2.43.15"/></g><g id="Rock-2" data-name="Rock"><path class="cls-11" d="M480.22,285.1c26.73,0,26-5.68,21.74-11.4-6.47-8.62-23.73-6.61-31.36-4-10.73,3.69-6,15.38,9.62,15.38"/><path class="cls-12" d="M465.56,273.36s3.34-4.61,12.34-5.19,15.72-.7,19.92,2.05,4.53,4.07,4.53,4.07-1.06,3.55-2.26,4.44a15.88,15.88,0,0,1-7.53,2.19,42.41,42.41,0,0,0-8.41.22c-1.75.4-8.92-.4-10.52-1a35.92,35.92,0,0,1-7.27-4.91,4.28,4.28,0,0,1-.8-1.89"/><path class="cls-2" d="M480.22,285.6c-9.89,0-15.14-4.46-15.83-8.6-.56-3.36,1.7-6.26,6-7.76,7.18-2.46,25.17-4.84,31.93,4.16,1.53,2,3.13,4.66,2,7-1.77,3.55-9.43,5.2-24.1,5.2m4.9-17.63a47.59,47.59,0,0,0-14.36,2.22c-3.85,1.32-5.86,3.81-5.38,6.65.64,3.86,5.95,7.76,14.84,7.76,13.86,0,21.67-1.56,23.2-4.64.72-1.43.13-3.33-1.86-6-3.43-4.58-10-6-16.44-6"/><path class="cls-2" d="M481.19,281.88c-6.45,0-12.51-3-15-6.28a5,5,0,0,1-1-2.28l.37.11a9.53,9.53,0,0,0,3.94,4.1c3.77,2.24,10,3.7,14.05,3.21,2.22-.26,4.4-.3,6.51-.34,4.3-.08,8-.14,9.8-2.22a15.83,15.83,0,0,0,2.45-3.65s.31,0,.27.16a12.19,12.19,0,0,1-2,4.14c-2.07,2.42-6,2.49-10.54,2.57a63.78,63.78,0,0,0-6.41.34,22,22,0,0,1-2.42.14"/></g><g id="Rock-3" data-name="Rock"><path class="cls-11" d="M404.17,252c26.74,0,26.05-5.68,21.75-11.41-6.48-8.61-23.73-6.6-31.37-4-10.72,3.69-6,15.39,9.62,15.39"/><path class="cls-12" d="M389.51,240.25s3.35-4.6,12.35-5.18,15.71-.7,19.91,2.05,4.53,4.06,4.53,4.06-1.05,3.56-2.25,4.45a15.91,15.91,0,0,1-7.53,2.18,43.29,43.29,0,0,0-8.42.22c-1.74.41-8.91-.4-10.52-1a36.53,36.53,0,0,1-7.26-4.9,4.29,4.29,0,0,1-.81-1.9"/><path class="cls-2" d="M404.18,252.5c-9.89,0-15.14-4.46-15.84-8.6-.56-3.37,1.7-6.27,6.05-7.76,7.17-2.47,25.16-4.84,31.93,4.15,1.52,2,3.12,4.66,1.95,7-1.77,3.55-9.43,5.2-24.09,5.2m4.89-17.64a47.56,47.56,0,0,0-14.36,2.23c-3.84,1.32-5.86,3.8-5.38,6.64.64,3.86,5.95,7.77,14.85,7.77,13.85,0,21.66-1.56,23.2-4.65.71-1.42.12-3.32-1.86-6-3.44-4.57-10-6-16.45-6"/><path class="cls-2" d="M405.14,248.78c-6.45,0-12.5-3-15-6.28a5,5,0,0,1-1-2.29l.36.12a9.67,9.67,0,0,0,3.94,4.09c3.77,2.24,10,3.71,14.05,3.22a60.58,60.58,0,0,1,6.51-.34c4.31-.08,8-.15,9.8-2.22a15.51,15.51,0,0,0,2.45-3.65s.31,0,.28.15a12.28,12.28,0,0,1-2,4.15c-2.06,2.42-6,2.49-10.54,2.57a61,61,0,0,0-6.41.33,19.77,19.77,0,0,1-2.42.15"/></g><g id="Rock-4" data-name="Rock"><path class="cls-11" d="M382.28,301.65c26.73,0,26.05-5.67,21.74-11.4-6.47-8.62-23.72-6.61-31.36-4-10.73,3.69-6,15.38,9.62,15.38"/><path class="cls-12" d="M367.62,289.91S371,285.3,380,284.72s15.71-.7,19.91,2,4.53,4.07,4.53,4.07-1.05,3.55-2.26,4.44a15.76,15.76,0,0,1-7.53,2.19,42.41,42.41,0,0,0-8.41.22c-1.74.4-8.92-.4-10.52-1a36.5,36.5,0,0,1-7.27-4.91,4.28,4.28,0,0,1-.8-1.89"/><path class="cls-2" d="M382.28,302.16c-9.89,0-15.14-4.46-15.83-8.61-.56-3.36,1.7-6.26,6-7.75,7.18-2.47,25.17-4.85,31.93,4.15,1.53,2,3.13,4.66,2,7-1.77,3.54-9.43,5.2-24.1,5.2m4.9-17.64a47.91,47.91,0,0,0-14.36,2.22c-3.84,1.32-5.86,3.81-5.38,6.65.64,3.86,5.95,7.77,14.84,7.77,13.86,0,21.67-1.57,23.2-4.65.72-1.43.13-3.32-1.86-6-3.43-4.57-10-6-16.44-6"/><path class="cls-2" d="M383.25,298.43c-6.45,0-12.5-3-15-6.27a5,5,0,0,1-1-2.29l.36.11a9.61,9.61,0,0,0,3.94,4.1c3.77,2.24,10,3.7,14.05,3.22a63.34,63.34,0,0,1,6.51-.35c4.31-.07,8-.14,9.8-2.21a16,16,0,0,0,2.45-3.65s.31,0,.28.15a12.28,12.28,0,0,1-2,4.15c-2.07,2.41-6,2.48-10.54,2.56a63.78,63.78,0,0,0-6.41.34,19.75,19.75,0,0,1-2.42.14"/></g><g id="Rock-5" data-name="Rock"><path class="cls-11" d="M315,268.53c26.73,0,26.05-5.68,21.74-11.4-6.47-8.62-23.73-6.61-31.36-4-10.73,3.69-6,15.39,9.62,15.39"/><path class="cls-12" d="M300.37,256.78s3.35-4.6,12.35-5.18,15.71-.7,19.91,2.05,4.53,4.07,4.53,4.07-1.06,3.55-2.26,4.44a15.76,15.76,0,0,1-7.53,2.18,43.18,43.18,0,0,0-8.41.22c-1.74.41-8.92-.4-10.52-1a36.21,36.21,0,0,1-7.27-4.91,4.3,4.3,0,0,1-.8-1.9"/><path class="cls-2" d="M315,269c-9.89,0-15.14-4.46-15.83-8.6-.56-3.36,1.7-6.26,6-7.76,7.18-2.46,25.17-4.84,31.93,4.16,1.53,2,3.13,4.66,2,7-1.77,3.55-9.43,5.2-24.1,5.2m4.9-17.63a47.59,47.59,0,0,0-14.36,2.22c-3.84,1.32-5.86,3.8-5.38,6.64.64,3.86,5.95,7.77,14.84,7.77,13.86,0,21.67-1.56,23.2-4.64.72-1.43.13-3.33-1.86-6-3.43-4.58-10-6-16.44-6"/><path class="cls-2" d="M316,265.31c-6.45,0-12.51-3-15-6.28a5,5,0,0,1-1-2.28l.37.11a9.59,9.59,0,0,0,3.94,4.1c3.77,2.24,10,3.7,14.05,3.21,2.22-.26,4.4-.3,6.51-.34,4.31-.08,8-.14,9.8-2.22a15.83,15.83,0,0,0,2.45-3.65s.31,0,.28.16a12.25,12.25,0,0,1-2,4.14c-2.07,2.42-6,2.49-10.54,2.57a63.78,63.78,0,0,0-6.41.34,22,22,0,0,1-2.42.14"/></g><g id="Rock-6" data-name="Rock"><path class="cls-11" d="M257.43,313.15c26.73,0,26.05-5.68,21.74-11.41-6.47-8.61-23.73-6.61-31.37-4-10.72,3.69-6,15.39,9.63,15.39"/><path class="cls-12" d="M242.76,301.4s3.35-4.6,12.35-5.18,15.71-.7,19.92,2,4.53,4.06,4.53,4.06-1.06,3.55-2.26,4.45a15.88,15.88,0,0,1-7.53,2.18,43.18,43.18,0,0,0-8.41.22c-1.75.4-8.92-.4-10.53-1a36.53,36.53,0,0,1-7.26-4.9,4.42,4.42,0,0,1-.81-1.9"/><path class="cls-2" d="M257.43,313.65c-9.89,0-15.14-4.46-15.83-8.61-.56-3.36,1.69-6.26,6-7.75,7.17-2.47,25.17-4.84,31.93,4.15,1.53,2,3.13,4.66,2,7-1.77,3.55-9.43,5.2-24.1,5.2m4.9-17.64A47.91,47.91,0,0,0,248,298.23c-3.85,1.33-5.86,3.81-5.39,6.65.65,3.86,6,7.77,14.85,7.77,13.86,0,21.66-1.57,23.2-4.65.72-1.43.12-3.32-1.86-6-3.44-4.57-10-6-16.44-6"/><path class="cls-2" d="M258.39,309.93c-6.45,0-12.5-3-15-6.28a5,5,0,0,1-1-2.29l.36.11a9.61,9.61,0,0,0,3.94,4.1c3.78,2.24,10,3.71,14.05,3.22a60.77,60.77,0,0,1,6.52-.34c4.3-.08,8-.15,9.8-2.22a16.38,16.38,0,0,0,2.45-3.65s.3,0,.27.15a12.42,12.42,0,0,1-2,4.15c-2.07,2.41-6,2.48-10.55,2.57a61,61,0,0,0-6.41.33,19.65,19.65,0,0,1-2.42.15"/></g><g id="Rock-7" data-name="Rock"><path class="cls-11" d="M204.88,275.47c26.73,0,26.05-5.68,21.74-11.41-6.47-8.61-23.73-6.6-31.36-4-10.73,3.69-6,15.39,9.62,15.39"/><path class="cls-12" d="M190.21,263.72s3.35-4.6,12.35-5.18,15.71-.7,19.92,2,4.53,4.07,4.53,4.07-1.06,3.55-2.26,4.44a15.88,15.88,0,0,1-7.53,2.18,43.18,43.18,0,0,0-8.41.22c-1.75.41-8.92-.4-10.53-1a36.1,36.1,0,0,1-7.26-4.9,4.38,4.38,0,0,1-.81-1.9"/><path class="cls-2" d="M204.88,276c-9.89,0-15.14-4.46-15.83-8.6-.56-3.36,1.7-6.27,6-7.76,7.18-2.47,25.17-4.84,31.93,4.15,1.53,2,3.13,4.67,2,7-1.77,3.55-9.43,5.2-24.1,5.2m4.9-17.64a47.56,47.56,0,0,0-14.36,2.23c-3.85,1.32-5.86,3.8-5.38,6.64.64,3.86,6,7.77,14.84,7.77,13.86,0,21.67-1.56,23.2-4.65.72-1.42.13-3.32-1.86-6-3.43-4.57-10-6-16.44-6"/><path class="cls-2" d="M205.84,272.25c-6.44,0-12.5-3-15-6.28a5,5,0,0,1-1-2.29l.37.12a9.54,9.54,0,0,0,3.94,4.09c3.77,2.24,10,3.71,14.05,3.22a63.28,63.28,0,0,1,6.51-.34c4.3-.08,8-.15,9.8-2.22a16.16,16.16,0,0,0,2.45-3.65s.3,0,.27.16a12.28,12.28,0,0,1-2,4.14c-2.07,2.42-6,2.49-10.54,2.57a63.73,63.73,0,0,0-6.41.33,19.81,19.81,0,0,1-2.43.15"/></g><g id="Rock-8" data-name="Rock"><path class="cls-11" d="M158.05,321.48c26.73,0,26-5.68,21.74-11.4-6.47-8.62-23.72-6.61-31.36-4-10.73,3.69-6,15.39,9.62,15.39"/><path class="cls-12" d="M143.39,309.73s3.35-4.6,12.35-5.18,15.71-.7,19.91,2.05,4.53,4.07,4.53,4.07-1.05,3.55-2.26,4.44a15.76,15.76,0,0,1-7.53,2.18,43.18,43.18,0,0,0-8.41.22c-1.74.41-8.92-.4-10.52-1a36.5,36.5,0,0,1-7.27-4.91,4.3,4.3,0,0,1-.8-1.9"/><path class="cls-2" d="M158.05,322c-9.89,0-15.14-4.46-15.83-8.6-.56-3.36,1.7-6.26,6-7.76,7.18-2.46,25.17-4.84,31.93,4.15,1.53,2,3.13,4.67,2,7-1.77,3.55-9.43,5.2-24.1,5.2m4.9-17.64a47.56,47.56,0,0,0-14.36,2.23c-3.84,1.32-5.86,3.8-5.38,6.64.64,3.86,5.95,7.77,14.84,7.77,13.86,0,21.67-1.56,23.2-4.64.72-1.43.13-3.33-1.86-6-3.43-4.57-10-6-16.44-6"/><path class="cls-2" d="M159,318.26c-6.45,0-12.5-3-15-6.28a5,5,0,0,1-1-2.28l.36.11a9.61,9.61,0,0,0,3.94,4.09c3.77,2.25,10,3.71,14,3.22,2.22-.26,4.4-.3,6.51-.34,4.31-.08,8-.14,9.8-2.22a15.83,15.83,0,0,0,2.45-3.65s.31,0,.28.16a12.33,12.33,0,0,1-2,4.14c-2.07,2.42-6,2.49-10.54,2.57a63.73,63.73,0,0,0-6.41.33,19.77,19.77,0,0,1-2.42.15"/></g><g id="Rock-9" data-name="Rock"><path class="cls-11" d="M111.67,283.8c26.73,0,26.05-5.68,21.74-11.4-6.47-8.62-23.73-6.61-31.36-4-10.73,3.69-6,15.38,9.62,15.38"/><path class="cls-12" d="M97,272.06s3.35-4.61,12.35-5.19,15.71-.7,19.92,2.05S133.8,273,133.8,273s-1.06,3.55-2.26,4.44a15.88,15.88,0,0,1-7.53,2.19,42.41,42.41,0,0,0-8.41.22c-1.75.4-8.92-.4-10.53-1A36.12,36.12,0,0,1,97.81,274a4.36,4.36,0,0,1-.81-1.89"/><path class="cls-2" d="M111.67,284.3c-9.89,0-15.14-4.46-15.83-8.6-.56-3.36,1.7-6.26,6-7.76,7.17-2.46,25.17-4.84,31.93,4.16,1.53,2,3.13,4.66,2,7-1.77,3.55-9.43,5.2-24.1,5.2m4.9-17.63a47.59,47.59,0,0,0-14.36,2.22c-3.85,1.32-5.86,3.81-5.39,6.65.65,3.86,6,7.76,14.85,7.76,13.86,0,21.66-1.56,23.2-4.64.72-1.43.12-3.33-1.86-6-3.44-4.58-10-6-16.44-6"/><path class="cls-2" d="M112.63,280.58c-6.44,0-12.5-3-15-6.28a5,5,0,0,1-1-2.28l.37.11a9.53,9.53,0,0,0,3.94,4.1c3.77,2.24,10,3.7,14,3.21,2.22-.26,4.4-.3,6.51-.34,4.3-.08,8-.14,9.8-2.22a16.16,16.16,0,0,0,2.45-3.65s.3,0,.27.16a12.19,12.19,0,0,1-2,4.14c-2.07,2.42-6,2.49-10.54,2.57a63.78,63.78,0,0,0-6.41.34,22,22,0,0,1-2.43.14"/></g><g id="Rock-10" data-name="Rock"><path class="cls-11" d="M53.44,334.43c26.74,0,26.05-5.68,21.75-11.41-6.48-8.61-23.73-6.6-31.37-4-10.72,3.69-6,15.39,9.62,15.39"/><path class="cls-12" d="M38.78,322.68s3.35-4.6,12.35-5.18,15.71-.7,19.92,2.05,4.52,4.07,4.52,4.07-1,3.55-2.25,4.44a15.91,15.91,0,0,1-7.53,2.18,43.31,43.31,0,0,0-8.42.22c-1.74.41-8.91-.4-10.52-1a36.1,36.1,0,0,1-7.26-4.9,4.38,4.38,0,0,1-.81-1.9"/><path class="cls-2" d="M53.45,334.93c-9.89,0-15.14-4.46-15.83-8.6-.57-3.36,1.69-6.26,6-7.76,7.17-2.46,25.16-4.84,31.93,4.15,1.52,2,3.12,4.67,2,7-1.77,3.55-9.42,5.2-24.09,5.2m4.89-17.64A47.43,47.43,0,0,0,44,319.52c-3.85,1.32-5.86,3.8-5.39,6.64.65,3.86,5.95,7.77,14.85,7.77,13.85,0,21.66-1.56,23.2-4.64.71-1.43.12-3.33-1.86-6-3.44-4.57-10-6-16.45-6"/><path class="cls-2" d="M54.41,331.21c-6.45,0-12.5-3-15-6.28a4.9,4.9,0,0,1-1-2.28l.36.11a9.61,9.61,0,0,0,3.94,4.09c3.77,2.25,10,3.71,14.05,3.22,2.22-.26,4.4-.3,6.51-.34,4.31-.08,8-.14,9.81-2.22a16.16,16.16,0,0,0,2.45-3.65s.3,0,.27.16a12.48,12.48,0,0,1-2,4.14c-2.07,2.42-6,2.49-10.55,2.57a63.88,63.88,0,0,0-6.41.33,19.77,19.77,0,0,1-2.42.15"/></g><g id="Rock-11" data-name="Rock"><path class="cls-11" d="M19.74,292.27c26.74,0,26.05-5.68,21.75-11.41-6.48-8.61-23.73-6.61-31.37-4-10.73,3.69-6,15.39,9.62,15.39"/><path class="cls-12" d="M5.08,280.52s3.35-4.6,12.35-5.18,15.71-.7,19.91,2.05,4.53,4.06,4.53,4.06-1,3.55-2.26,4.45a15.84,15.84,0,0,1-7.53,2.18,43.18,43.18,0,0,0-8.41.22c-1.74.4-8.92-.4-10.52-1a36.53,36.53,0,0,1-7.26-4.9,4.29,4.29,0,0,1-.81-1.9"/><path class="cls-2" d="M19.74,292.77c-9.89,0-15.13-4.46-15.83-8.61-.56-3.36,1.7-6.26,6.05-7.75,7.17-2.47,25.16-4.84,31.92,4.15,1.53,2,3.13,4.66,2,7-1.77,3.55-9.43,5.2-24.1,5.2m4.9-17.64a47.91,47.91,0,0,0-14.36,2.22c-3.84,1.33-5.86,3.81-5.38,6.65.64,3.86,5.95,7.77,14.84,7.77,13.86,0,21.67-1.57,23.21-4.65.71-1.43.12-3.32-1.86-6-3.44-4.57-10-6-16.45-6"/><path class="cls-2" d="M20.71,289.05c-6.45,0-12.5-3-15-6.28a5,5,0,0,1-1-2.29l.36.11A9.61,9.61,0,0,0,9,284.69c3.77,2.24,10,3.71,14.05,3.22a60.58,60.58,0,0,1,6.51-.34c4.31-.08,8-.15,9.8-2.22a16,16,0,0,0,2.45-3.65s.31,0,.28.15a12.28,12.28,0,0,1-2,4.15c-2.07,2.41-6,2.48-10.54,2.57a61,61,0,0,0-6.41.33,19.77,19.77,0,0,1-2.42.15"/></g><polygon class="cls-4" points="534.55 444.8 534.55 444.8 534.55 444.8 499.43 431.18 464.31 445.45 464.31 445.45 464.31 445.45 464.31 445.45 464.31 445.45 499.43 459.06 534.55 444.8 534.55 444.8 534.55 444.8"/><polygon class="cls-13" points="534.55 444.8 534.55 444.8 534.55 444.8 499.43 431.18 464.31 445.45 464.31 445.45 464.31 445.45 464.31 445.45 464.31 445.45 499.43 459.06 534.55 444.8 534.55 444.8 534.55 444.8"/></g></g><g id="_6" data-name="6"><g id="Back-2" data-name="Back"><rect class="cls-3" x="-566.93" width="566.93" height="566.93"/></g></g></svg>