<svg xmlns="http://www.w3.org/2000/svg" xmlns:xlink="http://www.w3.org/1999/xlink" viewBox="0 0 566.93 566.93"><defs><style>.cls-1,.cls-13{fill:none;}.cls-2{fill:#1d1d1b;}.cls-3{fill:#eb9899;}.cls-4{fill:#f4ce6f;}.cls-5{fill:#b79291;}.cls-6{fill:#a37979;}.cls-7{fill:url(#RBDots);}.cls-8{fill:#6e7891;}.cls-9{fill:#98a1b7;}.cls-10{fill:#bca061;}.cls-11{fill:url(#RBDots-3);}.cls-12{fill:#161616;}.cls-13{stroke:#000;stroke-miterlimit:10;stroke-width:0.75px;}</style><pattern id="RBDots" data-name="RBDots" width="28.8" height="28.8" patternTransform="matrix(-0.99, -0.34, 0.34, -0.99, 71.83, 34.34)" patternUnits="userSpaceOnUse" viewBox="0 0 28.8 28.8"><rect class="cls-1" width="28.8" height="28.8"/><circle class="cls-2" cx="28.8" cy="28.8" r="0.72"/><path class="cls-2" d="M14.4,29.52a.72.72,0,1,0-.72-.72A.72.72,0,0,0,14.4,29.52Z"/><path class="cls-2" d="M28.8,15.12a.72.72,0,1,0-.72-.72A.72.72,0,0,0,28.8,15.12Z"/><path class="cls-2" d="M14.4,15.12a.72.72,0,1,0-.72-.72A.72.72,0,0,0,14.4,15.12Z"/><path class="cls-2" d="M7.2,22.32a.72.72,0,1,0-.72-.72A.72.72,0,0,0,7.2,22.32Z"/><path class="cls-2" d="M21.6,22.32a.72.72,0,1,0-.72-.72A.72.72,0,0,0,21.6,22.32Z"/><path class="cls-2" d="M14.4,22.32a.72.72,0,1,0-.72-.72A.72.72,0,0,0,14.4,22.32Z"/><path class="cls-2" d="M7.2,29.52a.72.72,0,1,0-.72-.72A.72.72,0,0,0,7.2,29.52Z"/><path class="cls-2" d="M21.82,29.52a.72.72,0,1,0-.72-.72A.72.72,0,0,0,21.82,29.52Z"/><path class="cls-2" d="M7.2,7.92a.72.72,0,1,0-.72-.72A.72.72,0,0,0,7.2,7.92Z"/><path class="cls-2" d="M7.2,15.12a.72.72,0,1,0-.72-.72A.72.72,0,0,0,7.2,15.12Z"/><path class="cls-2" d="M21.6,15.12a.72.72,0,1,0-.72-.72A.72.72,0,0,0,21.6,15.12Z"/><path class="cls-2" d="M14.4,7.92a.72.72,0,1,0-.72-.72A.72.72,0,0,0,14.4,7.92Z"/><path class="cls-2" d="M28.8,7.92a.72.72,0,1,0-.72-.72A.72.72,0,0,0,28.8,7.92Z"/><path class="cls-2" d="M21.6,7.92a.72.72,0,1,0-.72-.72A.72.72,0,0,0,21.6,7.92Z"/><path class="cls-2" d="M28.8,22.32a.72.72,0,1,0-.72-.72A.72.72,0,0,0,28.8,22.32Z"/><circle class="cls-2" cy="28.8" r="0.72"/><path class="cls-2" d="M0,15.12a.72.72,0,0,0,0-1.44.72.72,0,0,0-.72.72A.72.72,0,0,0,0,15.12Z"/><path class="cls-2" d="M0,7.92A.72.72,0,0,0,0,6.48a.72.72,0,0,0-.72.72A.72.72,0,0,0,0,7.92Z"/><path class="cls-2" d="M0,22.32a.72.72,0,0,0,0-1.44.72.72,0,0,0-.72.72A.72.72,0,0,0,0,22.32Z"/><circle class="cls-2" cx="28.8" r="0.72"/><path class="cls-2" d="M14.4.72A.72.72,0,0,0,15.12,0a.72.72,0,0,0-.72-.72.72.72,0,0,0-.72.72A.72.72,0,0,0,14.4.72Z"/><path class="cls-2" d="M7.2.72A.72.72,0,0,0,7.92,0,.72.72,0,0,0,7.2-.72.72.72,0,0,0,6.48,0,.72.72,0,0,0,7.2.72Z"/><path class="cls-2" d="M21.82.72A.72.72,0,0,0,22.54,0a.72.72,0,0,0-.72-.72A.72.72,0,0,0,21.1,0,.72.72,0,0,0,21.82.72Z"/><circle class="cls-2" r="0.72"/></pattern><pattern id="RBDots-3" data-name="RBDots" width="28.8" height="28.8" patternTransform="translate(6.76 -5.21) rotate(18.91)" patternUnits="userSpaceOnUse" viewBox="0 0 28.8 28.8"><rect class="cls-1" width="28.8" height="28.8"/><circle class="cls-2" cx="28.8" cy="28.8" r="0.72"/><path class="cls-2" d="M14.4,29.52a.72.72,0,1,0-.72-.72A.72.72,0,0,0,14.4,29.52Z"/><path class="cls-2" d="M28.8,15.12a.72.72,0,1,0-.72-.72A.72.72,0,0,0,28.8,15.12Z"/><path class="cls-2" d="M14.4,15.12a.72.72,0,1,0-.72-.72A.72.72,0,0,0,14.4,15.12Z"/><path class="cls-2" d="M7.2,22.32a.72.72,0,1,0-.72-.72A.72.72,0,0,0,7.2,22.32Z"/><path class="cls-2" d="M21.6,22.32a.72.72,0,1,0-.72-.72A.72.72,0,0,0,21.6,22.32Z"/><path class="cls-2" d="M14.4,22.32a.72.72,0,1,0-.72-.72A.72.72,0,0,0,14.4,22.32Z"/><path class="cls-2" d="M7.2,29.52a.72.72,0,1,0-.72-.72A.72.72,0,0,0,7.2,29.52Z"/><path class="cls-2" d="M21.82,29.52a.72.72,0,1,0-.72-.72A.72.72,0,0,0,21.82,29.52Z"/><path class="cls-2" d="M7.2,7.92a.72.72,0,1,0-.72-.72A.72.72,0,0,0,7.2,7.92Z"/><path class="cls-2" d="M7.2,15.12a.72.72,0,1,0-.72-.72A.72.72,0,0,0,7.2,15.12Z"/><path class="cls-2" d="M21.6,15.12a.72.72,0,1,0-.72-.72A.72.72,0,0,0,21.6,15.12Z"/><path class="cls-2" d="M14.4,7.92a.72.72,0,1,0-.72-.72A.72.72,0,0,0,14.4,7.92Z"/><path class="cls-2" d="M28.8,7.92a.72.72,0,1,0-.72-.72A.72.72,0,0,0,28.8,7.92Z"/><path class="cls-2" d="M21.6,7.92a.72.72,0,1,0-.72-.72A.72.72,0,0,0,21.6,7.92Z"/><path class="cls-2" d="M28.8,22.32a.72.72,0,1,0-.72-.72A.72.72,0,0,0,28.8,22.32Z"/><circle class="cls-2" cy="28.8" r="0.72"/><path class="cls-2" d="M0,15.12a.72.72,0,0,0,0-1.44.72.72,0,0,0-.72.72A.72.72,0,0,0,0,15.12Z"/><path class="cls-2" d="M0,7.92A.72.72,0,0,0,0,6.48a.72.72,0,0,0-.72.72A.72.72,0,0,0,0,7.92Z"/><path class="cls-2" d="M0,22.32a.72.72,0,0,0,0-1.44.72.72,0,0,0-.72.72A.72.72,0,0,0,0,22.32Z"/><circle class="cls-2" cx="28.8" r="0.72"/><path class="cls-2" d="M14.4.72A.72.72,0,0,0,15.12,0a.72.72,0,0,0-.72-.72.72.72,0,0,0-.72.72A.72.72,0,0,0,14.4.72Z"/><path class="cls-2" d="M7.2.72A.72.72,0,0,0,7.92,0,.72.72,0,0,0,7.2-.72.72.72,0,0,0,6.48,0,.72.72,0,0,0,7.2.72Z"/><path class="cls-2" d="M21.82.72A.72.72,0,0,0,22.54,0a.72.72,0,0,0-.72-.72A.72.72,0,0,0,21.1,0,.72.72,0,0,0,21.82.72Z"/><circle class="cls-2" r="0.72"/></pattern></defs><title>images</title><g id="_5" data-name="5"><g id="Back"><rect class="cls-3" x="566.93" width="566.93" height="566.93"/></g></g><g id="_6" data-name="6"><g id="Back-2" data-name="Back"><rect class="cls-3" width="566.93" height="566.93"/><polygon class="cls-4" points="195.35 149.06 195.35 149.06 195.34 149.06 129.73 123.62 64.11 150.28 64.11 150.28 64.11 150.28 64.11 150.28 64.11 150.28 129.73 175.72 195.34 149.06 195.35 149.06 195.35 149.06"/><path class="cls-5" d="M143.25,344.68a49.83,49.83,0,0,0-10.42,1.07c-4.17-8.23-18.71-14.3-36-14.3-20.56,0-37.22,8.57-37.22,19.14s16.66,19.13,37.22,19.13a69.24,69.24,0,0,0,13.11-1.23,3.13,3.13,0,0,0-.27,1.23c0,3,4.79,5.5,10.7,5.5,5,0,9.22-1.77,10.37-4.17a48.91,48.91,0,0,0,12.52,1.57c15,0,27.17-6.25,27.17-14S158.26,344.68,143.25,344.68Z"/><path class="cls-6" d="M166.32,371c0,5.36-8.44,9.69-18.84,9.69s-18.85-4.33-18.85-9.69,8.44-9.69,18.85-9.69,18.84,4.34,18.84,9.69"/><path class="cls-7" d="M361.64,113c0,13.77-21.72,24.94-48.51,24.94S264.62,126.73,264.62,113,286.34,88,313.13,88,361.64,99.18,361.64,113"/><path class="cls-6" d="M85.51,331.45c0,3-4.79,5.5-10.7,5.5s-10.7-2.46-10.7-5.5,4.79-5.5,10.7-5.5,10.7,2.46,10.7,5.5"/><g id="Rock"><path class="cls-8" d="M523.54,350c26.73,0,26.05-5.68,21.74-11.4-6.47-8.62-23.72-6.61-31.36-4-10.73,3.69-6,15.39,9.62,15.39"/><path class="cls-9" d="M508.88,338.23s3.35-4.6,12.35-5.18,15.71-.7,19.91,2.05,4.53,4.07,4.53,4.07-1,3.55-2.26,4.44a15.88,15.88,0,0,1-7.53,2.18,43.18,43.18,0,0,0-8.41.22c-1.74.41-8.92-.4-10.52-1a36.48,36.48,0,0,1-7.27-4.9,4.3,4.3,0,0,1-.8-1.9"/><path class="cls-2" d="M523.54,350.48c-9.89,0-15.14-4.46-15.83-8.6-.56-3.36,1.7-6.26,6-7.76,7.18-2.46,25.17-4.84,31.93,4.15,1.53,2,3.13,4.67,2,7-1.77,3.55-9.43,5.2-24.1,5.2m4.9-17.64a47.56,47.56,0,0,0-14.36,2.23c-3.84,1.32-5.86,3.8-5.38,6.64.64,3.86,5.95,7.77,14.84,7.77,13.86,0,21.67-1.56,23.2-4.64.72-1.43.13-3.33-1.86-6-3.43-4.57-10-6-16.44-6"/><path class="cls-2" d="M524.51,346.76c-6.45,0-12.5-3-15-6.28a5,5,0,0,1-1-2.28l.36.11a9.61,9.61,0,0,0,3.94,4.09c3.77,2.25,10,3.71,14,3.22,2.22-.26,4.4-.3,6.51-.34,4.31-.08,8-.14,9.8-2.22a15.83,15.83,0,0,0,2.45-3.65s.31,0,.28.16a12.33,12.33,0,0,1-2,4.14c-2.07,2.42-6,2.49-10.54,2.57a63.73,63.73,0,0,0-6.41.33,19.77,19.77,0,0,1-2.42.15"/></g><g id="Rock-2" data-name="Rock"><path class="cls-8" d="M463.11,332.67c26.74,0,26.05-5.68,21.75-11.4-6.48-8.62-23.73-6.61-31.37-4-10.72,3.69-6,15.39,9.62,15.39"/><path class="cls-9" d="M448.45,320.92s3.35-4.6,12.35-5.18,15.71-.7,19.91,2.05,4.53,4.07,4.53,4.07-1.05,3.55-2.25,4.44a15.8,15.8,0,0,1-7.53,2.18,43.29,43.29,0,0,0-8.42.22c-1.74.41-8.91-.4-10.52-1a36.12,36.12,0,0,1-7.26-4.91,4.24,4.24,0,0,1-.81-1.9"/><path class="cls-2" d="M463.12,333.17c-9.89,0-15.14-4.46-15.84-8.6-.56-3.36,1.7-6.26,6.05-7.76,7.17-2.46,25.16-4.84,31.93,4.15,1.52,2,3.12,4.67,1.95,7-1.77,3.55-9.43,5.2-24.09,5.2M468,315.53a47.56,47.56,0,0,0-14.36,2.23c-3.84,1.32-5.86,3.8-5.38,6.64.64,3.86,6,7.77,14.85,7.77,13.85,0,21.66-1.56,23.2-4.64.71-1.43.12-3.33-1.86-6-3.44-4.57-10-6-16.45-6"/><path class="cls-2" d="M464.08,329.45c-6.45,0-12.5-3-15-6.28a5,5,0,0,1-1-2.28l.36.11a9.61,9.61,0,0,0,3.94,4.09c3.77,2.25,10,3.71,14.05,3.22,2.22-.26,4.4-.3,6.51-.34,4.31-.08,8-.14,9.8-2.22a15.51,15.51,0,0,0,2.45-3.65s.31,0,.28.16a12.33,12.33,0,0,1-2,4.14c-2.06,2.42-6,2.49-10.54,2.57a63.88,63.88,0,0,0-6.41.33,19.77,19.77,0,0,1-2.42.15"/></g><g id="Rock-3" data-name="Rock"><path class="cls-8" d="M445.28,376.39c26.73,0,26.05-5.68,21.74-11.41-6.47-8.61-23.73-6.6-31.36-4-10.73,3.69-6,15.39,9.62,15.39"/><path class="cls-9" d="M430.61,364.64S434,360,443,359.46s15.71-.7,19.92,2.05,4.53,4.06,4.53,4.06-1.06,3.56-2.26,4.45a15.88,15.88,0,0,1-7.53,2.18,43.18,43.18,0,0,0-8.41.22c-1.75.41-8.92-.4-10.53-1a36.53,36.53,0,0,1-7.26-4.9,4.42,4.42,0,0,1-.81-1.9"/><path class="cls-2" d="M445.28,376.89c-9.89,0-15.14-4.46-15.83-8.6-.56-3.36,1.7-6.27,6-7.76,7.18-2.47,25.17-4.84,31.93,4.15,1.53,2,3.13,4.67,2,7-1.77,3.55-9.43,5.2-24.1,5.2m4.9-17.64a47.56,47.56,0,0,0-14.36,2.23c-3.85,1.32-5.86,3.8-5.38,6.64.64,3.86,5.95,7.77,14.84,7.77,13.86,0,21.67-1.56,23.2-4.65.72-1.42.13-3.32-1.86-6-3.43-4.57-10-6-16.44-6"/><path class="cls-2" d="M446.24,373.17c-6.44,0-12.5-3-15-6.28a5,5,0,0,1-1-2.29l.37.12a9.54,9.54,0,0,0,3.94,4.09c3.77,2.24,10,3.71,14.05,3.22a63.28,63.28,0,0,1,6.51-.34c4.3-.08,8-.15,9.8-2.22a16.16,16.16,0,0,0,2.45-3.65s.3,0,.27.16a12.28,12.28,0,0,1-2,4.14c-2.07,2.42-6,2.49-10.54,2.57a63.73,63.73,0,0,0-6.41.33,19.81,19.81,0,0,1-2.43.15"/></g><g id="Rock-4" data-name="Rock"><path class="cls-8" d="M354.37,371.44c26.74,0,26.05-5.68,21.75-11.4-6.48-8.62-23.73-6.61-31.37-4-10.72,3.69-6,15.38,9.62,15.38"/><path class="cls-9" d="M339.71,359.7s3.35-4.61,12.35-5.19,15.71-.7,19.91,2.05,4.53,4.07,4.53,4.07-1.05,3.55-2.25,4.44a15.91,15.91,0,0,1-7.53,2.19,42.51,42.51,0,0,0-8.42.22c-1.74.4-8.91-.4-10.52-1a36.12,36.12,0,0,1-7.26-4.91,4.22,4.22,0,0,1-.81-1.89"/><path class="cls-2" d="M354.38,371.94c-9.89,0-15.14-4.45-15.84-8.6-.56-3.36,1.7-6.26,6-7.76,7.17-2.46,25.16-4.84,31.93,4.16,1.52,2,3.12,4.66,2,7-1.77,3.54-9.43,5.19-24.09,5.19m4.89-17.63a47.59,47.59,0,0,0-14.36,2.22c-3.84,1.32-5.86,3.81-5.38,6.65.64,3.86,6,7.76,14.85,7.76,13.85,0,21.66-1.56,23.2-4.64.71-1.43.12-3.32-1.86-6-3.44-4.58-10-6-16.45-6"/><path class="cls-2" d="M355.34,368.22c-6.45,0-12.5-3-15-6.27a5,5,0,0,1-1-2.29l.36.11a9.61,9.61,0,0,0,3.94,4.1c3.77,2.24,10,3.7,14.05,3.22a63.34,63.34,0,0,1,6.51-.35c4.31-.08,8-.14,9.8-2.22a15.51,15.51,0,0,0,2.45-3.65s.31,0,.28.16a12.16,12.16,0,0,1-2,4.14c-2.06,2.42-6,2.49-10.54,2.57a63.94,63.94,0,0,0-6.41.34,19.75,19.75,0,0,1-2.42.14"/></g><g id="Rock-5" data-name="Rock"><path class="cls-8" d="M349,436.62c26.73,0,26.05-5.68,21.74-11.4-6.47-8.62-23.73-6.61-31.36-4-10.73,3.69-6,15.39,9.62,15.39"/><path class="cls-9" d="M334.35,424.88s3.34-4.61,12.34-5.19,15.72-.7,19.92,2.05,4.53,4.07,4.53,4.07-1.06,3.55-2.26,4.44a15.76,15.76,0,0,1-7.53,2.18,43.13,43.13,0,0,0-8.41.23c-1.75.4-8.92-.4-10.52-1a35.92,35.92,0,0,1-7.27-4.91,4.28,4.28,0,0,1-.8-1.89"/><path class="cls-2" d="M349,437.12c-9.89,0-15.14-4.46-15.83-8.6-.56-3.36,1.7-6.26,6-7.76,7.18-2.46,25.17-4.84,31.93,4.16,1.53,2,3.13,4.66,2,7-1.77,3.55-9.43,5.2-24.1,5.2m4.9-17.63a47.59,47.59,0,0,0-14.36,2.22c-3.85,1.32-5.86,3.8-5.38,6.64.64,3.86,5.95,7.77,14.84,7.77,13.86,0,21.67-1.56,23.2-4.64.72-1.43.13-3.33-1.86-6-3.43-4.58-10-6-16.44-6"/><path class="cls-2" d="M350,433.4c-6.45,0-12.51-3-15-6.28a5,5,0,0,1-1-2.28l.37.11a9.59,9.59,0,0,0,3.94,4.1c3.77,2.24,10,3.7,14,3.21,2.22-.26,4.4-.3,6.51-.34,4.3-.08,8-.14,9.8-2.22a15.83,15.83,0,0,0,2.45-3.65s.31,0,.27.16a12.19,12.19,0,0,1-2,4.14c-2.07,2.42-6,2.49-10.54,2.57a63.78,63.78,0,0,0-6.41.34,22,22,0,0,1-2.42.14"/></g><g id="Rock-6" data-name="Rock"><path class="cls-8" d="M282.62,434.86c26.73,0,26.05-5.68,21.74-11.4-6.47-8.62-23.73-6.61-31.37-4-10.72,3.69-6,15.38,9.63,15.38"/><path class="cls-9" d="M268,423.12s3.35-4.61,12.35-5.19,15.71-.7,19.92,2.05,4.53,4.07,4.53,4.07-1.06,3.55-2.26,4.44a15.76,15.76,0,0,1-7.53,2.18,43.13,43.13,0,0,0-8.41.23c-1.75.4-8.92-.4-10.53-1a36.12,36.12,0,0,1-7.26-4.91,4.36,4.36,0,0,1-.81-1.89"/><path class="cls-2" d="M282.62,435.36c-9.89,0-15.14-4.46-15.83-8.6-.56-3.36,1.69-6.26,6-7.76,7.17-2.46,25.17-4.84,31.93,4.16,1.53,2,3.13,4.66,2,7-1.77,3.55-9.43,5.2-24.1,5.2m4.9-17.63A47.59,47.59,0,0,0,273.16,420c-3.85,1.32-5.86,3.81-5.39,6.65.65,3.86,6,7.76,14.85,7.76,13.86,0,21.66-1.56,23.2-4.64.72-1.43.12-3.33-1.86-6-3.44-4.58-10-6-16.44-6"/><path class="cls-2" d="M283.58,431.64c-6.44,0-12.5-3-15-6.28a5,5,0,0,1-1-2.28l.36.11a9.66,9.66,0,0,0,3.95,4.1c3.77,2.24,10,3.7,14.05,3.21,2.22-.26,4.4-.3,6.51-.34,4.3-.08,8-.14,9.8-2.22a16.16,16.16,0,0,0,2.45-3.65s.3,0,.27.16a12.39,12.39,0,0,1-2,4.14c-2.07,2.42-6,2.49-10.54,2.57a64.13,64.13,0,0,0-6.42.34,21.68,21.68,0,0,1-2.42.14"/></g><g id="Rock-7" data-name="Rock"><path class="cls-8" d="M321.05,493.76c26.74,0,26.05-5.68,21.75-11.4-6.48-8.62-23.73-6.61-31.37-4-10.72,3.69-6,15.38,9.62,15.38"/><path class="cls-9" d="M306.39,482s3.35-4.61,12.35-5.19,15.71-.7,19.92,2.05,4.52,4.07,4.52,4.07-1.05,3.55-2.25,4.44a15.91,15.91,0,0,1-7.53,2.19,42.54,42.54,0,0,0-8.42.22c-1.74.4-8.91-.4-10.52-1a36.12,36.12,0,0,1-7.26-4.91,4.36,4.36,0,0,1-.81-1.89"/><path class="cls-2" d="M321.06,494.27c-9.89,0-15.14-4.46-15.83-8.61-.57-3.36,1.69-6.26,6-7.76,7.17-2.46,25.16-4.84,31.93,4.16,1.53,2,3.13,4.66,1.95,7-1.77,3.54-9.42,5.2-24.09,5.2m4.9-17.64a47.86,47.86,0,0,0-14.36,2.22c-3.85,1.32-5.86,3.81-5.39,6.65.65,3.86,6,7.77,14.85,7.77,13.85,0,21.66-1.57,23.2-4.65.71-1.43.12-3.32-1.86-6-3.44-4.57-10-6-16.44-6"/><path class="cls-2" d="M322,490.54c-6.45,0-12.5-3-15-6.27a4.89,4.89,0,0,1-1-2.29l.36.11a9.61,9.61,0,0,0,3.94,4.1c3.77,2.24,10,3.7,14.05,3.22a63.34,63.34,0,0,1,6.51-.35c4.31-.07,8-.14,9.81-2.21a16.42,16.42,0,0,0,2.45-3.66s.3,0,.27.16a12.3,12.3,0,0,1-2,4.14c-2.07,2.42-6,2.49-10.55,2.57a63.94,63.94,0,0,0-6.41.34,19.75,19.75,0,0,1-2.42.14"/></g><g id="Rock-8" data-name="Rock"><path class="cls-8" d="M238.65,502.07c26.73,0,26-5.68,21.74-11.41-6.48-8.61-23.73-6.6-31.37-4-10.72,3.69-6,15.39,9.63,15.39"/><path class="cls-9" d="M224,490.32s3.35-4.6,12.35-5.18,15.71-.7,19.92,2.05,4.52,4.06,4.52,4.06-1,3.55-2.25,4.45a15.91,15.91,0,0,1-7.53,2.18,43.31,43.31,0,0,0-8.42.22c-1.74.4-8.91-.4-10.52-1a36.53,36.53,0,0,1-7.26-4.9,4.42,4.42,0,0,1-.81-1.9"/><path class="cls-2" d="M238.65,502.57c-9.89,0-15.14-4.46-15.83-8.6-.57-3.37,1.69-6.27,6-7.76,7.17-2.47,25.17-4.84,31.93,4.15,1.53,2,3.13,4.66,1.95,7-1.77,3.55-9.42,5.2-24.09,5.2m4.9-17.64a47.56,47.56,0,0,0-14.36,2.23c-3.85,1.32-5.86,3.8-5.39,6.64.65,3.86,5.95,7.77,14.85,7.77,13.85,0,21.66-1.56,23.2-4.65.71-1.42.12-3.32-1.86-6-3.44-4.57-10-6-16.44-6"/><path class="cls-2" d="M239.61,498.85c-6.45,0-12.5-3-15-6.28a4.89,4.89,0,0,1-1-2.29l.36.12a9.67,9.67,0,0,0,3.94,4.09c3.77,2.24,10,3.71,14,3.22a60.77,60.77,0,0,1,6.52-.34c4.3-.08,8-.15,9.8-2.22a16.16,16.16,0,0,0,2.45-3.65s.3,0,.27.15a12.42,12.42,0,0,1-2,4.15c-2.07,2.42-6,2.49-10.55,2.57a61,61,0,0,0-6.41.33,19.77,19.77,0,0,1-2.42.15"/></g><g id="Rock-9" data-name="Rock"><path class="cls-8" d="M298,554.64c26.73,0,26-5.68,21.74-11.4-6.47-8.62-23.73-6.61-31.37-4-10.72,3.69-6,15.39,9.63,15.39"/><path class="cls-9" d="M283.37,542.89s3.35-4.6,12.35-5.18,15.71-.7,19.92,2,4.53,4.07,4.53,4.07-1.06,3.55-2.26,4.44a15.88,15.88,0,0,1-7.53,2.18,43.18,43.18,0,0,0-8.41.22c-1.75.41-8.92-.4-10.53-1a36.1,36.1,0,0,1-7.26-4.9,4.38,4.38,0,0,1-.81-1.9"/><path class="cls-2" d="M298,555.14c-9.89,0-15.14-4.46-15.83-8.6-.56-3.36,1.7-6.26,6-7.76,7.17-2.46,25.17-4.84,31.93,4.15,1.53,2,3.13,4.67,2,7-1.77,3.55-9.43,5.2-24.1,5.2m4.9-17.64a47.56,47.56,0,0,0-14.36,2.23c-3.85,1.32-5.86,3.8-5.39,6.64.65,3.86,6,7.77,14.85,7.77,13.86,0,21.66-1.56,23.2-4.64.72-1.43.12-3.33-1.86-6-3.44-4.57-10-6-16.44-6"/><path class="cls-2" d="M299,551.42c-6.44,0-12.5-3-15-6.28a5,5,0,0,1-1-2.28l.36.11a9.67,9.67,0,0,0,3.95,4.09c3.77,2.25,10,3.71,14.05,3.22,2.22-.26,4.4-.3,6.51-.34,4.3-.08,8-.14,9.8-2.22a16.16,16.16,0,0,0,2.45-3.65s.3,0,.27.16a12.48,12.48,0,0,1-2,4.14c-2.07,2.42-6,2.49-10.54,2.57a64.07,64.07,0,0,0-6.42.33,19.53,19.53,0,0,1-2.42.15"/></g><g id="Rock-10" data-name="Rock"><path class="cls-8" d="M224.41,555.94c26.73,0,26.05-5.68,21.74-11.4-6.47-8.62-23.73-6.61-31.37-4-10.72,3.69-6,15.39,9.63,15.39"/><path class="cls-9" d="M209.74,544.19s3.35-4.6,12.35-5.18,15.71-.7,19.92,2,4.53,4.07,4.53,4.07-1.06,3.55-2.26,4.44a15.76,15.76,0,0,1-7.53,2.18,43.18,43.18,0,0,0-8.41.22c-1.75.41-8.92-.4-10.53-1a36.12,36.12,0,0,1-7.26-4.91,4.38,4.38,0,0,1-.81-1.9"/><path class="cls-2" d="M224.41,556.44c-9.89,0-15.14-4.46-15.83-8.6-.56-3.36,1.69-6.26,6-7.76,7.17-2.46,25.17-4.84,31.93,4.15,1.53,2,3.13,4.67,2,7-1.77,3.55-9.43,5.2-24.1,5.2m4.9-17.64A47.56,47.56,0,0,0,215,541c-3.85,1.32-5.86,3.8-5.39,6.64.65,3.86,6,7.77,14.85,7.77,13.86,0,21.66-1.56,23.2-4.64.72-1.43.12-3.33-1.86-6-3.44-4.57-10-6-16.44-6"/><path class="cls-2" d="M225.37,552.72c-6.45,0-12.5-3-15-6.28a5,5,0,0,1-1-2.28l.36.11a9.61,9.61,0,0,0,3.94,4.09c3.78,2.25,10,3.71,14,3.22,2.22-.26,4.41-.3,6.52-.34,4.3-.08,8-.14,9.8-2.22a16.16,16.16,0,0,0,2.45-3.65s.3,0,.27.16a12.48,12.48,0,0,1-2,4.14c-2.07,2.42-6,2.49-10.55,2.57a63.88,63.88,0,0,0-6.41.33,19.65,19.65,0,0,1-2.42.15"/></g><polygon class="cls-4" points="534.12 467.3 534.13 467.3 534.12 467.3 453.79 436.15 373.45 468.78 373.45 468.78 373.45 468.78 373.45 468.78 373.45 468.78 453.79 499.93 534.12 467.3 534.13 467.3 534.12 467.3"/><path class="cls-10" d="M485.29,445.12c-13,0-23.65,7-25.63,16.16h-13c-.76,0-1.37,1.37-1.37,3.06s.61,3.05,1.37,3.05h13c2,9.16,12.68,16.16,25.63,16.16,14.35,0,26-8.6,26-19.21S499.64,445.12,485.29,445.12Z"/><polygon class="cls-11" points="534.12 467.3 534.13 467.3 534.12 467.3 453.79 436.15 373.45 468.78 373.45 468.78 373.45 468.78 373.45 468.78 373.45 468.78 453.79 499.93 534.12 467.3 534.13 467.3 534.12 467.3"/><path class="cls-12" d="M443.46,435.85V466c0,.75,1.37,1.36,3.06,1.36s3.05-.61,3.05-1.36V435.85Z"/><path class="cls-4" d="M474.9,430.29,459,362.08c-2.67-11.41-18.78-11.75-21.92-.47l-19.12,68.68c0,6.26,12.79,11.34,28.58,11.34s28.58-5.08,28.58-11.34Z"/><path class="cls-10" d="M475.1,430.29h-.2L459,362.08a11.45,11.45,0,0,0-2.51-5,8.87,8.87,0,0,0-4.21,5.47l-21.42,76.89c0,.11,0,.21,0,.32a63.07,63.07,0,0,0,15.64,1.85C462.3,441.63,475.1,436.55,475.1,430.29Z"/><path class="cls-13" d="M474.9,430.29,459,362.08c-2.67-11.41-18.78-11.75-21.92-.47l-19.12,68.68c0,6.26,12.79,11.34,28.58,11.34s28.58-5.08,28.58-11.34Z"/></g></g></svg>