<svg id="Background" xmlns="http://www.w3.org/2000/svg" xmlns:xlink="http://www.w3.org/1999/xlink" width="200mm" height="200mm" viewBox="0 0 566.93 566.93"><defs><style>.cls-1,.cls-6{fill:none;}.cls-2{clip-path:url(#clip-path);}.cls-3{fill:#1d1d1b;}.cls-4{fill:url(#Unnamed_Pattern);}.cls-5,.cls-7{fill:#fff;}.cls-6{stroke:#1d1d1b;}.cls-6,.cls-7{stroke-miterlimit:10;}.cls-7{stroke:#1e1e1c;}</style><clipPath id="clip-path"><rect class="cls-1" width="11.17" height="15.48"/></clipPath><pattern id="Unnamed_Pattern" data-name="Unnamed Pattern" width="11.17" height="15.49" patternTransform="matrix(3, 0, 0, -2, 97.05, 33526.72)" patternUnits="userSpaceOnUse" viewBox="0 0 11.17 15.48"><rect class="cls-1" width="11.17" height="15.49"/><g class="cls-2"><path class="cls-3" d="M7.78,1.25A12,12,0,0,0,11.34.47a11.6,11.6,0,0,0,3.21-1.72A12,12,0,0,0,11-.47,11.65,11.65,0,0,0,7.78,1.25"/><path class="cls-3" d="M14.55,1.25A11.74,11.74,0,0,0,11.34-.47a12,12,0,0,0-3.56-.78A11.65,11.65,0,0,0,11,.47a12,12,0,0,0,3.55.78"/><path class="cls-3" d="M-3.39,1.25A12,12,0,0,0,.17.47,11.8,11.8,0,0,0,3.39-1.25,12,12,0,0,0-.17-.47,11.8,11.8,0,0,0-3.39,1.25"/><path class="cls-3" d="M3.39,1.25A11.8,11.8,0,0,0,.17-.47a12,12,0,0,0-3.56-.78A11.8,11.8,0,0,0-.17.47a12,12,0,0,0,3.56.78"/><path class="cls-3" d="M2.2,9a12.11,12.11,0,0,0,3.56-.78A12,12,0,0,0,9,6.5a11.73,11.73,0,0,0-3.56.77A12,12,0,0,0,2.2,9"/><path class="cls-3" d="M9,9A12,12,0,0,0,5.76,7.27,11.79,11.79,0,0,0,2.2,6.5,12,12,0,0,0,5.41,8.21,12.11,12.11,0,0,0,9,9"/><path class="cls-3" d="M7.78,16.73A11.67,11.67,0,0,0,11.34,16a11.57,11.57,0,0,0,3.21-1.71A11.38,11.38,0,0,0,11,15a11.89,11.89,0,0,0-3.22,1.71"/><path class="cls-3" d="M14.55,16.73A12,12,0,0,0,11.34,15a11.38,11.38,0,0,0-3.56-.78A11.62,11.62,0,0,0,11,16a11.67,11.67,0,0,0,3.55.78"/><path class="cls-3" d="M-3.39,16.73A11.67,11.67,0,0,0,.17,16a11.76,11.76,0,0,0,3.22-1.71A11.38,11.38,0,0,0-.17,15a12,12,0,0,0-3.22,1.71"/><path class="cls-3" d="M3.39,16.73A12,12,0,0,0,.17,15a11.38,11.38,0,0,0-3.56-.78A11.76,11.76,0,0,0-.17,16a11.67,11.67,0,0,0,3.56.78"/></g></pattern></defs><rect class="cls-4" x="-1134.51" y="-565.92" width="1700.74" height="1133.86"/><g id="Street"><path class="cls-5" d="M-566.93,343.72c86.59,6,143.39,26.28,239.14-6.54s161.61-67,239.74-45.32C-10.93,313.3,0,320.41,0,320.41v36s-14.26-3.87-88-28.56c-76.9-25.73-144,12.51-239.74,45.32s-148.6,15.8-239.14,6.71"/><path class="cls-6" d="M0,356.37s-14.26-3.87-88-28.56c-76.9-25.73-144,12.51-239.74,45.32s-148.6,15.8-239.14,6.71"/><path class="cls-6" d="M-566.93,343.72c86.59,6,143.39,26.28,239.14-6.54s161.61-67,239.74-45.32C-11.31,314.24-5.56,318.57,0,320.41"/></g><path id="Street-2" data-name="Street" class="cls-7" d="M0,320.41c33.42,11.71,148,57.81,232.07,25.19,95.71-41.52,166.52-64.61,246.18-49.42S566.88,322,566.88,322v36s-8.39-13.36-88-28.56-144,12.51-239.75,45.33S85.18,380.51,0,356.37"/></svg>