<svg xmlns="http://www.w3.org/2000/svg" viewBox="0 0 566.93 566.93"><defs><style>.cls-1{fill:#eb9899;}.cls-2{fill:#aa7272;}.cls-3{fill:#adadad;}.cls-4{fill:#7f7f80;}.cls-5{fill:none;stroke:#000;stroke-miterlimit:10;}</style></defs><title>6b</title><g id="_5" data-name="5"><g id="Back"><rect class="cls-1" x="566.93" width="566.93" height="566.93"/></g></g><g id="_6" data-name="6"><g id="Fore"><path class="cls-2" d="M205.72,327.57c23.55,9.39,59-6,84.49,9.76,6.72,4.16-1.16,3.32,12.46,7.93,18.34,6.21,64.82-11.09,74.49-9.33,14.9,2.7,54.12,14.35,62.29-10s1.79-30.51-2.81-36.3-61.33-12.25-64.9-12.06-15.83,3.56-27.07,5.45-90.37,1.13-91.91,1-24.07,1.4-26.08,5S205.72,327.57,205.72,327.57Z"/><path class="cls-3" d="M299.92,345.26S283.64,339.71,279,334s-13.19-12.29-13.7-14.17a43.4,43.4,0,0,1-.79-6.11l.11,1.48-.09-.31-2.23-94.69a12.65,12.65,0,0,1-.42-2.26c-.51-5,1.77-10,5.63-11.76L297,192.77a7,7,0,0,1,7.75,1.35l-.06,0s6.68,6.46,12.08,12.17c7.53,8,10.32,21.51,10.32,21.51"/><path class="cls-4" d="M329.05,312.75l-1.35-85c-1.57-5.69-4.08,1.07-10.07-1l-21.5,6.7c-1.92.87-2.64.85-2.85,1.31l.45.45-.45-.45c-.2.42,0,1.24.15,3.54l3.45,75.46,3.62,31.52c2.25,2.41,27.2-17.19,27.2-17.19C332.14,326.05,328.42,320.31,329.05,312.75Z"/><path class="cls-5" d="M317.3,226.73c6,2.11,8.5-4.65,10.08,1l1.34,85c-.62,7.56,3.09,13.3-1.34,15.32,0,0-25,19.6-27.2,17.19l-3.63-31.52"/><path class="cls-5" d="M317.3,226.73l-21.5,6.7c-3.69,1.68-2.95,0-2.7,4.85l3.45,75.46"/><path class="cls-5" d="M264.86,315.22c0-.1-.06-.21-.09-.31l-2.24-94.69a13.58,13.58,0,0,1-.41-2.26c-.51-5,1.77-10,5.62-11.76l29.54-13.43a7,7,0,0,1,7.76,1.35"/><path class="cls-5" d="M327.38,227.77s-2.79-13.56-10.32-21.51c-5.41-5.71-12.08-12.17-12.08-12.17"/><path d="M293,235.53a13.71,13.71,0,0,0-4.75-3.52,39.19,39.19,0,0,0-5.83-1.73h0a39.54,39.54,0,0,1,6,1.26,14.53,14.53,0,0,1,5.28,3.3Z"/><path d="M262.59,217.81A4.29,4.29,0,0,0,264,220c.35.32.73.61,1.11.91a5.81,5.81,0,0,1,1.09,1,6.3,6.3,0,0,0-1.22-.74c-.43-.23-.86-.45-1.28-.72a5.1,5.1,0,0,1-2.1-2.27Z"/><path class="cls-5" d="M300.18,345.26s-16.29-5.55-20.95-11.24-13.18-12.29-13.7-14.17a45,45,0,0,1-.79-6.11"/><path class="cls-3" d="M208.56,329.54c-.05.28-18.43-2.88-23-8.86-4.66-5.55-13.23-12.46-13.53-14.44a42.57,42.57,0,0,1-.07-6.34l-.06,1.53a1.65,1.65,0,0,1-.06-.32c3.28-32.66,5.33-65.21,6.46-97.59a13.12,13.12,0,0,1-.28-2.33c-.22-5.15,2.32-10.22,6.3-11.76a168.84,168.84,0,0,1,30.52-8.91c2.8-.51,5.66.89,7.76,3.31l-.06,0s6.33,7.87,11.43,14.43c7.09,9.22,9.21,21.11,9.22,21.11"/><path class="cls-4" d="M242.71,292.12c-.13-24.69.17-48.9,1.11-72.66-1.31-5.14-4.19,0-10.14-3a214.17,214.17,0,0,0-22.08,3c-2,.63-2.72.55-3,1,.14.16.29.31.43.48-.14-.17-.29-.32-.43-.48-.22.39,0,1.22,0,3.48q-.51,37.12-1.21,74.59.88,15.54,1.86,30.93C212,331.5,241.33,305.89,241,306,246,302.89,241.9,299,242.71,292.12Z"/><path class="cls-5" d="M233.35,216.42c5.94,3,8.83-2.18,10.13,3-.94,23.81-1.24,48.07-1.13,72.81-.81,6.84,3.32,10.79-1.69,13.91.3-.11-29,25.47-31.8,23.38q-1-15.4-1.84-31"/><path class="cls-5" d="M233.35,216.42a214.8,214.8,0,0,0-22.09,3c-3.82,1.24-3-.26-3,4.46q-.5,37.17-1.23,74.66"/><path class="cls-5" d="M172.21,301.44c0-.11,0-.21-.06-.32,3.26-32.67,5.31-65.21,6.44-97.59a14.13,14.13,0,0,1-.29-2.33c-.21-5.15,2.33-10.22,6.31-11.75a167.83,167.83,0,0,1,30.52-8.86c2.8-.51,5.66.89,7.76,3.31"/><path class="cls-5" d="M243.48,219.39s-2.13-11.88-9.22-21.09c-5.1-6.57-11.43-14.44-11.43-14.44"/><path d="M208.42,221.22a15.21,15.21,0,0,0-4.75-4A42.93,42.93,0,0,0,198,215h0a41.08,41.08,0,0,1,5.83,1.72,15.46,15.46,0,0,1,5.23,3.82Z"/><path d="M178.75,201.05a4.48,4.48,0,0,0,1.38,2.3c.33.34.69.65,1.05,1a5.9,5.9,0,0,1,1,1,6,6,0,0,0-1.16-.79c-.4-.24-.8-.47-1.19-.75a5,5,0,0,1-2-2.45Z"/><path class="cls-5" d="M208.86,329.49c-.05.28-18.43-2.85-23-8.82-4.67-5.55-13.25-12.44-13.55-14.42a42.56,42.56,0,0,1-.07-6.34"/><path class="cls-3" d="M191.88,154.09a99.9,99.9,0,0,1,12.29-7.39c7.06-3.59,19.83-8,21.74-8a33.48,33.48,0,0,1,5.85,1l-1.38-.34h.31l86.51,27.72a10.11,10.11,0,0,1,2.21.24,10.57,10.57,0,0,1,8.32,10.3v38.57a10.54,10.54,0,0,1-4.42,8.56l.06-.06s-8.58,5.67-16,10.12c-10.28,6.19-23.68,5.08-23.68,5.08"/><path class="cls-4" d="M283.73,180.71c-18.24-.48-8.6-.65-9.49,3.61-.6,2.84-.32,29.4-.06,46.71l9.55,8.93s13.4,1.11,23.68-5.08c7.38-4.45,16-10.12,16-10.12l-.06.06a10.54,10.54,0,0,0,4.42-8.56V177.69a10.57,10.57,0,0,0-8.32-10.3c-.18,0-.37-.06-.55-.09-4.77,2.13-5.74,4.8-12.86,6.88C295.81,177.15,302.64,181.22,283.73,180.71Z"/><path class="cls-3" d="M288.81,228.61c-4.37,6.27.71,11.35-5.08,11.35l-86.51-27.71c-6.57-3.14-10.53-4.74-10.53-10.53V163.15a10.57,10.57,0,0,1,5.19-9.07l.07,0a10.37,10.37,0,0,1,5.27-1.42L220.16,160l61.28,18.81c1.58,1.35,4.19,1.69,5.09,1.94h0a10.58,10.58,0,0,1,7.72,10.15Z"/><path class="cls-5" d="M288.81,228.6c-4.37,6.28.71,11.36-5.08,11.36l-86.51-27.71c-6.58-3.14-10.53-4.74-10.53-10.53V163.15a10.57,10.57,0,0,1,5.19-9.07l.07,0a10.37,10.37,0,0,1,5.27-1.42L220.16,160"/><path class="cls-5" d="M288.81,228.6l5.45-37.74a10.58,10.58,0,0,0-7.72-10.15h0c-.9-.25-3.51-.59-5.08-1.93L220.16,160"/><path class="cls-5" d="M230.38,139.44h.31l86.51,27.72a10.11,10.11,0,0,1,2.21.24,10.57,10.57,0,0,1,8.32,10.3v38.57a10.54,10.54,0,0,1-4.42,8.56"/><path class="cls-5" d="M283.73,240s13.4,1.11,23.68-5.08c7.38-4.45,16-10.12,16-10.12"/><path d="M287.39,180.36a11.17,11.17,0,0,0,6,.12,44.28,44.28,0,0,0,5.79-2.28h0a44.75,44.75,0,0,1-5.65,2.76,12,12,0,0,1-6.38.37Z"/><path d="M319.43,167.89a4.71,4.71,0,0,0-2.68,1.1c-.42.31-.83.65-1.25,1a7.66,7.66,0,0,1-1.3,1,7.61,7.61,0,0,0,1.13-1.14c.35-.4.71-.8,1.1-1.19a8.29,8.29,0,0,1,1.28-1.06,4,4,0,0,1,1.67-.66Z"/><path class="cls-5" d="M191.88,154.09a99.9,99.9,0,0,1,12.29-7.39c7.06-3.59,19.83-8,21.74-8a33.48,33.48,0,0,1,5.85,1"/><path class="cls-3" d="M340.35,107.67l1.22.3Z"/></g></g></svg>