<svg id="Foreground" xmlns="http://www.w3.org/2000/svg" viewBox="0 0 566.93 566.93"><defs><style>.cls-1{fill:#fff;}.cls-1,.cls-2{stroke:#1e1e1c;stroke-miterlimit:10;}.cls-2{fill:none;}</style></defs><g id="Q"><polygon class="cls-1" points="235.19 286.67 315.53 339.1 358.51 342.64 265.19 267 232.25 268.99 235.19 286.67"/><polyline class="cls-1" points="232.25 268.99 256.46 253 335.92 302.5 358.51 342.64"/><line class="cls-2" x1="235.19" y1="286.67" x2="256.47" y2="253.01"/><polyline class="cls-2" points="315.53 339.1 335.92 302.5 346.89 317.69"/><line class="cls-2" x1="346.89" y1="317.69" x2="358.51" y2="342.65"/><polygon class="cls-1" points="243.5 358.45 323.84 410.88 366.81 414.44 273.5 338.8 240.55 340.77 243.5 358.45"/><polyline class="cls-1" points="240.55 340.77 264.77 324.8 344.22 374.29 366.81 414.44"/><line class="cls-2" x1="243.5" y1="358.46" x2="264.77" y2="324.8"/><polyline class="cls-2" points="323.84 410.88 344.22 374.29 355.2 389.48"/><line class="cls-2" x1="355.2" y1="389.48" x2="366.81" y2="414.44"/></g></svg>