<svg xmlns="http://www.w3.org/2000/svg" xmlns:xlink="http://www.w3.org/1999/xlink" viewBox="0 0 566.93 566.93"><defs><style>.cls-1,.cls-7{fill:none;}.cls-2{fill:#1d1d1b;}.cls-3{fill:#eb9899;}.cls-4{fill:#f4ce6f;}.cls-5{fill:#bca061;}.cls-6{fill:#161616;}.cls-7{stroke:#000;stroke-miterlimit:10;stroke-width:0.5px;}.cls-8{fill:#b79291;}.cls-9{fill:url(#RBDots);}.cls-10{fill:#a37979;}.cls-11{fill:#6e7891;}.cls-12{fill:#98a1b7;}</style><pattern id="RBDots" data-name="RBDots" width="28.8" height="28.8" patternTransform="matrix(-0.99, -0.34, 0.34, -0.99, 140.35, 8.7)" patternUnits="userSpaceOnUse" viewBox="0 0 28.8 28.8"><rect class="cls-1" width="28.8" height="28.8"/><circle class="cls-2" cx="28.8" cy="28.8" r="0.72"/><path class="cls-2" d="M14.4,29.52a.72.72,0,1,0-.72-.72A.72.72,0,0,0,14.4,29.52Z"/><path class="cls-2" d="M28.8,15.12a.72.72,0,1,0-.72-.72A.72.72,0,0,0,28.8,15.12Z"/><path class="cls-2" d="M14.4,15.12a.72.72,0,1,0-.72-.72A.72.72,0,0,0,14.4,15.12Z"/><path class="cls-2" d="M7.2,22.32a.72.72,0,1,0-.72-.72A.72.72,0,0,0,7.2,22.32Z"/><path class="cls-2" d="M21.6,22.32a.72.72,0,1,0-.72-.72A.72.72,0,0,0,21.6,22.32Z"/><path class="cls-2" d="M14.4,22.32a.72.72,0,1,0-.72-.72A.72.72,0,0,0,14.4,22.32Z"/><path class="cls-2" d="M7.2,29.52a.72.72,0,1,0-.72-.72A.72.72,0,0,0,7.2,29.52Z"/><path class="cls-2" d="M21.82,29.52a.72.72,0,1,0-.72-.72A.72.72,0,0,0,21.82,29.52Z"/><path class="cls-2" d="M7.2,7.92a.72.72,0,1,0-.72-.72A.72.72,0,0,0,7.2,7.92Z"/><path class="cls-2" d="M7.2,15.12a.72.72,0,1,0-.72-.72A.72.72,0,0,0,7.2,15.12Z"/><path class="cls-2" d="M21.6,15.12a.72.72,0,1,0-.72-.72A.72.72,0,0,0,21.6,15.12Z"/><path class="cls-2" d="M14.4,7.92a.72.72,0,1,0-.72-.72A.72.72,0,0,0,14.4,7.92Z"/><path class="cls-2" d="M28.8,7.92a.72.72,0,1,0-.72-.72A.72.72,0,0,0,28.8,7.92Z"/><path class="cls-2" d="M21.6,7.92a.72.72,0,1,0-.72-.72A.72.72,0,0,0,21.6,7.92Z"/><path class="cls-2" d="M28.8,22.32a.72.72,0,1,0-.72-.72A.72.72,0,0,0,28.8,22.32Z"/><circle class="cls-2" cy="28.8" r="0.72"/><path class="cls-2" d="M0,15.12a.72.72,0,0,0,0-1.44.72.72,0,0,0-.72.72A.72.72,0,0,0,0,15.12Z"/><path class="cls-2" d="M0,7.92A.72.72,0,0,0,0,6.48a.72.72,0,0,0-.72.72A.72.72,0,0,0,0,7.92Z"/><path class="cls-2" d="M0,22.32a.72.72,0,0,0,0-1.44.72.72,0,0,0-.72.72A.72.72,0,0,0,0,22.32Z"/><circle class="cls-2" cx="28.8" r="0.72"/><path class="cls-2" d="M14.4.72A.72.72,0,0,0,15.12,0a.72.72,0,0,0-.72-.72.72.72,0,0,0-.72.72A.72.72,0,0,0,14.4.72Z"/><path class="cls-2" d="M7.2.72A.72.72,0,0,0,7.92,0,.72.72,0,0,0,7.2-.72.72.72,0,0,0,6.48,0,.72.72,0,0,0,7.2.72Z"/><path class="cls-2" d="M21.82.72A.72.72,0,0,0,22.54,0a.72.72,0,0,0-.72-.72A.72.72,0,0,0,21.1,0,.72.72,0,0,0,21.82.72Z"/><circle class="cls-2" r="0.72"/></pattern></defs><title>7</title><g id="_7" data-name="7"><g id="Back"><rect class="cls-3" width="566.93" height="566.93"/><polygon class="cls-4" points="226.93 189.23 226.93 189.23 226.93 189.23 146.59 158.09 66.26 190.72 66.26 190.72 66.26 190.72 66.26 190.72 66.26 190.72 146.59 221.86 226.93 189.23 226.93 189.23 226.93 189.23"/><path class="cls-5" d="M148.7,164.79c-14.68,0-26.82,7.94-29.07,18.32H104.94c-.86,0-1.55,1.56-1.55,3.47s.69,3.47,1.55,3.47h14.69c2.25,10.38,14.39,18.32,29.07,18.32,16.28,0,29.48-9.75,29.48-21.79S165,164.79,148.7,164.79Z"/><path class="cls-6" d="M101.26,154.27V188.5c0,.85,1.55,1.55,3.46,1.55s3.47-.7,3.47-1.55V154.27Z"/><ellipse class="cls-4" cx="104.72" cy="110.16" rx="34.34" ry="44.88"/><path class="cls-5" d="M104.72,155c19,0,34.34-20.09,34.34-44.88,0-18.38-8.46-34.17-20.56-41.11C100.63,72.55,84.37,90,79,113.6a69.1,69.1,0,0,0-1.25,24.27C84,148.32,93.76,155,104.72,155Z"/><ellipse class="cls-7" cx="104.72" cy="110.16" rx="34.34" ry="44.88"/><path class="cls-8" d="M253.84,449.7h0c0-11.72-18.49-21.23-41.3-21.23S171.25,438,171.25,449.7c0,7.57,7.7,14.2,19.28,18-2.72,1-4.49,2.63-4.49,4.48,0,3,4.79,5.5,10.7,5.5s10.7-2.46,10.7-5.5a3.07,3.07,0,0,0-.36-1.4c1.79.13,3.61.19,5.46.19a75.44,75.44,0,0,0,16.35-1.73c4.16,5,13.77,8.44,25,8.44,15,0,27.17-6.25,27.17-14S268.85,449.7,253.84,449.7Z"/><path class="cls-9" d="M500.67,56.42h0c0-11.73-18.49-21.23-41.29-21.23s-41.3,9.5-41.3,21.23c0,7.56,7.7,14.2,19.28,18-2.71,1-4.49,2.63-4.49,4.48,0,3,4.79,5.5,10.7,5.5s10.7-2.46,10.7-5.5a3,3,0,0,0-.36-1.4c1.79.12,3.61.19,5.47.19a76,76,0,0,0,16.34-1.73c4.17,5,13.77,8.44,25,8.44,15,0,27.17-6.25,27.17-14S515.67,56.42,500.67,56.42Z"/><path class="cls-10" d="M222.76,447.55c0-3-4.79-5.5-10.7-5.5s-10.71,2.46-10.71,5.5,4.8,5.51,10.71,5.51S222.76,450.59,222.76,447.55Z"/><path class="cls-10" d="M254.94,454.93c-8.16,0-14.78,3.41-14.78,7.6s6.62,7.6,14.78,7.6,14.78-3.4,14.78-7.6S263.11,454.93,254.94,454.93Z"/><path class="cls-10" d="M222.76,473.68c-2.6,0-4.7,1.09-4.7,2.42s2.1,2.42,4.7,2.42,4.7-1.08,4.7-2.42S225.36,473.68,222.76,473.68Z"/><g id="Rock"><path class="cls-11" d="M306.07,41.8c26.73,0,26-5.67,21.74-11.4-6.48-8.62-23.73-6.61-31.37-4-10.72,3.69-6,15.38,9.63,15.38"/><path class="cls-12" d="M291.4,30.06s3.35-4.61,12.35-5.19,15.71-.7,19.92,2.05S328.19,31,328.19,31s-1.05,3.55-2.25,4.44a15.8,15.8,0,0,1-7.53,2.19,42.54,42.54,0,0,0-8.42.22c-1.74.4-8.91-.4-10.52-1A36.12,36.12,0,0,1,292.21,32a4.36,4.36,0,0,1-.81-1.89"/><path class="cls-2" d="M306.07,42.31c-9.89,0-15.14-4.46-15.83-8.61-.57-3.36,1.69-6.26,6-7.76,7.17-2.46,25.16-4.84,31.93,4.16,1.53,2,3.13,4.66,2,7-1.77,3.54-9.42,5.2-24.09,5.2M311,24.67a47.86,47.86,0,0,0-14.36,2.22c-3.85,1.32-5.86,3.81-5.39,6.65.65,3.86,5.95,7.77,14.85,7.77,13.85,0,21.66-1.57,23.2-4.65.71-1.43.12-3.32-1.86-6-3.44-4.57-10-6-16.44-6"/><path class="cls-2" d="M307,38.58c-6.45,0-12.5-3-15-6.27A4.89,4.89,0,0,1,291,30l.36.11a9.61,9.61,0,0,0,3.94,4.1c3.77,2.24,10,3.7,14.05,3.22a63.34,63.34,0,0,1,6.51-.35c4.31-.07,8-.14,9.81-2.21a16.42,16.42,0,0,0,2.45-3.66s.3,0,.27.16a12.3,12.3,0,0,1-2,4.14c-2.07,2.42-6,2.49-10.55,2.57a63.94,63.94,0,0,0-6.41.34,19.75,19.75,0,0,1-2.42.14"/></g><g id="Rock-2" data-name="Rock"><path class="cls-11" d="M249.9,82.1c26.73,0,26-5.68,21.74-11.4-6.47-8.62-23.73-6.61-31.37-4-10.72,3.69-6,15.39,9.63,15.39"/><path class="cls-12" d="M235.23,70.35s3.35-4.6,12.35-5.18,15.71-.7,19.92,2S272,71.29,272,71.29s-1.06,3.55-2.26,4.44a15.76,15.76,0,0,1-7.53,2.18,43.18,43.18,0,0,0-8.41.22c-1.75.41-8.92-.4-10.53-1A36.12,36.12,0,0,1,236,72.25a4.38,4.38,0,0,1-.81-1.9"/><path class="cls-2" d="M249.9,82.6c-9.89,0-15.14-4.46-15.83-8.6-.56-3.36,1.7-6.26,6-7.76,7.17-2.46,25.17-4.84,31.93,4.15,1.53,2,3.13,4.67,2,7-1.77,3.55-9.43,5.2-24.1,5.2M254.8,65a47.56,47.56,0,0,0-14.36,2.23c-3.85,1.32-5.86,3.8-5.39,6.64.65,3.86,6,7.77,14.85,7.77,13.86,0,21.66-1.56,23.2-4.64.72-1.43.12-3.33-1.86-6-3.44-4.57-10-6-16.44-6"/><path class="cls-2" d="M250.86,78.88c-6.44,0-12.5-3-15-6.28a5,5,0,0,1-1-2.28l.36.11a9.67,9.67,0,0,0,4,4.09c3.77,2.25,10,3.71,14,3.22,2.22-.26,4.4-.3,6.51-.34,4.3-.08,8-.14,9.8-2.22a16.16,16.16,0,0,0,2.45-3.65s.3,0,.27.16a12.48,12.48,0,0,1-2,4.14c-2.07,2.42-6,2.49-10.54,2.57a64.07,64.07,0,0,0-6.42.33,19.53,19.53,0,0,1-2.42.15"/></g><g id="Rock-3" data-name="Rock"><path class="cls-11" d="M354.37,106.45c26.73,0,26.05-5.68,21.74-11.41-6.47-8.61-23.73-6.6-31.36-4-10.73,3.69-6,15.39,9.62,15.39"/><path class="cls-12" d="M339.71,94.7s3.35-4.6,12.35-5.18,15.71-.7,19.91,2,4.53,4.06,4.53,4.06-1.06,3.56-2.26,4.45a15.88,15.88,0,0,1-7.53,2.18,43.18,43.18,0,0,0-8.41.22c-1.74.41-8.92-.4-10.52-1a36.62,36.62,0,0,1-7.27-4.9,4.34,4.34,0,0,1-.8-1.9"/><path class="cls-2" d="M354.37,107c-9.89,0-15.14-4.46-15.83-8.6-.56-3.37,1.7-6.27,6-7.76,7.18-2.47,25.17-4.84,31.93,4.15,1.53,2,3.13,4.66,2,7-1.77,3.55-9.43,5.2-24.1,5.2m4.9-17.64a47.56,47.56,0,0,0-14.36,2.23c-3.85,1.32-5.86,3.8-5.38,6.64.64,3.86,6,7.77,14.84,7.77,13.86,0,21.67-1.56,23.2-4.65.72-1.42.13-3.32-1.86-6-3.43-4.57-10-6-16.44-6"/><path class="cls-2" d="M355.34,103.23c-6.45,0-12.51-3-15-6.28a5,5,0,0,1-1-2.29l.37.12a9.59,9.59,0,0,0,3.94,4.09c3.77,2.24,10,3.71,14.05,3.22a60.58,60.58,0,0,1,6.51-.34c4.3-.08,8-.15,9.8-2.22a15.83,15.83,0,0,0,2.45-3.65s.31,0,.27.15a12.23,12.23,0,0,1-2,4.15c-2.07,2.42-6,2.49-10.54,2.57a60.91,60.91,0,0,0-6.41.33,19.77,19.77,0,0,1-2.42.15"/></g><g id="Rock-4" data-name="Rock"><path class="cls-11" d="M321.09,159.6c26.73,0,26.05-5.67,21.74-11.4-6.47-8.62-23.73-6.61-31.36-4-10.73,3.69-6,15.38,9.62,15.38"/><path class="cls-12" d="M306.43,147.86s3.35-4.61,12.35-5.19,15.71-.7,19.91,2.05,4.53,4.07,4.53,4.07-1.06,3.55-2.26,4.44a15.76,15.76,0,0,1-7.53,2.19,42.41,42.41,0,0,0-8.41.22c-1.74.4-8.92-.4-10.52-1a36.21,36.21,0,0,1-7.27-4.91,4.28,4.28,0,0,1-.8-1.89"/><path class="cls-2" d="M321.09,160.11c-9.89,0-15.14-4.46-15.83-8.61-.56-3.36,1.7-6.26,6-7.75,7.18-2.47,25.17-4.85,31.93,4.15,1.53,2,3.13,4.66,2,7-1.77,3.54-9.43,5.2-24.1,5.2m4.9-17.64a47.91,47.91,0,0,0-14.36,2.22c-3.85,1.32-5.86,3.81-5.38,6.65.64,3.86,5.95,7.77,14.84,7.77,13.86,0,21.67-1.57,23.2-4.65.72-1.43.13-3.32-1.86-6-3.43-4.57-10-6-16.44-6"/><path class="cls-2" d="M322.06,156.38c-6.45,0-12.51-3-15-6.27a5,5,0,0,1-1-2.29l.37.11a9.53,9.53,0,0,0,3.94,4.1c3.77,2.24,10,3.7,14.05,3.22a63.34,63.34,0,0,1,6.51-.35c4.31-.07,8-.14,9.8-2.21a16,16,0,0,0,2.45-3.65s.31,0,.28.15a12.28,12.28,0,0,1-2,4.15c-2.07,2.41-6,2.48-10.54,2.56a63.78,63.78,0,0,0-6.41.34,19.75,19.75,0,0,1-2.42.14"/></g><g id="Rock-5" data-name="Rock"><path class="cls-11" d="M413.21,173.59c26.74,0,26.05-5.68,21.75-11.4-6.48-8.62-23.73-6.61-31.37-4-10.72,3.69-6,15.39,9.62,15.39"/><path class="cls-12" d="M398.55,161.85s3.35-4.61,12.35-5.19,15.71-.7,19.91,2.05,4.53,4.07,4.53,4.07-1,3.55-2.25,4.44a15.8,15.8,0,0,1-7.53,2.18,43.23,43.23,0,0,0-8.42.23c-1.74.4-8.91-.4-10.52-1a36.12,36.12,0,0,1-7.26-4.91,4.22,4.22,0,0,1-.81-1.89"/><path class="cls-2" d="M413.22,174.09c-9.89,0-15.14-4.46-15.84-8.6-.56-3.36,1.7-6.26,6.05-7.76,7.17-2.46,25.16-4.84,31.93,4.16,1.52,2,3.12,4.66,1.95,7-1.77,3.55-9.43,5.2-24.09,5.2m4.89-17.63a47.59,47.59,0,0,0-14.36,2.22c-3.84,1.32-5.86,3.8-5.38,6.64.64,3.86,5.95,7.77,14.85,7.77,13.85,0,21.66-1.56,23.2-4.64.71-1.43.12-3.33-1.86-6-3.44-4.58-10-6-16.45-6"/><path class="cls-2" d="M414.18,170.37c-6.45,0-12.5-3-15-6.28a4.94,4.94,0,0,1-1-2.28l.36.11a9.66,9.66,0,0,0,3.94,4.1c3.77,2.24,10,3.7,14.05,3.21,2.22-.26,4.4-.3,6.51-.34,4.31-.08,8-.14,9.8-2.22a15.83,15.83,0,0,0,2.45-3.65s.31,0,.28.16a12.25,12.25,0,0,1-2,4.14c-2.07,2.42-6,2.49-10.54,2.57a63.94,63.94,0,0,0-6.41.34,22,22,0,0,1-2.42.14"/></g><g id="Rock-6" data-name="Rock"><path class="cls-11" d="M413.78,236.9c26.73,0,26-5.68,21.74-11.4-6.48-8.62-23.73-6.61-31.37-4-10.72,3.69-6,15.39,9.63,15.39"/><path class="cls-12" d="M399.11,225.16s3.35-4.61,12.35-5.19,15.71-.7,19.92,2.05,4.52,4.07,4.52,4.07-1,3.55-2.25,4.44a15.8,15.8,0,0,1-7.53,2.18,43.26,43.26,0,0,0-8.42.23c-1.74.4-8.91-.4-10.52-1a36.12,36.12,0,0,1-7.26-4.91,4.36,4.36,0,0,1-.81-1.89"/><path class="cls-2" d="M413.78,237.4c-9.89,0-15.14-4.46-15.83-8.6-.57-3.36,1.69-6.26,6-7.76,7.17-2.46,25.16-4.84,31.93,4.16,1.53,2,3.13,4.66,1.95,7-1.77,3.55-9.42,5.2-24.09,5.2m4.9-17.63A47.54,47.54,0,0,0,404.32,222c-3.85,1.32-5.86,3.8-5.39,6.64.65,3.86,5.95,7.77,14.85,7.77,13.85,0,21.66-1.56,23.2-4.64.71-1.43.12-3.33-1.86-6-3.44-4.58-10-6-16.44-6"/><path class="cls-2" d="M414.74,233.68c-6.45,0-12.5-3-15-6.28a4.86,4.86,0,0,1-1-2.28l.36.11a9.66,9.66,0,0,0,3.94,4.1c3.77,2.24,10,3.7,14.05,3.21,2.22-.26,4.4-.3,6.51-.34,4.31-.08,8-.14,9.81-2.22a16.16,16.16,0,0,0,2.45-3.65s.3,0,.27.16a12.39,12.39,0,0,1-2,4.14c-2.07,2.42-6,2.49-10.55,2.57a63.94,63.94,0,0,0-6.41.34,22,22,0,0,1-2.42.14"/></g><g id="Rock-7" data-name="Rock"><path class="cls-11" d="M503.33,251.15c26.74,0,26.05-5.68,21.75-11.4-6.48-8.62-23.73-6.61-31.37-4-10.72,3.69-6,15.39,9.62,15.39"/><path class="cls-12" d="M488.67,239.41S492,234.8,501,234.22s15.71-.7,19.91,2.05,4.53,4.07,4.53,4.07-1.05,3.55-2.25,4.44a15.8,15.8,0,0,1-7.53,2.18,43.23,43.23,0,0,0-8.42.23c-1.74.4-8.91-.4-10.52-1a36.12,36.12,0,0,1-7.26-4.91,4.22,4.22,0,0,1-.81-1.89"/><path class="cls-2" d="M503.34,251.65c-9.89,0-15.14-4.46-15.84-8.6-.56-3.36,1.7-6.26,6.05-7.76,7.17-2.46,25.16-4.84,31.93,4.16,1.52,2,3.12,4.66,1.95,7-1.77,3.55-9.43,5.2-24.09,5.2M508.23,234a47.59,47.59,0,0,0-14.36,2.22c-3.84,1.32-5.86,3.8-5.38,6.64.64,3.86,5.95,7.77,14.85,7.77,13.85,0,21.66-1.56,23.2-4.64.71-1.43.12-3.33-1.86-6-3.44-4.58-10-6-16.45-6"/><path class="cls-2" d="M504.3,247.93c-6.45,0-12.5-3-15-6.28a4.94,4.94,0,0,1-1-2.28l.36.11a9.66,9.66,0,0,0,3.94,4.1c3.77,2.24,10,3.7,14.05,3.21,2.22-.26,4.4-.3,6.51-.34,4.31-.08,8-.14,9.8-2.22a15.51,15.51,0,0,0,2.45-3.65s.31,0,.28.16a12.25,12.25,0,0,1-2,4.14c-2.06,2.42-6,2.49-10.54,2.57a63.94,63.94,0,0,0-6.41.34,22,22,0,0,1-2.42.14"/></g><g id="Rock-8" data-name="Rock"><path class="cls-11" d="M507,304.77c26.73,0,26-5.68,21.74-11.41-6.47-8.61-23.73-6.6-31.36-4-10.73,3.69-6,15.39,9.62,15.39"/><path class="cls-12" d="M492.32,293s3.34-4.6,12.34-5.18,15.72-.7,19.92,2.05,4.53,4.06,4.53,4.06-1.06,3.56-2.26,4.45a15.88,15.88,0,0,1-7.53,2.18,43.18,43.18,0,0,0-8.41.22c-1.75.41-8.92-.4-10.52-1a36.33,36.33,0,0,1-7.27-4.9,4.34,4.34,0,0,1-.8-1.9"/><path class="cls-2" d="M507,305.27c-9.89,0-15.14-4.46-15.83-8.6-.56-3.37,1.7-6.27,6-7.76,7.18-2.47,25.17-4.84,31.93,4.15,1.53,2,3.13,4.66,2,7-1.77,3.55-9.43,5.2-24.1,5.2m4.9-17.64a47.56,47.56,0,0,0-14.36,2.23c-3.85,1.32-5.86,3.8-5.38,6.64.64,3.86,5.95,7.77,14.84,7.77,13.86,0,21.67-1.56,23.2-4.65.72-1.42.13-3.32-1.86-6-3.43-4.57-10-6-16.44-6"/><path class="cls-2" d="M508,301.55c-6.45,0-12.51-3-15-6.28a5,5,0,0,1-1-2.29l.37.12a9.59,9.59,0,0,0,3.94,4.09c3.77,2.24,10,3.71,14.05,3.22a60.58,60.58,0,0,1,6.51-.34c4.3-.08,8-.15,9.8-2.22A15.83,15.83,0,0,0,529,294.2s.31,0,.27.15a12.23,12.23,0,0,1-2,4.15c-2.07,2.42-6,2.49-10.54,2.57a60.91,60.91,0,0,0-6.41.33,19.77,19.77,0,0,1-2.42.15"/></g></g></g></svg>