<svg xmlns="http://www.w3.org/2000/svg" viewBox="0 0 308.15 210.55"><defs><style>.cls-1{fill:#aa7272;}.cls-2{fill:#adadad;}.cls-3{fill:#7f7f80;}.cls-4{fill:none;stroke:#000;stroke-miterlimit:10;}</style></defs><title>images</title><g id="_6" data-name="6"><g id="Fore"><path class="cls-1" d="M47.9,191.11c23.54,9.39,59-6,84.49,9.76,6.71,4.16-1.16,3.32,12.45,7.93,18.34,6.21,64.83-11.09,74.5-9.33,14.89,2.7,54.12,14.35,62.29-10s1.79-30.51-2.81-36.3-61.33-12.25-64.91-12.06-15.83,3.56-27.06,5.45-90.38,1.13-91.91,1-24.08,1.4-26.08,5S47.9,191.11,47.9,191.11Z"/><path class="cls-2" d="M142.1,208.8s-16.29-5.55-20.95-11.24-13.18-12.29-13.7-14.17a45,45,0,0,1-.79-6.11l.12,1.48c0-.1-.06-.21-.09-.31l-2.24-94.69A13.58,13.58,0,0,1,104,81.5c-.51-5,1.77-10,5.62-11.76L139.2,56.31A7,7,0,0,1,147,57.66l-.06,0S153.57,64.09,159,69.8c7.53,8,10.32,21.51,10.32,21.51"/><path class="cls-3" d="M171.23,176.29l-1.35-85c-1.57-5.69-4.09,1.07-10.08-1L138.31,97c-1.93.87-2.64.85-2.86,1.31.16.15.31.29.46.45-.15-.16-.3-.3-.46-.45-.19.42,0,1.24.16,3.54l3.45,75.46,3.62,31.52c2.25,2.41,27.2-17.19,27.2-17.19C174.32,189.59,170.6,183.85,171.23,176.29Z"/><path class="cls-4" d="M159.47,90.27c6,2.11,8.51-4.65,10.08,1l1.35,85c-.63,7.56,3.09,13.3-1.35,15.32,0,0-25,19.6-27.2,17.19l-3.62-31.52"/><path class="cls-4" d="M159.47,90.27,138,97c-3.69,1.68-3,0-2.7,4.85l3.45,75.46"/><path class="cls-4" d="M107,178.76c0-.1-.07-.21-.1-.31l-2.23-94.69a13.61,13.61,0,0,1-.42-2.26c-.5-5,1.77-10,5.63-11.76l29.54-13.43a7,7,0,0,1,7.76,1.35"/><path class="cls-4" d="M169.55,91.31s-2.78-13.56-10.31-21.51c-5.41-5.71-12.08-12.17-12.08-12.17"/><path d="M135.22,99.07a13.9,13.9,0,0,0-4.75-3.52,39.19,39.19,0,0,0-5.83-1.73h0a39.42,39.42,0,0,1,6,1.26,14.57,14.57,0,0,1,5.29,3.3Z"/><path d="M104.77,81.35a4.29,4.29,0,0,0,1.45,2.17c.34.32.72.61,1.11.91a6.14,6.14,0,0,1,1.09.95,6.09,6.09,0,0,0-1.23-.74c-.43-.23-.86-.45-1.28-.72a5.14,5.14,0,0,1-2.09-2.27Z"/><path class="cls-4" d="M142.35,208.8s-16.28-5.55-20.94-11.24-13.18-12.29-13.7-14.17a43.4,43.4,0,0,1-.79-6.11"/><path class="cls-2" d="M50.74,193.08c-.05.28-18.43-2.88-23-8.86-4.66-5.55-13.24-12.46-13.53-14.44a42.57,42.57,0,0,1-.07-6.34c0,.51,0,1-.07,1.53l-.06-.32c3.29-32.66,5.34-65.21,6.47-97.59a14.13,14.13,0,0,1-.29-2.33C20,59.58,22.55,54.51,26.53,53a168.6,168.6,0,0,1,30.52-8.91c2.8-.51,5.66.89,7.76,3.31l-.06,0s6.33,7.87,11.43,14.43C83.27,71,85.39,82.87,85.4,82.87"/><path class="cls-3" d="M84.89,155.66C84.76,131,85.05,106.76,86,83c-1.3-5.14-4.19,0-10.14-3a214.91,214.91,0,0,0-22.08,3c-2,.63-2.71.55-3,1l.43.48L50.82,84c-.23.39,0,1.22-.06,3.48q-.49,37.13-1.21,74.59.9,15.54,1.87,30.93c2.76,2.08,32.08-23.53,31.79-23.41C88.22,166.43,84.08,162.5,84.89,155.66Z"/><path class="cls-4" d="M75.52,80c6,3,8.84-2.18,10.14,3-.94,23.81-1.24,48.07-1.13,72.81-.82,6.84,3.32,10.79-1.69,13.91.29-.11-29.05,25.47-31.81,23.38q-1-15.4-1.84-31"/><path class="cls-4" d="M75.52,80a214.24,214.24,0,0,0-22.08,3c-3.82,1.24-3-.26-3,4.46q-.51,37.17-1.24,74.66"/><path class="cls-4" d="M14.39,165c0-.11-.05-.21-.07-.32,3.27-32.67,5.32-65.21,6.45-97.59a14.13,14.13,0,0,1-.29-2.33c-.21-5.15,2.33-10.22,6.3-11.75a167.92,167.92,0,0,1,30.53-8.86c2.8-.51,5.66.89,7.76,3.31"/><path class="cls-4" d="M85.66,82.93s-2.13-11.88-9.22-21.09C71.34,55.27,65,47.4,65,47.4"/><path d="M50.59,84.76a15.06,15.06,0,0,0-4.74-4,42.93,42.93,0,0,0-5.67-2.21h0A40.58,40.58,0,0,1,46,80.24a15.49,15.49,0,0,1,5.24,3.82Z"/><path d="M20.92,64.59a4.57,4.57,0,0,0,1.39,2.3c.33.34.69.65,1.05,1a6.2,6.2,0,0,1,1,1,5.6,5.6,0,0,0-1.15-.79c-.4-.24-.8-.47-1.2-.75a4.94,4.94,0,0,1-2-2.45Z"/><path class="cls-4" d="M51,193c-.05.28-18.43-2.85-23-8.82-4.66-5.55-13.24-12.44-13.54-14.42a42.56,42.56,0,0,1-.07-6.34"/><path class="cls-2" d="M34.06,17.63a99.27,99.27,0,0,1,12.28-7.39c7.06-3.59,19.84-8,21.74-8a33.46,33.46,0,0,1,5.86,1L72.55,3h.32l86.5,27.72a10.2,10.2,0,0,1,2.22.24,10.57,10.57,0,0,1,8.32,10.3V79.8a10.54,10.54,0,0,1-4.42,8.56l0-.06S157,94,149.58,98.42c-10.28,6.19-23.68,5.08-23.68,5.08"/><path class="cls-3" d="M125.9,44.25c-18.24-.48-8.59-.65-9.49,3.61-.6,2.84-.31,29.4-.06,46.71l9.55,8.93s13.4,1.11,23.68-5.08c7.38-4.45,16-10.12,16-10.12l0,.06a10.54,10.54,0,0,0,4.42-8.56V41.23a10.57,10.57,0,0,0-8.32-10.3c-.18,0-.37-.06-.56-.09-4.76,2.13-5.74,4.8-12.85,6.88C138,40.69,144.82,44.76,125.9,44.25Z"/><path class="cls-2" d="M131,92.15c-4.38,6.27.71,11.35-5.09,11.35L39.4,75.79c-6.58-3.14-10.54-4.74-10.54-10.53V26.69a10.56,10.56,0,0,1,5.2-9.07l.06,0a10.43,10.43,0,0,1,5.28-1.42L62.33,23.5l61.29,18.81c1.57,1.35,4.19,1.69,5.08,1.94h0a10.59,10.59,0,0,1,7.73,10.15Z"/><path class="cls-4" d="M131,92.14c-4.37,6.28.72,11.36-5.08,11.36L39.4,75.79c-6.58-3.14-10.54-4.74-10.54-10.53V26.69a10.56,10.56,0,0,1,5.2-9.07l.06,0a10.43,10.43,0,0,1,5.28-1.42L62.33,23.5"/><path class="cls-4" d="M131,92.14l5.46-37.74a10.59,10.59,0,0,0-7.73-10.15h0c-.89-.25-3.51-.59-5.08-1.93L62.33,23.5"/><path class="cls-4" d="M72.55,3h.32l86.5,27.72a10.2,10.2,0,0,1,2.22.24,10.57,10.57,0,0,1,8.32,10.3V79.8a10.54,10.54,0,0,1-4.42,8.56"/><path class="cls-4" d="M125.9,103.5s13.4,1.11,23.68-5.08c7.38-4.45,16-10.12,16-10.12"/><path d="M129.57,43.9a11.13,11.13,0,0,0,6,.12,44.41,44.41,0,0,0,5.8-2.28h0a44.89,44.89,0,0,1-5.66,2.76,12,12,0,0,1-6.37.37Z"/><path d="M161.61,31.43a4.71,4.71,0,0,0-2.68,1.1c-.43.31-.84.65-1.25,1a7.66,7.66,0,0,1-1.3,1,8.12,8.12,0,0,0,1.13-1.14c.35-.4.71-.8,1.1-1.19a8.29,8.29,0,0,1,1.28-1.06,4,4,0,0,1,1.67-.66Z"/><path class="cls-4" d="M34.06,17.63a99.27,99.27,0,0,1,12.28-7.39c7.06-3.59,19.84-8,21.74-8a33.46,33.46,0,0,1,5.86,1"/></g></g></svg>