<svg xmlns="http://www.w3.org/2000/svg" viewBox="0 0 566.93 566.93"><defs><style>.cls-1{fill:#aa7272;}.cls-2{fill:#adadad;}.cls-3{fill:#7f7f80;}.cls-4{fill:none;stroke:#000;stroke-miterlimit:10;}</style></defs><title>7b</title><g id="_7" data-name="7"><g id="Fore"><path class="cls-1" d="M216.9,344.08c23.55,9.38,59-6,84.49,9.76,6.72,4.15-1.16,3.32,12.46,7.92,18.34,6.22,64.82-11.08,74.49-9.33,14.9,2.71,54.12,14.36,62.29-10s1.79-30.51-2.81-36.31-61.33-12.24-64.9-12-15.83,3.56-27.07,5.45-90.37,1.13-91.91,1-24.07,1.4-26.08,5S216.9,344.08,216.9,344.08Z"/><path class="cls-2" d="M311.1,361.76s-16.28-5.54-20.94-11.23-13.18-12.3-13.7-14.17a43.4,43.4,0,0,1-.79-6.11l.11,1.47-.09-.3-2.23-94.69a12.82,12.82,0,0,1-.42-2.26c-.51-5,1.77-10,5.63-11.77l29.54-13.43a7.05,7.05,0,0,1,7.76,1.36l-.06,0s6.67,6.46,12.07,12.17c7.53,7.95,10.32,21.51,10.32,21.51"/><path class="cls-3" d="M340.23,329.25l-1.34-85c-1.58-5.7-4.09,1.07-10.08-1l-21.5,6.7c-1.92.87-2.64.85-2.85,1.31l.45.44-.45-.44c-.2.42,0,1.24.15,3.54l3.45,75.46,3.63,31.51c2.24,2.42,27.2-17.19,27.2-17.19C343.32,342.56,339.61,336.82,340.23,329.25Z"/><path class="cls-4" d="M328.48,243.24c6,2.11,8.51-4.66,10.08,1l1.34,85c-.62,7.57,3.09,13.31-1.34,15.32,0,0-24.95,19.61-27.2,17.19l-3.63-31.51"/><path class="cls-4" d="M328.48,243.24l-21.5,6.7c-3.69,1.67-3,.05-2.69,4.85l3.44,75.46"/><path class="cls-4" d="M276,331.72l-.09-.3-2.23-94.69a12.82,12.82,0,0,1-.42-2.26c-.51-5,1.77-10,5.63-11.77l29.53-13.43a7,7,0,0,1,7.76,1.36"/><path class="cls-4" d="M338.56,244.28s-2.79-13.56-10.32-21.51c-5.41-5.71-12.08-12.17-12.08-12.17"/><path d="M304.22,252a13.74,13.74,0,0,0-4.75-3.53,39.16,39.16,0,0,0-5.83-1.72h0a40.82,40.82,0,0,1,6,1.27,14.57,14.57,0,0,1,5.29,3.3Z"/><path d="M273.77,234.31a4.45,4.45,0,0,0,1.45,2.18c.35.32.73.61,1.11.9a6.25,6.25,0,0,1,1.09,1,5.84,5.84,0,0,0-1.22-.74c-.43-.23-.86-.46-1.28-.72a5.1,5.1,0,0,1-2.1-2.27Z"/><path class="cls-4" d="M311.36,361.76s-16.29-5.54-20.95-11.23-13.18-12.3-13.69-14.17a43.4,43.4,0,0,1-.79-6.11"/><path class="cls-2" d="M219.74,346.05c-.05.28-18.43-2.88-23-8.86-4.67-5.56-13.24-12.46-13.54-14.44a44,44,0,0,1-.07-6.34l-.06,1.53a3,3,0,0,1-.06-.32c3.28-32.67,5.33-65.21,6.46-97.59a14.25,14.25,0,0,1-.28-2.33c-.22-5.15,2.33-10.22,6.3-11.76A168.94,168.94,0,0,1,226.06,197c2.79-.51,5.66.89,7.75,3.31l-.06-.05s6.33,7.88,11.43,14.44c7.09,9.22,9.21,21.11,9.22,21.11"/><path class="cls-3" d="M253.89,308.63c-.12-24.69.17-48.9,1.11-72.66-1.31-5.14-4.19,0-10.14-3a214.17,214.17,0,0,0-22.08,3c-2,.63-2.72.55-3,1,.14.16.29.31.43.48-.14-.17-.29-.32-.43-.48-.22.39,0,1.22,0,3.48q-.5,37.13-1.21,74.59.88,15.54,1.86,30.93c2.76,2.08,32.09-23.53,31.79-23.41C257.22,319.39,253.08,315.47,253.89,308.63Z"/><path class="cls-4" d="M244.53,232.93c5.94,3,8.83-2.18,10.13,3-.94,23.81-1.24,48.08-1.13,72.82-.81,6.84,3.32,10.79-1.69,13.91.3-.12-29,25.47-31.8,23.38q-1-15.42-1.84-31"/><path class="cls-4" d="M244.53,232.93a214.8,214.8,0,0,0-22.09,3c-3.82,1.23-3-.26-3,4.46q-.51,37.15-1.24,74.66"/><path class="cls-4" d="M183.39,318c0-.11,0-.22-.06-.32,3.27-32.67,5.31-65.22,6.44-97.59a13.23,13.23,0,0,1-.28-2.33c-.22-5.15,2.32-10.22,6.3-11.75a167.13,167.13,0,0,1,30.53-8.86c2.79-.51,5.66.89,7.75,3.31"/><path class="cls-4" d="M254.66,235.89s-2.13-11.87-9.22-21.09c-5.1-6.56-11.42-14.44-11.43-14.43"/><path d="M219.6,237.73a15.1,15.1,0,0,0-4.75-4,42.93,42.93,0,0,0-5.67-2.21h0a41.08,41.08,0,0,1,5.83,1.72,15.46,15.46,0,0,1,5.23,3.82C220,237.26,219.81,237.49,219.6,237.73Z"/><path d="M189.93,217.56a4.48,4.48,0,0,0,1.38,2.3c.33.34.69.65,1.05,1a6.33,6.33,0,0,1,1,1,5.88,5.88,0,0,0-1.15-.79c-.41-.24-.81-.48-1.2-.75a5,5,0,0,1-2-2.45Z"/><path class="cls-4" d="M220,346c0,.28-18.43-2.85-23-8.82-4.67-5.55-13.25-12.45-13.55-14.42a44.18,44.18,0,0,1-.07-6.35"/><path class="cls-2" d="M203.06,170.59a101.39,101.39,0,0,1,12.29-7.39c7.06-3.58,19.83-7.95,21.74-7.95a33.48,33.48,0,0,1,5.85,1l-1.38-.34h.31l86.51,27.72a10.11,10.11,0,0,1,2.21.24,10.57,10.57,0,0,1,8.32,10.29v38.57a10.58,10.58,0,0,1-4.41,8.57l.05-.06s-8.58,5.67-16,10.12c-10.28,6.19-23.68,5.08-23.68,5.08"/><path class="cls-3" d="M294.91,197.22c-18.24-.48-8.6-.65-9.49,3.61-.6,2.84-.32,29.39-.06,46.71l9.55,8.93s13.4,1.11,23.68-5.08c7.38-4.45,16-10.12,16-10.12l-.05.06a10.58,10.58,0,0,0,4.41-8.57V194.19a10.57,10.57,0,0,0-8.32-10.29c-.18,0-.37-.06-.55-.09-4.77,2.13-5.74,4.8-12.85,6.87C307,193.65,313.82,197.72,294.91,197.22Z"/><path class="cls-2" d="M300,245.11c-4.37,6.28.71,11.36-5.08,11.36L208.4,228.76c-6.57-3.14-10.53-4.74-10.53-10.53V179.66a10.54,10.54,0,0,1,5.2-9.07s0,0,.06,0a10.37,10.37,0,0,1,5.27-1.43l22.94,7.35,61.29,18.81c1.57,1.35,4.18,1.69,5.08,1.94h0a10.58,10.58,0,0,1,7.72,10.15Z"/><path class="cls-4" d="M300,245.11c-4.37,6.28.71,11.36-5.08,11.36L208.4,228.76c-6.58-3.15-10.53-4.74-10.53-10.53V179.66a10.54,10.54,0,0,1,5.2-9.07s0,0,.06,0a10.37,10.37,0,0,1,5.27-1.43l22.94,7.35"/><path class="cls-4" d="M300,245.11l5.45-37.74a10.58,10.58,0,0,0-7.72-10.15h0c-.9-.25-3.51-.59-5.08-1.94l-61.29-18.81"/><path class="cls-4" d="M241.56,156h.31l86.51,27.72a10.11,10.11,0,0,1,2.21.24,10.57,10.57,0,0,1,8.32,10.29v38.57a10.58,10.58,0,0,1-4.41,8.57"/><path class="cls-4" d="M294.91,256.47s13.4,1.11,23.68-5.08c7.38-4.45,16-10.12,16-10.12"/><path d="M298.57,196.87a11.17,11.17,0,0,0,6,.12,45.74,45.74,0,0,0,5.79-2.28h0a44.75,44.75,0,0,1-5.65,2.76,12,12,0,0,1-6.38.37Z"/><path d="M330.62,184.4a4.65,4.65,0,0,0-2.68,1.1c-.43.31-.84.65-1.26,1a6.78,6.78,0,0,1-1.3.95,7.1,7.1,0,0,0,1.13-1.13c.35-.4.71-.8,1.1-1.19a9.55,9.55,0,0,1,1.28-1.07,4,4,0,0,1,1.67-.65Z"/><path class="cls-4" d="M203.06,170.59a101.39,101.39,0,0,1,12.29-7.39c7.06-3.58,19.83-7.95,21.74-7.95a33.48,33.48,0,0,1,5.85,1"/><path class="cls-2" d="M351.53,124.18l1.23.3Z"/></g></g></svg>