<svg xmlns="http://www.w3.org/2000/svg" xmlns:xlink="http://www.w3.org/1999/xlink" viewBox="0 0 566.93 566.93"><defs><style>.cls-1,.cls-9{fill:none;}.cls-2{fill:#1d1d1b;}.cls-3{fill:#eb9899;}.cls-4{fill:#f4ce6f;}.cls-5{fill:#eebe55;}.cls-6{fill:#bca061;}.cls-7{fill:url(#RBDots);}.cls-8{fill:#161616;}.cls-9{stroke:#000;stroke-miterlimit:10;stroke-width:0.5px;}.cls-10{fill:#b79291;}.cls-11{fill:#a37979;}.cls-12{fill:#6e7891;}.cls-13{fill:#98a1b7;}</style><pattern id="RBDots" data-name="RBDots" width="28.8" height="28.8" patternTransform="matrix(0.95, 0.28, -0.32, 0.83, -59.22, 36.76)" patternUnits="userSpaceOnUse" viewBox="0 0 28.8 28.8"><rect class="cls-1" width="28.8" height="28.8"/><circle class="cls-2" cx="28.8" cy="28.8" r="0.72"/><path class="cls-2" d="M14.4,29.52a.72.72,0,1,0-.72-.72A.72.72,0,0,0,14.4,29.52Z"/><path class="cls-2" d="M28.8,15.12a.72.72,0,1,0-.72-.72A.72.72,0,0,0,28.8,15.12Z"/><path class="cls-2" d="M14.4,15.12a.72.72,0,1,0-.72-.72A.72.72,0,0,0,14.4,15.12Z"/><path class="cls-2" d="M7.2,22.32a.72.72,0,1,0-.72-.72A.72.72,0,0,0,7.2,22.32Z"/><path class="cls-2" d="M21.6,22.32a.72.72,0,1,0-.72-.72A.72.72,0,0,0,21.6,22.32Z"/><path class="cls-2" d="M14.4,22.32a.72.72,0,1,0-.72-.72A.72.72,0,0,0,14.4,22.32Z"/><path class="cls-2" d="M7.2,29.52a.72.72,0,1,0-.72-.72A.72.72,0,0,0,7.2,29.52Z"/><path class="cls-2" d="M21.82,29.52a.72.72,0,1,0-.72-.72A.72.72,0,0,0,21.82,29.52Z"/><path class="cls-2" d="M7.2,7.92a.72.72,0,1,0-.72-.72A.72.72,0,0,0,7.2,7.92Z"/><path class="cls-2" d="M7.2,15.12a.72.72,0,1,0-.72-.72A.72.72,0,0,0,7.2,15.12Z"/><path class="cls-2" d="M21.6,15.12a.72.72,0,1,0-.72-.72A.72.72,0,0,0,21.6,15.12Z"/><path class="cls-2" d="M14.4,7.92a.72.72,0,1,0-.72-.72A.72.72,0,0,0,14.4,7.92Z"/><path class="cls-2" d="M28.8,7.92a.72.72,0,1,0-.72-.72A.72.72,0,0,0,28.8,7.92Z"/><path class="cls-2" d="M21.6,7.92a.72.72,0,1,0-.72-.72A.72.72,0,0,0,21.6,7.92Z"/><path class="cls-2" d="M28.8,22.32a.72.72,0,1,0-.72-.72A.72.72,0,0,0,28.8,22.32Z"/><circle class="cls-2" cy="28.8" r="0.72"/><path class="cls-2" d="M0,15.12a.72.72,0,0,0,0-1.44.72.72,0,0,0-.72.72A.72.72,0,0,0,0,15.12Z"/><path class="cls-2" d="M0,7.92A.72.72,0,0,0,0,6.48a.72.72,0,0,0-.72.72A.72.72,0,0,0,0,7.92Z"/><path class="cls-2" d="M0,22.32a.72.72,0,0,0,0-1.44.72.72,0,0,0-.72.72A.72.72,0,0,0,0,22.32Z"/><circle class="cls-2" cx="28.8" r="0.72"/><path class="cls-2" d="M14.4.72A.72.72,0,0,0,15.12,0a.72.72,0,0,0-.72-.72.72.72,0,0,0-.72.72A.72.72,0,0,0,14.4.72Z"/><path class="cls-2" d="M7.2.72A.72.72,0,0,0,7.92,0,.72.72,0,0,0,7.2-.72.72.72,0,0,0,6.48,0,.72.72,0,0,0,7.2.72Z"/><path class="cls-2" d="M21.82.72A.72.72,0,0,0,22.54,0a.72.72,0,0,0-.72-.72A.72.72,0,0,0,21.1,0,.72.72,0,0,0,21.82.72Z"/><circle class="cls-2" r="0.72"/></pattern></defs><title>8</title><g id="_7" data-name="7"><g id="Back"><rect class="cls-3" x="-566.93" width="566.93" height="566.93"/></g></g><g id="_8" data-name="8"><g id="Back-2" data-name="Back"><rect class="cls-3" width="566.93" height="566.93"/><polygon class="cls-4" points="522.54 90.23 522.54 90.23 522.54 90.23 452.63 63.12 382.72 91.52 382.72 91.52 382.72 91.52 382.72 91.52 382.72 91.52 452.63 118.62 522.54 90.23 522.54 90.23 522.54 90.23"/><polygon class="cls-5" points="478.11 121.06 478.11 121.06 478.11 121.06 434.5 104.15 390.89 121.87 390.89 121.87 390.89 121.87 390.89 121.87 390.89 121.87 434.5 138.78 478.11 121.06 478.11 121.06 478.11 121.06"/><polygon class="cls-4" points="503.43 469.74 503.43 469.74 503.43 469.74 468.31 456.13 433.19 470.39 433.19 470.39 433.19 470.39 433.19 470.39 433.19 470.39 468.31 484.01 503.43 469.74 503.43 469.74 503.43 469.74"/><path class="cls-6" d="M477.82,459.94c-5.79,0-10.58,3.13-11.47,7.23h-5.8c-.34,0-.61.61-.61,1.37s.27,1.37.61,1.37h5.8c.89,4.1,5.68,7.23,11.47,7.23,6.43,0,11.64-3.85,11.64-8.6S484.25,459.94,477.82,459.94Z"/><polygon class="cls-7" points="503.43 469.74 503.43 469.74 503.43 469.74 468.31 456.13 433.19 470.39 433.19 470.39 433.19 470.39 433.19 470.39 433.19 470.39 468.31 484.01 503.43 469.74 503.43 469.74 503.43 469.74"/><path class="cls-8" d="M458.46,446.28V469c0,.57,1,1,2.3,1s2.3-.46,2.3-1V446.28Z"/><path class="cls-4" d="M460.76,411.45a11.92,11.92,0,0,0-3.43.52c0,4.8-3,8.68-6.73,8.68a5.42,5.42,0,0,1-2.38-.57,24.19,24.19,0,0,0-2.68,11.26c0,11,6.81,19.9,15.22,19.9S476,442.33,476,431.34,469.16,411.45,460.76,411.45Z"/><path class="cls-6" d="M466.87,413.12a17.82,17.82,0,0,0-6.2,2.56,11.92,11.92,0,0,1,.09,1.35c0,4.84-3,8.76-6.74,8.76a5.26,5.26,0,0,1-2-.38,31.48,31.48,0,0,0-2.72,7.46,30.86,30.86,0,0,0-.55,10.76c2.79,4.63,7.11,7.61,12,7.61,8.4,0,15.22-8.91,15.22-19.9C476,423.19,472.23,416.19,466.87,413.12Z"/><path class="cls-9" d="M460.76,411.45a11.92,11.92,0,0,0-3.43.52c0,4.8-3,8.68-6.73,8.68a5.42,5.42,0,0,1-2.38-.57,24.19,24.19,0,0,0-2.68,11.26c0,11,6.81,19.9,15.22,19.9S476,442.33,476,431.34,469.16,411.45,460.76,411.45Z"/><path class="cls-7" d="M158.49,463.56C165.11,459.3,169,454,169,448.27c0-14.09-23.63-25.51-52.77-25.51S63.5,434.18,63.5,448.27c0,13.21,20.79,24.08,47.43,25.38a10.52,10.52,0,0,0-2,6c0,9.87,15.43,17.86,34.47,17.86s34.47-8,34.47-17.86C177.88,472.57,170,466.46,158.49,463.56Z"/><path class="cls-10" d="M111.39,59.77c-14.52,0-26.3,6.06-26.3,13.53s11.78,13.52,26.3,13.52,26.31-6,26.31-13.52S125.92,59.77,111.39,59.77Z"/><path class="cls-11" d="M126.06,59.77c-2.6,0-4.7,1.09-4.7,2.42s2.1,2.42,4.7,2.42,4.7-1.08,4.7-2.42S128.65,59.77,126.06,59.77Z"/><path class="cls-11" d="M97.46,65.28c0-3-4.79-5.51-10.7-5.51s-10.7,2.47-10.7,5.51,4.79,5.5,10.7,5.5S97.46,68.32,97.46,65.28Z"/><g id="Rock"><path class="cls-12" d="M44.88,280.43c26.73,0,26.05-5.68,21.74-11.4-6.47-8.62-23.73-6.61-31.37-4-10.72,3.69-6,15.39,9.63,15.39"/><path class="cls-13" d="M30.21,268.68s3.35-4.6,12.35-5.18,15.71-.7,19.92,2.05S67,269.62,67,269.62s-1.06,3.55-2.26,4.44a15.76,15.76,0,0,1-7.53,2.18,43.18,43.18,0,0,0-8.41.22c-1.75.41-8.92-.4-10.53-1A36.12,36.12,0,0,1,31,270.58a4.38,4.38,0,0,1-.81-1.9"/><path class="cls-2" d="M44.88,280.93c-9.89,0-15.14-4.46-15.83-8.6-.56-3.36,1.7-6.26,6-7.76,7.17-2.46,25.17-4.84,31.93,4.16,1.53,2,3.13,4.66,2,7-1.77,3.55-9.43,5.2-24.1,5.2m4.9-17.63a47.59,47.59,0,0,0-14.36,2.22c-3.85,1.32-5.86,3.8-5.39,6.64.65,3.86,6,7.77,14.85,7.77,13.86,0,21.66-1.56,23.2-4.64.72-1.43.12-3.33-1.86-6-3.44-4.58-10-6-16.44-6"/><path class="cls-2" d="M45.84,277.21c-6.44,0-12.5-3-15-6.28a5,5,0,0,1-1-2.28l.36.11a9.72,9.72,0,0,0,4,4.1c3.77,2.24,10,3.7,14,3.21,2.22-.26,4.4-.3,6.51-.34,4.3-.08,8-.14,9.8-2.22a16.16,16.16,0,0,0,2.45-3.65s.3,0,.27.16a12.39,12.39,0,0,1-2,4.14c-2.07,2.42-6,2.49-10.54,2.57a64.13,64.13,0,0,0-6.42.34,21.68,21.68,0,0,1-2.42.14"/></g><g id="Rock-2" data-name="Rock"><path class="cls-12" d="M93.17,318.66c26.73,0,26.05-5.68,21.74-11.41-6.47-8.62-23.73-6.61-31.36-4-10.73,3.69-6,15.39,9.62,15.39"/><path class="cls-13" d="M78.5,306.91s3.35-4.61,12.35-5.19,15.71-.7,19.92,2,4.53,4.07,4.53,4.07-1.06,3.55-2.26,4.44a15.76,15.76,0,0,1-7.53,2.19,42.41,42.41,0,0,0-8.41.22c-1.75.4-8.92-.4-10.53-1a36.12,36.12,0,0,1-7.26-4.91,4.36,4.36,0,0,1-.81-1.89"/><path class="cls-2" d="M93.17,319.16c-9.89,0-15.14-4.46-15.83-8.61-.56-3.36,1.7-6.26,6-7.75,7.17-2.47,25.17-4.85,31.93,4.15,1.53,2,3.13,4.66,2,7-1.77,3.54-9.43,5.2-24.1,5.2m4.9-17.64a47.91,47.91,0,0,0-14.36,2.22c-3.85,1.32-5.86,3.81-5.39,6.65.65,3.86,6,7.77,14.85,7.77,13.86,0,21.66-1.57,23.2-4.65.72-1.43.12-3.32-1.86-6-3.44-4.57-10-6-16.44-6"/><path class="cls-2" d="M94.13,315.43c-6.44,0-12.5-3-15-6.27a5,5,0,0,1-1-2.29l.36.11a9.66,9.66,0,0,0,4,4.1c3.77,2.24,10,3.7,14,3.22A63.34,63.34,0,0,1,103,314c4.3-.07,8-.14,9.8-2.21a16.38,16.38,0,0,0,2.45-3.65s.3,0,.27.15a12.23,12.23,0,0,1-2,4.15c-2.07,2.41-6,2.48-10.54,2.56a63.78,63.78,0,0,0-6.41.34,19.8,19.8,0,0,1-2.43.14"/></g><g id="Rock-3" data-name="Rock"><path class="cls-12" d="M165.17,292.27c26.73,0,26.05-5.68,21.74-11.41-6.47-8.61-23.73-6.61-31.36-4-10.73,3.69-6,15.39,9.62,15.39"/><path class="cls-13" d="M150.5,280.52s3.35-4.6,12.35-5.18,15.71-.7,19.92,2.05,4.53,4.06,4.53,4.06S186.24,285,185,285.9a15.88,15.88,0,0,1-7.53,2.18,43.18,43.18,0,0,0-8.41.22c-1.75.4-8.92-.4-10.53-1a36.53,36.53,0,0,1-7.26-4.9,4.42,4.42,0,0,1-.81-1.9"/><path class="cls-2" d="M165.17,292.77c-9.89,0-15.14-4.46-15.83-8.61-.56-3.36,1.7-6.26,6-7.75,7.17-2.47,25.17-4.84,31.93,4.15,1.53,2,3.13,4.66,2,7-1.77,3.55-9.43,5.2-24.1,5.2m4.9-17.64a47.91,47.91,0,0,0-14.36,2.22c-3.85,1.33-5.86,3.81-5.39,6.65.65,3.86,6,7.77,14.85,7.77,13.86,0,21.66-1.57,23.2-4.65.72-1.43.12-3.32-1.86-6-3.44-4.57-10-6-16.44-6"/><path class="cls-2" d="M166.13,289.05c-6.44,0-12.5-3-15-6.28a5,5,0,0,1-1-2.29l.36.11a9.66,9.66,0,0,0,3.95,4.1c3.77,2.24,10,3.71,14.05,3.22a60.58,60.58,0,0,1,6.51-.34c4.3-.08,8-.15,9.8-2.22a16.38,16.38,0,0,0,2.45-3.65s.3,0,.27.15a12.23,12.23,0,0,1-2,4.15c-2.07,2.41-6,2.48-10.54,2.57a60.91,60.91,0,0,0-6.41.33,19.81,19.81,0,0,1-2.43.15"/></g><g id="Rock-4" data-name="Rock"><path class="cls-12" d="M221.85,328c26.73,0,26.05-5.68,21.74-11.41-6.47-8.61-23.73-6.6-31.36-4-10.73,3.69-6,15.39,9.62,15.39"/><path class="cls-13" d="M207.18,316.21s3.35-4.6,12.35-5.18,15.71-.7,19.92,2.05,4.53,4.07,4.53,4.07-1.06,3.55-2.26,4.44a15.88,15.88,0,0,1-7.53,2.18,43.18,43.18,0,0,0-8.41.22c-1.75.41-8.92-.4-10.53-1a36.1,36.1,0,0,1-7.26-4.9,4.38,4.38,0,0,1-.81-1.9"/><path class="cls-2" d="M221.85,328.46c-9.89,0-15.14-4.46-15.83-8.6-.56-3.36,1.7-6.27,6-7.76,7.18-2.47,25.17-4.84,31.93,4.15,1.53,2,3.13,4.67,2,7-1.77,3.55-9.43,5.2-24.1,5.2m4.9-17.64a47.56,47.56,0,0,0-14.36,2.23c-3.85,1.32-5.86,3.8-5.38,6.64.64,3.86,6,7.77,14.84,7.77,13.86,0,21.67-1.56,23.2-4.65.72-1.42.13-3.32-1.86-6-3.43-4.57-10-6-16.44-6"/><path class="cls-2" d="M222.81,324.74c-6.44,0-12.5-3-15-6.28a5,5,0,0,1-1-2.29l.37.12a9.54,9.54,0,0,0,3.94,4.09c3.77,2.24,10,3.71,14.05,3.22a63.28,63.28,0,0,1,6.51-.34c4.3-.08,8-.15,9.8-2.22a16.16,16.16,0,0,0,2.45-3.65s.3,0,.27.16a12.28,12.28,0,0,1-2,4.14c-2.07,2.42-6,2.49-10.54,2.57a63.73,63.73,0,0,0-6.41.33,19.81,19.81,0,0,1-2.43.15"/></g><g id="Rock-5" data-name="Rock"><path class="cls-12" d="M289.76,301.57c26.74,0,26.05-5.68,21.75-11.4-6.48-8.62-23.73-6.61-31.37-4-10.72,3.69-6,15.39,9.62,15.39"/><path class="cls-13" d="M275.1,289.83s3.35-4.61,12.35-5.19,15.71-.7,19.91,2.05,4.53,4.07,4.53,4.07-1.05,3.55-2.25,4.44a15.8,15.8,0,0,1-7.53,2.18,43.23,43.23,0,0,0-8.42.23c-1.74.4-8.91-.4-10.52-1a36.12,36.12,0,0,1-7.26-4.91,4.22,4.22,0,0,1-.81-1.89"/><path class="cls-2" d="M289.77,302.07c-9.89,0-15.14-4.46-15.83-8.6-.57-3.36,1.69-6.26,6-7.76,7.17-2.46,25.16-4.84,31.93,4.16,1.52,2,3.12,4.66,1.95,7-1.77,3.55-9.42,5.2-24.09,5.2m4.89-17.63a47.47,47.47,0,0,0-14.35,2.22c-3.85,1.32-5.86,3.8-5.39,6.64.65,3.86,5.95,7.77,14.85,7.77,13.85,0,21.66-1.56,23.2-4.64.71-1.43.12-3.33-1.86-6-3.44-4.58-10-6-16.45-6"/><path class="cls-2" d="M290.73,298.35c-6.45,0-12.5-3-15-6.28a4.94,4.94,0,0,1-1-2.28l.36.11A9.66,9.66,0,0,0,279,294c3.77,2.24,10,3.7,14,3.21,2.22-.26,4.4-.3,6.51-.34,4.31-.08,8-.14,9.8-2.22a15.51,15.51,0,0,0,2.45-3.65s.31,0,.28.16a12.25,12.25,0,0,1-2,4.14c-2.06,2.42-6,2.49-10.54,2.57a63.94,63.94,0,0,0-6.41.34,22,22,0,0,1-2.42.14"/></g><g id="Rock-6" data-name="Rock"><path class="cls-12" d="M345.93,338.56c26.74,0,26.05-5.68,21.75-11.4-6.48-8.62-23.73-6.61-31.37-4-10.72,3.69-6,15.38,9.62,15.38"/><path class="cls-13" d="M331.27,326.82s3.35-4.61,12.35-5.19,15.71-.7,19.92,2.05,4.52,4.07,4.52,4.07-1.05,3.55-2.25,4.44a15.91,15.91,0,0,1-7.53,2.19,42.54,42.54,0,0,0-8.42.22c-1.74.4-8.91-.4-10.52-1a36.12,36.12,0,0,1-7.26-4.91,4.36,4.36,0,0,1-.81-1.89"/><path class="cls-2" d="M345.94,339.06c-9.89,0-15.14-4.45-15.83-8.6-.57-3.36,1.69-6.26,6-7.76,7.17-2.46,25.16-4.84,31.93,4.16,1.52,2,3.12,4.66,1.95,7-1.77,3.54-9.42,5.19-24.09,5.19m4.89-17.63a47.47,47.47,0,0,0-14.35,2.22c-3.85,1.32-5.86,3.81-5.39,6.65.65,3.86,6,7.76,14.85,7.76,13.85,0,21.66-1.56,23.2-4.64.71-1.43.12-3.32-1.86-6-3.44-4.58-10-6-16.45-6"/><path class="cls-2" d="M346.9,335.34c-6.45,0-12.5-3-15-6.27a5,5,0,0,1-1-2.29l.36.11a9.61,9.61,0,0,0,3.94,4.1c3.77,2.24,10,3.7,14.05,3.22a63.34,63.34,0,0,1,6.51-.35c4.31-.08,8-.14,9.8-2.22A15.51,15.51,0,0,0,368,328s.31,0,.28.16a12.16,12.16,0,0,1-2,4.14c-2.06,2.42-6,2.49-10.54,2.57a63.94,63.94,0,0,0-6.41.34,19.75,19.75,0,0,1-2.42.14"/></g><g id="Rock-7" data-name="Rock"><path class="cls-12" d="M398.63,309.35c26.74,0,26.05-5.68,21.75-11.4-6.48-8.62-23.73-6.61-31.37-4-10.73,3.69-6,15.39,9.62,15.39"/><path class="cls-13" d="M384,297.6s3.35-4.6,12.35-5.18,15.71-.7,19.91,2.05,4.53,4.07,4.53,4.07-1.05,3.55-2.26,4.44a15.73,15.73,0,0,1-7.53,2.18,43.18,43.18,0,0,0-8.41.22c-1.74.41-8.92-.4-10.52-1a36.12,36.12,0,0,1-7.26-4.91,4.24,4.24,0,0,1-.81-1.9"/><path class="cls-2" d="M398.63,309.85c-9.89,0-15.13-4.46-15.83-8.6-.56-3.36,1.7-6.26,6.05-7.76,7.17-2.46,25.16-4.84,31.92,4.16,1.53,2,3.13,4.66,2,7-1.77,3.55-9.43,5.2-24.1,5.2m4.9-17.63a47.59,47.59,0,0,0-14.36,2.22c-3.84,1.32-5.86,3.8-5.38,6.64.64,3.86,5.95,7.77,14.84,7.77,13.86,0,21.67-1.56,23.21-4.64.71-1.43.12-3.33-1.86-6-3.44-4.58-10-6-16.45-6"/><path class="cls-2" d="M399.6,306.13c-6.45,0-12.5-3-15-6.28a4.94,4.94,0,0,1-1-2.28l.36.11a9.66,9.66,0,0,0,3.94,4.1c3.77,2.24,10,3.7,14,3.21,2.22-.26,4.4-.3,6.51-.34,4.31-.08,8-.14,9.8-2.22a15.83,15.83,0,0,0,2.45-3.65s.31,0,.28.16a12.25,12.25,0,0,1-2,4.14c-2.07,2.42-6,2.49-10.54,2.57A63.94,63.94,0,0,0,402,306a22,22,0,0,1-2.42.14"/></g><g id="Rock-8" data-name="Rock"><path class="cls-12" d="M470.4,352.81c26.74,0,26.05-5.68,21.75-11.4-6.48-8.62-23.73-6.61-31.37-4-10.72,3.69-6,15.38,9.62,15.38"/><path class="cls-13" d="M455.74,341.07s3.35-4.61,12.35-5.19,15.71-.7,19.92,2.05,4.52,4.07,4.52,4.07-1,3.55-2.25,4.44a15.91,15.91,0,0,1-7.53,2.19,42.54,42.54,0,0,0-8.42.22c-1.74.4-8.91-.4-10.52-1a36.12,36.12,0,0,1-7.26-4.91,4.36,4.36,0,0,1-.81-1.89"/><path class="cls-2" d="M470.41,353.31c-9.89,0-15.14-4.45-15.83-8.6-.57-3.36,1.69-6.26,6-7.76,7.17-2.46,25.16-4.84,31.93,4.16,1.52,2,3.12,4.66,1.95,7-1.77,3.54-9.42,5.19-24.09,5.19m4.89-17.63A47.47,47.47,0,0,0,461,337.9c-3.85,1.32-5.86,3.81-5.39,6.65.65,3.86,5.95,7.76,14.85,7.76,13.85,0,21.66-1.56,23.2-4.64.71-1.43.12-3.32-1.86-6-3.44-4.58-10-6-16.45-6"/><path class="cls-2" d="M471.37,349.59c-6.45,0-12.5-3-15-6.27a4.89,4.89,0,0,1-1-2.29l.36.11a9.61,9.61,0,0,0,3.94,4.1c3.77,2.24,10,3.7,14.05,3.22a63.34,63.34,0,0,1,6.51-.35c4.31-.08,8-.14,9.81-2.22a16.16,16.16,0,0,0,2.45-3.65s.3,0,.27.16a12.3,12.3,0,0,1-2,4.14c-2.07,2.42-6,2.49-10.55,2.57a63.94,63.94,0,0,0-6.41.34,19.75,19.75,0,0,1-2.42.14"/></g><g id="Rock-9" data-name="Rock"><path class="cls-12" d="M538.45,323.6c26.74,0,26-5.68,21.75-11.4-6.48-8.62-23.73-6.61-31.37-4-10.73,3.69-6,15.39,9.62,15.39"/><path class="cls-13" d="M523.79,311.85s3.35-4.6,12.35-5.18,15.71-.7,19.91,2.05,4.53,4.07,4.53,4.07-1.05,3.55-2.26,4.44a15.73,15.73,0,0,1-7.53,2.18,43.18,43.18,0,0,0-8.41.22c-1.74.41-8.92-.4-10.52-1a36.12,36.12,0,0,1-7.26-4.91,4.24,4.24,0,0,1-.81-1.9"/><path class="cls-2" d="M538.46,324.1c-9.89,0-15.14-4.46-15.84-8.6-.56-3.36,1.7-6.26,6-7.76,7.17-2.46,25.16-4.84,31.93,4.16,1.52,2,3.12,4.66,1.95,7-1.77,3.55-9.43,5.2-24.09,5.2m4.89-17.63A47.59,47.59,0,0,0,529,308.69c-3.84,1.32-5.86,3.8-5.38,6.64.64,3.86,5.95,7.77,14.85,7.77,13.85,0,21.66-1.56,23.2-4.64.71-1.43.12-3.33-1.86-6-3.44-4.58-10-6-16.45-6"/><path class="cls-2" d="M539.42,320.38c-6.45,0-12.5-3-15-6.28a4.94,4.94,0,0,1-1-2.28l.36.11a9.66,9.66,0,0,0,3.94,4.1c3.77,2.24,10,3.7,14.05,3.21,2.22-.26,4.4-.3,6.51-.34,4.31-.08,8-.14,9.8-2.22a15.83,15.83,0,0,0,2.45-3.65s.31,0,.28.16a12.25,12.25,0,0,1-2,4.14c-2.07,2.42-6,2.49-10.54,2.57a63.94,63.94,0,0,0-6.41.34,22,22,0,0,1-2.42.14"/></g></g></g></svg>