<svg xmlns="http://www.w3.org/2000/svg" xmlns:xlink="http://www.w3.org/1999/xlink" viewBox="0 0 566.93 566.93"><defs><style>.cls-1,.cls-7,.cls-9{fill:none;}.cls-2{fill:#1d1d1b;}.cls-3{fill:#eb9899;}.cls-4{fill:#f4ce6f;}.cls-5{fill:#bca061;}.cls-6{fill:#161616;}.cls-7,.cls-9{stroke:#000;stroke-miterlimit:10;}.cls-7{stroke-width:0.5px;}.cls-8{fill:url(#RBDots);}.cls-9{stroke-width:0.75px;}.cls-10{fill:#b79291;}.cls-11{fill:#a37979;}.cls-12{fill:url(#RBDots-3);}.cls-13{fill:#6e7891;}.cls-14{fill:#98a1b7;}</style><pattern id="RBDots" data-name="RBDots" width="28.8" height="28.8" patternTransform="translate(-8.2 23.76) rotate(18.91) scale(1.14)" patternUnits="userSpaceOnUse" viewBox="0 0 28.8 28.8"><rect class="cls-1" width="28.8" height="28.8"/><circle class="cls-2" cx="28.8" cy="28.8" r="0.72"/><path class="cls-2" d="M14.4,29.52a.72.72,0,1,0-.72-.72A.72.72,0,0,0,14.4,29.52Z"/><path class="cls-2" d="M28.8,15.12a.72.72,0,1,0-.72-.72A.72.72,0,0,0,28.8,15.12Z"/><path class="cls-2" d="M14.4,15.12a.72.72,0,1,0-.72-.72A.72.72,0,0,0,14.4,15.12Z"/><path class="cls-2" d="M7.2,22.32a.72.72,0,1,0-.72-.72A.72.72,0,0,0,7.2,22.32Z"/><path class="cls-2" d="M21.6,22.32a.72.72,0,1,0-.72-.72A.72.72,0,0,0,21.6,22.32Z"/><path class="cls-2" d="M14.4,22.32a.72.72,0,1,0-.72-.72A.72.72,0,0,0,14.4,22.32Z"/><path class="cls-2" d="M7.2,29.52a.72.72,0,1,0-.72-.72A.72.72,0,0,0,7.2,29.52Z"/><path class="cls-2" d="M21.82,29.52a.72.72,0,1,0-.72-.72A.72.72,0,0,0,21.82,29.52Z"/><path class="cls-2" d="M7.2,7.92a.72.72,0,1,0-.72-.72A.72.72,0,0,0,7.2,7.92Z"/><path class="cls-2" d="M7.2,15.12a.72.72,0,1,0-.72-.72A.72.72,0,0,0,7.2,15.12Z"/><path class="cls-2" d="M21.6,15.12a.72.72,0,1,0-.72-.72A.72.72,0,0,0,21.6,15.12Z"/><path class="cls-2" d="M14.4,7.92a.72.72,0,1,0-.72-.72A.72.72,0,0,0,14.4,7.92Z"/><path class="cls-2" d="M28.8,7.92a.72.72,0,1,0-.72-.72A.72.72,0,0,0,28.8,7.92Z"/><path class="cls-2" d="M21.6,7.92a.72.72,0,1,0-.72-.72A.72.72,0,0,0,21.6,7.92Z"/><path class="cls-2" d="M28.8,22.32a.72.72,0,1,0-.72-.72A.72.72,0,0,0,28.8,22.32Z"/><circle class="cls-2" cy="28.8" r="0.72"/><path class="cls-2" d="M0,15.12a.72.72,0,0,0,0-1.44.72.72,0,0,0-.72.72A.72.72,0,0,0,0,15.12Z"/><path class="cls-2" d="M0,7.92A.72.72,0,0,0,0,6.48a.72.72,0,0,0-.72.72A.72.72,0,0,0,0,7.92Z"/><path class="cls-2" d="M0,22.32a.72.72,0,0,0,0-1.44.72.72,0,0,0-.72.72A.72.72,0,0,0,0,22.32Z"/><circle class="cls-2" cx="28.8" r="0.72"/><path class="cls-2" d="M14.4.72A.72.72,0,0,0,15.12,0a.72.72,0,0,0-.72-.72.72.72,0,0,0-.72.72A.72.72,0,0,0,14.4.72Z"/><path class="cls-2" d="M7.2.72A.72.72,0,0,0,7.92,0,.72.72,0,0,0,7.2-.72.72.72,0,0,0,6.48,0,.72.72,0,0,0,7.2.72Z"/><path class="cls-2" d="M21.82.72A.72.72,0,0,0,22.54,0a.72.72,0,0,0-.72-.72A.72.72,0,0,0,21.1,0,.72.72,0,0,0,21.82.72Z"/><circle class="cls-2" r="0.72"/></pattern><pattern id="RBDots-3" data-name="RBDots" width="28.8" height="28.8" patternTransform="matrix(-0.99, -0.34, 0.34, -0.99, 144.58, 69.76)" patternUnits="userSpaceOnUse" viewBox="0 0 28.8 28.8"><rect class="cls-1" width="28.8" height="28.8"/><circle class="cls-2" cx="28.8" cy="28.8" r="0.72"/><path class="cls-2" d="M14.4,29.52a.72.72,0,1,0-.72-.72A.72.72,0,0,0,14.4,29.52Z"/><path class="cls-2" d="M28.8,15.12a.72.72,0,1,0-.72-.72A.72.72,0,0,0,28.8,15.12Z"/><path class="cls-2" d="M14.4,15.12a.72.72,0,1,0-.72-.72A.72.72,0,0,0,14.4,15.12Z"/><path class="cls-2" d="M7.2,22.32a.72.72,0,1,0-.72-.72A.72.72,0,0,0,7.2,22.32Z"/><path class="cls-2" d="M21.6,22.32a.72.72,0,1,0-.72-.72A.72.72,0,0,0,21.6,22.32Z"/><path class="cls-2" d="M14.4,22.32a.72.72,0,1,0-.72-.72A.72.72,0,0,0,14.4,22.32Z"/><path class="cls-2" d="M7.2,29.52a.72.72,0,1,0-.72-.72A.72.72,0,0,0,7.2,29.52Z"/><path class="cls-2" d="M21.82,29.52a.72.72,0,1,0-.72-.72A.72.72,0,0,0,21.82,29.52Z"/><path class="cls-2" d="M7.2,7.92a.72.72,0,1,0-.72-.72A.72.72,0,0,0,7.2,7.92Z"/><path class="cls-2" d="M7.2,15.12a.72.72,0,1,0-.72-.72A.72.72,0,0,0,7.2,15.12Z"/><path class="cls-2" d="M21.6,15.12a.72.72,0,1,0-.72-.72A.72.72,0,0,0,21.6,15.12Z"/><path class="cls-2" d="M14.4,7.92a.72.72,0,1,0-.72-.72A.72.72,0,0,0,14.4,7.92Z"/><path class="cls-2" d="M28.8,7.92a.72.72,0,1,0-.72-.72A.72.72,0,0,0,28.8,7.92Z"/><path class="cls-2" d="M21.6,7.92a.72.72,0,1,0-.72-.72A.72.72,0,0,0,21.6,7.92Z"/><path class="cls-2" d="M28.8,22.32a.72.72,0,1,0-.72-.72A.72.72,0,0,0,28.8,22.32Z"/><circle class="cls-2" cy="28.8" r="0.72"/><path class="cls-2" d="M0,15.12a.72.72,0,0,0,0-1.44.72.72,0,0,0-.72.72A.72.72,0,0,0,0,15.12Z"/><path class="cls-2" d="M0,7.92A.72.72,0,0,0,0,6.48a.72.72,0,0,0-.72.72A.72.72,0,0,0,0,7.92Z"/><path class="cls-2" d="M0,22.32a.72.72,0,0,0,0-1.44.72.72,0,0,0-.72.72A.72.72,0,0,0,0,22.32Z"/><circle class="cls-2" cx="28.8" r="0.72"/><path class="cls-2" d="M14.4.72A.72.72,0,0,0,15.12,0a.72.72,0,0,0-.72-.72.72.72,0,0,0-.72.72A.72.72,0,0,0,14.4.72Z"/><path class="cls-2" d="M7.2.72A.72.72,0,0,0,7.92,0,.72.72,0,0,0,7.2-.72.72.72,0,0,0,6.48,0,.72.72,0,0,0,7.2.72Z"/><path class="cls-2" d="M21.82.72A.72.72,0,0,0,22.54,0a.72.72,0,0,0-.72-.72A.72.72,0,0,0,21.1,0,.72.72,0,0,0,21.82.72Z"/><circle class="cls-2" r="0.72"/></pattern></defs><title>9</title><g id="_9" data-name="9"><g id="Back"><rect class="cls-3" width="566.93" height="566.93"/><polygon class="cls-4" points="195.34 148.93 195.35 148.93 195.34 148.93 115.01 117.78 34.68 150.41 34.67 150.41 34.67 150.41 34.67 150.41 34.68 150.41 115.01 181.56 195.34 148.93 195.35 148.93 195.34 148.93"/><path class="cls-5" d="M124.12,134.84c-11.19,0-20.44,6.06-22.16,14H90.76c-.65,0-1.18,1.19-1.18,2.65s.53,2.64,1.18,2.64H102c1.72,7.91,11,14,22.16,14,12.41,0,22.47-7.44,22.47-16.61S136.53,134.84,124.12,134.84Z"/><path class="cls-6" d="M88,126.83v26.09c0,.65,1.18,1.18,2.64,1.18s2.64-.53,2.64-1.18V126.83Z"/><ellipse class="cls-4" cx="90.6" cy="93.2" rx="26.17" ry="34.21"/><path class="cls-5" d="M90.6,127.41c14.46,0,26.17-15.31,26.17-34.21,0-14-6.44-26-15.67-31.34-13.62,2.67-26,15.93-30.13,34a52.63,52.63,0,0,0-1,18.5C74.81,122.29,82.24,127.41,90.6,127.41Z"/><ellipse class="cls-7" cx="90.6" cy="93.2" rx="26.17" ry="34.21"/><polygon class="cls-4" points="531.33 496.4 531.33 496.4 531.32 496.4 439.44 460.77 347.55 498.09 347.55 498.09 347.55 498.1 347.55 498.1 347.55 498.1 439.44 533.72 531.32 496.4 531.33 496.4 531.33 496.4"/><path class="cls-5" d="M475.46,471c-14.8,0-27,8-29.31,18.47H431.34c-.86,0-1.56,1.57-1.56,3.5s.7,3.5,1.56,3.5h14.81C448.42,507,460.66,515,475.46,515c16.42,0,29.73-9.83,29.73-22S491.88,471,475.46,471Z"/><polygon class="cls-8" points="531.33 496.4 531.33 496.4 531.32 496.4 439.44 460.77 347.55 498.09 347.55 498.09 347.55 498.1 347.55 498.1 347.55 498.1 439.44 533.72 531.32 496.4 531.33 496.4 531.33 496.4"/><path class="cls-6" d="M427.63,460.43v34.51c0,.87,1.56,1.57,3.49,1.57s3.5-.7,3.5-1.57V460.43Z"/><path class="cls-4" d="M463.58,454.07l-18.21-78c-3-13.05-21.47-13.44-25.06-.53l-21.88,78.55c0,7.16,14.64,13,32.69,13s32.69-5.81,32.69-13Z"/><path class="cls-5" d="M463.81,454.07h-.23l-18.21-78a12.94,12.94,0,0,0-2.87-5.69,10.12,10.12,0,0,0-4.81,6.25l-24.5,87.94c0,.13,0,.25.05.37A72,72,0,0,0,431.12,467C449.18,467,463.81,461.23,463.81,454.07Z"/><path class="cls-9" d="M463.58,454.07l-18.21-78c-3-13.05-21.47-13.44-25.06-.53l-21.88,78.55c0,7.16,14.64,13,32.69,13s32.69-5.81,32.69-13Z"/><path class="cls-10" d="M472,83.36c-15.53,0-28.13,6.48-28.13,14.46s12.6,14.46,28.13,14.46,28.13-6.47,28.13-14.46S487.53,83.36,472,83.36Z"/><path class="cls-11" d="M469.16,84.93c0-3-4.79-5.5-10.7-5.5s-10.71,2.46-10.71,5.5,4.8,5.51,10.71,5.51S469.16,88,469.16,84.93Z"/><path class="cls-11" d="M501.34,92.31c-8.16,0-14.78,3.41-14.78,7.6s6.62,7.6,14.78,7.6,14.78-3.4,14.78-7.6S509.51,92.31,501.34,92.31Z"/><path class="cls-12" d="M98.47,417a88.15,88.15,0,0,0-20.58,2.35A15.35,15.35,0,0,0,69.12,417c-5.91,0-10.7,2.46-10.7,5.5,0,1.37,1,2.62,2.59,3.59-6.9,4.31-11,9.83-11,15.85,0,13.77,21.72,24.94,48.51,24.94S147,455.68,147,441.91,125.26,417,98.47,417Z"/><g id="Rock"><path class="cls-13" d="M50.59,355.16c26.73,0,26.05-5.68,21.74-11.4-6.47-8.62-23.73-6.61-31.37-4-10.72,3.69-6,15.39,9.63,15.39"/><path class="cls-14" d="M35.92,343.42s3.35-4.61,12.35-5.19,15.71-.7,19.92,2,4.53,4.07,4.53,4.07-1.06,3.55-2.26,4.44A15.76,15.76,0,0,1,62.93,351a43.13,43.13,0,0,0-8.41.23c-1.75.4-8.92-.4-10.53-1a36.12,36.12,0,0,1-7.26-4.91,4.36,4.36,0,0,1-.81-1.89"/><path class="cls-2" d="M50.59,355.66c-9.89,0-15.14-4.46-15.83-8.6-.56-3.36,1.69-6.26,6-7.76,7.17-2.46,25.17-4.84,31.93,4.16,1.53,2,3.13,4.66,2,7-1.77,3.55-9.43,5.2-24.1,5.2M55.49,338a47.59,47.59,0,0,0-14.36,2.22c-3.85,1.32-5.86,3.8-5.39,6.64.65,3.86,6,7.77,14.85,7.77,13.86,0,21.66-1.56,23.2-4.64.72-1.43.12-3.33-1.86-6-3.44-4.58-10-6-16.44-6"/><path class="cls-2" d="M51.55,351.94c-6.45,0-12.5-3-15-6.28a5,5,0,0,1-1-2.28l.36.11a9.66,9.66,0,0,0,3.94,4.1c3.78,2.24,10,3.7,14.05,3.21,2.22-.26,4.41-.3,6.52-.34,4.3-.08,8-.14,9.8-2.22a16.16,16.16,0,0,0,2.45-3.65s.3,0,.27.16a12.39,12.39,0,0,1-2,4.14c-2.07,2.42-6,2.49-10.55,2.57a63.94,63.94,0,0,0-6.41.34,21.82,21.82,0,0,1-2.42.14"/></g><g id="Rock-2" data-name="Rock"><path class="cls-13" d="M110.72,324.9c26.73,0,26-5.68,21.74-11.4-6.48-8.62-23.73-6.61-31.37-4-10.72,3.69-6,15.39,9.63,15.39"/><path class="cls-14" d="M96.05,313.15s3.35-4.6,12.35-5.18,15.71-.7,19.92,2,4.52,4.07,4.52,4.07-1.05,3.55-2.25,4.44a15.8,15.8,0,0,1-7.53,2.18,43.31,43.31,0,0,0-8.42.22c-1.74.41-8.91-.4-10.52-1a36.12,36.12,0,0,1-7.26-4.91,4.38,4.38,0,0,1-.81-1.9"/><path class="cls-2" d="M110.72,325.4c-9.89,0-15.14-4.46-15.83-8.6-.57-3.36,1.69-6.26,6-7.76,7.17-2.46,25.17-4.84,31.93,4.16,1.53,2,3.13,4.66,1.95,7-1.77,3.55-9.42,5.2-24.09,5.2m4.9-17.63A47.59,47.59,0,0,0,101.26,310c-3.85,1.32-5.86,3.8-5.39,6.64.65,3.86,5.95,7.77,14.85,7.77,13.85,0,21.66-1.56,23.2-4.64.71-1.43.12-3.33-1.86-6-3.44-4.58-10-6-16.44-6"/><path class="cls-2" d="M111.68,321.68c-6.45,0-12.5-3-15-6.28a4.86,4.86,0,0,1-1-2.28l.36.11a9.66,9.66,0,0,0,3.94,4.1c3.77,2.24,10,3.7,14,3.21,2.22-.26,4.41-.3,6.52-.34,4.3-.08,8-.14,9.8-2.22a16.16,16.16,0,0,0,2.45-3.65s.3,0,.27.16a12.39,12.39,0,0,1-2,4.14c-2.07,2.42-6,2.49-10.55,2.57a63.94,63.94,0,0,0-6.41.34,22,22,0,0,1-2.42.14"/></g><g id="Rock-3" data-name="Rock"><path class="cls-13" d="M177.61,354.11c26.73,0,26-5.68,21.74-11.4-6.47-8.62-23.73-6.61-31.36-4-10.73,3.69-6,15.38,9.62,15.38"/><path class="cls-14" d="M163,342.37s3.34-4.61,12.34-5.19,15.72-.7,19.92,2.05,4.53,4.07,4.53,4.07-1.06,3.55-2.26,4.44a15.88,15.88,0,0,1-7.53,2.19,42.41,42.41,0,0,0-8.41.22c-1.75.4-8.92-.4-10.52-1a35.92,35.92,0,0,1-7.27-4.91,4.28,4.28,0,0,1-.8-1.89"/><path class="cls-2" d="M177.61,354.62c-9.89,0-15.14-4.46-15.83-8.61-.56-3.36,1.7-6.26,6-7.76,7.18-2.46,25.17-4.84,31.93,4.16,1.53,2,3.13,4.66,2,7-1.77,3.54-9.43,5.2-24.1,5.2m4.9-17.64a47.91,47.91,0,0,0-14.36,2.22c-3.85,1.32-5.86,3.81-5.38,6.65.64,3.86,5.95,7.77,14.84,7.77,13.86,0,21.67-1.57,23.2-4.65.72-1.43.13-3.32-1.86-6-3.43-4.57-10-6-16.44-6"/><path class="cls-2" d="M178.58,350.89c-6.45,0-12.51-3-15-6.27a5,5,0,0,1-1-2.29l.37.11a9.53,9.53,0,0,0,3.94,4.1c3.77,2.24,10,3.7,14,3.22a63.34,63.34,0,0,1,6.51-.35c4.3-.07,8-.14,9.8-2.21a16.08,16.08,0,0,0,2.45-3.66s.31,0,.27.16a12.11,12.11,0,0,1-2,4.14c-2.07,2.42-6,2.49-10.54,2.57a63.78,63.78,0,0,0-6.41.34,19.75,19.75,0,0,1-2.42.14"/></g><g id="Rock-4" data-name="Rock"><path class="cls-13" d="M211.26,310.65c26.73,0,26.05-5.68,21.74-11.4-6.47-8.62-23.73-6.61-31.36-4-10.73,3.69-6,15.39,9.62,15.39"/><path class="cls-14" d="M196.6,298.9s3.35-4.6,12.35-5.18,15.71-.7,19.91,2,4.53,4.07,4.53,4.07-1.06,3.55-2.26,4.44a15.76,15.76,0,0,1-7.53,2.18,43.18,43.18,0,0,0-8.41.22c-1.74.41-8.92-.4-10.52-1a36.21,36.21,0,0,1-7.27-4.91,4.3,4.3,0,0,1-.8-1.9"/><path class="cls-2" d="M211.26,311.15c-9.89,0-15.14-4.46-15.83-8.6-.56-3.36,1.7-6.26,6-7.76,7.18-2.46,25.17-4.84,31.93,4.16,1.53,2,3.13,4.66,2,7-1.77,3.55-9.43,5.2-24.1,5.2m4.9-17.63a47.59,47.59,0,0,0-14.36,2.22c-3.84,1.32-5.86,3.8-5.38,6.64.64,3.86,6,7.77,14.84,7.77,13.86,0,21.67-1.56,23.2-4.64.72-1.43.13-3.33-1.86-6-3.43-4.58-10-6-16.44-6"/><path class="cls-2" d="M212.23,307.43c-6.45,0-12.51-3-15-6.28a5,5,0,0,1-1-2.28l.37.11a9.59,9.59,0,0,0,3.94,4.1c3.77,2.24,10,3.7,14.05,3.21,2.22-.26,4.4-.3,6.51-.34,4.31-.08,8-.14,9.8-2.22a15.83,15.83,0,0,0,2.45-3.65s.31,0,.28.16a12.25,12.25,0,0,1-2,4.14c-2.07,2.42-6,2.49-10.54,2.57a63.78,63.78,0,0,0-6.41.34,22,22,0,0,1-2.42.14"/></g><g id="Rock-5" data-name="Rock"><path class="cls-13" d="M294.49,336.8c26.74,0,26.05-5.68,21.75-11.4-6.48-8.62-23.73-6.61-31.37-4-10.72,3.69-6,15.38,9.62,15.38"/><path class="cls-14" d="M279.83,325.06s3.35-4.61,12.35-5.19,15.71-.7,19.92,2.05,4.52,4.07,4.52,4.07-1.05,3.55-2.25,4.44a15.91,15.91,0,0,1-7.53,2.19,42.54,42.54,0,0,0-8.42.22c-1.74.4-8.91-.4-10.52-1a36.12,36.12,0,0,1-7.26-4.91,4.36,4.36,0,0,1-.81-1.89"/><path class="cls-2" d="M294.5,337.31c-9.89,0-15.14-4.46-15.83-8.61-.57-3.36,1.69-6.26,6-7.76,7.17-2.46,25.16-4.84,31.93,4.16,1.53,2,3.13,4.66,1.95,7-1.77,3.54-9.42,5.2-24.09,5.2m4.9-17.64A47.86,47.86,0,0,0,285,321.89c-3.85,1.32-5.86,3.81-5.39,6.65.65,3.86,6,7.77,14.85,7.77,13.85,0,21.66-1.57,23.2-4.65.71-1.43.12-3.32-1.86-6-3.44-4.57-10-6-16.44-6"/><path class="cls-2" d="M295.46,333.58c-6.45,0-12.5-3-15-6.27a4.89,4.89,0,0,1-1-2.29l.36.11a9.61,9.61,0,0,0,3.94,4.1c3.77,2.24,10,3.7,14.05,3.22a63.34,63.34,0,0,1,6.51-.35c4.31-.07,8-.14,9.81-2.21a16.42,16.42,0,0,0,2.45-3.66s.3,0,.27.16a12.3,12.3,0,0,1-2,4.14c-2.07,2.42-6,2.49-10.55,2.57a63.94,63.94,0,0,0-6.41.34,19.75,19.75,0,0,1-2.42.14"/></g></g></g></svg>