<svg xmlns="http://www.w3.org/2000/svg" viewBox="0 0 566.93 566.93"><defs><style>.cls-1{fill:#aa7272;}.cls-2{fill:#adadad;}.cls-3{fill:#7f7f80;}.cls-4{fill:none;stroke:#000;stroke-miterlimit:10;}</style></defs><title>9b</title><g id="_9" data-name="9"><g id="Fore"><path class="cls-1" d="M219.46,333.47c23.54,9.39,59-6,84.49,9.76,6.71,4.16-1.16,3.32,12.45,7.93,18.35,6.21,64.83-11.09,74.5-9.33,14.89,2.7,54.12,14.36,62.29-10s1.79-30.51-2.81-36.3-61.33-12.24-64.91-12.05-15.83,3.55-27.06,5.44-90.37,1.13-91.91,1-24.07,1.41-26.08,5S219.46,333.47,219.46,333.47Z"/><path class="cls-2" d="M313.66,351.16s-16.29-5.54-21-11.23-13.18-12.3-13.69-14.17a44.18,44.18,0,0,1-.8-6.12l.12,1.48-.09-.31L276,226.12a13.4,13.4,0,0,1-.41-2.26c-.51-5,1.77-10,5.62-11.76l29.54-13.43a7,7,0,0,1,7.76,1.36l-.06,0s6.67,6.46,12.08,12.17c7.53,7.94,10.32,21.5,10.32,21.5"/><path class="cls-3" d="M342.79,318.65l-1.35-85c-1.57-5.69-4.08,1.08-10.08-1l-21.49,6.69c-1.93.88-2.64.86-2.85,1.31l.45.45-.45-.45c-.2.42,0,1.24.15,3.54l3.45,75.46,3.62,31.52c2.25,2.42,27.2-17.19,27.2-17.19C345.88,332,342.16,326.21,342.79,318.65Z"/><path class="cls-4" d="M331,232.64c6,2.11,8.5-4.66,10.07,1l1.35,85c-.63,7.56,3.09,13.3-1.35,15.32,0,0-24.95,19.61-27.2,17.19l-3.62-31.52"/><path class="cls-4" d="M331,232.64l-21.5,6.69c-3.69,1.68-3,0-2.7,4.85l3.45,75.46"/><path class="cls-4" d="M278.6,321.12a2.81,2.81,0,0,1-.1-.31l-2.23-94.69a14.5,14.5,0,0,1-.42-2.26c-.5-5,1.77-10,5.63-11.76L311,198.67a7,7,0,0,1,7.76,1.36"/><path class="cls-4" d="M341.11,233.67s-2.78-13.56-10.31-21.5c-5.41-5.71-12.08-12.17-12.08-12.17"/><path d="M306.78,241.44a13.8,13.8,0,0,0-4.75-3.53,40.42,40.42,0,0,0-5.83-1.73h0a40.66,40.66,0,0,1,6,1.26,14.57,14.57,0,0,1,5.29,3.3Z"/><path d="M276.33,223.71a4.36,4.36,0,0,0,1.45,2.18c.34.31.72.61,1.11.9a6.64,6.64,0,0,1,1.09,1,6.13,6.13,0,0,0-1.23-.75c-.43-.22-.86-.45-1.28-.72a5.06,5.06,0,0,1-2.09-2.26Z"/><path class="cls-4" d="M313.91,351.16s-16.28-5.54-20.94-11.23-13.18-12.3-13.7-14.17a45.3,45.3,0,0,1-.79-6.12"/><path class="cls-2" d="M222.3,335.44c-.05.29-18.43-2.88-23-8.85-4.66-5.56-13.23-12.46-13.53-14.44a42.56,42.56,0,0,1-.07-6.34l-.06,1.53c0-.11,0-.22-.07-.32,3.29-32.67,5.34-65.22,6.47-97.6a14.15,14.15,0,0,1-.29-2.32c-.21-5.16,2.33-10.23,6.31-11.77a168.8,168.8,0,0,1,30.52-8.9c2.8-.51,5.66.88,7.76,3.3l-.06,0s6.33,7.87,11.43,14.43c7.09,9.22,9.21,21.11,9.22,21.11"/><path class="cls-3" d="M256.45,298c-.13-24.69.17-48.91,1.1-72.67-1.3-5.14-4.19,0-10.13-3a212,212,0,0,0-22.09,3c-2,.64-2.71.55-3,1,.14.15.29.31.43.48-.14-.17-.29-.33-.43-.48-.23.39,0,1.21-.06,3.48q-.49,37.13-1.2,74.59.88,15.53,1.86,30.92c2.76,2.08,32.08-23.52,31.79-23.41C259.78,308.79,255.64,304.86,256.45,298Z"/><path class="cls-4" d="M247.08,222.32c5.95,3,8.84-2.18,10.14,3-.94,23.81-1.24,48.08-1.13,72.81-.82,6.85,3.32,10.79-1.69,13.91.29-.11-29.05,25.47-31.8,23.38q-1-15.4-1.84-31"/><path class="cls-4" d="M247.08,222.32a217.4,217.4,0,0,0-22.08,3c-3.82,1.24-3-.26-3,4.47q-.5,37.16-1.23,74.65"/><path class="cls-4" d="M186,307.34a3,3,0,0,1-.07-.32c3.27-32.67,5.32-65.21,6.45-97.59a14.13,14.13,0,0,1-.29-2.33c-.21-5.15,2.33-10.21,6.3-11.75a168.73,168.73,0,0,1,30.53-8.86c2.8-.51,5.66.89,7.76,3.32"/><path class="cls-4" d="M257.22,225.29s-2.13-11.87-9.22-21.09c-5.1-6.56-11.43-14.44-11.43-14.44"/><path d="M222.15,227.12a15.33,15.33,0,0,0-4.74-4,42.93,42.93,0,0,0-5.67-2.21h0a40.63,40.63,0,0,1,5.82,1.73,15.33,15.33,0,0,1,5.24,3.81C222.59,226.66,222.37,226.89,222.15,227.12Z"/><path d="M192.48,207a4.56,4.56,0,0,0,1.39,2.31c.33.33.69.65,1,1a6.62,6.62,0,0,1,1,1,5.6,5.6,0,0,0-1.15-.79c-.4-.23-.8-.47-1.2-.75a5,5,0,0,1-2-2.44Z"/><path class="cls-4" d="M222.6,335.39c-.06.29-18.44-2.85-23-8.82-4.66-5.55-13.24-12.44-13.54-14.42a42.56,42.56,0,0,1-.07-6.34"/><path class="cls-2" d="M205.62,160a100.74,100.74,0,0,1,12.28-7.39c7.06-3.59,19.84-8,21.74-8a33.46,33.46,0,0,1,5.86,1l-1.39-.34h.32l86.5,27.72a10.78,10.78,0,0,1,2.22.23,10.57,10.57,0,0,1,8.32,10.3v38.57a10.57,10.57,0,0,1-4.42,8.57l.05-.07s-8.58,5.68-16,10.12c-10.28,6.19-23.68,5.09-23.68,5.09"/><path class="cls-3" d="M297.46,186.62c-18.24-.49-8.59-.66-9.49,3.6-.6,2.85-.31,29.4-.06,46.72l9.55,8.93s13.4,1.1,23.68-5.09c7.38-4.44,16-10.12,16-10.12l-.05.07a10.57,10.57,0,0,0,4.42-8.57V183.59a10.57,10.57,0,0,0-8.32-10.3c-.18,0-.37-.06-.56-.09-4.76,2.14-5.74,4.81-12.85,6.88C309.54,183.05,316.38,187.12,297.46,186.62Z"/><path class="cls-2" d="M302.55,234.51c-4.37,6.28.71,11.36-5.09,11.36L211,218.16c-6.58-3.15-10.53-4.74-10.53-10.54V169.05a10.52,10.52,0,0,1,5.19-9.06l.06-.05a10.53,10.53,0,0,1,5.28-1.42l22.94,7.35,61.28,18.81c1.57,1.34,4.19,1.68,5.08,1.94h0A10.59,10.59,0,0,1,308,196.77Z"/><path class="cls-4" d="M302.54,234.51c-4.37,6.27.72,11.36-5.08,11.36L211,218.16c-6.58-3.15-10.53-4.74-10.53-10.54V169.05a10.52,10.52,0,0,1,5.19-9.06l.06-.05a10.53,10.53,0,0,1,5.28-1.42l22.94,7.35"/><path class="cls-4" d="M302.54,234.51,308,196.77a10.59,10.59,0,0,0-7.73-10.15h0c-.89-.26-3.51-.6-5.08-1.94L233.9,165.87"/><path class="cls-4" d="M244.11,145.34h.32l86.5,27.72a10.78,10.78,0,0,1,2.22.23,10.57,10.57,0,0,1,8.32,10.3v38.57a10.57,10.57,0,0,1-4.42,8.57"/><path class="cls-4" d="M297.46,245.87s13.4,1.1,23.68-5.09c7.38-4.44,16-10.12,16-10.12"/><path d="M301.13,186.27a11.13,11.13,0,0,0,6,.11,43.8,43.8,0,0,0,5.8-2.27h0a44.83,44.83,0,0,1-5.66,2.75,11.78,11.78,0,0,1-6.37.37Z"/><path d="M333.17,173.79a4.72,4.72,0,0,0-2.68,1.11c-.43.31-.84.64-1.25,1a8.18,8.18,0,0,1-1.3,1,8.62,8.62,0,0,0,1.13-1.13c.35-.41.71-.81,1.1-1.19a8.35,8.35,0,0,1,1.28-1.07,4,4,0,0,1,1.67-.66Z"/><path class="cls-4" d="M205.62,160a100.74,100.74,0,0,1,12.28-7.39c7.06-3.59,19.84-8,21.74-8a33.46,33.46,0,0,1,5.86,1"/><path class="cls-2" d="M354.09,113.58l1.22.3Z"/></g></g></svg>